<?xml version="1.0" encoding="utf-8" standalone="no"?>
<!DOCTYPE svg PUBLIC "-//W3C//DTD SVG 1.1//EN"
  "http://www.w3.org/Graphics/SVG/1.1/DTD/svg11.dtd">
<!-- Created with matplotlib (https://matplotlib.org/) -->
<svg height="576pt" version="1.1" viewBox="0 0 1080 576" width="1080pt" xmlns="http://www.w3.org/2000/svg" xmlns:xlink="http://www.w3.org/1999/xlink">
 <metadata>
  <rdf:RDF xmlns:cc="http://creativecommons.org/ns#" xmlns:dc="http://purl.org/dc/elements/1.1/" xmlns:rdf="http://www.w3.org/1999/02/22-rdf-syntax-ns#">
   <cc:Work>
    <dc:type rdf:resource="http://purl.org/dc/dcmitype/StillImage"/>
    <dc:date>2020-08-30T12:19:28.581759</dc:date>
    <dc:format>image/svg+xml</dc:format>
    <dc:creator>
     <cc:Agent>
      <dc:title>Matplotlib v3.3.1, https://matplotlib.org/</dc:title>
     </cc:Agent>
    </dc:creator>
   </cc:Work>
  </rdf:RDF>
 </metadata>
 <defs>
  <style type="text/css">*{stroke-linecap:butt;stroke-linejoin:round;}</style>
 </defs>
 <g id="figure_1">
  <g id="patch_1">
   <path d="M 0 576 
L 1080 576 
L 1080 0 
L 0 0 
z
" style="fill:#ffffff;"/>
  </g>
  <g id="axes_1">
   <g id="patch_2">
    <path d="M 135 512.64 
L 972 512.64 
L 972 69.12 
L 135 69.12 
z
" style="fill:#ffffff;"/>
   </g>
   <g id="matplotlib.axis_1">
    <g id="xtick_1">
     <g id="line2d_1">
      <defs>
       <path d="M 0 0 
L 0 3.5 
" id="m07b0b95340" style="stroke:#000000;stroke-width:0.8;"/>
      </defs>
      <g>
       <use style="stroke:#000000;stroke-width:0.8;" x="173.045455" xlink:href="#m07b0b95340" y="512.64"/>
      </g>
     </g>
     <g id="text_1">
      <!-- 2020-01-22 -->
      <g transform="translate(143.987642 527.238438)scale(0.1 -0.1)">
       <defs>
        <path d="M 19.1875 8.296875 
L 53.609375 8.296875 
L 53.609375 0 
L 7.328125 0 
L 7.328125 8.296875 
Q 12.9375 14.109375 22.625 23.890625 
Q 32.328125 33.6875 34.8125 36.53125 
Q 39.546875 41.84375 41.421875 45.53125 
Q 43.3125 49.21875 43.3125 52.78125 
Q 43.3125 58.59375 39.234375 62.25 
Q 35.15625 65.921875 28.609375 65.921875 
Q 23.96875 65.921875 18.8125 64.3125 
Q 13.671875 62.703125 7.8125 59.421875 
L 7.8125 69.390625 
Q 13.765625 71.78125 18.9375 73 
Q 24.125 74.21875 28.421875 74.21875 
Q 39.75 74.21875 46.484375 68.546875 
Q 53.21875 62.890625 53.21875 53.421875 
Q 53.21875 48.921875 51.53125 44.890625 
Q 49.859375 40.875 45.40625 35.40625 
Q 44.1875 33.984375 37.640625 27.21875 
Q 31.109375 20.453125 19.1875 8.296875 
z
" id="DejaVuSans-50"/>
        <path d="M 31.78125 66.40625 
Q 24.171875 66.40625 20.328125 58.90625 
Q 16.5 51.421875 16.5 36.375 
Q 16.5 21.390625 20.328125 13.890625 
Q 24.171875 6.390625 31.78125 6.390625 
Q 39.453125 6.390625 43.28125 13.890625 
Q 47.125 21.390625 47.125 36.375 
Q 47.125 51.421875 43.28125 58.90625 
Q 39.453125 66.40625 31.78125 66.40625 
z
M 31.78125 74.21875 
Q 44.046875 74.21875 50.515625 64.515625 
Q 56.984375 54.828125 56.984375 36.375 
Q 56.984375 17.96875 50.515625 8.265625 
Q 44.046875 -1.421875 31.78125 -1.421875 
Q 19.53125 -1.421875 13.0625 8.265625 
Q 6.59375 17.96875 6.59375 36.375 
Q 6.59375 54.828125 13.0625 64.515625 
Q 19.53125 74.21875 31.78125 74.21875 
z
" id="DejaVuSans-48"/>
        <path d="M 4.890625 31.390625 
L 31.203125 31.390625 
L 31.203125 23.390625 
L 4.890625 23.390625 
z
" id="DejaVuSans-45"/>
        <path d="M 12.40625 8.296875 
L 28.515625 8.296875 
L 28.515625 63.921875 
L 10.984375 60.40625 
L 10.984375 69.390625 
L 28.421875 72.90625 
L 38.28125 72.90625 
L 38.28125 8.296875 
L 54.390625 8.296875 
L 54.390625 0 
L 12.40625 0 
z
" id="DejaVuSans-49"/>
       </defs>
       <use xlink:href="#DejaVuSans-50"/>
       <use x="63.623047" xlink:href="#DejaVuSans-48"/>
       <use x="127.246094" xlink:href="#DejaVuSans-50"/>
       <use x="190.869141" xlink:href="#DejaVuSans-48"/>
       <use x="254.492188" xlink:href="#DejaVuSans-45"/>
       <use x="290.576172" xlink:href="#DejaVuSans-48"/>
       <use x="354.199219" xlink:href="#DejaVuSans-49"/>
       <use x="417.822266" xlink:href="#DejaVuSans-45"/>
       <use x="453.90625" xlink:href="#DejaVuSans-50"/>
       <use x="517.529297" xlink:href="#DejaVuSans-50"/>
      </g>
     </g>
    </g>
    <g id="xtick_2">
     <g id="line2d_2">
      <g>
       <use style="stroke:#000000;stroke-width:0.8;" x="345.979339" xlink:href="#m07b0b95340" y="512.64"/>
      </g>
     </g>
     <g id="text_2">
      <!-- 2020-03-12 -->
      <g transform="translate(316.921526 527.238438)scale(0.1 -0.1)">
       <defs>
        <path d="M 40.578125 39.3125 
Q 47.65625 37.796875 51.625 33 
Q 55.609375 28.21875 55.609375 21.1875 
Q 55.609375 10.40625 48.1875 4.484375 
Q 40.765625 -1.421875 27.09375 -1.421875 
Q 22.515625 -1.421875 17.65625 -0.515625 
Q 12.796875 0.390625 7.625 2.203125 
L 7.625 11.71875 
Q 11.71875 9.328125 16.59375 8.109375 
Q 21.484375 6.890625 26.8125 6.890625 
Q 36.078125 6.890625 40.9375 10.546875 
Q 45.796875 14.203125 45.796875 21.1875 
Q 45.796875 27.640625 41.28125 31.265625 
Q 36.765625 34.90625 28.71875 34.90625 
L 20.21875 34.90625 
L 20.21875 43.015625 
L 29.109375 43.015625 
Q 36.375 43.015625 40.234375 45.921875 
Q 44.09375 48.828125 44.09375 54.296875 
Q 44.09375 59.90625 40.109375 62.90625 
Q 36.140625 65.921875 28.71875 65.921875 
Q 24.65625 65.921875 20.015625 65.03125 
Q 15.375 64.15625 9.8125 62.3125 
L 9.8125 71.09375 
Q 15.4375 72.65625 20.34375 73.4375 
Q 25.25 74.21875 29.59375 74.21875 
Q 40.828125 74.21875 47.359375 69.109375 
Q 53.90625 64.015625 53.90625 55.328125 
Q 53.90625 49.265625 50.4375 45.09375 
Q 46.96875 40.921875 40.578125 39.3125 
z
" id="DejaVuSans-51"/>
       </defs>
       <use xlink:href="#DejaVuSans-50"/>
       <use x="63.623047" xlink:href="#DejaVuSans-48"/>
       <use x="127.246094" xlink:href="#DejaVuSans-50"/>
       <use x="190.869141" xlink:href="#DejaVuSans-48"/>
       <use x="254.492188" xlink:href="#DejaVuSans-45"/>
       <use x="290.576172" xlink:href="#DejaVuSans-48"/>
       <use x="354.199219" xlink:href="#DejaVuSans-51"/>
       <use x="417.822266" xlink:href="#DejaVuSans-45"/>
       <use x="453.90625" xlink:href="#DejaVuSans-49"/>
       <use x="517.529297" xlink:href="#DejaVuSans-50"/>
      </g>
     </g>
    </g>
    <g id="xtick_3">
     <g id="line2d_3">
      <g>
       <use style="stroke:#000000;stroke-width:0.8;" x="518.913223" xlink:href="#m07b0b95340" y="512.64"/>
      </g>
     </g>
     <g id="text_3">
      <!-- 2020-05-01 -->
      <g transform="translate(489.855411 527.238438)scale(0.1 -0.1)">
       <defs>
        <path d="M 10.796875 72.90625 
L 49.515625 72.90625 
L 49.515625 64.59375 
L 19.828125 64.59375 
L 19.828125 46.734375 
Q 21.96875 47.46875 24.109375 47.828125 
Q 26.265625 48.1875 28.421875 48.1875 
Q 40.625 48.1875 47.75 41.5 
Q 54.890625 34.8125 54.890625 23.390625 
Q 54.890625 11.625 47.5625 5.09375 
Q 40.234375 -1.421875 26.90625 -1.421875 
Q 22.3125 -1.421875 17.546875 -0.640625 
Q 12.796875 0.140625 7.71875 1.703125 
L 7.71875 11.625 
Q 12.109375 9.234375 16.796875 8.0625 
Q 21.484375 6.890625 26.703125 6.890625 
Q 35.15625 6.890625 40.078125 11.328125 
Q 45.015625 15.765625 45.015625 23.390625 
Q 45.015625 31 40.078125 35.4375 
Q 35.15625 39.890625 26.703125 39.890625 
Q 22.75 39.890625 18.8125 39.015625 
Q 14.890625 38.140625 10.796875 36.28125 
z
" id="DejaVuSans-53"/>
       </defs>
       <use xlink:href="#DejaVuSans-50"/>
       <use x="63.623047" xlink:href="#DejaVuSans-48"/>
       <use x="127.246094" xlink:href="#DejaVuSans-50"/>
       <use x="190.869141" xlink:href="#DejaVuSans-48"/>
       <use x="254.492188" xlink:href="#DejaVuSans-45"/>
       <use x="290.576172" xlink:href="#DejaVuSans-48"/>
       <use x="354.199219" xlink:href="#DejaVuSans-53"/>
       <use x="417.822266" xlink:href="#DejaVuSans-45"/>
       <use x="453.90625" xlink:href="#DejaVuSans-48"/>
       <use x="517.529297" xlink:href="#DejaVuSans-49"/>
      </g>
     </g>
    </g>
    <g id="xtick_4">
     <g id="line2d_4">
      <g>
       <use style="stroke:#000000;stroke-width:0.8;" x="691.847107" xlink:href="#m07b0b95340" y="512.64"/>
      </g>
     </g>
     <g id="text_4">
      <!-- 2020-06-20 -->
      <g transform="translate(662.789295 527.238438)scale(0.1 -0.1)">
       <defs>
        <path d="M 33.015625 40.375 
Q 26.375 40.375 22.484375 35.828125 
Q 18.609375 31.296875 18.609375 23.390625 
Q 18.609375 15.53125 22.484375 10.953125 
Q 26.375 6.390625 33.015625 6.390625 
Q 39.65625 6.390625 43.53125 10.953125 
Q 47.40625 15.53125 47.40625 23.390625 
Q 47.40625 31.296875 43.53125 35.828125 
Q 39.65625 40.375 33.015625 40.375 
z
M 52.59375 71.296875 
L 52.59375 62.3125 
Q 48.875 64.0625 45.09375 64.984375 
Q 41.3125 65.921875 37.59375 65.921875 
Q 27.828125 65.921875 22.671875 59.328125 
Q 17.53125 52.734375 16.796875 39.40625 
Q 19.671875 43.65625 24.015625 45.921875 
Q 28.375 48.1875 33.59375 48.1875 
Q 44.578125 48.1875 50.953125 41.515625 
Q 57.328125 34.859375 57.328125 23.390625 
Q 57.328125 12.15625 50.6875 5.359375 
Q 44.046875 -1.421875 33.015625 -1.421875 
Q 20.359375 -1.421875 13.671875 8.265625 
Q 6.984375 17.96875 6.984375 36.375 
Q 6.984375 53.65625 15.1875 63.9375 
Q 23.390625 74.21875 37.203125 74.21875 
Q 40.921875 74.21875 44.703125 73.484375 
Q 48.484375 72.75 52.59375 71.296875 
z
" id="DejaVuSans-54"/>
       </defs>
       <use xlink:href="#DejaVuSans-50"/>
       <use x="63.623047" xlink:href="#DejaVuSans-48"/>
       <use x="127.246094" xlink:href="#DejaVuSans-50"/>
       <use x="190.869141" xlink:href="#DejaVuSans-48"/>
       <use x="254.492188" xlink:href="#DejaVuSans-45"/>
       <use x="290.576172" xlink:href="#DejaVuSans-48"/>
       <use x="354.199219" xlink:href="#DejaVuSans-54"/>
       <use x="417.822266" xlink:href="#DejaVuSans-45"/>
       <use x="453.90625" xlink:href="#DejaVuSans-50"/>
       <use x="517.529297" xlink:href="#DejaVuSans-48"/>
      </g>
     </g>
    </g>
    <g id="xtick_5">
     <g id="line2d_5">
      <g>
       <use style="stroke:#000000;stroke-width:0.8;" x="864.780992" xlink:href="#m07b0b95340" y="512.64"/>
      </g>
     </g>
     <g id="text_5">
      <!-- 2020-08-09 -->
      <g transform="translate(835.723179 527.238438)scale(0.1 -0.1)">
       <defs>
        <path d="M 31.78125 34.625 
Q 24.75 34.625 20.71875 30.859375 
Q 16.703125 27.09375 16.703125 20.515625 
Q 16.703125 13.921875 20.71875 10.15625 
Q 24.75 6.390625 31.78125 6.390625 
Q 38.8125 6.390625 42.859375 10.171875 
Q 46.921875 13.96875 46.921875 20.515625 
Q 46.921875 27.09375 42.890625 30.859375 
Q 38.875 34.625 31.78125 34.625 
z
M 21.921875 38.8125 
Q 15.578125 40.375 12.03125 44.71875 
Q 8.5 49.078125 8.5 55.328125 
Q 8.5 64.0625 14.71875 69.140625 
Q 20.953125 74.21875 31.78125 74.21875 
Q 42.671875 74.21875 48.875 69.140625 
Q 55.078125 64.0625 55.078125 55.328125 
Q 55.078125 49.078125 51.53125 44.71875 
Q 48 40.375 41.703125 38.8125 
Q 48.828125 37.15625 52.796875 32.3125 
Q 56.78125 27.484375 56.78125 20.515625 
Q 56.78125 9.90625 50.3125 4.234375 
Q 43.84375 -1.421875 31.78125 -1.421875 
Q 19.734375 -1.421875 13.25 4.234375 
Q 6.78125 9.90625 6.78125 20.515625 
Q 6.78125 27.484375 10.78125 32.3125 
Q 14.796875 37.15625 21.921875 38.8125 
z
M 18.3125 54.390625 
Q 18.3125 48.734375 21.84375 45.5625 
Q 25.390625 42.390625 31.78125 42.390625 
Q 38.140625 42.390625 41.71875 45.5625 
Q 45.3125 48.734375 45.3125 54.390625 
Q 45.3125 60.0625 41.71875 63.234375 
Q 38.140625 66.40625 31.78125 66.40625 
Q 25.390625 66.40625 21.84375 63.234375 
Q 18.3125 60.0625 18.3125 54.390625 
z
" id="DejaVuSans-56"/>
        <path d="M 10.984375 1.515625 
L 10.984375 10.5 
Q 14.703125 8.734375 18.5 7.8125 
Q 22.3125 6.890625 25.984375 6.890625 
Q 35.75 6.890625 40.890625 13.453125 
Q 46.046875 20.015625 46.78125 33.40625 
Q 43.953125 29.203125 39.59375 26.953125 
Q 35.25 24.703125 29.984375 24.703125 
Q 19.046875 24.703125 12.671875 31.3125 
Q 6.296875 37.9375 6.296875 49.421875 
Q 6.296875 60.640625 12.9375 67.421875 
Q 19.578125 74.21875 30.609375 74.21875 
Q 43.265625 74.21875 49.921875 64.515625 
Q 56.59375 54.828125 56.59375 36.375 
Q 56.59375 19.140625 48.40625 8.859375 
Q 40.234375 -1.421875 26.421875 -1.421875 
Q 22.703125 -1.421875 18.890625 -0.6875 
Q 15.09375 0.046875 10.984375 1.515625 
z
M 30.609375 32.421875 
Q 37.25 32.421875 41.125 36.953125 
Q 45.015625 41.5 45.015625 49.421875 
Q 45.015625 57.28125 41.125 61.84375 
Q 37.25 66.40625 30.609375 66.40625 
Q 23.96875 66.40625 20.09375 61.84375 
Q 16.21875 57.28125 16.21875 49.421875 
Q 16.21875 41.5 20.09375 36.953125 
Q 23.96875 32.421875 30.609375 32.421875 
z
" id="DejaVuSans-57"/>
       </defs>
       <use xlink:href="#DejaVuSans-50"/>
       <use x="63.623047" xlink:href="#DejaVuSans-48"/>
       <use x="127.246094" xlink:href="#DejaVuSans-50"/>
       <use x="190.869141" xlink:href="#DejaVuSans-48"/>
       <use x="254.492188" xlink:href="#DejaVuSans-45"/>
       <use x="290.576172" xlink:href="#DejaVuSans-48"/>
       <use x="354.199219" xlink:href="#DejaVuSans-56"/>
       <use x="417.822266" xlink:href="#DejaVuSans-45"/>
       <use x="453.90625" xlink:href="#DejaVuSans-48"/>
       <use x="517.529297" xlink:href="#DejaVuSans-57"/>
      </g>
     </g>
    </g>
    <g id="text_6">
     <!-- Date -->
     <g transform="translate(541.549219 540.916563)scale(0.1 -0.1)">
      <defs>
       <path d="M 19.671875 64.796875 
L 19.671875 8.109375 
L 31.59375 8.109375 
Q 46.6875 8.109375 53.6875 14.9375 
Q 60.6875 21.78125 60.6875 36.53125 
Q 60.6875 51.171875 53.6875 57.984375 
Q 46.6875 64.796875 31.59375 64.796875 
z
M 9.8125 72.90625 
L 30.078125 72.90625 
Q 51.265625 72.90625 61.171875 64.09375 
Q 71.09375 55.28125 71.09375 36.53125 
Q 71.09375 17.671875 61.125 8.828125 
Q 51.171875 0 30.078125 0 
L 9.8125 0 
z
" id="DejaVuSans-68"/>
       <path d="M 34.28125 27.484375 
Q 23.390625 27.484375 19.1875 25 
Q 14.984375 22.515625 14.984375 16.5 
Q 14.984375 11.71875 18.140625 8.90625 
Q 21.296875 6.109375 26.703125 6.109375 
Q 34.1875 6.109375 38.703125 11.40625 
Q 43.21875 16.703125 43.21875 25.484375 
L 43.21875 27.484375 
z
M 52.203125 31.203125 
L 52.203125 0 
L 43.21875 0 
L 43.21875 8.296875 
Q 40.140625 3.328125 35.546875 0.953125 
Q 30.953125 -1.421875 24.3125 -1.421875 
Q 15.921875 -1.421875 10.953125 3.296875 
Q 6 8.015625 6 15.921875 
Q 6 25.140625 12.171875 29.828125 
Q 18.359375 34.515625 30.609375 34.515625 
L 43.21875 34.515625 
L 43.21875 35.40625 
Q 43.21875 41.609375 39.140625 45 
Q 35.0625 48.390625 27.6875 48.390625 
Q 23 48.390625 18.546875 47.265625 
Q 14.109375 46.140625 10.015625 43.890625 
L 10.015625 52.203125 
Q 14.9375 54.109375 19.578125 55.046875 
Q 24.21875 56 28.609375 56 
Q 40.484375 56 46.34375 49.84375 
Q 52.203125 43.703125 52.203125 31.203125 
z
" id="DejaVuSans-97"/>
       <path d="M 18.3125 70.21875 
L 18.3125 54.6875 
L 36.8125 54.6875 
L 36.8125 47.703125 
L 18.3125 47.703125 
L 18.3125 18.015625 
Q 18.3125 11.328125 20.140625 9.421875 
Q 21.96875 7.515625 27.59375 7.515625 
L 36.8125 7.515625 
L 36.8125 0 
L 27.59375 0 
Q 17.1875 0 13.234375 3.875 
Q 9.28125 7.765625 9.28125 18.015625 
L 9.28125 47.703125 
L 2.6875 47.703125 
L 2.6875 54.6875 
L 9.28125 54.6875 
L 9.28125 70.21875 
z
" id="DejaVuSans-116"/>
       <path d="M 56.203125 29.59375 
L 56.203125 25.203125 
L 14.890625 25.203125 
Q 15.484375 15.921875 20.484375 11.0625 
Q 25.484375 6.203125 34.421875 6.203125 
Q 39.59375 6.203125 44.453125 7.46875 
Q 49.3125 8.734375 54.109375 11.28125 
L 54.109375 2.78125 
Q 49.265625 0.734375 44.1875 -0.34375 
Q 39.109375 -1.421875 33.890625 -1.421875 
Q 20.796875 -1.421875 13.15625 6.1875 
Q 5.515625 13.8125 5.515625 26.8125 
Q 5.515625 40.234375 12.765625 48.109375 
Q 20.015625 56 32.328125 56 
Q 43.359375 56 49.78125 48.890625 
Q 56.203125 41.796875 56.203125 29.59375 
z
M 47.21875 32.234375 
Q 47.125 39.59375 43.09375 43.984375 
Q 39.0625 48.390625 32.421875 48.390625 
Q 24.90625 48.390625 20.390625 44.140625 
Q 15.875 39.890625 15.1875 32.171875 
z
" id="DejaVuSans-101"/>
      </defs>
      <use xlink:href="#DejaVuSans-68"/>
      <use x="77.001953" xlink:href="#DejaVuSans-97"/>
      <use x="138.28125" xlink:href="#DejaVuSans-116"/>
      <use x="177.490234" xlink:href="#DejaVuSans-101"/>
     </g>
    </g>
   </g>
   <g id="matplotlib.axis_2">
    <g id="ytick_1">
     <g id="line2d_6">
      <defs>
       <path d="M 0 0 
L -3.5 0 
" id="mc5eb78e907" style="stroke:#000000;stroke-width:0.8;"/>
      </defs>
      <g>
       <use style="stroke:#000000;stroke-width:0.8;" x="135" xlink:href="#mc5eb78e907" y="492.48"/>
      </g>
     </g>
     <g id="text_7">
      <!-- 0 -->
      <g transform="translate(121.6375 496.279219)scale(0.1 -0.1)">
       <use xlink:href="#DejaVuSans-48"/>
      </g>
     </g>
    </g>
    <g id="ytick_2">
     <g id="line2d_7">
      <g>
       <use style="stroke:#000000;stroke-width:0.8;" x="135" xlink:href="#mc5eb78e907" y="432.949863"/>
      </g>
     </g>
     <g id="text_8">
      <!-- 25000 -->
      <g transform="translate(96.1875 436.749082)scale(0.1 -0.1)">
       <use xlink:href="#DejaVuSans-50"/>
       <use x="63.623047" xlink:href="#DejaVuSans-53"/>
       <use x="127.246094" xlink:href="#DejaVuSans-48"/>
       <use x="190.869141" xlink:href="#DejaVuSans-48"/>
       <use x="254.492188" xlink:href="#DejaVuSans-48"/>
      </g>
     </g>
    </g>
    <g id="ytick_3">
     <g id="line2d_8">
      <g>
       <use style="stroke:#000000;stroke-width:0.8;" x="135" xlink:href="#mc5eb78e907" y="373.419726"/>
      </g>
     </g>
     <g id="text_9">
      <!-- 50000 -->
      <g transform="translate(96.1875 377.218944)scale(0.1 -0.1)">
       <use xlink:href="#DejaVuSans-53"/>
       <use x="63.623047" xlink:href="#DejaVuSans-48"/>
       <use x="127.246094" xlink:href="#DejaVuSans-48"/>
       <use x="190.869141" xlink:href="#DejaVuSans-48"/>
       <use x="254.492188" xlink:href="#DejaVuSans-48"/>
      </g>
     </g>
    </g>
    <g id="ytick_4">
     <g id="line2d_9">
      <g>
       <use style="stroke:#000000;stroke-width:0.8;" x="135" xlink:href="#mc5eb78e907" y="313.889589"/>
      </g>
     </g>
     <g id="text_10">
      <!-- 75000 -->
      <g transform="translate(96.1875 317.688807)scale(0.1 -0.1)">
       <defs>
        <path d="M 8.203125 72.90625 
L 55.078125 72.90625 
L 55.078125 68.703125 
L 28.609375 0 
L 18.3125 0 
L 43.21875 64.59375 
L 8.203125 64.59375 
z
" id="DejaVuSans-55"/>
       </defs>
       <use xlink:href="#DejaVuSans-55"/>
       <use x="63.623047" xlink:href="#DejaVuSans-53"/>
       <use x="127.246094" xlink:href="#DejaVuSans-48"/>
       <use x="190.869141" xlink:href="#DejaVuSans-48"/>
       <use x="254.492188" xlink:href="#DejaVuSans-48"/>
      </g>
     </g>
    </g>
    <g id="ytick_5">
     <g id="line2d_10">
      <g>
       <use style="stroke:#000000;stroke-width:0.8;" x="135" xlink:href="#mc5eb78e907" y="254.359451"/>
      </g>
     </g>
     <g id="text_11">
      <!-- 100000 -->
      <g transform="translate(89.825 258.15867)scale(0.1 -0.1)">
       <use xlink:href="#DejaVuSans-49"/>
       <use x="63.623047" xlink:href="#DejaVuSans-48"/>
       <use x="127.246094" xlink:href="#DejaVuSans-48"/>
       <use x="190.869141" xlink:href="#DejaVuSans-48"/>
       <use x="254.492188" xlink:href="#DejaVuSans-48"/>
       <use x="318.115234" xlink:href="#DejaVuSans-48"/>
      </g>
     </g>
    </g>
    <g id="ytick_6">
     <g id="line2d_11">
      <g>
       <use style="stroke:#000000;stroke-width:0.8;" x="135" xlink:href="#mc5eb78e907" y="194.829314"/>
      </g>
     </g>
     <g id="text_12">
      <!-- 125000 -->
      <g transform="translate(89.825 198.628533)scale(0.1 -0.1)">
       <use xlink:href="#DejaVuSans-49"/>
       <use x="63.623047" xlink:href="#DejaVuSans-50"/>
       <use x="127.246094" xlink:href="#DejaVuSans-53"/>
       <use x="190.869141" xlink:href="#DejaVuSans-48"/>
       <use x="254.492188" xlink:href="#DejaVuSans-48"/>
       <use x="318.115234" xlink:href="#DejaVuSans-48"/>
      </g>
     </g>
    </g>
    <g id="ytick_7">
     <g id="line2d_12">
      <g>
       <use style="stroke:#000000;stroke-width:0.8;" x="135" xlink:href="#mc5eb78e907" y="135.299177"/>
      </g>
     </g>
     <g id="text_13">
      <!-- 150000 -->
      <g transform="translate(89.825 139.098396)scale(0.1 -0.1)">
       <use xlink:href="#DejaVuSans-49"/>
       <use x="63.623047" xlink:href="#DejaVuSans-53"/>
       <use x="127.246094" xlink:href="#DejaVuSans-48"/>
       <use x="190.869141" xlink:href="#DejaVuSans-48"/>
       <use x="254.492188" xlink:href="#DejaVuSans-48"/>
       <use x="318.115234" xlink:href="#DejaVuSans-48"/>
      </g>
     </g>
    </g>
    <g id="ytick_8">
     <g id="line2d_13">
      <g>
       <use style="stroke:#000000;stroke-width:0.8;" x="135" xlink:href="#mc5eb78e907" y="75.76904"/>
      </g>
     </g>
     <g id="text_14">
      <!-- 175000 -->
      <g transform="translate(89.825 79.568259)scale(0.1 -0.1)">
       <use xlink:href="#DejaVuSans-49"/>
       <use x="63.623047" xlink:href="#DejaVuSans-55"/>
       <use x="127.246094" xlink:href="#DejaVuSans-53"/>
       <use x="190.869141" xlink:href="#DejaVuSans-48"/>
       <use x="254.492188" xlink:href="#DejaVuSans-48"/>
       <use x="318.115234" xlink:href="#DejaVuSans-48"/>
      </g>
     </g>
    </g>
    <g id="text_15">
     <!-- Trend -->
     <g transform="translate(83.745312 304.558906)rotate(-90)scale(0.1 -0.1)">
      <defs>
       <path d="M -0.296875 72.90625 
L 61.375 72.90625 
L 61.375 64.59375 
L 35.5 64.59375 
L 35.5 0 
L 25.59375 0 
L 25.59375 64.59375 
L -0.296875 64.59375 
z
" id="DejaVuSans-84"/>
       <path d="M 41.109375 46.296875 
Q 39.59375 47.171875 37.8125 47.578125 
Q 36.03125 48 33.890625 48 
Q 26.265625 48 22.1875 43.046875 
Q 18.109375 38.09375 18.109375 28.8125 
L 18.109375 0 
L 9.078125 0 
L 9.078125 54.6875 
L 18.109375 54.6875 
L 18.109375 46.1875 
Q 20.953125 51.171875 25.484375 53.578125 
Q 30.03125 56 36.53125 56 
Q 37.453125 56 38.578125 55.875 
Q 39.703125 55.765625 41.0625 55.515625 
z
" id="DejaVuSans-114"/>
       <path d="M 54.890625 33.015625 
L 54.890625 0 
L 45.90625 0 
L 45.90625 32.71875 
Q 45.90625 40.484375 42.875 44.328125 
Q 39.84375 48.1875 33.796875 48.1875 
Q 26.515625 48.1875 22.3125 43.546875 
Q 18.109375 38.921875 18.109375 30.90625 
L 18.109375 0 
L 9.078125 0 
L 9.078125 54.6875 
L 18.109375 54.6875 
L 18.109375 46.1875 
Q 21.34375 51.125 25.703125 53.5625 
Q 30.078125 56 35.796875 56 
Q 45.21875 56 50.046875 50.171875 
Q 54.890625 44.34375 54.890625 33.015625 
z
" id="DejaVuSans-110"/>
       <path d="M 45.40625 46.390625 
L 45.40625 75.984375 
L 54.390625 75.984375 
L 54.390625 0 
L 45.40625 0 
L 45.40625 8.203125 
Q 42.578125 3.328125 38.25 0.953125 
Q 33.9375 -1.421875 27.875 -1.421875 
Q 17.96875 -1.421875 11.734375 6.484375 
Q 5.515625 14.40625 5.515625 27.296875 
Q 5.515625 40.1875 11.734375 48.09375 
Q 17.96875 56 27.875 56 
Q 33.9375 56 38.25 53.625 
Q 42.578125 51.265625 45.40625 46.390625 
z
M 14.796875 27.296875 
Q 14.796875 17.390625 18.875 11.75 
Q 22.953125 6.109375 30.078125 6.109375 
Q 37.203125 6.109375 41.296875 11.75 
Q 45.40625 17.390625 45.40625 27.296875 
Q 45.40625 37.203125 41.296875 42.84375 
Q 37.203125 48.484375 30.078125 48.484375 
Q 22.953125 48.484375 18.875 42.84375 
Q 14.796875 37.203125 14.796875 27.296875 
z
" id="DejaVuSans-100"/>
      </defs>
      <use xlink:href="#DejaVuSans-84"/>
      <use x="46.333984" xlink:href="#DejaVuSans-114"/>
      <use x="85.197266" xlink:href="#DejaVuSans-101"/>
      <use x="146.720703" xlink:href="#DejaVuSans-110"/>
      <use x="210.099609" xlink:href="#DejaVuSans-100"/>
     </g>
    </g>
   </g>
   <g id="line2d_14">
    <path clip-path="url(#p4b6d5cbd5f)" d="M 173.045455 492.48 
L 370.190083 492.465713 
L 373.64876 492.36094 
L 384.024793 492.370465 
L 387.483471 492.239498 
L 390.942149 492.260929 
L 394.400826 492.429995 
L 408.235537 492.251404 
L 425.528926 492.149012 
L 428.987603 492.291885 
L 432.446281 492.256167 
L 439.363636 491.82755 
L 442.822314 492.077576 
L 446.280992 491.884699 
L 449.739669 491.918036 
L 453.198347 492.320459 
L 467.033058 492.175206 
L 470.491736 491.989472 
L 477.409091 492.072814 
L 491.243802 491.991853 
L 494.702479 491.718014 
L 501.619835 491.915654 
L 505.078512 491.960897 
L 508.53719 491.641816 
L 511.995868 491.865649 
L 515.454545 491.765638 
L 518.913223 491.291778 
L 522.371901 491.815644 
L 525.830579 491.567998 
L 529.289256 491.753732 
L 532.747934 490.956028 
L 536.206612 491.656103 
L 539.665289 491.296541 
L 543.123967 491.063183 
L 546.582645 491.422745 
L 550.041322 491.127475 
L 553.5 491.170337 
L 556.958678 490.910786 
L 563.876033 490.86078 
L 567.334711 491.036989 
L 570.793388 490.758388 
L 574.252066 490.967935 
L 577.710744 490.763151 
L 581.169421 490.956028 
L 584.628099 490.689333 
L 588.086777 490.948885 
L 591.545455 490.572654 
L 595.004132 489.989259 
L 598.46281 490.103557 
L 601.921488 490.560748 
L 605.380165 490.046408 
L 608.838843 489.858293 
L 612.297521 489.474919 
L 615.756198 489.332046 
L 619.214876 488.793894 
L 622.673554 489.748757 
L 626.132231 489.836862 
L 629.590909 489.289185 
L 633.049587 488.858186 
L 636.508264 488.274791 
L 639.966942 488.872474 
L 643.42562 489.165362 
L 646.884298 489.601123 
L 650.342975 488.948672 
L 653.801653 489.243942 
L 657.260331 488.660546 
L 660.719008 488.836756 
L 664.177686 488.560536 
L 667.636364 487.984284 
L 671.095041 487.258016 
L 674.553719 487.42232 
L 678.012397 488.031908 
L 681.471074 487.44375 
L 684.929752 484.929197 
L 688.38843 485.195892 
L 691.847107 486.867499 
L 695.305785 485.291141 
L 698.764463 486.453169 
L 702.22314 486.7913 
L 705.681818 484.048151 
L 709.140496 484.179118 
L 712.599174 483.329027 
L 716.057851 482.600378 
L 719.516529 484.912529 
L 722.975207 484.683933 
L 726.433884 485.805481 
L 729.892562 482.567042 
L 733.35124 482.714676 
L 736.809917 484.395807 
L 740.268595 483.231398 
L 743.727273 483.619534 
L 747.18595 484.929197 
L 750.644628 482.447981 
L 754.103306 482.612284 
L 757.561983 479.776269 
L 761.020661 476.280659 
L 764.479339 480.916866 
L 767.938017 481.019258 
L 771.396694 483.355221 
L 774.855372 479.095244 
L 778.31405 479.928666 
L 781.772727 473.342252 
L 785.231405 471.20631 
L 788.690083 472.096881 
L 792.14876 476.81643 
L 795.607438 476.461631 
L 799.066116 475.732982 
L 802.524793 474.882891 
L 805.983471 473.561322 
L 809.442149 475.411519 
L 812.900826 475.206735 
L 816.359504 472.999358 
L 819.818182 473.132705 
L 823.27686 467.991683 
L 826.735537 471.834948 
L 830.194215 468.751287 
L 833.652893 469.887122 
L 837.11157 467.065394 
L 840.570248 465.167573 
L 844.028926 468.194085 
L 847.487603 475.504386 
L 850.946281 466.917759 
L 854.404959 463.915059 
L 857.863636 469.872835 
L 861.322314 469.463268 
L 864.780992 467.213029 
L 868.239669 468.329814 
L 871.698347 461.929134 
L 878.615702 465.605715 
L 882.07438 465.558091 
L 885.533058 464.910403 
L 888.991736 464.755625 
L 892.450413 472.649321 
L 895.909091 462.805417 
L 899.367769 461.390981 
L 902.826446 464.998507 
L 906.285124 472.432631 
L 909.743802 492.48 
L 913.202479 447.234715 
L 916.661157 467.360663 
L 920.119835 467.655933 
L 923.578512 468.358388 
L 927.03719 469.258484 
L 930.495868 472.246897 
L 933.954545 470.115718 
L 933.954545 470.115718 
" style="fill:none;stroke:#1f77b4;stroke-linecap:square;stroke-width:1.5;"/>
   </g>
   <g id="line2d_15">
    <path clip-path="url(#p4b6d5cbd5f)" d="M 173.045455 492.48 
L 619.214876 492.391895 
L 629.590909 492.384752 
L 650.342975 492.363321 
L 660.719008 492.349034 
L 705.681818 492.272835 
L 709.140496 492.091864 
L 716.057851 492.175206 
L 719.516529 491.910892 
L 722.975207 492.251404 
L 726.433884 492.337128 
L 733.35124 492.072814 
L 736.809917 492.156156 
L 740.268595 492.087101 
L 743.727273 492.189493 
L 761.020661 491.977566 
L 774.855372 492.075195 
L 792.14876 491.956135 
L 795.607438 492.020427 
L 799.066116 491.915654 
L 802.524793 491.98709 
L 805.983471 491.72992 
L 816.359504 491.870411 
L 819.818182 491.879936 
L 830.194215 491.632291 
L 837.11157 491.944229 
L 840.570248 491.718014 
L 844.028926 491.606098 
L 847.487603 491.770401 
L 857.863636 491.739445 
L 864.780992 491.760876 
L 885.533058 491.722777 
L 895.909091 491.891842 
L 899.367769 491.622766 
L 902.826446 491.994234 
L 906.285124 491.563236 
L 909.743802 492.48 
L 913.202479 490.698858 
L 916.661157 491.775163 
L 927.03719 491.806119 
L 933.954545 491.772782 
L 933.954545 491.772782 
" style="fill:none;stroke:#ff7f0e;stroke-linecap:square;stroke-width:1.5;"/>
   </g>
   <g id="line2d_16">
    <path clip-path="url(#p4b6d5cbd5f)" d="M 173.045455 492.48 
L 439.363636 492.425232 
L 442.822314 492.358559 
L 449.739669 492.43952 
L 456.657025 492.363321 
L 460.115702 492.396658 
L 463.57438 492.246642 
L 470.491736 492.279979 
L 473.950413 492.48 
L 477.409091 492.296647 
L 480.867769 492.258548 
L 484.326446 492.48 
L 487.785124 492.32284 
L 501.619835 492.32284 
L 511.995868 492.139488 
L 515.454545 492.413326 
L 518.913223 492.213305 
L 522.371901 492.206161 
L 525.830579 492.346652 
L 529.289256 492.277598 
L 532.747934 491.989472 
L 536.206612 492.158537 
L 546.582645 492.134725 
L 556.958678 492.132344 
L 560.417355 492.094245 
L 563.876033 491.944229 
L 567.334711 492.237117 
L 577.710744 492.118057 
L 581.169421 492.129963 
L 584.628099 491.989472 
L 595.004132 492.139488 
L 598.46281 491.770401 
L 605.380165 491.894223 
L 608.838843 491.051277 
L 612.297521 492.429995 
L 615.756198 491.158431 
L 619.214876 491.889461 
L 622.673554 492.249023 
L 626.132231 489.26061 
L 629.590909 489.372527 
L 633.049587 488.951053 
L 636.508264 489.746376 
L 639.966942 489.262991 
L 643.42562 492.48 
L 646.884298 490.708383 
L 650.342975 487.610435 
L 653.801653 492.48 
L 657.260331 492.225211 
L 660.719008 490.575036 
L 664.177686 491.391789 
L 667.636364 490.275004 
L 674.553719 491.229867 
L 678.012397 492.477619 
L 681.471074 491.494181 
L 684.929752 490.191662 
L 688.38843 489.229655 
L 691.847107 489.363002 
L 695.305785 484.438669 
L 698.764463 488.641497 
L 702.22314 488.92486 
L 705.681818 492.48 
L 709.140496 489.593979 
L 712.599174 488.477194 
L 716.057851 488.696264 
L 719.516529 484.512486 
L 722.975207 492.48 
L 726.433884 488.4891 
L 729.892562 487.427082 
L 733.35124 489.293947 
L 736.809917 489.801144 
L 740.268595 490.567892 
L 743.727273 489.541592 
L 747.18595 489.341571 
L 750.644628 486.743676 
L 754.103306 488.929623 
L 757.561983 488.258123 
L 761.020661 486.19838 
L 771.396694 487.08657 
L 774.855372 486.865117 
L 778.31405 485.343527 
L 781.772727 485.503068 
L 785.231405 471.28489 
L 788.690083 480.100113 
L 792.14876 478.295159 
L 795.607438 482.928985 
L 799.066116 485.25066 
L 802.524793 485.876917 
L 805.983471 477.38792 
L 809.442149 478.399932 
L 812.900826 478.661865 
L 816.359504 479.692927 
L 819.818182 477.897498 
L 823.27686 479.314315 
L 826.735537 477.985602 
L 830.194215 478.388026 
L 833.652893 478.926178 
L 837.11157 477.4284 
L 840.570248 476.928347 
L 844.028926 477.030739 
L 847.487603 476.928347 
L 850.946281 478.052276 
L 854.404959 478.102281 
L 857.863636 477.859398 
L 861.322314 477.964171 
L 864.780992 473.199379 
L 868.239669 471.534917 
L 871.698347 471.184879 
L 875.157025 470.196679 
L 878.615702 466.97967 
L 882.07438 466.765362 
L 885.533058 461.221916 
L 888.991736 461.486229 
L 892.450413 458.931196 
L 895.909091 466.767743 
L 899.367769 459.202653 
L 902.826446 461.938658 
L 906.285124 469.106087 
L 909.743802 492.48 
L 913.202479 432.749842 
L 916.661157 468.332195 
L 920.119835 465.57714 
L 923.578512 464.736575 
L 927.03719 467.079681 
L 930.495868 464.317483 
L 933.954545 466.396275 
L 933.954545 466.396275 
" style="fill:none;stroke:#2ca02c;stroke-linecap:square;stroke-width:1.5;"/>
   </g>
   <g id="line2d_17">
    <path clip-path="url(#p4b6d5cbd5f)" d="M 173.045455 492.48 
L 356.355372 492.399039 
L 380.566116 491.941848 
L 384.024793 491.834693 
L 390.942149 491.389408 
L 397.859504 491.23463 
L 408.235537 490.644091 
L 411.694215 490.434544 
L 415.152893 490.077364 
L 432.446281 489.039158 
L 435.904959 488.598635 
L 439.363636 488.010477 
L 442.822314 487.765213 
L 449.739669 486.777013 
L 456.657025 486.715102 
L 460.115702 486.531749 
L 467.033058 486.434119 
L 470.491736 486.165043 
L 473.950413 485.762619 
L 480.867769 485.374483 
L 487.785124 484.669646 
L 491.243802 484.338658 
L 498.161157 483.331409 
L 505.078512 482.636097 
L 508.53719 481.974121 
L 511.995868 481.721714 
L 515.454545 481.109744 
L 518.913223 480.238223 
L 522.371901 479.871517 
L 525.830579 479.130962 
L 529.289256 478.649959 
L 532.747934 477.664139 
L 536.206612 477.206948 
L 539.665289 476.409244 
L 543.123967 475.337702 
L 546.582645 474.666202 
L 553.5 472.694564 
L 560.417355 470.363363 
L 567.334711 468.167892 
L 570.793388 466.786793 
L 574.252066 465.693819 
L 577.710744 464.381775 
L 581.169421 463.257846 
L 584.628099 461.998189 
L 588.086777 460.936171 
L 591.545455 459.443155 
L 595.004132 457.347694 
L 598.46281 455.733237 
L 601.921488 454.461673 
L 605.380165 452.675769 
L 608.838843 451.547078 
L 612.297521 448.637245 
L 615.756198 446.884677 
L 619.214876 443.877215 
L 622.673554 441.493628 
L 626.132231 442.141316 
L 633.049587 442.146078 
L 636.508264 440.774504 
L 639.966942 440.522096 
L 643.42562 437.350331 
L 646.884298 436.371655 
L 650.342975 437.826572 
L 653.801653 434.742911 
L 657.260331 431.3235 
L 660.719008 429.716186 
L 664.177686 427.020661 
L 667.636364 424.841858 
L 671.095041 421.491502 
L 674.553719 417.824446 
L 678.012397 413.557325 
L 681.471074 409.656911 
L 684.929752 404.59923 
L 688.38843 400.791683 
L 691.847107 398.489057 
L 695.305785 399.605842 
L 702.22314 395.681616 
L 705.681818 387.456932 
L 709.140496 382.430207 
L 712.599174 377.65589 
L 716.057851 371.864799 
L 719.516529 372.833949 
L 722.975207 365.266478 
L 726.433884 362.725732 
L 729.892562 358.189535 
L 733.35124 352.017451 
L 736.809917 346.935958 
L 740.268595 339.992363 
L 743.727273 334.360812 
L 750.644628 326.355199 
L 754.103306 320.437904 
L 757.561983 312.401335 
L 761.020661 302.986049 
L 764.479339 297.904556 
L 767.938017 292.573037 
L 771.396694 289.194107 
L 774.855372 281.829038 
L 778.31405 276.864225 
L 781.772727 265.215367 
L 785.231405 265.75352 
L 788.690083 258.293203 
L 792.14876 257.33834 
L 795.607438 251.330558 
L 799.066116 242.377225 
L 802.524793 231.876109 
L 805.983471 228.799592 
L 809.442149 226.494585 
L 812.900826 223.73953 
L 816.359504 217.65555 
L 819.818182 213.490822 
L 823.27686 202.875408 
L 826.735537 197.629612 
L 830.194215 188.840583 
L 833.652893 180.503982 
L 837.11157 170.676747 
L 840.570248 159.677959 
L 844.028926 151.715208 
L 847.487603 151.000846 
L 850.946281 140.602122 
L 854.404959 127.164979 
L 857.863636 119.918971 
L 861.322314 112.108617 
L 864.780992 106.84139 
L 868.239669 104.379224 
L 871.698347 95.887845 
L 875.157025 90.301537 
L 878.615702 89.660993 
L 882.07438 89.28 
L 885.533058 93.725711 
L 888.991736 97.678512 
L 892.450413 112.051468 
L 895.909091 108.6773 
L 899.367769 111.722862 
L 902.826446 115.268477 
L 906.285124 119.511785 
L 909.743802 119.511785 
L 913.202479 135.7778 
L 916.661157 135.511104 
L 920.119835 138.249491 
L 923.578512 142.57376 
L 927.03719 145.426444 
L 930.495868 154.067839 
L 933.954545 158.4945 
L 933.954545 158.4945 
" style="fill:none;stroke:#d62728;stroke-linecap:square;stroke-width:1.5;"/>
   </g>
   <g id="patch_3">
    <path d="M 135 512.64 
L 135 69.12 
" style="fill:none;stroke:#000000;stroke-linecap:square;stroke-linejoin:miter;stroke-width:0.8;"/>
   </g>
   <g id="patch_4">
    <path d="M 972 512.64 
L 972 69.12 
" style="fill:none;stroke:#000000;stroke-linecap:square;stroke-linejoin:miter;stroke-width:0.8;"/>
   </g>
   <g id="patch_5">
    <path d="M 135 512.64 
L 972 512.64 
" style="fill:none;stroke:#000000;stroke-linecap:square;stroke-linejoin:miter;stroke-width:0.8;"/>
   </g>
   <g id="patch_6">
    <path d="M 135 69.12 
L 972 69.12 
" style="fill:none;stroke:#000000;stroke-linecap:square;stroke-linejoin:miter;stroke-width:0.8;"/>
   </g>
   <g id="text_16">
    <!-- COVID19 Trend in Colombia -->
    <g transform="translate(470.761875 63.12)scale(0.12 -0.12)">
     <defs>
      <path d="M 64.40625 67.28125 
L 64.40625 56.890625 
Q 59.421875 61.53125 53.78125 63.8125 
Q 48.140625 66.109375 41.796875 66.109375 
Q 29.296875 66.109375 22.65625 58.46875 
Q 16.015625 50.828125 16.015625 36.375 
Q 16.015625 21.96875 22.65625 14.328125 
Q 29.296875 6.6875 41.796875 6.6875 
Q 48.140625 6.6875 53.78125 8.984375 
Q 59.421875 11.28125 64.40625 15.921875 
L 64.40625 5.609375 
Q 59.234375 2.09375 53.4375 0.328125 
Q 47.65625 -1.421875 41.21875 -1.421875 
Q 24.65625 -1.421875 15.125 8.703125 
Q 5.609375 18.84375 5.609375 36.375 
Q 5.609375 53.953125 15.125 64.078125 
Q 24.65625 74.21875 41.21875 74.21875 
Q 47.75 74.21875 53.53125 72.484375 
Q 59.328125 70.75 64.40625 67.28125 
z
" id="DejaVuSans-67"/>
      <path d="M 39.40625 66.21875 
Q 28.65625 66.21875 22.328125 58.203125 
Q 16.015625 50.203125 16.015625 36.375 
Q 16.015625 22.609375 22.328125 14.59375 
Q 28.65625 6.59375 39.40625 6.59375 
Q 50.140625 6.59375 56.421875 14.59375 
Q 62.703125 22.609375 62.703125 36.375 
Q 62.703125 50.203125 56.421875 58.203125 
Q 50.140625 66.21875 39.40625 66.21875 
z
M 39.40625 74.21875 
Q 54.734375 74.21875 63.90625 63.9375 
Q 73.09375 53.65625 73.09375 36.375 
Q 73.09375 19.140625 63.90625 8.859375 
Q 54.734375 -1.421875 39.40625 -1.421875 
Q 24.03125 -1.421875 14.8125 8.828125 
Q 5.609375 19.09375 5.609375 36.375 
Q 5.609375 53.65625 14.8125 63.9375 
Q 24.03125 74.21875 39.40625 74.21875 
z
" id="DejaVuSans-79"/>
      <path d="M 28.609375 0 
L 0.78125 72.90625 
L 11.078125 72.90625 
L 34.1875 11.53125 
L 57.328125 72.90625 
L 67.578125 72.90625 
L 39.796875 0 
z
" id="DejaVuSans-86"/>
      <path d="M 9.8125 72.90625 
L 19.671875 72.90625 
L 19.671875 0 
L 9.8125 0 
z
" id="DejaVuSans-73"/>
      <path id="DejaVuSans-32"/>
      <path d="M 9.421875 54.6875 
L 18.40625 54.6875 
L 18.40625 0 
L 9.421875 0 
z
M 9.421875 75.984375 
L 18.40625 75.984375 
L 18.40625 64.59375 
L 9.421875 64.59375 
z
" id="DejaVuSans-105"/>
      <path d="M 30.609375 48.390625 
Q 23.390625 48.390625 19.1875 42.75 
Q 14.984375 37.109375 14.984375 27.296875 
Q 14.984375 17.484375 19.15625 11.84375 
Q 23.34375 6.203125 30.609375 6.203125 
Q 37.796875 6.203125 41.984375 11.859375 
Q 46.1875 17.53125 46.1875 27.296875 
Q 46.1875 37.015625 41.984375 42.703125 
Q 37.796875 48.390625 30.609375 48.390625 
z
M 30.609375 56 
Q 42.328125 56 49.015625 48.375 
Q 55.71875 40.765625 55.71875 27.296875 
Q 55.71875 13.875 49.015625 6.21875 
Q 42.328125 -1.421875 30.609375 -1.421875 
Q 18.84375 -1.421875 12.171875 6.21875 
Q 5.515625 13.875 5.515625 27.296875 
Q 5.515625 40.765625 12.171875 48.375 
Q 18.84375 56 30.609375 56 
z
" id="DejaVuSans-111"/>
      <path d="M 9.421875 75.984375 
L 18.40625 75.984375 
L 18.40625 0 
L 9.421875 0 
z
" id="DejaVuSans-108"/>
      <path d="M 52 44.1875 
Q 55.375 50.25 60.0625 53.125 
Q 64.75 56 71.09375 56 
Q 79.640625 56 84.28125 50.015625 
Q 88.921875 44.046875 88.921875 33.015625 
L 88.921875 0 
L 79.890625 0 
L 79.890625 32.71875 
Q 79.890625 40.578125 77.09375 44.375 
Q 74.3125 48.1875 68.609375 48.1875 
Q 61.625 48.1875 57.5625 43.546875 
Q 53.515625 38.921875 53.515625 30.90625 
L 53.515625 0 
L 44.484375 0 
L 44.484375 32.71875 
Q 44.484375 40.625 41.703125 44.40625 
Q 38.921875 48.1875 33.109375 48.1875 
Q 26.21875 48.1875 22.15625 43.53125 
Q 18.109375 38.875 18.109375 30.90625 
L 18.109375 0 
L 9.078125 0 
L 9.078125 54.6875 
L 18.109375 54.6875 
L 18.109375 46.1875 
Q 21.1875 51.21875 25.484375 53.609375 
Q 29.78125 56 35.6875 56 
Q 41.65625 56 45.828125 52.96875 
Q 50 49.953125 52 44.1875 
z
" id="DejaVuSans-109"/>
      <path d="M 48.6875 27.296875 
Q 48.6875 37.203125 44.609375 42.84375 
Q 40.53125 48.484375 33.40625 48.484375 
Q 26.265625 48.484375 22.1875 42.84375 
Q 18.109375 37.203125 18.109375 27.296875 
Q 18.109375 17.390625 22.1875 11.75 
Q 26.265625 6.109375 33.40625 6.109375 
Q 40.53125 6.109375 44.609375 11.75 
Q 48.6875 17.390625 48.6875 27.296875 
z
M 18.109375 46.390625 
Q 20.953125 51.265625 25.265625 53.625 
Q 29.59375 56 35.59375 56 
Q 45.5625 56 51.78125 48.09375 
Q 58.015625 40.1875 58.015625 27.296875 
Q 58.015625 14.40625 51.78125 6.484375 
Q 45.5625 -1.421875 35.59375 -1.421875 
Q 29.59375 -1.421875 25.265625 0.953125 
Q 20.953125 3.328125 18.109375 8.203125 
L 18.109375 0 
L 9.078125 0 
L 9.078125 75.984375 
L 18.109375 75.984375 
z
" id="DejaVuSans-98"/>
     </defs>
     <use xlink:href="#DejaVuSans-67"/>
     <use x="69.824219" xlink:href="#DejaVuSans-79"/>
     <use x="146.785156" xlink:href="#DejaVuSans-86"/>
     <use x="215.193359" xlink:href="#DejaVuSans-73"/>
     <use x="244.685547" xlink:href="#DejaVuSans-68"/>
     <use x="321.6875" xlink:href="#DejaVuSans-49"/>
     <use x="385.310547" xlink:href="#DejaVuSans-57"/>
     <use x="448.933594" xlink:href="#DejaVuSans-32"/>
     <use x="480.720703" xlink:href="#DejaVuSans-84"/>
     <use x="527.054688" xlink:href="#DejaVuSans-114"/>
     <use x="565.917969" xlink:href="#DejaVuSans-101"/>
     <use x="627.441406" xlink:href="#DejaVuSans-110"/>
     <use x="690.820312" xlink:href="#DejaVuSans-100"/>
     <use x="754.296875" xlink:href="#DejaVuSans-32"/>
     <use x="786.083984" xlink:href="#DejaVuSans-105"/>
     <use x="813.867188" xlink:href="#DejaVuSans-110"/>
     <use x="877.246094" xlink:href="#DejaVuSans-32"/>
     <use x="909.033203" xlink:href="#DejaVuSans-67"/>
     <use x="978.857422" xlink:href="#DejaVuSans-111"/>
     <use x="1040.039062" xlink:href="#DejaVuSans-108"/>
     <use x="1067.822266" xlink:href="#DejaVuSans-111"/>
     <use x="1129.003906" xlink:href="#DejaVuSans-109"/>
     <use x="1226.416016" xlink:href="#DejaVuSans-98"/>
     <use x="1289.892578" xlink:href="#DejaVuSans-105"/>
     <use x="1317.675781" xlink:href="#DejaVuSans-97"/>
    </g>
   </g>
   <g id="legend_1">
    <g id="patch_7">
     <path d="M 142 135.8325 
L 226.728125 135.8325 
Q 228.728125 135.8325 228.728125 133.8325 
L 228.728125 76.12 
Q 228.728125 74.12 226.728125 74.12 
L 142 74.12 
Q 140 74.12 140 76.12 
L 140 133.8325 
Q 140 135.8325 142 135.8325 
z
" style="fill:#ffffff;opacity:0.8;stroke:#cccccc;stroke-linejoin:miter;"/>
    </g>
    <g id="line2d_18">
     <path d="M 144 82.218437 
L 164 82.218437 
" style="fill:none;stroke:#1f77b4;stroke-linecap:square;stroke-width:1.5;"/>
    </g>
    <g id="line2d_19"/>
    <g id="text_17">
     <!-- Confirmed -->
     <g transform="translate(172 85.718437)scale(0.1 -0.1)">
      <defs>
       <path d="M 37.109375 75.984375 
L 37.109375 68.5 
L 28.515625 68.5 
Q 23.6875 68.5 21.796875 66.546875 
Q 19.921875 64.59375 19.921875 59.515625 
L 19.921875 54.6875 
L 34.71875 54.6875 
L 34.71875 47.703125 
L 19.921875 47.703125 
L 19.921875 0 
L 10.890625 0 
L 10.890625 47.703125 
L 2.296875 47.703125 
L 2.296875 54.6875 
L 10.890625 54.6875 
L 10.890625 58.5 
Q 10.890625 67.625 15.140625 71.796875 
Q 19.390625 75.984375 28.609375 75.984375 
z
" id="DejaVuSans-102"/>
      </defs>
      <use xlink:href="#DejaVuSans-67"/>
      <use x="69.824219" xlink:href="#DejaVuSans-111"/>
      <use x="131.005859" xlink:href="#DejaVuSans-110"/>
      <use x="194.384766" xlink:href="#DejaVuSans-102"/>
      <use x="229.589844" xlink:href="#DejaVuSans-105"/>
      <use x="257.373047" xlink:href="#DejaVuSans-114"/>
      <use x="296.736328" xlink:href="#DejaVuSans-109"/>
      <use x="394.148438" xlink:href="#DejaVuSans-101"/>
      <use x="455.671875" xlink:href="#DejaVuSans-100"/>
     </g>
    </g>
    <g id="line2d_20">
     <path d="M 144 96.896563 
L 164 96.896563 
" style="fill:none;stroke:#ff7f0e;stroke-linecap:square;stroke-width:1.5;"/>
    </g>
    <g id="line2d_21"/>
    <g id="text_18">
     <!-- Deaths -->
     <g transform="translate(172 100.396563)scale(0.1 -0.1)">
      <defs>
       <path d="M 54.890625 33.015625 
L 54.890625 0 
L 45.90625 0 
L 45.90625 32.71875 
Q 45.90625 40.484375 42.875 44.328125 
Q 39.84375 48.1875 33.796875 48.1875 
Q 26.515625 48.1875 22.3125 43.546875 
Q 18.109375 38.921875 18.109375 30.90625 
L 18.109375 0 
L 9.078125 0 
L 9.078125 75.984375 
L 18.109375 75.984375 
L 18.109375 46.1875 
Q 21.34375 51.125 25.703125 53.5625 
Q 30.078125 56 35.796875 56 
Q 45.21875 56 50.046875 50.171875 
Q 54.890625 44.34375 54.890625 33.015625 
z
" id="DejaVuSans-104"/>
       <path d="M 44.28125 53.078125 
L 44.28125 44.578125 
Q 40.484375 46.53125 36.375 47.5 
Q 32.28125 48.484375 27.875 48.484375 
Q 21.1875 48.484375 17.84375 46.4375 
Q 14.5 44.390625 14.5 40.28125 
Q 14.5 37.15625 16.890625 35.375 
Q 19.28125 33.59375 26.515625 31.984375 
L 29.59375 31.296875 
Q 39.15625 29.25 43.1875 25.515625 
Q 47.21875 21.78125 47.21875 15.09375 
Q 47.21875 7.46875 41.1875 3.015625 
Q 35.15625 -1.421875 24.609375 -1.421875 
Q 20.21875 -1.421875 15.453125 -0.5625 
Q 10.6875 0.296875 5.421875 2 
L 5.421875 11.28125 
Q 10.40625 8.6875 15.234375 7.390625 
Q 20.0625 6.109375 24.8125 6.109375 
Q 31.15625 6.109375 34.5625 8.28125 
Q 37.984375 10.453125 37.984375 14.40625 
Q 37.984375 18.0625 35.515625 20.015625 
Q 33.0625 21.96875 24.703125 23.78125 
L 21.578125 24.515625 
Q 13.234375 26.265625 9.515625 29.90625 
Q 5.8125 33.546875 5.8125 39.890625 
Q 5.8125 47.609375 11.28125 51.796875 
Q 16.75 56 26.8125 56 
Q 31.78125 56 36.171875 55.265625 
Q 40.578125 54.546875 44.28125 53.078125 
z
" id="DejaVuSans-115"/>
      </defs>
      <use xlink:href="#DejaVuSans-68"/>
      <use x="77.001953" xlink:href="#DejaVuSans-101"/>
      <use x="138.525391" xlink:href="#DejaVuSans-97"/>
      <use x="199.804688" xlink:href="#DejaVuSans-116"/>
      <use x="239.013672" xlink:href="#DejaVuSans-104"/>
      <use x="302.392578" xlink:href="#DejaVuSans-115"/>
     </g>
    </g>
    <g id="line2d_22">
     <path d="M 144 111.574687 
L 164 111.574687 
" style="fill:none;stroke:#2ca02c;stroke-linecap:square;stroke-width:1.5;"/>
    </g>
    <g id="line2d_23"/>
    <g id="text_19">
     <!-- Recovered -->
     <g transform="translate(172 115.074687)scale(0.1 -0.1)">
      <defs>
       <path d="M 44.390625 34.1875 
Q 47.5625 33.109375 50.5625 29.59375 
Q 53.5625 26.078125 56.59375 19.921875 
L 66.609375 0 
L 56 0 
L 46.6875 18.703125 
Q 43.0625 26.03125 39.671875 28.421875 
Q 36.28125 30.8125 30.421875 30.8125 
L 19.671875 30.8125 
L 19.671875 0 
L 9.8125 0 
L 9.8125 72.90625 
L 32.078125 72.90625 
Q 44.578125 72.90625 50.734375 67.671875 
Q 56.890625 62.453125 56.890625 51.90625 
Q 56.890625 45.015625 53.6875 40.46875 
Q 50.484375 35.9375 44.390625 34.1875 
z
M 19.671875 64.796875 
L 19.671875 38.921875 
L 32.078125 38.921875 
Q 39.203125 38.921875 42.84375 42.21875 
Q 46.484375 45.515625 46.484375 51.90625 
Q 46.484375 58.296875 42.84375 61.546875 
Q 39.203125 64.796875 32.078125 64.796875 
z
" id="DejaVuSans-82"/>
       <path d="M 48.78125 52.59375 
L 48.78125 44.1875 
Q 44.96875 46.296875 41.140625 47.34375 
Q 37.3125 48.390625 33.40625 48.390625 
Q 24.65625 48.390625 19.8125 42.84375 
Q 14.984375 37.3125 14.984375 27.296875 
Q 14.984375 17.28125 19.8125 11.734375 
Q 24.65625 6.203125 33.40625 6.203125 
Q 37.3125 6.203125 41.140625 7.25 
Q 44.96875 8.296875 48.78125 10.40625 
L 48.78125 2.09375 
Q 45.015625 0.34375 40.984375 -0.53125 
Q 36.96875 -1.421875 32.421875 -1.421875 
Q 20.0625 -1.421875 12.78125 6.34375 
Q 5.515625 14.109375 5.515625 27.296875 
Q 5.515625 40.671875 12.859375 48.328125 
Q 20.21875 56 33.015625 56 
Q 37.15625 56 41.109375 55.140625 
Q 45.0625 54.296875 48.78125 52.59375 
z
" id="DejaVuSans-99"/>
       <path d="M 2.984375 54.6875 
L 12.5 54.6875 
L 29.59375 8.796875 
L 46.6875 54.6875 
L 56.203125 54.6875 
L 35.6875 0 
L 23.484375 0 
z
" id="DejaVuSans-118"/>
      </defs>
      <use xlink:href="#DejaVuSans-82"/>
      <use x="64.982422" xlink:href="#DejaVuSans-101"/>
      <use x="126.505859" xlink:href="#DejaVuSans-99"/>
      <use x="181.486328" xlink:href="#DejaVuSans-111"/>
      <use x="242.667969" xlink:href="#DejaVuSans-118"/>
      <use x="301.847656" xlink:href="#DejaVuSans-101"/>
      <use x="363.371094" xlink:href="#DejaVuSans-114"/>
      <use x="402.234375" xlink:href="#DejaVuSans-101"/>
      <use x="463.757812" xlink:href="#DejaVuSans-100"/>
     </g>
    </g>
    <g id="line2d_24">
     <path d="M 144 126.252813 
L 164 126.252813 
" style="fill:none;stroke:#d62728;stroke-linecap:square;stroke-width:1.5;"/>
    </g>
    <g id="line2d_25"/>
    <g id="text_20">
     <!-- Active -->
     <g transform="translate(172 129.752813)scale(0.1 -0.1)">
      <defs>
       <path d="M 34.1875 63.1875 
L 20.796875 26.90625 
L 47.609375 26.90625 
z
M 28.609375 72.90625 
L 39.796875 72.90625 
L 67.578125 0 
L 57.328125 0 
L 50.6875 18.703125 
L 17.828125 18.703125 
L 11.1875 0 
L 0.78125 0 
z
" id="DejaVuSans-65"/>
      </defs>
      <use xlink:href="#DejaVuSans-65"/>
      <use x="66.658203" xlink:href="#DejaVuSans-99"/>
      <use x="121.638672" xlink:href="#DejaVuSans-116"/>
      <use x="160.847656" xlink:href="#DejaVuSans-105"/>
      <use x="188.630859" xlink:href="#DejaVuSans-118"/>
      <use x="247.810547" xlink:href="#DejaVuSans-101"/>
     </g>
    </g>
   </g>
  </g>
 </g>
 <defs>
  <clipPath id="p4b6d5cbd5f">
   <rect height="443.52" width="837" x="135" y="69.12"/>
  </clipPath>
 </defs>
</svg>
