<?xml version="1.0" encoding="utf-8" standalone="no"?>
<!DOCTYPE svg PUBLIC "-//W3C//DTD SVG 1.1//EN"
  "http://www.w3.org/Graphics/SVG/1.1/DTD/svg11.dtd">
<!-- Created with matplotlib (https://matplotlib.org/) -->
<svg height="576pt" version="1.1" viewBox="0 0 1080 576" width="1080pt" xmlns="http://www.w3.org/2000/svg" xmlns:xlink="http://www.w3.org/1999/xlink">
 <metadata>
  <rdf:RDF xmlns:cc="http://creativecommons.org/ns#" xmlns:dc="http://purl.org/dc/elements/1.1/" xmlns:rdf="http://www.w3.org/1999/02/22-rdf-syntax-ns#">
   <cc:Work>
    <dc:type rdf:resource="http://purl.org/dc/dcmitype/StillImage"/>
    <dc:date>2020-08-29T22:20:59.474356</dc:date>
    <dc:format>image/svg+xml</dc:format>
    <dc:creator>
     <cc:Agent>
      <dc:title>Matplotlib v3.3.1, https://matplotlib.org/</dc:title>
     </cc:Agent>
    </dc:creator>
   </cc:Work>
  </rdf:RDF>
 </metadata>
 <defs>
  <style type="text/css">*{stroke-linecap:butt;stroke-linejoin:round;}</style>
 </defs>
 <g id="figure_1">
  <g id="patch_1">
   <path d="M 0 576 
L 1080 576 
L 1080 0 
L 0 0 
z
" style="fill:#ffffff;"/>
  </g>
  <g id="axes_1">
   <g id="patch_2">
    <path d="M 135 512.64 
L 972 512.64 
L 972 69.12 
L 135 69.12 
z
" style="fill:#ffffff;"/>
   </g>
   <g id="matplotlib.axis_1">
    <g id="xtick_1">
     <g id="line2d_1">
      <defs>
       <path d="M 0 0 
L 0 3.5 
" id="m7b0db4987e" style="stroke:#000000;stroke-width:0.8;"/>
      </defs>
      <g>
       <use style="stroke:#000000;stroke-width:0.8;" x="173.045455" xlink:href="#m7b0db4987e" y="512.64"/>
      </g>
     </g>
     <g id="text_1">
      <!-- 2020-01-22 -->
      <g transform="translate(143.987642 527.238438)scale(0.1 -0.1)">
       <defs>
        <path d="M 19.1875 8.296875 
L 53.609375 8.296875 
L 53.609375 0 
L 7.328125 0 
L 7.328125 8.296875 
Q 12.9375 14.109375 22.625 23.890625 
Q 32.328125 33.6875 34.8125 36.53125 
Q 39.546875 41.84375 41.421875 45.53125 
Q 43.3125 49.21875 43.3125 52.78125 
Q 43.3125 58.59375 39.234375 62.25 
Q 35.15625 65.921875 28.609375 65.921875 
Q 23.96875 65.921875 18.8125 64.3125 
Q 13.671875 62.703125 7.8125 59.421875 
L 7.8125 69.390625 
Q 13.765625 71.78125 18.9375 73 
Q 24.125 74.21875 28.421875 74.21875 
Q 39.75 74.21875 46.484375 68.546875 
Q 53.21875 62.890625 53.21875 53.421875 
Q 53.21875 48.921875 51.53125 44.890625 
Q 49.859375 40.875 45.40625 35.40625 
Q 44.1875 33.984375 37.640625 27.21875 
Q 31.109375 20.453125 19.1875 8.296875 
z
" id="DejaVuSans-50"/>
        <path d="M 31.78125 66.40625 
Q 24.171875 66.40625 20.328125 58.90625 
Q 16.5 51.421875 16.5 36.375 
Q 16.5 21.390625 20.328125 13.890625 
Q 24.171875 6.390625 31.78125 6.390625 
Q 39.453125 6.390625 43.28125 13.890625 
Q 47.125 21.390625 47.125 36.375 
Q 47.125 51.421875 43.28125 58.90625 
Q 39.453125 66.40625 31.78125 66.40625 
z
M 31.78125 74.21875 
Q 44.046875 74.21875 50.515625 64.515625 
Q 56.984375 54.828125 56.984375 36.375 
Q 56.984375 17.96875 50.515625 8.265625 
Q 44.046875 -1.421875 31.78125 -1.421875 
Q 19.53125 -1.421875 13.0625 8.265625 
Q 6.59375 17.96875 6.59375 36.375 
Q 6.59375 54.828125 13.0625 64.515625 
Q 19.53125 74.21875 31.78125 74.21875 
z
" id="DejaVuSans-48"/>
        <path d="M 4.890625 31.390625 
L 31.203125 31.390625 
L 31.203125 23.390625 
L 4.890625 23.390625 
z
" id="DejaVuSans-45"/>
        <path d="M 12.40625 8.296875 
L 28.515625 8.296875 
L 28.515625 63.921875 
L 10.984375 60.40625 
L 10.984375 69.390625 
L 28.421875 72.90625 
L 38.28125 72.90625 
L 38.28125 8.296875 
L 54.390625 8.296875 
L 54.390625 0 
L 12.40625 0 
z
" id="DejaVuSans-49"/>
       </defs>
       <use xlink:href="#DejaVuSans-50"/>
       <use x="63.623047" xlink:href="#DejaVuSans-48"/>
       <use x="127.246094" xlink:href="#DejaVuSans-50"/>
       <use x="190.869141" xlink:href="#DejaVuSans-48"/>
       <use x="254.492188" xlink:href="#DejaVuSans-45"/>
       <use x="290.576172" xlink:href="#DejaVuSans-48"/>
       <use x="354.199219" xlink:href="#DejaVuSans-49"/>
       <use x="417.822266" xlink:href="#DejaVuSans-45"/>
       <use x="453.90625" xlink:href="#DejaVuSans-50"/>
       <use x="517.529297" xlink:href="#DejaVuSans-50"/>
      </g>
     </g>
    </g>
    <g id="xtick_2">
     <g id="line2d_2">
      <g>
       <use style="stroke:#000000;stroke-width:0.8;" x="346.768991" xlink:href="#m7b0db4987e" y="512.64"/>
      </g>
     </g>
     <g id="text_2">
      <!-- 2020-03-12 -->
      <g transform="translate(317.711179 527.238438)scale(0.1 -0.1)">
       <defs>
        <path d="M 40.578125 39.3125 
Q 47.65625 37.796875 51.625 33 
Q 55.609375 28.21875 55.609375 21.1875 
Q 55.609375 10.40625 48.1875 4.484375 
Q 40.765625 -1.421875 27.09375 -1.421875 
Q 22.515625 -1.421875 17.65625 -0.515625 
Q 12.796875 0.390625 7.625 2.203125 
L 7.625 11.71875 
Q 11.71875 9.328125 16.59375 8.109375 
Q 21.484375 6.890625 26.8125 6.890625 
Q 36.078125 6.890625 40.9375 10.546875 
Q 45.796875 14.203125 45.796875 21.1875 
Q 45.796875 27.640625 41.28125 31.265625 
Q 36.765625 34.90625 28.71875 34.90625 
L 20.21875 34.90625 
L 20.21875 43.015625 
L 29.109375 43.015625 
Q 36.375 43.015625 40.234375 45.921875 
Q 44.09375 48.828125 44.09375 54.296875 
Q 44.09375 59.90625 40.109375 62.90625 
Q 36.140625 65.921875 28.71875 65.921875 
Q 24.65625 65.921875 20.015625 65.03125 
Q 15.375 64.15625 9.8125 62.3125 
L 9.8125 71.09375 
Q 15.4375 72.65625 20.34375 73.4375 
Q 25.25 74.21875 29.59375 74.21875 
Q 40.828125 74.21875 47.359375 69.109375 
Q 53.90625 64.015625 53.90625 55.328125 
Q 53.90625 49.265625 50.4375 45.09375 
Q 46.96875 40.921875 40.578125 39.3125 
z
" id="DejaVuSans-51"/>
       </defs>
       <use xlink:href="#DejaVuSans-50"/>
       <use x="63.623047" xlink:href="#DejaVuSans-48"/>
       <use x="127.246094" xlink:href="#DejaVuSans-50"/>
       <use x="190.869141" xlink:href="#DejaVuSans-48"/>
       <use x="254.492188" xlink:href="#DejaVuSans-45"/>
       <use x="290.576172" xlink:href="#DejaVuSans-48"/>
       <use x="354.199219" xlink:href="#DejaVuSans-51"/>
       <use x="417.822266" xlink:href="#DejaVuSans-45"/>
       <use x="453.90625" xlink:href="#DejaVuSans-49"/>
       <use x="517.529297" xlink:href="#DejaVuSans-50"/>
      </g>
     </g>
    </g>
    <g id="xtick_3">
     <g id="line2d_3">
      <g>
       <use style="stroke:#000000;stroke-width:0.8;" x="520.492528" xlink:href="#m7b0db4987e" y="512.64"/>
      </g>
     </g>
     <g id="text_3">
      <!-- 2020-05-01 -->
      <g transform="translate(491.434716 527.238438)scale(0.1 -0.1)">
       <defs>
        <path d="M 10.796875 72.90625 
L 49.515625 72.90625 
L 49.515625 64.59375 
L 19.828125 64.59375 
L 19.828125 46.734375 
Q 21.96875 47.46875 24.109375 47.828125 
Q 26.265625 48.1875 28.421875 48.1875 
Q 40.625 48.1875 47.75 41.5 
Q 54.890625 34.8125 54.890625 23.390625 
Q 54.890625 11.625 47.5625 5.09375 
Q 40.234375 -1.421875 26.90625 -1.421875 
Q 22.3125 -1.421875 17.546875 -0.640625 
Q 12.796875 0.140625 7.71875 1.703125 
L 7.71875 11.625 
Q 12.109375 9.234375 16.796875 8.0625 
Q 21.484375 6.890625 26.703125 6.890625 
Q 35.15625 6.890625 40.078125 11.328125 
Q 45.015625 15.765625 45.015625 23.390625 
Q 45.015625 31 40.078125 35.4375 
Q 35.15625 39.890625 26.703125 39.890625 
Q 22.75 39.890625 18.8125 39.015625 
Q 14.890625 38.140625 10.796875 36.28125 
z
" id="DejaVuSans-53"/>
       </defs>
       <use xlink:href="#DejaVuSans-50"/>
       <use x="63.623047" xlink:href="#DejaVuSans-48"/>
       <use x="127.246094" xlink:href="#DejaVuSans-50"/>
       <use x="190.869141" xlink:href="#DejaVuSans-48"/>
       <use x="254.492188" xlink:href="#DejaVuSans-45"/>
       <use x="290.576172" xlink:href="#DejaVuSans-48"/>
       <use x="354.199219" xlink:href="#DejaVuSans-53"/>
       <use x="417.822266" xlink:href="#DejaVuSans-45"/>
       <use x="453.90625" xlink:href="#DejaVuSans-48"/>
       <use x="517.529297" xlink:href="#DejaVuSans-49"/>
      </g>
     </g>
    </g>
    <g id="xtick_4">
     <g id="line2d_4">
      <g>
       <use style="stroke:#000000;stroke-width:0.8;" x="694.216065" xlink:href="#m7b0db4987e" y="512.64"/>
      </g>
     </g>
     <g id="text_4">
      <!-- 2020-06-20 -->
      <g transform="translate(665.158252 527.238438)scale(0.1 -0.1)">
       <defs>
        <path d="M 33.015625 40.375 
Q 26.375 40.375 22.484375 35.828125 
Q 18.609375 31.296875 18.609375 23.390625 
Q 18.609375 15.53125 22.484375 10.953125 
Q 26.375 6.390625 33.015625 6.390625 
Q 39.65625 6.390625 43.53125 10.953125 
Q 47.40625 15.53125 47.40625 23.390625 
Q 47.40625 31.296875 43.53125 35.828125 
Q 39.65625 40.375 33.015625 40.375 
z
M 52.59375 71.296875 
L 52.59375 62.3125 
Q 48.875 64.0625 45.09375 64.984375 
Q 41.3125 65.921875 37.59375 65.921875 
Q 27.828125 65.921875 22.671875 59.328125 
Q 17.53125 52.734375 16.796875 39.40625 
Q 19.671875 43.65625 24.015625 45.921875 
Q 28.375 48.1875 33.59375 48.1875 
Q 44.578125 48.1875 50.953125 41.515625 
Q 57.328125 34.859375 57.328125 23.390625 
Q 57.328125 12.15625 50.6875 5.359375 
Q 44.046875 -1.421875 33.015625 -1.421875 
Q 20.359375 -1.421875 13.671875 8.265625 
Q 6.984375 17.96875 6.984375 36.375 
Q 6.984375 53.65625 15.1875 63.9375 
Q 23.390625 74.21875 37.203125 74.21875 
Q 40.921875 74.21875 44.703125 73.484375 
Q 48.484375 72.75 52.59375 71.296875 
z
" id="DejaVuSans-54"/>
       </defs>
       <use xlink:href="#DejaVuSans-50"/>
       <use x="63.623047" xlink:href="#DejaVuSans-48"/>
       <use x="127.246094" xlink:href="#DejaVuSans-50"/>
       <use x="190.869141" xlink:href="#DejaVuSans-48"/>
       <use x="254.492188" xlink:href="#DejaVuSans-45"/>
       <use x="290.576172" xlink:href="#DejaVuSans-48"/>
       <use x="354.199219" xlink:href="#DejaVuSans-54"/>
       <use x="417.822266" xlink:href="#DejaVuSans-45"/>
       <use x="453.90625" xlink:href="#DejaVuSans-50"/>
       <use x="517.529297" xlink:href="#DejaVuSans-48"/>
      </g>
     </g>
    </g>
    <g id="xtick_5">
     <g id="line2d_5">
      <g>
       <use style="stroke:#000000;stroke-width:0.8;" x="867.939601" xlink:href="#m7b0db4987e" y="512.64"/>
      </g>
     </g>
     <g id="text_5">
      <!-- 2020-08-09 -->
      <g transform="translate(838.881789 527.238438)scale(0.1 -0.1)">
       <defs>
        <path d="M 31.78125 34.625 
Q 24.75 34.625 20.71875 30.859375 
Q 16.703125 27.09375 16.703125 20.515625 
Q 16.703125 13.921875 20.71875 10.15625 
Q 24.75 6.390625 31.78125 6.390625 
Q 38.8125 6.390625 42.859375 10.171875 
Q 46.921875 13.96875 46.921875 20.515625 
Q 46.921875 27.09375 42.890625 30.859375 
Q 38.875 34.625 31.78125 34.625 
z
M 21.921875 38.8125 
Q 15.578125 40.375 12.03125 44.71875 
Q 8.5 49.078125 8.5 55.328125 
Q 8.5 64.0625 14.71875 69.140625 
Q 20.953125 74.21875 31.78125 74.21875 
Q 42.671875 74.21875 48.875 69.140625 
Q 55.078125 64.0625 55.078125 55.328125 
Q 55.078125 49.078125 51.53125 44.71875 
Q 48 40.375 41.703125 38.8125 
Q 48.828125 37.15625 52.796875 32.3125 
Q 56.78125 27.484375 56.78125 20.515625 
Q 56.78125 9.90625 50.3125 4.234375 
Q 43.84375 -1.421875 31.78125 -1.421875 
Q 19.734375 -1.421875 13.25 4.234375 
Q 6.78125 9.90625 6.78125 20.515625 
Q 6.78125 27.484375 10.78125 32.3125 
Q 14.796875 37.15625 21.921875 38.8125 
z
M 18.3125 54.390625 
Q 18.3125 48.734375 21.84375 45.5625 
Q 25.390625 42.390625 31.78125 42.390625 
Q 38.140625 42.390625 41.71875 45.5625 
Q 45.3125 48.734375 45.3125 54.390625 
Q 45.3125 60.0625 41.71875 63.234375 
Q 38.140625 66.40625 31.78125 66.40625 
Q 25.390625 66.40625 21.84375 63.234375 
Q 18.3125 60.0625 18.3125 54.390625 
z
" id="DejaVuSans-56"/>
        <path d="M 10.984375 1.515625 
L 10.984375 10.5 
Q 14.703125 8.734375 18.5 7.8125 
Q 22.3125 6.890625 25.984375 6.890625 
Q 35.75 6.890625 40.890625 13.453125 
Q 46.046875 20.015625 46.78125 33.40625 
Q 43.953125 29.203125 39.59375 26.953125 
Q 35.25 24.703125 29.984375 24.703125 
Q 19.046875 24.703125 12.671875 31.3125 
Q 6.296875 37.9375 6.296875 49.421875 
Q 6.296875 60.640625 12.9375 67.421875 
Q 19.578125 74.21875 30.609375 74.21875 
Q 43.265625 74.21875 49.921875 64.515625 
Q 56.59375 54.828125 56.59375 36.375 
Q 56.59375 19.140625 48.40625 8.859375 
Q 40.234375 -1.421875 26.421875 -1.421875 
Q 22.703125 -1.421875 18.890625 -0.6875 
Q 15.09375 0.046875 10.984375 1.515625 
z
M 30.609375 32.421875 
Q 37.25 32.421875 41.125 36.953125 
Q 45.015625 41.5 45.015625 49.421875 
Q 45.015625 57.28125 41.125 61.84375 
Q 37.25 66.40625 30.609375 66.40625 
Q 23.96875 66.40625 20.09375 61.84375 
Q 16.21875 57.28125 16.21875 49.421875 
Q 16.21875 41.5 20.09375 36.953125 
Q 23.96875 32.421875 30.609375 32.421875 
z
" id="DejaVuSans-57"/>
       </defs>
       <use xlink:href="#DejaVuSans-50"/>
       <use x="63.623047" xlink:href="#DejaVuSans-48"/>
       <use x="127.246094" xlink:href="#DejaVuSans-50"/>
       <use x="190.869141" xlink:href="#DejaVuSans-48"/>
       <use x="254.492188" xlink:href="#DejaVuSans-45"/>
       <use x="290.576172" xlink:href="#DejaVuSans-48"/>
       <use x="354.199219" xlink:href="#DejaVuSans-56"/>
       <use x="417.822266" xlink:href="#DejaVuSans-45"/>
       <use x="453.90625" xlink:href="#DejaVuSans-48"/>
       <use x="517.529297" xlink:href="#DejaVuSans-57"/>
      </g>
     </g>
    </g>
    <g id="text_6">
     <!-- Date -->
     <g transform="translate(541.549219 540.916563)scale(0.1 -0.1)">
      <defs>
       <path d="M 19.671875 64.796875 
L 19.671875 8.109375 
L 31.59375 8.109375 
Q 46.6875 8.109375 53.6875 14.9375 
Q 60.6875 21.78125 60.6875 36.53125 
Q 60.6875 51.171875 53.6875 57.984375 
Q 46.6875 64.796875 31.59375 64.796875 
z
M 9.8125 72.90625 
L 30.078125 72.90625 
Q 51.265625 72.90625 61.171875 64.09375 
Q 71.09375 55.28125 71.09375 36.53125 
Q 71.09375 17.671875 61.125 8.828125 
Q 51.171875 0 30.078125 0 
L 9.8125 0 
z
" id="DejaVuSans-68"/>
       <path d="M 34.28125 27.484375 
Q 23.390625 27.484375 19.1875 25 
Q 14.984375 22.515625 14.984375 16.5 
Q 14.984375 11.71875 18.140625 8.90625 
Q 21.296875 6.109375 26.703125 6.109375 
Q 34.1875 6.109375 38.703125 11.40625 
Q 43.21875 16.703125 43.21875 25.484375 
L 43.21875 27.484375 
z
M 52.203125 31.203125 
L 52.203125 0 
L 43.21875 0 
L 43.21875 8.296875 
Q 40.140625 3.328125 35.546875 0.953125 
Q 30.953125 -1.421875 24.3125 -1.421875 
Q 15.921875 -1.421875 10.953125 3.296875 
Q 6 8.015625 6 15.921875 
Q 6 25.140625 12.171875 29.828125 
Q 18.359375 34.515625 30.609375 34.515625 
L 43.21875 34.515625 
L 43.21875 35.40625 
Q 43.21875 41.609375 39.140625 45 
Q 35.0625 48.390625 27.6875 48.390625 
Q 23 48.390625 18.546875 47.265625 
Q 14.109375 46.140625 10.015625 43.890625 
L 10.015625 52.203125 
Q 14.9375 54.109375 19.578125 55.046875 
Q 24.21875 56 28.609375 56 
Q 40.484375 56 46.34375 49.84375 
Q 52.203125 43.703125 52.203125 31.203125 
z
" id="DejaVuSans-97"/>
       <path d="M 18.3125 70.21875 
L 18.3125 54.6875 
L 36.8125 54.6875 
L 36.8125 47.703125 
L 18.3125 47.703125 
L 18.3125 18.015625 
Q 18.3125 11.328125 20.140625 9.421875 
Q 21.96875 7.515625 27.59375 7.515625 
L 36.8125 7.515625 
L 36.8125 0 
L 27.59375 0 
Q 17.1875 0 13.234375 3.875 
Q 9.28125 7.765625 9.28125 18.015625 
L 9.28125 47.703125 
L 2.6875 47.703125 
L 2.6875 54.6875 
L 9.28125 54.6875 
L 9.28125 70.21875 
z
" id="DejaVuSans-116"/>
       <path d="M 56.203125 29.59375 
L 56.203125 25.203125 
L 14.890625 25.203125 
Q 15.484375 15.921875 20.484375 11.0625 
Q 25.484375 6.203125 34.421875 6.203125 
Q 39.59375 6.203125 44.453125 7.46875 
Q 49.3125 8.734375 54.109375 11.28125 
L 54.109375 2.78125 
Q 49.265625 0.734375 44.1875 -0.34375 
Q 39.109375 -1.421875 33.890625 -1.421875 
Q 20.796875 -1.421875 13.15625 6.1875 
Q 5.515625 13.8125 5.515625 26.8125 
Q 5.515625 40.234375 12.765625 48.109375 
Q 20.015625 56 32.328125 56 
Q 43.359375 56 49.78125 48.890625 
Q 56.203125 41.796875 56.203125 29.59375 
z
M 47.21875 32.234375 
Q 47.125 39.59375 43.09375 43.984375 
Q 39.0625 48.390625 32.421875 48.390625 
Q 24.90625 48.390625 20.390625 44.140625 
Q 15.875 39.890625 15.1875 32.171875 
z
" id="DejaVuSans-101"/>
      </defs>
      <use xlink:href="#DejaVuSans-68"/>
      <use x="77.001953" xlink:href="#DejaVuSans-97"/>
      <use x="138.28125" xlink:href="#DejaVuSans-116"/>
      <use x="177.490234" xlink:href="#DejaVuSans-101"/>
     </g>
    </g>
   </g>
   <g id="matplotlib.axis_2">
    <g id="ytick_1">
     <g id="line2d_6">
      <defs>
       <path d="M 0 0 
L -3.5 0 
" id="m122e952f40" style="stroke:#000000;stroke-width:0.8;"/>
      </defs>
      <g>
       <use style="stroke:#000000;stroke-width:0.8;" x="135" xlink:href="#m122e952f40" y="492.48"/>
      </g>
     </g>
     <g id="text_7">
      <!-- 0 -->
      <g transform="translate(121.6375 496.279219)scale(0.1 -0.1)">
       <use xlink:href="#DejaVuSans-48"/>
      </g>
     </g>
    </g>
    <g id="ytick_2">
     <g id="line2d_7">
      <g>
       <use style="stroke:#000000;stroke-width:0.8;" x="135" xlink:href="#m122e952f40" y="434.693432"/>
      </g>
     </g>
     <g id="text_8">
      <!-- 5000 -->
      <g transform="translate(102.55 438.492651)scale(0.1 -0.1)">
       <use xlink:href="#DejaVuSans-53"/>
       <use x="63.623047" xlink:href="#DejaVuSans-48"/>
       <use x="127.246094" xlink:href="#DejaVuSans-48"/>
       <use x="190.869141" xlink:href="#DejaVuSans-48"/>
      </g>
     </g>
    </g>
    <g id="ytick_3">
     <g id="line2d_8">
      <g>
       <use style="stroke:#000000;stroke-width:0.8;" x="135" xlink:href="#m122e952f40" y="376.906864"/>
      </g>
     </g>
     <g id="text_9">
      <!-- 10000 -->
      <g transform="translate(96.1875 380.706083)scale(0.1 -0.1)">
       <use xlink:href="#DejaVuSans-49"/>
       <use x="63.623047" xlink:href="#DejaVuSans-48"/>
       <use x="127.246094" xlink:href="#DejaVuSans-48"/>
       <use x="190.869141" xlink:href="#DejaVuSans-48"/>
       <use x="254.492188" xlink:href="#DejaVuSans-48"/>
      </g>
     </g>
    </g>
    <g id="ytick_4">
     <g id="line2d_9">
      <g>
       <use style="stroke:#000000;stroke-width:0.8;" x="135" xlink:href="#m122e952f40" y="319.120296"/>
      </g>
     </g>
     <g id="text_10">
      <!-- 15000 -->
      <g transform="translate(96.1875 322.919515)scale(0.1 -0.1)">
       <use xlink:href="#DejaVuSans-49"/>
       <use x="63.623047" xlink:href="#DejaVuSans-53"/>
       <use x="127.246094" xlink:href="#DejaVuSans-48"/>
       <use x="190.869141" xlink:href="#DejaVuSans-48"/>
       <use x="254.492188" xlink:href="#DejaVuSans-48"/>
      </g>
     </g>
    </g>
    <g id="ytick_5">
     <g id="line2d_10">
      <g>
       <use style="stroke:#000000;stroke-width:0.8;" x="135" xlink:href="#m122e952f40" y="261.333728"/>
      </g>
     </g>
     <g id="text_11">
      <!-- 20000 -->
      <g transform="translate(96.1875 265.132946)scale(0.1 -0.1)">
       <use xlink:href="#DejaVuSans-50"/>
       <use x="63.623047" xlink:href="#DejaVuSans-48"/>
       <use x="127.246094" xlink:href="#DejaVuSans-48"/>
       <use x="190.869141" xlink:href="#DejaVuSans-48"/>
       <use x="254.492188" xlink:href="#DejaVuSans-48"/>
      </g>
     </g>
    </g>
    <g id="ytick_6">
     <g id="line2d_11">
      <g>
       <use style="stroke:#000000;stroke-width:0.8;" x="135" xlink:href="#m122e952f40" y="203.54716"/>
      </g>
     </g>
     <g id="text_12">
      <!-- 25000 -->
      <g transform="translate(96.1875 207.346378)scale(0.1 -0.1)">
       <use xlink:href="#DejaVuSans-50"/>
       <use x="63.623047" xlink:href="#DejaVuSans-53"/>
       <use x="127.246094" xlink:href="#DejaVuSans-48"/>
       <use x="190.869141" xlink:href="#DejaVuSans-48"/>
       <use x="254.492188" xlink:href="#DejaVuSans-48"/>
      </g>
     </g>
    </g>
    <g id="ytick_7">
     <g id="line2d_12">
      <g>
       <use style="stroke:#000000;stroke-width:0.8;" x="135" xlink:href="#m122e952f40" y="145.760592"/>
      </g>
     </g>
     <g id="text_13">
      <!-- 30000 -->
      <g transform="translate(96.1875 149.55981)scale(0.1 -0.1)">
       <use xlink:href="#DejaVuSans-51"/>
       <use x="63.623047" xlink:href="#DejaVuSans-48"/>
       <use x="127.246094" xlink:href="#DejaVuSans-48"/>
       <use x="190.869141" xlink:href="#DejaVuSans-48"/>
       <use x="254.492188" xlink:href="#DejaVuSans-48"/>
      </g>
     </g>
    </g>
    <g id="ytick_8">
     <g id="line2d_13">
      <g>
       <use style="stroke:#000000;stroke-width:0.8;" x="135" xlink:href="#m122e952f40" y="87.974024"/>
      </g>
     </g>
     <g id="text_14">
      <!-- 35000 -->
      <g transform="translate(96.1875 91.773242)scale(0.1 -0.1)">
       <use xlink:href="#DejaVuSans-51"/>
       <use x="63.623047" xlink:href="#DejaVuSans-53"/>
       <use x="127.246094" xlink:href="#DejaVuSans-48"/>
       <use x="190.869141" xlink:href="#DejaVuSans-48"/>
       <use x="254.492188" xlink:href="#DejaVuSans-48"/>
      </g>
     </g>
    </g>
    <g id="text_15">
     <!-- Trend -->
     <g transform="translate(90.107812 304.558906)rotate(-90)scale(0.1 -0.1)">
      <defs>
       <path d="M -0.296875 72.90625 
L 61.375 72.90625 
L 61.375 64.59375 
L 35.5 64.59375 
L 35.5 0 
L 25.59375 0 
L 25.59375 64.59375 
L -0.296875 64.59375 
z
" id="DejaVuSans-84"/>
       <path d="M 41.109375 46.296875 
Q 39.59375 47.171875 37.8125 47.578125 
Q 36.03125 48 33.890625 48 
Q 26.265625 48 22.1875 43.046875 
Q 18.109375 38.09375 18.109375 28.8125 
L 18.109375 0 
L 9.078125 0 
L 9.078125 54.6875 
L 18.109375 54.6875 
L 18.109375 46.1875 
Q 20.953125 51.171875 25.484375 53.578125 
Q 30.03125 56 36.53125 56 
Q 37.453125 56 38.578125 55.875 
Q 39.703125 55.765625 41.0625 55.515625 
z
" id="DejaVuSans-114"/>
       <path d="M 54.890625 33.015625 
L 54.890625 0 
L 45.90625 0 
L 45.90625 32.71875 
Q 45.90625 40.484375 42.875 44.328125 
Q 39.84375 48.1875 33.796875 48.1875 
Q 26.515625 48.1875 22.3125 43.546875 
Q 18.109375 38.921875 18.109375 30.90625 
L 18.109375 0 
L 9.078125 0 
L 9.078125 54.6875 
L 18.109375 54.6875 
L 18.109375 46.1875 
Q 21.34375 51.125 25.703125 53.5625 
Q 30.078125 56 35.796875 56 
Q 45.21875 56 50.046875 50.171875 
Q 54.890625 44.34375 54.890625 33.015625 
z
" id="DejaVuSans-110"/>
       <path d="M 45.40625 46.390625 
L 45.40625 75.984375 
L 54.390625 75.984375 
L 54.390625 0 
L 45.40625 0 
L 45.40625 8.203125 
Q 42.578125 3.328125 38.25 0.953125 
Q 33.9375 -1.421875 27.875 -1.421875 
Q 17.96875 -1.421875 11.734375 6.484375 
Q 5.515625 14.40625 5.515625 27.296875 
Q 5.515625 40.1875 11.734375 48.09375 
Q 17.96875 56 27.875 56 
Q 33.9375 56 38.25 53.625 
Q 42.578125 51.265625 45.40625 46.390625 
z
M 14.796875 27.296875 
Q 14.796875 17.390625 18.875 11.75 
Q 22.953125 6.109375 30.078125 6.109375 
Q 37.203125 6.109375 41.296875 11.75 
Q 45.40625 17.390625 45.40625 27.296875 
Q 45.40625 37.203125 41.296875 42.84375 
Q 37.203125 48.484375 30.078125 48.484375 
Q 22.953125 48.484375 18.875 42.84375 
Q 14.796875 37.203125 14.796875 27.296875 
z
" id="DejaVuSans-100"/>
      </defs>
      <use xlink:href="#DejaVuSans-84"/>
      <use x="46.333984" xlink:href="#DejaVuSans-114"/>
      <use x="85.197266" xlink:href="#DejaVuSans-101"/>
      <use x="146.720703" xlink:href="#DejaVuSans-110"/>
      <use x="210.099609" xlink:href="#DejaVuSans-100"/>
     </g>
    </g>
   </g>
   <g id="line2d_14">
    <path clip-path="url(#pe1887635fb)" d="M 173.045455 492.48 
L 273.805106 492.445328 
L 277.279577 492.329755 
L 284.228518 492.30664 
L 287.702989 492.271968 
L 294.65193 491.971478 
L 298.126401 491.254925 
L 301.600872 490.827304 
L 305.075342 490.110751 
L 308.549813 488.030434 
L 312.024284 486.435525 
L 315.498755 482.829643 
L 318.973225 485.707414 
L 322.447696 485.649628 
L 325.922167 478.218275 
L 329.396638 480.044331 
L 332.871108 483.892916 
L 336.345579 485.603398 
L 339.82005 482.298007 
L 343.294521 481.408094 
L 346.768991 480.055888 
L 350.243462 477.582623 
L 353.717933 476.704267 
L 360.666874 480.310149 
L 364.141345 478.865485 
L 367.615816 478.703682 
L 371.090286 480.39105 
L 374.564757 478.183603 
L 378.039228 481.315635 
L 381.513699 480.599082 
L 384.988169 476.17263 
L 388.46264 472.116013 
L 391.937111 466.984566 
L 395.411582 464.869578 
L 398.886052 458.6633 
L 402.360523 456.929703 
L 405.834994 458.952233 
L 409.309465 455.658399 
L 412.783935 456.536755 
L 419.732877 459.252723 
L 426.681818 462.893277 
L 430.156289 463.78319 
L 433.63076 466.198669 
L 437.10523 468.336772 
L 440.579701 469.400045 
L 444.054172 473.59535 
L 447.528643 469.688978 
L 451.003113 471.249215 
L 454.477584 473.329531 
L 461.426526 474.288788 
L 464.900996 475.005342 
L 468.375467 473.918954 
L 471.849938 475.155587 
L 475.324408 476.600251 
L 478.798879 476.958528 
L 482.27335 477.524836 
L 485.747821 477.490164 
L 489.222291 478.680568 
L 492.696762 480.575967 
L 496.171233 478.981058 
L 499.645704 479.374006 
L 503.120174 479.154417 
L 506.594645 481.026702 
L 510.069116 479.628267 
L 513.543587 480.079002 
L 517.018057 481.119161 
L 520.492528 480.853343 
L 523.966999 483.211034 
L 527.441469 481.200062 
L 530.91594 478.345405 
L 534.390411 477.189674 
L 537.864882 473.063713 
L 541.339352 475.317389 
L 544.813823 474.49682 
L 548.288294 474.808867 
L 551.762765 476.496235 
L 555.237235 473.029041 
L 558.711706 475.363619 
L 562.186177 469.85078 
L 565.660648 471.584377 
L 569.135118 468.186527 
L 572.609589 472.1738 
L 576.08406 471.607492 
L 579.558531 465.967523 
L 583.033001 468.082511 
L 586.507472 465.366542 
L 589.981943 464.834906 
L 593.456413 465.771048 
L 596.930884 470.879381 
L 600.405355 467.285056 
L 603.879826 469.099555 
L 607.354296 471.827081 
L 610.828767 468.440788 
L 614.303238 466.383586 
L 617.777709 459.899933 
L 621.252179 466.10621 
L 624.72665 463.401799 
L 628.201121 458.050763 
L 631.675592 456.455853 
L 635.150062 456.259379 
L 638.624533 451.174161 
L 642.099004 459.125593 
L 645.573474 466.256455 
L 649.047945 465.158511 
L 652.522416 468.868408 
L 655.996887 468.267428 
L 659.471357 469.238242 
L 662.945828 466.845878 
L 666.420299 465.100724 
L 669.89477 464.395728 
L 673.36924 463.910321 
L 676.843711 464.176139 
L 680.318182 462.858605 
L 683.792653 462.292297 
L 687.267123 462.477214 
L 690.741594 462.257625 
L 694.216065 465.643918 
L 697.690535 465.112281 
L 701.165006 462.743032 
L 704.639477 464.222368 
L 708.113948 463.228439 
L 711.588418 462.488771 
L 715.062889 462.10738 
L 718.53736 464.095238 
L 722.011831 463.713846 
L 725.486301 463.170653 
L 728.960772 464.08368 
L 732.435243 463.020408 
L 735.909714 461.830004 
L 739.384184 462.823933 
L 742.858655 464.176139 
L 746.333126 462.893277 
L 749.807597 462.28074 
L 753.282067 462.003364 
L 756.756538 461.379269 
L 760.231009 468.452345 
L 763.705479 466.337357 
L 767.17995 464.777119 
L 770.654421 467.215712 
L 777.603362 463.344012 
L 781.077833 464.881135 
L 784.552304 463.586716 
L 788.026775 464.985151 
L 791.501245 467.446859 
L 794.975716 467.261942 
L 798.450187 464.580645 
L 801.924658 462.142052 
L 805.399128 462.592787 
L 808.873599 462.188281 
L 812.34807 463.713846 
L 815.82254 465.713262 
L 819.297011 465.516787 
L 822.771482 464.349499 
L 826.245953 461.656645 
L 829.720423 462.014921 
L 833.194894 462.188281 
L 836.669365 461.575743 
L 840.143836 463.031965 
L 843.618306 461.448613 
L 847.092777 462.454099 
L 850.567248 460.68583 
L 857.516189 462.038036 
L 860.99066 464.164582 
L 864.465131 467.920709 
L 867.939601 469.134227 
L 871.414072 467.839807 
L 874.888543 465.3781 
L 878.363014 463.471143 
L 881.837484 462.142052 
L 885.311955 463.575159 
L 888.786426 466.533831 
L 892.260897 467.82825 
L 895.735367 466.510716 
L 899.209838 464.915807 
L 902.684309 464.233926 
L 906.15878 466.140882 
L 909.63325 466.984566 
L 913.107721 469.041768 
L 916.582192 468.059396 
L 920.056663 466.533831 
L 923.531133 466.903665 
L 927.005604 466.556946 
L 930.480075 467.169483 
L 933.954545 468.036282 
L 933.954545 468.036282 
" style="fill:none;stroke:#1f77b4;stroke-linecap:square;stroke-width:1.5;"/>
   </g>
   <g id="line2d_15">
    <path clip-path="url(#pe1887635fb)" d="M 173.045455 492.48 
L 305.075342 492.375984 
L 329.396638 492.237296 
L 332.871108 491.913692 
L 336.345579 491.983036 
L 371.090286 490.75796 
L 374.564757 490.75796 
L 378.039228 491.05845 
L 384.988169 491.012221 
L 388.46264 491.070008 
L 395.411582 490.665502 
L 405.834994 491.05845 
L 409.309465 491.127794 
L 412.783935 490.850419 
L 416.258406 490.885091 
L 419.732877 491.046893 
L 423.207347 490.93132 
L 426.681818 490.653944 
L 447.528643 491.070008 
L 451.003113 491.035336 
L 468.375467 491.416727 
L 471.849938 491.451399 
L 475.324408 491.636316 
L 478.798879 491.474514 
L 489.222291 491.393613 
L 499.645704 491.601644 
L 503.120174 491.786561 
L 506.594645 491.370498 
L 510.069116 491.659431 
L 513.543587 491.555415 
L 520.492528 491.751889 
L 523.966999 491.728775 
L 527.441469 491.936806 
L 530.91594 491.624759 
L 534.390411 491.751889 
L 537.864882 491.57853 
L 548.288294 491.925249 
L 558.711706 491.925249 
L 562.186177 491.902134 
L 565.660648 491.659431 
L 569.135118 491.925249 
L 572.609589 492.075494 
L 579.558531 491.682545 
L 586.507472 491.740332 
L 589.981943 491.717217 
L 593.456413 491.890577 
L 600.405355 491.809676 
L 603.879826 492.087051 
L 607.354296 491.821233 
L 621.252179 491.821233 
L 624.72665 491.751889 
L 628.201121 491.543858 
L 631.675592 491.740332 
L 635.150062 491.670988 
L 638.624533 491.798118 
L 662.945828 491.57853 
L 669.89477 491.659431 
L 673.36924 491.243367 
L 683.792653 491.093122 
L 687.267123 491.474514 
L 690.741594 491.093122 
L 697.690535 491.139352 
L 711.588418 490.93132 
L 715.062889 491.220253 
L 725.486301 490.607715 
L 732.435243 490.850419 
L 739.384184 490.700174 
L 742.858655 490.769518 
L 746.333126 490.596158 
L 749.807597 490.63083 
L 753.282067 490.168537 
L 756.756538 490.711731 
L 760.231009 489.925834 
L 763.705479 490.838861 
L 767.17995 490.307225 
L 774.128892 490.133865 
L 777.603362 490.411241 
L 781.077833 490.180095 
L 784.552304 490.191652 
L 788.026775 490.365012 
L 791.501245 490.307225 
L 794.975716 490.064521 
L 801.924658 489.833375 
L 805.399128 489.948948 
L 812.34807 489.995178 
L 815.82254 490.226324 
L 819.297011 489.98362 
L 822.771482 490.02985 
L 826.245953 489.764031 
L 829.720423 490.214767 
L 833.194894 489.868047 
L 836.669365 490.203209 
L 840.143836 489.98362 
L 843.618306 490.076079 
L 847.092777 489.995178 
L 850.567248 490.02985 
L 854.041719 490.341897 
L 860.99066 490.677059 
L 864.465131 490.954435 
L 871.414072 490.295668 
L 888.786426 490.619273 
L 892.260897 490.781075 
L 895.735367 490.573043 
L 899.209838 490.538371 
L 906.15878 490.873533 
L 909.63325 491.185581 
L 916.582192 490.850419 
L 930.480075 491.127794 
L 933.954545 491.185581 
L 933.954545 491.185581 
" style="fill:none;stroke:#ff7f0e;stroke-linecap:square;stroke-width:1.5;"/>
   </g>
   <g id="line2d_16">
    <path clip-path="url(#pe1887635fb)" d="M 173.045455 492.48 
L 291.17746 492.48 
L 294.65193 491.913692 
L 298.126401 492.48 
L 305.075342 491.902134 
L 308.549813 491.87902 
L 312.024284 491.139352 
L 315.498755 492.48 
L 318.973225 489.463541 
L 322.447696 490.318782 
L 325.922167 490.469027 
L 329.396638 483.742671 
L 332.871108 487.105849 
L 336.345579 489.475098 
L 339.82005 488.585185 
L 343.294521 489.844932 
L 346.768991 492.48 
L 353.717933 492.48 
L 357.192403 473.630021 
L 360.666874 492.48 
L 364.141345 483.245706 
L 367.615816 492.48 
L 371.090286 488.770102 
L 374.564757 480.51818 
L 378.039228 482.193991 
L 381.513699 489.059035 
L 384.988169 492.48 
L 388.46264 481.130718 
L 391.937111 484.251193 
L 395.411582 482.864315 
L 398.886052 484.667256 
L 402.360523 486.169707 
L 405.834994 484.251193 
L 409.309465 474.912883 
L 412.783935 483.869801 
L 416.258406 483.037675 
L 419.732877 478.172046 
L 423.207347 478.333848 
L 426.681818 471.665278 
L 430.156289 492.48 
L 433.63076 440.472089 
L 437.10523 460.08485 
L 440.579701 460.431569 
L 444.054172 463.621388 
L 447.528643 456.005118 
L 451.003113 417.565493 
L 454.477584 469.97791 
L 457.952055 468.336772 
L 461.426526 467.678005 
L 464.900996 471.630606 
L 468.375467 465.944408 
L 471.849938 471.27233 
L 475.324408 470.255286 
L 478.798879 480.506623 
L 482.27335 466.476044 
L 485.747821 472.925025 
L 489.222291 467.65489 
L 492.696762 472.485847 
L 496.171233 472.185357 
L 499.645704 474.057642 
L 503.120174 475.560093 
L 506.594645 477.732868 
L 510.069116 475.074686 
L 513.543587 476.854512 
L 517.018057 477.316805 
L 520.492528 478.437864 
L 523.966999 480.552852 
L 527.441469 480.09056 
L 530.91594 481.419651 
L 534.390411 479.813184 
L 537.864882 479.628267 
L 541.339352 479.108188 
L 544.813823 479.847856 
L 548.288294 478.299176 
L 551.762765 480.009659 
L 555.237235 477.698196 
L 558.711706 481.673912 
L 562.186177 480.102117 
L 565.660648 479.639825 
L 569.135118 477.490164 
L 576.08406 477.259018 
L 579.558531 478.645896 
L 583.033001 475.005342 
L 589.981943 472.185357 
L 593.456413 472.693879 
L 596.930884 471.723065 
L 600.405355 472.497405 
L 603.879826 470.382416 
L 607.354296 472.555191 
L 610.828767 472.381832 
L 614.303238 471.538148 
L 617.777709 470.02414 
L 621.252179 470.567333 
L 628.201121 467.562432 
L 631.675592 468.521689 
L 635.150062 467.874479 
L 638.624533 466.140882 
L 642.099004 466.4067 
L 645.573474 465.932851 
L 649.047945 465.771048 
L 652.522416 469.238242 
L 655.996887 468.244313 
L 659.471357 467.82825 
L 662.945828 468.521689 
L 666.420299 469.527175 
L 669.89477 468.221199 
L 673.36924 470.220614 
L 676.843711 470.336187 
L 680.318182 468.383001 
L 683.792653 467.782021 
L 687.267123 467.296614 
L 690.741594 467.042353 
L 694.216065 467.146369 
L 697.690535 466.973009 
L 701.165006 459.703459 
L 704.639477 460.893862 
L 708.113948 458.547727 
L 711.588418 457.727158 
L 715.062889 460.708945 
L 718.53736 460.015506 
L 722.011831 461.864676 
L 725.486301 459.31051 
L 728.960772 462.685246 
L 732.435243 460.940091 
L 735.909714 462.303854 
L 739.384184 465.343428 
L 742.858655 463.552044 
L 746.333126 464.962036 
L 749.807597 460.662716 
L 753.282067 458.767316 
L 756.756538 464.014337 
L 760.231009 461.125008 
L 763.705479 459.668787 
L 767.17995 461.841562 
L 770.654421 465.586131 
L 774.128892 463.05508 
L 777.603362 460.916977 
L 781.077833 466.002195 
L 784.552304 457.264865 
L 788.026775 466.302685 
L 791.501245 464.4304 
L 794.975716 463.725404 
L 798.450187 465.909736 
L 801.924658 466.314242 
L 805.399128 463.713846 
L 808.873599 464.85802 
L 812.34807 469.573404 
L 815.82254 468.12874 
L 819.297011 470.590448 
L 822.771482 470.162827 
L 826.245953 470.810037 
L 829.720423 468.244313 
L 833.194894 468.394558 
L 836.669365 465.67859 
L 840.143836 465.771048 
L 843.618306 466.221783 
L 847.092777 467.909151 
L 850.567248 465.817277 
L 854.041719 464.777119 
L 857.516189 463.228439 
L 860.99066 466.348914 
L 864.465131 464.765562 
L 867.939601 466.487602 
L 871.414072 466.233341 
L 874.888543 469.619634 
L 878.363014 473.710923 
L 881.837484 471.515033 
L 885.311955 472.220029 
L 888.786426 471.457247 
L 892.260897 471.029626 
L 895.735367 473.167729 
L 899.209838 472.555191 
L 902.684309 473.445104 
L 906.15878 472.740108 
L 909.63325 473.641579 
L 913.107721 471.260772 
L 916.582192 472.116013 
L 920.056663 470.509547 
L 923.531133 472.913468 
L 927.005604 471.538148 
L 930.480075 472.04667 
L 933.954545 473.618464 
L 933.954545 473.618464 
" style="fill:none;stroke:#2ca02c;stroke-linecap:square;stroke-width:1.5;"/>
   </g>
   <g id="line2d_17">
    <path clip-path="url(#pe1887635fb)" d="M 173.045455 492.48 
L 273.805106 492.445328 
L 287.702989 491.913692 
L 291.17746 491.566972 
L 294.65193 491.659431 
L 298.126401 490.515257 
L 301.600872 489.232395 
L 305.075342 487.545027 
L 308.549813 483.823572 
L 312.024284 479.258433 
L 315.498755 469.735207 
L 318.973225 466.15244 
L 322.447696 461.656645 
L 325.922167 449.602366 
L 329.396638 446.14673 
L 332.871108 443.500105 
L 336.345579 440.125369 
L 339.82005 434.462286 
L 343.294521 426.753557 
L 346.768991 415.196244 
L 350.243462 401.281238 
L 353.717933 386.626565 
L 357.192403 392.809727 
L 360.666874 382.13077 
L 364.141345 379.310785 
L 367.615816 367.233392 
L 371.090286 360.57638 
L 374.564757 359.963842 
L 378.039228 360.507036 
L 381.513699 353.537976 
L 384.988169 338.698385 
L 388.46264 331.093673 
L 391.937111 315.479742 
L 395.411582 299.299503 
L 398.886052 274.9598 
L 402.360523 247.326264 
L 405.834994 223.448854 
L 409.309465 205.546575 
L 412.783935 179.843109 
L 416.258406 156.347091 
L 419.732877 138.860875 
L 423.207347 123.177601 
L 426.681818 116.231655 
L 430.156289 89.28 
L 433.63076 116.578375 
L 437.10523 126.367419 
L 440.579701 136.73433 
L 444.054172 148.060497 
L 447.528643 163.154349 
L 451.003113 218.282735 
L 454.477584 222.986561 
L 457.952055 229.724475 
L 461.426526 237.467875 
L 464.900996 241.928998 
L 468.375467 250.966817 
L 471.849938 255.878676 
L 475.324408 263.067325 
L 478.798879 260.524716 
L 482.27335 272.625223 
L 485.747821 278.207406 
L 489.222291 290.31947 
L 492.696762 299.449748 
L 496.171233 307.320279 
L 499.645704 313.514999 
L 506.594645 322.206099 
L 510.069116 327.580249 
L 513.543587 331.729325 
L 517.018057 336.35225 
L 520.492528 339.49584 
L 523.966999 342.905247 
L 527.441469 344.557943 
L 530.91594 342.338939 
L 534.390411 340.443539 
L 537.864882 334.780456 
L 541.339352 331.775554 
L 544.813823 327.06017 
L 551.762765 321.200612 
L 555.237235 317.051537 
L 558.711706 311.295994 
L 562.186177 301.622523 
L 565.660648 294.387645 
L 569.135118 285.638758 
L 572.609589 280.888702 
L 576.08406 275.826599 
L 579.558531 263.945681 
L 583.033001 257.739403 
L 586.507472 250.261821 
L 589.981943 243.674153 
L 593.456413 237.340745 
L 596.930884 237.178942 
L 600.405355 232.636918 
L 603.879826 231.747005 
L 607.354296 231.677661 
L 610.828767 228.383827 
L 614.303238 223.957376 
L 617.777709 214.411034 
L 621.252179 210.608678 
L 624.72665 205.615919 
L 628.201121 197.040392 
L 631.675592 185.714225 
L 635.150062 174.908137 
L 638.624533 160.623297 
L 642.099004 154.0703 
L 645.573474 155.260703 
L 649.047945 155.480292 
L 652.522416 155.91947 
L 655.996887 156.797826 
L 659.471357 159.143961 
L 662.945828 158.369621 
L 666.420299 154.809968 
L 669.89477 151.805067 
L 673.36924 146.731406 
L 676.843711 141.877334 
L 683.792653 133.579183 
L 687.267123 129.76527 
L 690.741594 126.367419 
L 694.216065 126.19406 
L 697.690535 125.673981 
L 701.165006 130.088874 
L 704.639477 134.815816 
L 711.588418 147.343944 
L 715.062889 150.002126 
L 718.53736 155.526522 
L 722.011831 159.039945 
L 725.486301 164.772373 
L 728.960772 167.869733 
L 732.435243 171.57963 
L 735.909714 172.816263 
L 739.384184 172.076595 
L 742.858655 174.411172 
L 746.333126 174.226255 
L 749.807597 177.693449 
L 753.282067 183.24096 
L 756.756538 182.374161 
L 760.231009 192.255664 
L 763.705479 200.565373 
L 767.17995 205.673705 
L 770.654421 209.545405 
L 777.603362 218.664126 
L 781.077833 219.842972 
L 784.552304 228.453171 
L 788.026775 229.250625 
L 791.501245 234.439859 
L 794.975716 240.391875 
L 798.450187 241.570721 
L 801.924658 240.045156 
L 805.399128 241.455148 
L 808.873599 241.339575 
L 812.34807 237.96484 
L 815.82254 237.803037 
L 819.297011 235.225756 
L 822.771482 231.862578 
L 826.245953 225.425154 
L 829.720423 221.460996 
L 833.194894 217.866671 
L 836.669365 216.040616 
L 840.143836 215.797912 
L 843.618306 213.428663 
L 847.092777 210.458433 
L 850.567248 207.777136 
L 854.041719 206.448045 
L 857.516189 207.268615 
L 860.99066 206.887223 
L 867.939601 216.098402 
L 871.414072 219.889201 
L 874.888543 217.774213 
L 878.363014 209.707208 
L 881.837484 202.345199 
L 885.311955 195.653514 
L 888.786426 192.590826 
L 892.260897 191.088376 
L 895.735367 186.33832 
L 899.209838 180.640564 
L 902.684309 173.197654 
L 906.15878 168.204895 
L 909.63325 162.842301 
L 913.107721 162.079518 
L 920.056663 157.213889 
L 923.531133 152.648751 
L 930.480075 145.517888 
L 933.954545 141.230125 
L 933.954545 141.230125 
" style="fill:none;stroke:#d62728;stroke-linecap:square;stroke-width:1.5;"/>
   </g>
   <g id="patch_3">
    <path d="M 135 512.64 
L 135 69.12 
" style="fill:none;stroke:#000000;stroke-linecap:square;stroke-linejoin:miter;stroke-width:0.8;"/>
   </g>
   <g id="patch_4">
    <path d="M 972 512.64 
L 972 69.12 
" style="fill:none;stroke:#000000;stroke-linecap:square;stroke-linejoin:miter;stroke-width:0.8;"/>
   </g>
   <g id="patch_5">
    <path d="M 135 512.64 
L 972 512.64 
" style="fill:none;stroke:#000000;stroke-linecap:square;stroke-linejoin:miter;stroke-width:0.8;"/>
   </g>
   <g id="patch_6">
    <path d="M 135 69.12 
L 972 69.12 
" style="fill:none;stroke:#000000;stroke-linecap:square;stroke-linejoin:miter;stroke-width:0.8;"/>
   </g>
   <g id="text_16">
    <!-- COVID19 Trend in Iran, Islamic Republic of -->
    <g transform="translate(427.137187 63.12)scale(0.12 -0.12)">
     <defs>
      <path d="M 64.40625 67.28125 
L 64.40625 56.890625 
Q 59.421875 61.53125 53.78125 63.8125 
Q 48.140625 66.109375 41.796875 66.109375 
Q 29.296875 66.109375 22.65625 58.46875 
Q 16.015625 50.828125 16.015625 36.375 
Q 16.015625 21.96875 22.65625 14.328125 
Q 29.296875 6.6875 41.796875 6.6875 
Q 48.140625 6.6875 53.78125 8.984375 
Q 59.421875 11.28125 64.40625 15.921875 
L 64.40625 5.609375 
Q 59.234375 2.09375 53.4375 0.328125 
Q 47.65625 -1.421875 41.21875 -1.421875 
Q 24.65625 -1.421875 15.125 8.703125 
Q 5.609375 18.84375 5.609375 36.375 
Q 5.609375 53.953125 15.125 64.078125 
Q 24.65625 74.21875 41.21875 74.21875 
Q 47.75 74.21875 53.53125 72.484375 
Q 59.328125 70.75 64.40625 67.28125 
z
" id="DejaVuSans-67"/>
      <path d="M 39.40625 66.21875 
Q 28.65625 66.21875 22.328125 58.203125 
Q 16.015625 50.203125 16.015625 36.375 
Q 16.015625 22.609375 22.328125 14.59375 
Q 28.65625 6.59375 39.40625 6.59375 
Q 50.140625 6.59375 56.421875 14.59375 
Q 62.703125 22.609375 62.703125 36.375 
Q 62.703125 50.203125 56.421875 58.203125 
Q 50.140625 66.21875 39.40625 66.21875 
z
M 39.40625 74.21875 
Q 54.734375 74.21875 63.90625 63.9375 
Q 73.09375 53.65625 73.09375 36.375 
Q 73.09375 19.140625 63.90625 8.859375 
Q 54.734375 -1.421875 39.40625 -1.421875 
Q 24.03125 -1.421875 14.8125 8.828125 
Q 5.609375 19.09375 5.609375 36.375 
Q 5.609375 53.65625 14.8125 63.9375 
Q 24.03125 74.21875 39.40625 74.21875 
z
" id="DejaVuSans-79"/>
      <path d="M 28.609375 0 
L 0.78125 72.90625 
L 11.078125 72.90625 
L 34.1875 11.53125 
L 57.328125 72.90625 
L 67.578125 72.90625 
L 39.796875 0 
z
" id="DejaVuSans-86"/>
      <path d="M 9.8125 72.90625 
L 19.671875 72.90625 
L 19.671875 0 
L 9.8125 0 
z
" id="DejaVuSans-73"/>
      <path id="DejaVuSans-32"/>
      <path d="M 9.421875 54.6875 
L 18.40625 54.6875 
L 18.40625 0 
L 9.421875 0 
z
M 9.421875 75.984375 
L 18.40625 75.984375 
L 18.40625 64.59375 
L 9.421875 64.59375 
z
" id="DejaVuSans-105"/>
      <path d="M 11.71875 12.40625 
L 22.015625 12.40625 
L 22.015625 4 
L 14.015625 -11.625 
L 7.71875 -11.625 
L 11.71875 4 
z
" id="DejaVuSans-44"/>
      <path d="M 44.28125 53.078125 
L 44.28125 44.578125 
Q 40.484375 46.53125 36.375 47.5 
Q 32.28125 48.484375 27.875 48.484375 
Q 21.1875 48.484375 17.84375 46.4375 
Q 14.5 44.390625 14.5 40.28125 
Q 14.5 37.15625 16.890625 35.375 
Q 19.28125 33.59375 26.515625 31.984375 
L 29.59375 31.296875 
Q 39.15625 29.25 43.1875 25.515625 
Q 47.21875 21.78125 47.21875 15.09375 
Q 47.21875 7.46875 41.1875 3.015625 
Q 35.15625 -1.421875 24.609375 -1.421875 
Q 20.21875 -1.421875 15.453125 -0.5625 
Q 10.6875 0.296875 5.421875 2 
L 5.421875 11.28125 
Q 10.40625 8.6875 15.234375 7.390625 
Q 20.0625 6.109375 24.8125 6.109375 
Q 31.15625 6.109375 34.5625 8.28125 
Q 37.984375 10.453125 37.984375 14.40625 
Q 37.984375 18.0625 35.515625 20.015625 
Q 33.0625 21.96875 24.703125 23.78125 
L 21.578125 24.515625 
Q 13.234375 26.265625 9.515625 29.90625 
Q 5.8125 33.546875 5.8125 39.890625 
Q 5.8125 47.609375 11.28125 51.796875 
Q 16.75 56 26.8125 56 
Q 31.78125 56 36.171875 55.265625 
Q 40.578125 54.546875 44.28125 53.078125 
z
" id="DejaVuSans-115"/>
      <path d="M 9.421875 75.984375 
L 18.40625 75.984375 
L 18.40625 0 
L 9.421875 0 
z
" id="DejaVuSans-108"/>
      <path d="M 52 44.1875 
Q 55.375 50.25 60.0625 53.125 
Q 64.75 56 71.09375 56 
Q 79.640625 56 84.28125 50.015625 
Q 88.921875 44.046875 88.921875 33.015625 
L 88.921875 0 
L 79.890625 0 
L 79.890625 32.71875 
Q 79.890625 40.578125 77.09375 44.375 
Q 74.3125 48.1875 68.609375 48.1875 
Q 61.625 48.1875 57.5625 43.546875 
Q 53.515625 38.921875 53.515625 30.90625 
L 53.515625 0 
L 44.484375 0 
L 44.484375 32.71875 
Q 44.484375 40.625 41.703125 44.40625 
Q 38.921875 48.1875 33.109375 48.1875 
Q 26.21875 48.1875 22.15625 43.53125 
Q 18.109375 38.875 18.109375 30.90625 
L 18.109375 0 
L 9.078125 0 
L 9.078125 54.6875 
L 18.109375 54.6875 
L 18.109375 46.1875 
Q 21.1875 51.21875 25.484375 53.609375 
Q 29.78125 56 35.6875 56 
Q 41.65625 56 45.828125 52.96875 
Q 50 49.953125 52 44.1875 
z
" id="DejaVuSans-109"/>
      <path d="M 48.78125 52.59375 
L 48.78125 44.1875 
Q 44.96875 46.296875 41.140625 47.34375 
Q 37.3125 48.390625 33.40625 48.390625 
Q 24.65625 48.390625 19.8125 42.84375 
Q 14.984375 37.3125 14.984375 27.296875 
Q 14.984375 17.28125 19.8125 11.734375 
Q 24.65625 6.203125 33.40625 6.203125 
Q 37.3125 6.203125 41.140625 7.25 
Q 44.96875 8.296875 48.78125 10.40625 
L 48.78125 2.09375 
Q 45.015625 0.34375 40.984375 -0.53125 
Q 36.96875 -1.421875 32.421875 -1.421875 
Q 20.0625 -1.421875 12.78125 6.34375 
Q 5.515625 14.109375 5.515625 27.296875 
Q 5.515625 40.671875 12.859375 48.328125 
Q 20.21875 56 33.015625 56 
Q 37.15625 56 41.109375 55.140625 
Q 45.0625 54.296875 48.78125 52.59375 
z
" id="DejaVuSans-99"/>
      <path d="M 44.390625 34.1875 
Q 47.5625 33.109375 50.5625 29.59375 
Q 53.5625 26.078125 56.59375 19.921875 
L 66.609375 0 
L 56 0 
L 46.6875 18.703125 
Q 43.0625 26.03125 39.671875 28.421875 
Q 36.28125 30.8125 30.421875 30.8125 
L 19.671875 30.8125 
L 19.671875 0 
L 9.8125 0 
L 9.8125 72.90625 
L 32.078125 72.90625 
Q 44.578125 72.90625 50.734375 67.671875 
Q 56.890625 62.453125 56.890625 51.90625 
Q 56.890625 45.015625 53.6875 40.46875 
Q 50.484375 35.9375 44.390625 34.1875 
z
M 19.671875 64.796875 
L 19.671875 38.921875 
L 32.078125 38.921875 
Q 39.203125 38.921875 42.84375 42.21875 
Q 46.484375 45.515625 46.484375 51.90625 
Q 46.484375 58.296875 42.84375 61.546875 
Q 39.203125 64.796875 32.078125 64.796875 
z
" id="DejaVuSans-82"/>
      <path d="M 18.109375 8.203125 
L 18.109375 -20.796875 
L 9.078125 -20.796875 
L 9.078125 54.6875 
L 18.109375 54.6875 
L 18.109375 46.390625 
Q 20.953125 51.265625 25.265625 53.625 
Q 29.59375 56 35.59375 56 
Q 45.5625 56 51.78125 48.09375 
Q 58.015625 40.1875 58.015625 27.296875 
Q 58.015625 14.40625 51.78125 6.484375 
Q 45.5625 -1.421875 35.59375 -1.421875 
Q 29.59375 -1.421875 25.265625 0.953125 
Q 20.953125 3.328125 18.109375 8.203125 
z
M 48.6875 27.296875 
Q 48.6875 37.203125 44.609375 42.84375 
Q 40.53125 48.484375 33.40625 48.484375 
Q 26.265625 48.484375 22.1875 42.84375 
Q 18.109375 37.203125 18.109375 27.296875 
Q 18.109375 17.390625 22.1875 11.75 
Q 26.265625 6.109375 33.40625 6.109375 
Q 40.53125 6.109375 44.609375 11.75 
Q 48.6875 17.390625 48.6875 27.296875 
z
" id="DejaVuSans-112"/>
      <path d="M 8.5 21.578125 
L 8.5 54.6875 
L 17.484375 54.6875 
L 17.484375 21.921875 
Q 17.484375 14.15625 20.5 10.265625 
Q 23.53125 6.390625 29.59375 6.390625 
Q 36.859375 6.390625 41.078125 11.03125 
Q 45.3125 15.671875 45.3125 23.6875 
L 45.3125 54.6875 
L 54.296875 54.6875 
L 54.296875 0 
L 45.3125 0 
L 45.3125 8.40625 
Q 42.046875 3.421875 37.71875 1 
Q 33.40625 -1.421875 27.6875 -1.421875 
Q 18.265625 -1.421875 13.375 4.4375 
Q 8.5 10.296875 8.5 21.578125 
z
M 31.109375 56 
z
" id="DejaVuSans-117"/>
      <path d="M 48.6875 27.296875 
Q 48.6875 37.203125 44.609375 42.84375 
Q 40.53125 48.484375 33.40625 48.484375 
Q 26.265625 48.484375 22.1875 42.84375 
Q 18.109375 37.203125 18.109375 27.296875 
Q 18.109375 17.390625 22.1875 11.75 
Q 26.265625 6.109375 33.40625 6.109375 
Q 40.53125 6.109375 44.609375 11.75 
Q 48.6875 17.390625 48.6875 27.296875 
z
M 18.109375 46.390625 
Q 20.953125 51.265625 25.265625 53.625 
Q 29.59375 56 35.59375 56 
Q 45.5625 56 51.78125 48.09375 
Q 58.015625 40.1875 58.015625 27.296875 
Q 58.015625 14.40625 51.78125 6.484375 
Q 45.5625 -1.421875 35.59375 -1.421875 
Q 29.59375 -1.421875 25.265625 0.953125 
Q 20.953125 3.328125 18.109375 8.203125 
L 18.109375 0 
L 9.078125 0 
L 9.078125 75.984375 
L 18.109375 75.984375 
z
" id="DejaVuSans-98"/>
      <path d="M 30.609375 48.390625 
Q 23.390625 48.390625 19.1875 42.75 
Q 14.984375 37.109375 14.984375 27.296875 
Q 14.984375 17.484375 19.15625 11.84375 
Q 23.34375 6.203125 30.609375 6.203125 
Q 37.796875 6.203125 41.984375 11.859375 
Q 46.1875 17.53125 46.1875 27.296875 
Q 46.1875 37.015625 41.984375 42.703125 
Q 37.796875 48.390625 30.609375 48.390625 
z
M 30.609375 56 
Q 42.328125 56 49.015625 48.375 
Q 55.71875 40.765625 55.71875 27.296875 
Q 55.71875 13.875 49.015625 6.21875 
Q 42.328125 -1.421875 30.609375 -1.421875 
Q 18.84375 -1.421875 12.171875 6.21875 
Q 5.515625 13.875 5.515625 27.296875 
Q 5.515625 40.765625 12.171875 48.375 
Q 18.84375 56 30.609375 56 
z
" id="DejaVuSans-111"/>
      <path d="M 37.109375 75.984375 
L 37.109375 68.5 
L 28.515625 68.5 
Q 23.6875 68.5 21.796875 66.546875 
Q 19.921875 64.59375 19.921875 59.515625 
L 19.921875 54.6875 
L 34.71875 54.6875 
L 34.71875 47.703125 
L 19.921875 47.703125 
L 19.921875 0 
L 10.890625 0 
L 10.890625 47.703125 
L 2.296875 47.703125 
L 2.296875 54.6875 
L 10.890625 54.6875 
L 10.890625 58.5 
Q 10.890625 67.625 15.140625 71.796875 
Q 19.390625 75.984375 28.609375 75.984375 
z
" id="DejaVuSans-102"/>
     </defs>
     <use xlink:href="#DejaVuSans-67"/>
     <use x="69.824219" xlink:href="#DejaVuSans-79"/>
     <use x="146.785156" xlink:href="#DejaVuSans-86"/>
     <use x="215.193359" xlink:href="#DejaVuSans-73"/>
     <use x="244.685547" xlink:href="#DejaVuSans-68"/>
     <use x="321.6875" xlink:href="#DejaVuSans-49"/>
     <use x="385.310547" xlink:href="#DejaVuSans-57"/>
     <use x="448.933594" xlink:href="#DejaVuSans-32"/>
     <use x="480.720703" xlink:href="#DejaVuSans-84"/>
     <use x="527.054688" xlink:href="#DejaVuSans-114"/>
     <use x="565.917969" xlink:href="#DejaVuSans-101"/>
     <use x="627.441406" xlink:href="#DejaVuSans-110"/>
     <use x="690.820312" xlink:href="#DejaVuSans-100"/>
     <use x="754.296875" xlink:href="#DejaVuSans-32"/>
     <use x="786.083984" xlink:href="#DejaVuSans-105"/>
     <use x="813.867188" xlink:href="#DejaVuSans-110"/>
     <use x="877.246094" xlink:href="#DejaVuSans-32"/>
     <use x="909.033203" xlink:href="#DejaVuSans-73"/>
     <use x="938.525391" xlink:href="#DejaVuSans-114"/>
     <use x="979.638672" xlink:href="#DejaVuSans-97"/>
     <use x="1040.917969" xlink:href="#DejaVuSans-110"/>
     <use x="1104.296875" xlink:href="#DejaVuSans-44"/>
     <use x="1136.083984" xlink:href="#DejaVuSans-32"/>
     <use x="1167.871094" xlink:href="#DejaVuSans-73"/>
     <use x="1197.363281" xlink:href="#DejaVuSans-115"/>
     <use x="1249.462891" xlink:href="#DejaVuSans-108"/>
     <use x="1277.246094" xlink:href="#DejaVuSans-97"/>
     <use x="1338.525391" xlink:href="#DejaVuSans-109"/>
     <use x="1435.9375" xlink:href="#DejaVuSans-105"/>
     <use x="1463.720703" xlink:href="#DejaVuSans-99"/>
     <use x="1518.701172" xlink:href="#DejaVuSans-32"/>
     <use x="1550.488281" xlink:href="#DejaVuSans-82"/>
     <use x="1615.470703" xlink:href="#DejaVuSans-101"/>
     <use x="1676.994141" xlink:href="#DejaVuSans-112"/>
     <use x="1740.470703" xlink:href="#DejaVuSans-117"/>
     <use x="1803.849609" xlink:href="#DejaVuSans-98"/>
     <use x="1867.326172" xlink:href="#DejaVuSans-108"/>
     <use x="1895.109375" xlink:href="#DejaVuSans-105"/>
     <use x="1922.892578" xlink:href="#DejaVuSans-99"/>
     <use x="1977.873047" xlink:href="#DejaVuSans-32"/>
     <use x="2009.660156" xlink:href="#DejaVuSans-111"/>
     <use x="2070.841797" xlink:href="#DejaVuSans-102"/>
    </g>
   </g>
   <g id="legend_1">
    <g id="patch_7">
     <path d="M 880.271875 135.8325 
L 965 135.8325 
Q 967 135.8325 967 133.8325 
L 967 76.12 
Q 967 74.12 965 74.12 
L 880.271875 74.12 
Q 878.271875 74.12 878.271875 76.12 
L 878.271875 133.8325 
Q 878.271875 135.8325 880.271875 135.8325 
z
" style="fill:#ffffff;opacity:0.8;stroke:#cccccc;stroke-linejoin:miter;"/>
    </g>
    <g id="line2d_18">
     <path d="M 882.271875 82.218437 
L 902.271875 82.218437 
" style="fill:none;stroke:#1f77b4;stroke-linecap:square;stroke-width:1.5;"/>
    </g>
    <g id="line2d_19"/>
    <g id="text_17">
     <!-- Confirmed -->
     <g transform="translate(910.271875 85.718437)scale(0.1 -0.1)">
      <use xlink:href="#DejaVuSans-67"/>
      <use x="69.824219" xlink:href="#DejaVuSans-111"/>
      <use x="131.005859" xlink:href="#DejaVuSans-110"/>
      <use x="194.384766" xlink:href="#DejaVuSans-102"/>
      <use x="229.589844" xlink:href="#DejaVuSans-105"/>
      <use x="257.373047" xlink:href="#DejaVuSans-114"/>
      <use x="296.736328" xlink:href="#DejaVuSans-109"/>
      <use x="394.148438" xlink:href="#DejaVuSans-101"/>
      <use x="455.671875" xlink:href="#DejaVuSans-100"/>
     </g>
    </g>
    <g id="line2d_20">
     <path d="M 882.271875 96.896563 
L 902.271875 96.896563 
" style="fill:none;stroke:#ff7f0e;stroke-linecap:square;stroke-width:1.5;"/>
    </g>
    <g id="line2d_21"/>
    <g id="text_18">
     <!-- Deaths -->
     <g transform="translate(910.271875 100.396563)scale(0.1 -0.1)">
      <defs>
       <path d="M 54.890625 33.015625 
L 54.890625 0 
L 45.90625 0 
L 45.90625 32.71875 
Q 45.90625 40.484375 42.875 44.328125 
Q 39.84375 48.1875 33.796875 48.1875 
Q 26.515625 48.1875 22.3125 43.546875 
Q 18.109375 38.921875 18.109375 30.90625 
L 18.109375 0 
L 9.078125 0 
L 9.078125 75.984375 
L 18.109375 75.984375 
L 18.109375 46.1875 
Q 21.34375 51.125 25.703125 53.5625 
Q 30.078125 56 35.796875 56 
Q 45.21875 56 50.046875 50.171875 
Q 54.890625 44.34375 54.890625 33.015625 
z
" id="DejaVuSans-104"/>
      </defs>
      <use xlink:href="#DejaVuSans-68"/>
      <use x="77.001953" xlink:href="#DejaVuSans-101"/>
      <use x="138.525391" xlink:href="#DejaVuSans-97"/>
      <use x="199.804688" xlink:href="#DejaVuSans-116"/>
      <use x="239.013672" xlink:href="#DejaVuSans-104"/>
      <use x="302.392578" xlink:href="#DejaVuSans-115"/>
     </g>
    </g>
    <g id="line2d_22">
     <path d="M 882.271875 111.574687 
L 902.271875 111.574687 
" style="fill:none;stroke:#2ca02c;stroke-linecap:square;stroke-width:1.5;"/>
    </g>
    <g id="line2d_23"/>
    <g id="text_19">
     <!-- Recovered -->
     <g transform="translate(910.271875 115.074687)scale(0.1 -0.1)">
      <defs>
       <path d="M 2.984375 54.6875 
L 12.5 54.6875 
L 29.59375 8.796875 
L 46.6875 54.6875 
L 56.203125 54.6875 
L 35.6875 0 
L 23.484375 0 
z
" id="DejaVuSans-118"/>
      </defs>
      <use xlink:href="#DejaVuSans-82"/>
      <use x="64.982422" xlink:href="#DejaVuSans-101"/>
      <use x="126.505859" xlink:href="#DejaVuSans-99"/>
      <use x="181.486328" xlink:href="#DejaVuSans-111"/>
      <use x="242.667969" xlink:href="#DejaVuSans-118"/>
      <use x="301.847656" xlink:href="#DejaVuSans-101"/>
      <use x="363.371094" xlink:href="#DejaVuSans-114"/>
      <use x="402.234375" xlink:href="#DejaVuSans-101"/>
      <use x="463.757812" xlink:href="#DejaVuSans-100"/>
     </g>
    </g>
    <g id="line2d_24">
     <path d="M 882.271875 126.252813 
L 902.271875 126.252813 
" style="fill:none;stroke:#d62728;stroke-linecap:square;stroke-width:1.5;"/>
    </g>
    <g id="line2d_25"/>
    <g id="text_20">
     <!-- Active -->
     <g transform="translate(910.271875 129.752813)scale(0.1 -0.1)">
      <defs>
       <path d="M 34.1875 63.1875 
L 20.796875 26.90625 
L 47.609375 26.90625 
z
M 28.609375 72.90625 
L 39.796875 72.90625 
L 67.578125 0 
L 57.328125 0 
L 50.6875 18.703125 
L 17.828125 18.703125 
L 11.1875 0 
L 0.78125 0 
z
" id="DejaVuSans-65"/>
      </defs>
      <use xlink:href="#DejaVuSans-65"/>
      <use x="66.658203" xlink:href="#DejaVuSans-99"/>
      <use x="121.638672" xlink:href="#DejaVuSans-116"/>
      <use x="160.847656" xlink:href="#DejaVuSans-105"/>
      <use x="188.630859" xlink:href="#DejaVuSans-118"/>
      <use x="247.810547" xlink:href="#DejaVuSans-101"/>
     </g>
    </g>
   </g>
  </g>
 </g>
 <defs>
  <clipPath id="pe1887635fb">
   <rect height="443.52" width="837" x="135" y="69.12"/>
  </clipPath>
 </defs>
</svg>
