<?xml version="1.0" encoding="utf-8" standalone="no"?>
<!DOCTYPE svg PUBLIC "-//W3C//DTD SVG 1.1//EN"
  "http://www.w3.org/Graphics/SVG/1.1/DTD/svg11.dtd">
<!-- Created with matplotlib (https://matplotlib.org/) -->
<svg height="576pt" version="1.1" viewBox="0 0 1080 576" width="1080pt" xmlns="http://www.w3.org/2000/svg" xmlns:xlink="http://www.w3.org/1999/xlink">
 <metadata>
  <rdf:RDF xmlns:cc="http://creativecommons.org/ns#" xmlns:dc="http://purl.org/dc/elements/1.1/" xmlns:rdf="http://www.w3.org/1999/02/22-rdf-syntax-ns#">
   <cc:Work>
    <dc:type rdf:resource="http://purl.org/dc/dcmitype/StillImage"/>
    <dc:date>2020-08-30T12:19:47.485837</dc:date>
    <dc:format>image/svg+xml</dc:format>
    <dc:creator>
     <cc:Agent>
      <dc:title>Matplotlib v3.3.1, https://matplotlib.org/</dc:title>
     </cc:Agent>
    </dc:creator>
   </cc:Work>
  </rdf:RDF>
 </metadata>
 <defs>
  <style type="text/css">*{stroke-linecap:butt;stroke-linejoin:round;}</style>
 </defs>
 <g id="figure_1">
  <g id="patch_1">
   <path d="M 0 576 
L 1080 576 
L 1080 0 
L 0 0 
z
" style="fill:#ffffff;"/>
  </g>
  <g id="axes_1">
   <g id="patch_2">
    <path d="M 135 512.64 
L 972 512.64 
L 972 69.12 
L 135 69.12 
z
" style="fill:#ffffff;"/>
   </g>
   <g id="matplotlib.axis_1">
    <g id="xtick_1">
     <g id="line2d_1">
      <defs>
       <path d="M 0 0 
L 0 3.5 
" id="m5e9650668e" style="stroke:#000000;stroke-width:0.8;"/>
      </defs>
      <g>
       <use style="stroke:#000000;stroke-width:0.8;" x="173.045455" xlink:href="#m5e9650668e" y="512.64"/>
      </g>
     </g>
     <g id="text_1">
      <!-- 2020-01-22 -->
      <g transform="translate(143.987642 527.238438)scale(0.1 -0.1)">
       <defs>
        <path d="M 19.1875 8.296875 
L 53.609375 8.296875 
L 53.609375 0 
L 7.328125 0 
L 7.328125 8.296875 
Q 12.9375 14.109375 22.625 23.890625 
Q 32.328125 33.6875 34.8125 36.53125 
Q 39.546875 41.84375 41.421875 45.53125 
Q 43.3125 49.21875 43.3125 52.78125 
Q 43.3125 58.59375 39.234375 62.25 
Q 35.15625 65.921875 28.609375 65.921875 
Q 23.96875 65.921875 18.8125 64.3125 
Q 13.671875 62.703125 7.8125 59.421875 
L 7.8125 69.390625 
Q 13.765625 71.78125 18.9375 73 
Q 24.125 74.21875 28.421875 74.21875 
Q 39.75 74.21875 46.484375 68.546875 
Q 53.21875 62.890625 53.21875 53.421875 
Q 53.21875 48.921875 51.53125 44.890625 
Q 49.859375 40.875 45.40625 35.40625 
Q 44.1875 33.984375 37.640625 27.21875 
Q 31.109375 20.453125 19.1875 8.296875 
z
" id="DejaVuSans-50"/>
        <path d="M 31.78125 66.40625 
Q 24.171875 66.40625 20.328125 58.90625 
Q 16.5 51.421875 16.5 36.375 
Q 16.5 21.390625 20.328125 13.890625 
Q 24.171875 6.390625 31.78125 6.390625 
Q 39.453125 6.390625 43.28125 13.890625 
Q 47.125 21.390625 47.125 36.375 
Q 47.125 51.421875 43.28125 58.90625 
Q 39.453125 66.40625 31.78125 66.40625 
z
M 31.78125 74.21875 
Q 44.046875 74.21875 50.515625 64.515625 
Q 56.984375 54.828125 56.984375 36.375 
Q 56.984375 17.96875 50.515625 8.265625 
Q 44.046875 -1.421875 31.78125 -1.421875 
Q 19.53125 -1.421875 13.0625 8.265625 
Q 6.59375 17.96875 6.59375 36.375 
Q 6.59375 54.828125 13.0625 64.515625 
Q 19.53125 74.21875 31.78125 74.21875 
z
" id="DejaVuSans-48"/>
        <path d="M 4.890625 31.390625 
L 31.203125 31.390625 
L 31.203125 23.390625 
L 4.890625 23.390625 
z
" id="DejaVuSans-45"/>
        <path d="M 12.40625 8.296875 
L 28.515625 8.296875 
L 28.515625 63.921875 
L 10.984375 60.40625 
L 10.984375 69.390625 
L 28.421875 72.90625 
L 38.28125 72.90625 
L 38.28125 8.296875 
L 54.390625 8.296875 
L 54.390625 0 
L 12.40625 0 
z
" id="DejaVuSans-49"/>
       </defs>
       <use xlink:href="#DejaVuSans-50"/>
       <use x="63.623047" xlink:href="#DejaVuSans-48"/>
       <use x="127.246094" xlink:href="#DejaVuSans-50"/>
       <use x="190.869141" xlink:href="#DejaVuSans-48"/>
       <use x="254.492188" xlink:href="#DejaVuSans-45"/>
       <use x="290.576172" xlink:href="#DejaVuSans-48"/>
       <use x="354.199219" xlink:href="#DejaVuSans-49"/>
       <use x="417.822266" xlink:href="#DejaVuSans-45"/>
       <use x="453.90625" xlink:href="#DejaVuSans-50"/>
       <use x="517.529297" xlink:href="#DejaVuSans-50"/>
      </g>
     </g>
    </g>
    <g id="xtick_2">
     <g id="line2d_2">
      <g>
       <use style="stroke:#000000;stroke-width:0.8;" x="345.979339" xlink:href="#m5e9650668e" y="512.64"/>
      </g>
     </g>
     <g id="text_2">
      <!-- 2020-03-12 -->
      <g transform="translate(316.921526 527.238438)scale(0.1 -0.1)">
       <defs>
        <path d="M 40.578125 39.3125 
Q 47.65625 37.796875 51.625 33 
Q 55.609375 28.21875 55.609375 21.1875 
Q 55.609375 10.40625 48.1875 4.484375 
Q 40.765625 -1.421875 27.09375 -1.421875 
Q 22.515625 -1.421875 17.65625 -0.515625 
Q 12.796875 0.390625 7.625 2.203125 
L 7.625 11.71875 
Q 11.71875 9.328125 16.59375 8.109375 
Q 21.484375 6.890625 26.8125 6.890625 
Q 36.078125 6.890625 40.9375 10.546875 
Q 45.796875 14.203125 45.796875 21.1875 
Q 45.796875 27.640625 41.28125 31.265625 
Q 36.765625 34.90625 28.71875 34.90625 
L 20.21875 34.90625 
L 20.21875 43.015625 
L 29.109375 43.015625 
Q 36.375 43.015625 40.234375 45.921875 
Q 44.09375 48.828125 44.09375 54.296875 
Q 44.09375 59.90625 40.109375 62.90625 
Q 36.140625 65.921875 28.71875 65.921875 
Q 24.65625 65.921875 20.015625 65.03125 
Q 15.375 64.15625 9.8125 62.3125 
L 9.8125 71.09375 
Q 15.4375 72.65625 20.34375 73.4375 
Q 25.25 74.21875 29.59375 74.21875 
Q 40.828125 74.21875 47.359375 69.109375 
Q 53.90625 64.015625 53.90625 55.328125 
Q 53.90625 49.265625 50.4375 45.09375 
Q 46.96875 40.921875 40.578125 39.3125 
z
" id="DejaVuSans-51"/>
       </defs>
       <use xlink:href="#DejaVuSans-50"/>
       <use x="63.623047" xlink:href="#DejaVuSans-48"/>
       <use x="127.246094" xlink:href="#DejaVuSans-50"/>
       <use x="190.869141" xlink:href="#DejaVuSans-48"/>
       <use x="254.492188" xlink:href="#DejaVuSans-45"/>
       <use x="290.576172" xlink:href="#DejaVuSans-48"/>
       <use x="354.199219" xlink:href="#DejaVuSans-51"/>
       <use x="417.822266" xlink:href="#DejaVuSans-45"/>
       <use x="453.90625" xlink:href="#DejaVuSans-49"/>
       <use x="517.529297" xlink:href="#DejaVuSans-50"/>
      </g>
     </g>
    </g>
    <g id="xtick_3">
     <g id="line2d_3">
      <g>
       <use style="stroke:#000000;stroke-width:0.8;" x="518.913223" xlink:href="#m5e9650668e" y="512.64"/>
      </g>
     </g>
     <g id="text_3">
      <!-- 2020-05-01 -->
      <g transform="translate(489.855411 527.238438)scale(0.1 -0.1)">
       <defs>
        <path d="M 10.796875 72.90625 
L 49.515625 72.90625 
L 49.515625 64.59375 
L 19.828125 64.59375 
L 19.828125 46.734375 
Q 21.96875 47.46875 24.109375 47.828125 
Q 26.265625 48.1875 28.421875 48.1875 
Q 40.625 48.1875 47.75 41.5 
Q 54.890625 34.8125 54.890625 23.390625 
Q 54.890625 11.625 47.5625 5.09375 
Q 40.234375 -1.421875 26.90625 -1.421875 
Q 22.3125 -1.421875 17.546875 -0.640625 
Q 12.796875 0.140625 7.71875 1.703125 
L 7.71875 11.625 
Q 12.109375 9.234375 16.796875 8.0625 
Q 21.484375 6.890625 26.703125 6.890625 
Q 35.15625 6.890625 40.078125 11.328125 
Q 45.015625 15.765625 45.015625 23.390625 
Q 45.015625 31 40.078125 35.4375 
Q 35.15625 39.890625 26.703125 39.890625 
Q 22.75 39.890625 18.8125 39.015625 
Q 14.890625 38.140625 10.796875 36.28125 
z
" id="DejaVuSans-53"/>
       </defs>
       <use xlink:href="#DejaVuSans-50"/>
       <use x="63.623047" xlink:href="#DejaVuSans-48"/>
       <use x="127.246094" xlink:href="#DejaVuSans-50"/>
       <use x="190.869141" xlink:href="#DejaVuSans-48"/>
       <use x="254.492188" xlink:href="#DejaVuSans-45"/>
       <use x="290.576172" xlink:href="#DejaVuSans-48"/>
       <use x="354.199219" xlink:href="#DejaVuSans-53"/>
       <use x="417.822266" xlink:href="#DejaVuSans-45"/>
       <use x="453.90625" xlink:href="#DejaVuSans-48"/>
       <use x="517.529297" xlink:href="#DejaVuSans-49"/>
      </g>
     </g>
    </g>
    <g id="xtick_4">
     <g id="line2d_4">
      <g>
       <use style="stroke:#000000;stroke-width:0.8;" x="691.847107" xlink:href="#m5e9650668e" y="512.64"/>
      </g>
     </g>
     <g id="text_4">
      <!-- 2020-06-20 -->
      <g transform="translate(662.789295 527.238438)scale(0.1 -0.1)">
       <defs>
        <path d="M 33.015625 40.375 
Q 26.375 40.375 22.484375 35.828125 
Q 18.609375 31.296875 18.609375 23.390625 
Q 18.609375 15.53125 22.484375 10.953125 
Q 26.375 6.390625 33.015625 6.390625 
Q 39.65625 6.390625 43.53125 10.953125 
Q 47.40625 15.53125 47.40625 23.390625 
Q 47.40625 31.296875 43.53125 35.828125 
Q 39.65625 40.375 33.015625 40.375 
z
M 52.59375 71.296875 
L 52.59375 62.3125 
Q 48.875 64.0625 45.09375 64.984375 
Q 41.3125 65.921875 37.59375 65.921875 
Q 27.828125 65.921875 22.671875 59.328125 
Q 17.53125 52.734375 16.796875 39.40625 
Q 19.671875 43.65625 24.015625 45.921875 
Q 28.375 48.1875 33.59375 48.1875 
Q 44.578125 48.1875 50.953125 41.515625 
Q 57.328125 34.859375 57.328125 23.390625 
Q 57.328125 12.15625 50.6875 5.359375 
Q 44.046875 -1.421875 33.015625 -1.421875 
Q 20.359375 -1.421875 13.671875 8.265625 
Q 6.984375 17.96875 6.984375 36.375 
Q 6.984375 53.65625 15.1875 63.9375 
Q 23.390625 74.21875 37.203125 74.21875 
Q 40.921875 74.21875 44.703125 73.484375 
Q 48.484375 72.75 52.59375 71.296875 
z
" id="DejaVuSans-54"/>
       </defs>
       <use xlink:href="#DejaVuSans-50"/>
       <use x="63.623047" xlink:href="#DejaVuSans-48"/>
       <use x="127.246094" xlink:href="#DejaVuSans-50"/>
       <use x="190.869141" xlink:href="#DejaVuSans-48"/>
       <use x="254.492188" xlink:href="#DejaVuSans-45"/>
       <use x="290.576172" xlink:href="#DejaVuSans-48"/>
       <use x="354.199219" xlink:href="#DejaVuSans-54"/>
       <use x="417.822266" xlink:href="#DejaVuSans-45"/>
       <use x="453.90625" xlink:href="#DejaVuSans-50"/>
       <use x="517.529297" xlink:href="#DejaVuSans-48"/>
      </g>
     </g>
    </g>
    <g id="xtick_5">
     <g id="line2d_5">
      <g>
       <use style="stroke:#000000;stroke-width:0.8;" x="864.780992" xlink:href="#m5e9650668e" y="512.64"/>
      </g>
     </g>
     <g id="text_5">
      <!-- 2020-08-09 -->
      <g transform="translate(835.723179 527.238438)scale(0.1 -0.1)">
       <defs>
        <path d="M 31.78125 34.625 
Q 24.75 34.625 20.71875 30.859375 
Q 16.703125 27.09375 16.703125 20.515625 
Q 16.703125 13.921875 20.71875 10.15625 
Q 24.75 6.390625 31.78125 6.390625 
Q 38.8125 6.390625 42.859375 10.171875 
Q 46.921875 13.96875 46.921875 20.515625 
Q 46.921875 27.09375 42.890625 30.859375 
Q 38.875 34.625 31.78125 34.625 
z
M 21.921875 38.8125 
Q 15.578125 40.375 12.03125 44.71875 
Q 8.5 49.078125 8.5 55.328125 
Q 8.5 64.0625 14.71875 69.140625 
Q 20.953125 74.21875 31.78125 74.21875 
Q 42.671875 74.21875 48.875 69.140625 
Q 55.078125 64.0625 55.078125 55.328125 
Q 55.078125 49.078125 51.53125 44.71875 
Q 48 40.375 41.703125 38.8125 
Q 48.828125 37.15625 52.796875 32.3125 
Q 56.78125 27.484375 56.78125 20.515625 
Q 56.78125 9.90625 50.3125 4.234375 
Q 43.84375 -1.421875 31.78125 -1.421875 
Q 19.734375 -1.421875 13.25 4.234375 
Q 6.78125 9.90625 6.78125 20.515625 
Q 6.78125 27.484375 10.78125 32.3125 
Q 14.796875 37.15625 21.921875 38.8125 
z
M 18.3125 54.390625 
Q 18.3125 48.734375 21.84375 45.5625 
Q 25.390625 42.390625 31.78125 42.390625 
Q 38.140625 42.390625 41.71875 45.5625 
Q 45.3125 48.734375 45.3125 54.390625 
Q 45.3125 60.0625 41.71875 63.234375 
Q 38.140625 66.40625 31.78125 66.40625 
Q 25.390625 66.40625 21.84375 63.234375 
Q 18.3125 60.0625 18.3125 54.390625 
z
" id="DejaVuSans-56"/>
        <path d="M 10.984375 1.515625 
L 10.984375 10.5 
Q 14.703125 8.734375 18.5 7.8125 
Q 22.3125 6.890625 25.984375 6.890625 
Q 35.75 6.890625 40.890625 13.453125 
Q 46.046875 20.015625 46.78125 33.40625 
Q 43.953125 29.203125 39.59375 26.953125 
Q 35.25 24.703125 29.984375 24.703125 
Q 19.046875 24.703125 12.671875 31.3125 
Q 6.296875 37.9375 6.296875 49.421875 
Q 6.296875 60.640625 12.9375 67.421875 
Q 19.578125 74.21875 30.609375 74.21875 
Q 43.265625 74.21875 49.921875 64.515625 
Q 56.59375 54.828125 56.59375 36.375 
Q 56.59375 19.140625 48.40625 8.859375 
Q 40.234375 -1.421875 26.421875 -1.421875 
Q 22.703125 -1.421875 18.890625 -0.6875 
Q 15.09375 0.046875 10.984375 1.515625 
z
M 30.609375 32.421875 
Q 37.25 32.421875 41.125 36.953125 
Q 45.015625 41.5 45.015625 49.421875 
Q 45.015625 57.28125 41.125 61.84375 
Q 37.25 66.40625 30.609375 66.40625 
Q 23.96875 66.40625 20.09375 61.84375 
Q 16.21875 57.28125 16.21875 49.421875 
Q 16.21875 41.5 20.09375 36.953125 
Q 23.96875 32.421875 30.609375 32.421875 
z
" id="DejaVuSans-57"/>
       </defs>
       <use xlink:href="#DejaVuSans-50"/>
       <use x="63.623047" xlink:href="#DejaVuSans-48"/>
       <use x="127.246094" xlink:href="#DejaVuSans-50"/>
       <use x="190.869141" xlink:href="#DejaVuSans-48"/>
       <use x="254.492188" xlink:href="#DejaVuSans-45"/>
       <use x="290.576172" xlink:href="#DejaVuSans-48"/>
       <use x="354.199219" xlink:href="#DejaVuSans-56"/>
       <use x="417.822266" xlink:href="#DejaVuSans-45"/>
       <use x="453.90625" xlink:href="#DejaVuSans-48"/>
       <use x="517.529297" xlink:href="#DejaVuSans-57"/>
      </g>
     </g>
    </g>
    <g id="text_6">
     <!-- Date -->
     <g transform="translate(541.549219 540.916563)scale(0.1 -0.1)">
      <defs>
       <path d="M 19.671875 64.796875 
L 19.671875 8.109375 
L 31.59375 8.109375 
Q 46.6875 8.109375 53.6875 14.9375 
Q 60.6875 21.78125 60.6875 36.53125 
Q 60.6875 51.171875 53.6875 57.984375 
Q 46.6875 64.796875 31.59375 64.796875 
z
M 9.8125 72.90625 
L 30.078125 72.90625 
Q 51.265625 72.90625 61.171875 64.09375 
Q 71.09375 55.28125 71.09375 36.53125 
Q 71.09375 17.671875 61.125 8.828125 
Q 51.171875 0 30.078125 0 
L 9.8125 0 
z
" id="DejaVuSans-68"/>
       <path d="M 34.28125 27.484375 
Q 23.390625 27.484375 19.1875 25 
Q 14.984375 22.515625 14.984375 16.5 
Q 14.984375 11.71875 18.140625 8.90625 
Q 21.296875 6.109375 26.703125 6.109375 
Q 34.1875 6.109375 38.703125 11.40625 
Q 43.21875 16.703125 43.21875 25.484375 
L 43.21875 27.484375 
z
M 52.203125 31.203125 
L 52.203125 0 
L 43.21875 0 
L 43.21875 8.296875 
Q 40.140625 3.328125 35.546875 0.953125 
Q 30.953125 -1.421875 24.3125 -1.421875 
Q 15.921875 -1.421875 10.953125 3.296875 
Q 6 8.015625 6 15.921875 
Q 6 25.140625 12.171875 29.828125 
Q 18.359375 34.515625 30.609375 34.515625 
L 43.21875 34.515625 
L 43.21875 35.40625 
Q 43.21875 41.609375 39.140625 45 
Q 35.0625 48.390625 27.6875 48.390625 
Q 23 48.390625 18.546875 47.265625 
Q 14.109375 46.140625 10.015625 43.890625 
L 10.015625 52.203125 
Q 14.9375 54.109375 19.578125 55.046875 
Q 24.21875 56 28.609375 56 
Q 40.484375 56 46.34375 49.84375 
Q 52.203125 43.703125 52.203125 31.203125 
z
" id="DejaVuSans-97"/>
       <path d="M 18.3125 70.21875 
L 18.3125 54.6875 
L 36.8125 54.6875 
L 36.8125 47.703125 
L 18.3125 47.703125 
L 18.3125 18.015625 
Q 18.3125 11.328125 20.140625 9.421875 
Q 21.96875 7.515625 27.59375 7.515625 
L 36.8125 7.515625 
L 36.8125 0 
L 27.59375 0 
Q 17.1875 0 13.234375 3.875 
Q 9.28125 7.765625 9.28125 18.015625 
L 9.28125 47.703125 
L 2.6875 47.703125 
L 2.6875 54.6875 
L 9.28125 54.6875 
L 9.28125 70.21875 
z
" id="DejaVuSans-116"/>
       <path d="M 56.203125 29.59375 
L 56.203125 25.203125 
L 14.890625 25.203125 
Q 15.484375 15.921875 20.484375 11.0625 
Q 25.484375 6.203125 34.421875 6.203125 
Q 39.59375 6.203125 44.453125 7.46875 
Q 49.3125 8.734375 54.109375 11.28125 
L 54.109375 2.78125 
Q 49.265625 0.734375 44.1875 -0.34375 
Q 39.109375 -1.421875 33.890625 -1.421875 
Q 20.796875 -1.421875 13.15625 6.1875 
Q 5.515625 13.8125 5.515625 26.8125 
Q 5.515625 40.234375 12.765625 48.109375 
Q 20.015625 56 32.328125 56 
Q 43.359375 56 49.78125 48.890625 
Q 56.203125 41.796875 56.203125 29.59375 
z
M 47.21875 32.234375 
Q 47.125 39.59375 43.09375 43.984375 
Q 39.0625 48.390625 32.421875 48.390625 
Q 24.90625 48.390625 20.390625 44.140625 
Q 15.875 39.890625 15.1875 32.171875 
z
" id="DejaVuSans-101"/>
      </defs>
      <use xlink:href="#DejaVuSans-68"/>
      <use x="77.001953" xlink:href="#DejaVuSans-97"/>
      <use x="138.28125" xlink:href="#DejaVuSans-116"/>
      <use x="177.490234" xlink:href="#DejaVuSans-101"/>
     </g>
    </g>
   </g>
   <g id="matplotlib.axis_2">
    <g id="ytick_1">
     <g id="line2d_6">
      <defs>
       <path d="M 0 0 
L -3.5 0 
" id="m9f76a8e8dd" style="stroke:#000000;stroke-width:0.8;"/>
      </defs>
      <g>
       <use style="stroke:#000000;stroke-width:0.8;" x="135" xlink:href="#m9f76a8e8dd" y="491.929531"/>
      </g>
     </g>
     <g id="text_7">
      <!-- 0 -->
      <g transform="translate(121.6375 495.72875)scale(0.1 -0.1)">
       <use xlink:href="#DejaVuSans-48"/>
      </g>
     </g>
    </g>
    <g id="ytick_2">
     <g id="line2d_7">
      <g>
       <use style="stroke:#000000;stroke-width:0.8;" x="135" xlink:href="#m9f76a8e8dd" y="417.541818"/>
      </g>
     </g>
     <g id="text_8">
      <!-- 20000 -->
      <g transform="translate(96.1875 421.341037)scale(0.1 -0.1)">
       <use xlink:href="#DejaVuSans-50"/>
       <use x="63.623047" xlink:href="#DejaVuSans-48"/>
       <use x="127.246094" xlink:href="#DejaVuSans-48"/>
       <use x="190.869141" xlink:href="#DejaVuSans-48"/>
       <use x="254.492188" xlink:href="#DejaVuSans-48"/>
      </g>
     </g>
    </g>
    <g id="ytick_3">
     <g id="line2d_8">
      <g>
       <use style="stroke:#000000;stroke-width:0.8;" x="135" xlink:href="#m9f76a8e8dd" y="343.154105"/>
      </g>
     </g>
     <g id="text_9">
      <!-- 40000 -->
      <g transform="translate(96.1875 346.953324)scale(0.1 -0.1)">
       <defs>
        <path d="M 37.796875 64.3125 
L 12.890625 25.390625 
L 37.796875 25.390625 
z
M 35.203125 72.90625 
L 47.609375 72.90625 
L 47.609375 25.390625 
L 58.015625 25.390625 
L 58.015625 17.1875 
L 47.609375 17.1875 
L 47.609375 0 
L 37.796875 0 
L 37.796875 17.1875 
L 4.890625 17.1875 
L 4.890625 26.703125 
z
" id="DejaVuSans-52"/>
       </defs>
       <use xlink:href="#DejaVuSans-52"/>
       <use x="63.623047" xlink:href="#DejaVuSans-48"/>
       <use x="127.246094" xlink:href="#DejaVuSans-48"/>
       <use x="190.869141" xlink:href="#DejaVuSans-48"/>
       <use x="254.492188" xlink:href="#DejaVuSans-48"/>
      </g>
     </g>
    </g>
    <g id="ytick_4">
     <g id="line2d_9">
      <g>
       <use style="stroke:#000000;stroke-width:0.8;" x="135" xlink:href="#m9f76a8e8dd" y="268.766393"/>
      </g>
     </g>
     <g id="text_10">
      <!-- 60000 -->
      <g transform="translate(96.1875 272.565611)scale(0.1 -0.1)">
       <use xlink:href="#DejaVuSans-54"/>
       <use x="63.623047" xlink:href="#DejaVuSans-48"/>
       <use x="127.246094" xlink:href="#DejaVuSans-48"/>
       <use x="190.869141" xlink:href="#DejaVuSans-48"/>
       <use x="254.492188" xlink:href="#DejaVuSans-48"/>
      </g>
     </g>
    </g>
    <g id="ytick_5">
     <g id="line2d_10">
      <g>
       <use style="stroke:#000000;stroke-width:0.8;" x="135" xlink:href="#m9f76a8e8dd" y="194.37868"/>
      </g>
     </g>
     <g id="text_11">
      <!-- 80000 -->
      <g transform="translate(96.1875 198.177899)scale(0.1 -0.1)">
       <use xlink:href="#DejaVuSans-56"/>
       <use x="63.623047" xlink:href="#DejaVuSans-48"/>
       <use x="127.246094" xlink:href="#DejaVuSans-48"/>
       <use x="190.869141" xlink:href="#DejaVuSans-48"/>
       <use x="254.492188" xlink:href="#DejaVuSans-48"/>
      </g>
     </g>
    </g>
    <g id="ytick_6">
     <g id="line2d_11">
      <g>
       <use style="stroke:#000000;stroke-width:0.8;" x="135" xlink:href="#m9f76a8e8dd" y="119.990967"/>
      </g>
     </g>
     <g id="text_12">
      <!-- 100000 -->
      <g transform="translate(89.825 123.790186)scale(0.1 -0.1)">
       <use xlink:href="#DejaVuSans-49"/>
       <use x="63.623047" xlink:href="#DejaVuSans-48"/>
       <use x="127.246094" xlink:href="#DejaVuSans-48"/>
       <use x="190.869141" xlink:href="#DejaVuSans-48"/>
       <use x="254.492188" xlink:href="#DejaVuSans-48"/>
       <use x="318.115234" xlink:href="#DejaVuSans-48"/>
      </g>
     </g>
    </g>
    <g id="text_13">
     <!-- Trend -->
     <g transform="translate(83.745312 304.558906)rotate(-90)scale(0.1 -0.1)">
      <defs>
       <path d="M -0.296875 72.90625 
L 61.375 72.90625 
L 61.375 64.59375 
L 35.5 64.59375 
L 35.5 0 
L 25.59375 0 
L 25.59375 64.59375 
L -0.296875 64.59375 
z
" id="DejaVuSans-84"/>
       <path d="M 41.109375 46.296875 
Q 39.59375 47.171875 37.8125 47.578125 
Q 36.03125 48 33.890625 48 
Q 26.265625 48 22.1875 43.046875 
Q 18.109375 38.09375 18.109375 28.8125 
L 18.109375 0 
L 9.078125 0 
L 9.078125 54.6875 
L 18.109375 54.6875 
L 18.109375 46.1875 
Q 20.953125 51.171875 25.484375 53.578125 
Q 30.03125 56 36.53125 56 
Q 37.453125 56 38.578125 55.875 
Q 39.703125 55.765625 41.0625 55.515625 
z
" id="DejaVuSans-114"/>
       <path d="M 54.890625 33.015625 
L 54.890625 0 
L 45.90625 0 
L 45.90625 32.71875 
Q 45.90625 40.484375 42.875 44.328125 
Q 39.84375 48.1875 33.796875 48.1875 
Q 26.515625 48.1875 22.3125 43.546875 
Q 18.109375 38.921875 18.109375 30.90625 
L 18.109375 0 
L 9.078125 0 
L 9.078125 54.6875 
L 18.109375 54.6875 
L 18.109375 46.1875 
Q 21.34375 51.125 25.703125 53.5625 
Q 30.078125 56 35.796875 56 
Q 45.21875 56 50.046875 50.171875 
Q 54.890625 44.34375 54.890625 33.015625 
z
" id="DejaVuSans-110"/>
       <path d="M 45.40625 46.390625 
L 45.40625 75.984375 
L 54.390625 75.984375 
L 54.390625 0 
L 45.40625 0 
L 45.40625 8.203125 
Q 42.578125 3.328125 38.25 0.953125 
Q 33.9375 -1.421875 27.875 -1.421875 
Q 17.96875 -1.421875 11.734375 6.484375 
Q 5.515625 14.40625 5.515625 27.296875 
Q 5.515625 40.1875 11.734375 48.09375 
Q 17.96875 56 27.875 56 
Q 33.9375 56 38.25 53.625 
Q 42.578125 51.265625 45.40625 46.390625 
z
M 14.796875 27.296875 
Q 14.796875 17.390625 18.875 11.75 
Q 22.953125 6.109375 30.078125 6.109375 
Q 37.203125 6.109375 41.296875 11.75 
Q 45.40625 17.390625 45.40625 27.296875 
Q 45.40625 37.203125 41.296875 42.84375 
Q 37.203125 48.484375 30.078125 48.484375 
Q 22.953125 48.484375 18.875 42.84375 
Q 14.796875 37.203125 14.796875 27.296875 
z
" id="DejaVuSans-100"/>
      </defs>
      <use xlink:href="#DejaVuSans-84"/>
      <use x="46.333984" xlink:href="#DejaVuSans-114"/>
      <use x="85.197266" xlink:href="#DejaVuSans-101"/>
      <use x="146.720703" xlink:href="#DejaVuSans-110"/>
      <use x="210.099609" xlink:href="#DejaVuSans-100"/>
     </g>
    </g>
   </g>
   <g id="line2d_12">
    <path clip-path="url(#p123e26baf6)" d="M 173.045455 491.929531 
L 276.805785 491.866301 
L 294.099174 491.442291 
L 297.557851 491.178215 
L 304.475207 491.036878 
L 307.933884 489.824359 
L 311.392562 490.657501 
L 318.309917 489.746252 
L 321.768595 489.069323 
L 325.227273 489.035849 
L 328.68595 487.291457 
L 332.144628 486.380208 
L 335.603306 485.245795 
L 339.061983 488.295691 
L 342.520661 483.326592 
L 345.979339 482.06944 
L 349.438017 482.456256 
L 352.896694 478.922839 
L 356.355372 478.576936 
L 359.81405 479.904757 
L 363.272727 478.814977 
L 366.731405 476.282076 
L 370.190083 472.134961 
L 373.64876 469.665289 
L 377.107438 467.541519 
L 380.566116 471.249747 
L 384.024793 474.117393 
L 387.483471 472.406476 
L 390.942149 472.551532 
L 394.400826 468.858182 
L 397.859504 469.951681 
L 401.318182 469.709921 
L 404.77686 472.525496 
L 408.235537 476.866019 
L 411.694215 476.854861 
L 415.152893 474.143429 
L 418.61157 474.567439 
L 422.070248 474.876148 
L 425.528926 474.057883 
L 428.987603 475.876663 
L 432.446281 478.543462 
L 435.904959 480.626318 
L 439.363636 477.661968 
L 442.822314 476.293234 
L 446.280992 477.234238 
L 449.739669 474.470735 
L 453.198347 476.709805 
L 456.657025 480.202308 
L 460.115702 480.875517 
L 463.57438 482.009929 
L 467.033058 477.847937 
L 470.491736 478.937717 
L 473.950413 478.945156 
L 477.409091 480.596563 
L 480.867769 483.538597 
L 484.326446 481.779328 
L 487.785124 479.395201 
L 491.243802 482.088037 
L 494.702479 480.693267 
L 498.161157 483.162939 
L 501.619835 483.285679 
L 505.078512 485.461519 
L 508.53719 484.152296 
L 511.995868 484.170892 
L 515.454545 484.966841 
L 518.913223 484.620938 
L 522.371901 484.862698 
L 525.830579 486.763304 
L 532.747934 487.931191 
L 536.206612 486.558738 
L 539.665289 486.718672 
L 543.123967 486.993906 
L 546.582645 487.901436 
L 550.041322 488.946584 
L 553.5 489.162308 
L 556.958678 486.714952 
L 560.417355 488.626716 
L 563.876033 488.2399 
L 567.334711 488.994936 
L 570.793388 488.675068 
L 577.710744 490.252088 
L 581.169421 488.90567 
L 584.628099 489.456139 
L 588.086777 489.541685 
L 595.004132 489.441262 
L 598.46281 489.954537 
L 601.921488 490.813715 
L 605.380165 490.452935 
L 608.838843 489.75741 
L 612.297521 489.723935 
L 622.673554 490.690976 
L 626.132231 491.185654 
L 629.590909 490.746766 
L 633.049587 490.735608 
L 636.508264 491.2712 
L 639.966942 490.002889 
L 643.42562 490.925297 
L 646.884298 491.196812 
L 650.342975 490.888103 
L 653.801653 490.876945 
L 657.260331 491.178215 
L 660.719008 490.519884 
L 664.177686 491.323271 
L 667.636364 490.642623 
L 674.553719 490.809996 
L 678.012397 491.14846 
L 681.471074 490.709572 
L 684.929752 490.698414 
L 688.38843 492.48 
L 691.847107 490.947613 
L 695.305785 491.096389 
L 698.764463 491.107547 
L 702.22314 491.50924 
L 705.681818 489.783445 
L 709.140496 490.828593 
L 712.599174 490.981088 
L 716.057851 491.278638 
L 719.516529 491.282358 
L 722.975207 491.460888 
L 733.35124 491.181934 
L 740.268595 491.055475 
L 743.727273 491.215409 
L 747.18595 491.155899 
L 750.644628 491.419975 
L 754.103306 491.211689 
L 757.561983 491.133582 
L 761.020661 490.90298 
L 764.479339 491.230286 
L 767.938017 491.059195 
L 774.855372 491.505521 
L 785.231405 491.070353 
L 788.690083 491.003404 
L 799.066116 491.45345 
L 802.524793 490.888103 
L 805.983471 490.791399 
L 809.442149 490.992246 
L 812.900826 490.910419 
L 816.359504 490.984807 
L 819.818182 491.304674 
L 823.27686 491.178215 
L 830.194215 490.508726 
L 833.652893 490.519884 
L 840.570248 491.044317 
L 844.028926 491.338149 
L 847.487603 491.222848 
L 850.946281 490.501287 
L 854.404959 490.438057 
L 857.863636 489.87643 
L 861.322314 490.638904 
L 864.780992 490.207455 
L 868.239669 490.96621 
L 871.698347 490.397144 
L 878.615702 489.988012 
L 885.533058 489.590037 
L 892.450413 490.739328 
L 895.909091 490.438057 
L 899.367769 489.541685 
L 902.826446 488.805247 
L 909.743802 487.946069 
L 913.202479 487.432794 
L 916.661157 488.384956 
L 920.119835 488.671349 
L 923.578512 486.84885 
L 930.495868 486.499228 
L 933.954545 486.558738 
L 933.954545 486.558738 
" style="fill:none;stroke:#1f77b4;stroke-linecap:square;stroke-width:1.5;"/>
   </g>
   <g id="line2d_13">
    <path clip-path="url(#p123e26baf6)" d="M 173.045455 491.929531 
L 318.309917 491.825388 
L 325.227273 491.747281 
L 328.68595 491.795633 
L 332.144628 491.434853 
L 335.603306 491.568751 
L 339.061983 491.304674 
L 342.520661 491.200531 
L 345.979339 491.226567 
L 349.438017 490.999685 
L 352.896694 491.278638 
L 356.355372 490.560797 
L 363.272727 490.646343 
L 366.731405 490.162823 
L 370.190083 490.341353 
L 373.64876 489.597476 
L 377.107438 488.980058 
L 380.566116 489.508211 
L 384.024793 489.69418 
L 387.483471 489.166027 
L 390.942149 489.389191 
L 394.400826 489.281328 
L 397.859504 488.511416 
L 401.318182 488.622997 
L 404.77686 489.117675 
L 408.235537 488.90939 
L 411.694215 488.816405 
L 415.152893 489.225538 
L 422.070248 489.080482 
L 425.528926 489.396629 
L 428.987603 489.976853 
L 432.446281 489.564002 
L 435.904959 489.683022 
L 439.363636 489.913624 
L 442.822314 489.660706 
L 446.280992 489.809481 
L 449.739669 489.627231 
L 453.198347 490.326476 
L 456.657025 489.824359 
L 460.115702 489.690461 
L 467.033058 489.976853 
L 470.491736 489.790884 
L 473.950413 490.136787 
L 477.409091 490.319037 
L 480.867769 490.24093 
L 484.326446 489.943379 
L 487.785124 490.304159 
L 491.243802 490.203736 
L 494.702479 490.367389 
L 498.161157 490.385986 
L 501.619835 490.962491 
L 508.53719 490.508726 
L 515.454545 490.869506 
L 518.913223 490.929016 
L 522.371901 490.166542 
L 525.830579 491.282358 
L 532.747934 491.051756 
L 536.206612 490.557078 
L 539.665289 490.910419 
L 553.5 491.263761 
L 556.958678 491.289797 
L 560.417355 491.204251 
L 563.876033 490.955052 
L 567.334711 491.02944 
L 570.793388 491.360465 
L 574.252066 491.39022 
L 577.710744 491.561312 
L 581.169421 491.32699 
L 591.545455 491.446011 
L 595.004132 491.486924 
L 598.46281 491.743562 
L 601.921488 491.587347 
L 605.380165 491.639419 
L 608.838843 491.494363 
L 612.297521 491.669174 
L 619.214876 491.516679 
L 626.132231 491.706368 
L 633.049587 491.665455 
L 639.966942 491.613383 
L 650.342975 491.687771 
L 657.260331 491.665455 
L 664.177686 491.721245 
L 667.636364 491.639419 
L 674.553719 491.832827 
L 691.847107 491.747281 
L 698.764463 491.843985 
L 702.22314 491.862582 
L 705.681818 492.044832 
L 709.140496 491.803072 
L 747.18595 491.899776 
L 750.644628 491.817949 
L 761.020661 491.884898 
L 778.31405 491.881179 
L 788.690083 491.87746 
L 795.607438 491.881179 
L 826.735537 491.907215 
L 857.863636 491.918373 
L 868.239669 491.914653 
L 882.07438 491.918373 
L 885.533058 491.341868 
L 888.991736 491.914653 
L 933.954545 491.925812 
L 933.954545 491.925812 
" style="fill:none;stroke:#ff7f0e;stroke-linecap:square;stroke-width:1.5;"/>
   </g>
   <g id="line2d_14">
    <path clip-path="url(#p123e26baf6)" d="M 173.045455 491.929531 
L 294.099174 491.922092 
L 297.557851 491.773317 
L 301.016529 491.925812 
L 304.475207 491.929531 
L 311.392562 491.684051 
L 314.85124 491.888618 
L 318.309917 491.498082 
L 321.768595 491.416256 
L 332.144628 491.806791 
L 335.603306 491.550154 
L 339.061983 491.929531 
L 342.520661 490.735608 
L 345.979339 491.929531 
L 349.438017 490.464093 
L 352.896694 489.969415 
L 356.355372 490.557078 
L 359.81405 490.389705 
L 363.272727 491.215409 
L 366.731405 487.897717 
L 370.190083 490.385986 
L 373.64876 491.929531 
L 377.107438 485.859494 
L 380.566116 488.388676 
L 384.024793 491.929531 
L 387.483471 487.086891 
L 390.942149 488.076247 
L 394.400826 488.213865 
L 397.859504 489.738813 
L 401.318182 486.595932 
L 404.77686 489.526808 
L 408.235537 486.015708 
L 411.694215 487.804732 
L 415.152893 487.771258 
L 418.61157 486.60709 
L 422.070248 486.42484 
L 425.528926 487.324932 
L 428.987603 488.883354 
L 432.446281 488.128319 
L 439.363636 484.12254 
L 442.822314 484.568867 
L 446.280992 484.54655 
L 449.739669 484.196928 
L 453.198347 485.692121 
L 456.657025 487.377003 
L 460.115702 485.625172 
L 463.57438 488.351482 
L 467.033058 484.222964 
L 470.491736 482.396746 
L 473.950413 483.746883 
L 477.409091 484.014678 
L 480.867769 485.15281 
L 484.326446 481.801644 
L 487.785124 480.983379 
L 491.243802 480.648634 
L 494.702479 481.061486 
L 498.161157 482.177302 
L 501.619835 485.204882 
L 505.078512 485.621453 
L 508.53719 483.311714 
L 511.995868 483.334031 
L 515.454545 474.474454 
L 518.913223 483.360066 
L 522.371901 485.736754 
L 525.830579 485.4578 
L 529.289256 487.373284 
L 532.747934 483.181536 
L 536.206612 462.122374 
L 539.665289 480.656073 
L 543.123967 481.712379 
L 546.582645 477.022233 
L 550.041322 483.914255 
L 553.5 486.718672 
L 560.417355 478.904242 
L 563.876033 481.712379 
L 567.334711 473.641312 
L 570.793388 482.240531 
L 577.710744 483.932852 
L 581.169421 484.211806 
L 584.628099 481.213981 
L 588.086777 483.45677 
L 591.545455 483.895658 
L 595.004132 484.044433 
L 598.46281 485.833458 
L 601.921488 486.343014 
L 605.380165 481.972736 
L 608.838843 482.843072 
L 612.297521 478.900523 
L 615.756198 483.598107 
L 619.214876 481.556164 
L 622.673554 484.959402 
L 626.132231 488.775492 
L 629.590909 485.468958 
L 633.049587 488.782931 
L 636.508264 488.370079 
L 639.966942 484.91477 
L 643.42562 487.105488 
L 646.884298 489.106517 
L 650.342975 489.15115 
L 653.801653 484.260158 
L 657.260331 487.120365 
L 660.719008 486.72611 
L 664.177686 485.431764 
L 667.636364 485.309024 
L 671.095041 486.331856 
L 674.553719 489.549124 
L 678.012397 486.290942 
L 681.471074 488.474222 
L 684.929752 487.87912 
L 688.38843 486.860008 
L 691.847107 489.898746 
L 695.305785 490.293001 
L 698.764463 489.947098 
L 702.22314 487.618763 
L 705.681818 486.253748 
L 709.140496 489.645828 
L 712.599174 488.619278 
L 716.057851 488.325446 
L 719.516529 490.78768 
L 722.975207 490.795118 
L 726.433884 488.016737 
L 729.892562 490.185139 
L 733.35124 490.568236 
L 736.809917 490.501287 
L 740.268595 490.155384 
L 743.727273 491.319552 
L 747.18595 491.434853 
L 750.644628 489.794604 
L 754.103306 488.861038 
L 757.561983 490.672379 
L 761.020661 490.832312 
L 764.479339 490.791399 
L 767.938017 490.631465 
L 771.396694 491.26748 
L 774.855372 490.683537 
L 778.31405 489.790884 
L 781.772727 491.074072 
L 785.231405 491.048037 
L 788.690083 490.728169 
L 792.14876 491.397659 
L 799.066116 490.929016 
L 802.524793 491.196812 
L 805.983471 491.133582 
L 809.442149 490.627746 
L 812.900826 491.45345 
L 819.818182 491.382781 
L 823.27686 491.323271 
L 826.735537 490.9067 
L 830.194215 489.084201 
L 833.652893 491.26748 
L 837.11157 490.981088 
L 840.570248 491.070353 
L 844.028926 491.44973 
L 850.946281 491.14846 
L 854.404959 490.638904 
L 861.322314 490.795118 
L 864.780992 491.367904 
L 868.239669 491.371623 
L 871.698347 491.137302 
L 875.157025 491.051756 
L 878.615702 491.08895 
L 882.07438 490.430619 
L 885.533058 490.761644 
L 888.991736 491.386501 
L 892.450413 491.252603 
L 895.909091 491.282358 
L 899.367769 490.575675 
L 902.826446 491.260042 
L 906.285124 490.910419 
L 909.743802 491.02572 
L 913.202479 490.936455 
L 916.661157 491.215409 
L 920.119835 490.616588 
L 923.578512 490.761644 
L 927.03719 491.092669 
L 930.495868 490.635185 
L 933.954545 487.012503 
L 933.954545 487.012503 
" style="fill:none;stroke:#2ca02c;stroke-linecap:square;stroke-width:1.5;"/>
   </g>
   <g id="line2d_15">
    <path clip-path="url(#p123e26baf6)" d="M 173.045455 491.929531 
L 276.805785 491.858863 
L 280.264463 491.710087 
L 294.099174 490.30044 
L 297.557851 489.723935 
L 304.475207 488.013018 
L 307.933884 486.06406 
L 311.392562 485.104458 
L 318.309917 481.864873 
L 325.227273 477.364417 
L 328.68595 473.10572 
L 332.144628 468.173815 
L 335.603306 462.230237 
L 339.061983 459.221254 
L 342.520661 452.541237 
L 345.979339 443.38411 
L 349.438017 436.306119 
L 356.355372 415.299029 
L 359.81405 406.112146 
L 363.272727 394.994902 
L 366.731405 385.145969 
L 370.190083 368.483122 
L 373.64876 348.550934 
L 377.107438 333.182433 
L 380.566116 318.464824 
L 384.024793 302.888037 
L 387.483471 290.971125 
L 390.942149 277.98675 
L 397.859504 244.910253 
L 401.318182 231.330776 
L 404.77686 217.14132 
L 408.235537 211.011773 
L 411.694215 203.175027 
L 415.152893 192.251191 
L 418.61157 183.038273 
L 422.070248 174.33863 
L 428.987603 152.550469 
L 432.446281 145.331142 
L 435.904959 142.058082 
L 439.363636 137.613416 
L 442.822314 131.606609 
L 446.280992 126.414346 
L 453.198347 111.611191 
L 456.657025 106.541669 
L 460.115702 104.031083 
L 463.57438 99.839336 
L 467.033058 95.416986 
L 470.491736 94.096604 
L 473.950413 91.087621 
L 477.409091 89.28 
L 480.867769 89.354388 
L 484.326446 91.318223 
L 487.785124 91.355417 
L 491.243802 94.520614 
L 494.702479 95.714537 
L 498.161157 98.243719 
L 501.619835 97.291557 
L 505.078512 98.370178 
L 508.53719 100.631565 
L 511.995868 102.669788 
L 515.454545 114.2222 
L 518.913223 116.483587 
L 522.371901 117.37252 
L 525.830579 119.325197 
L 529.289256 120.065355 
L 532.747934 125.692785 
L 536.206612 151.501602 
L 539.665289 158.583313 
L 543.123967 164.768651 
L 546.582645 176.369415 
L 550.041322 182.015442 
L 553.5 185.124848 
L 556.958678 189.669938 
L 560.417355 200.117692 
L 563.876033 207.619693 
L 567.334711 223.873408 
L 574.252066 237.705803 
L 577.710744 244.393259 
L 581.169421 249.689664 
L 584.628099 258.530643 
L 588.086777 265.195782 
L 591.545455 271.288136 
L 595.004132 277.127572 
L 598.46281 281.43462 
L 601.921488 286.247505 
L 605.380165 295.017817 
L 608.838843 302.367323 
L 612.297521 313.451092 
L 615.756198 320.186899 
L 619.214876 329.425853 
L 622.673554 335.43638 
L 626.132231 338.069705 
L 629.590909 343.55208 
L 633.049587 345.768834 
L 636.508264 348.99726 
L 639.966942 354.401528 
L 643.42562 358.489132 
L 646.884298 360.776555 
L 650.342975 362.755268 
L 653.801653 369.665886 
L 657.260331 373.987812 
L 660.719008 377.978713 
L 664.177686 384.078506 
L 667.636364 389.702217 
L 671.095041 394.206393 
L 674.553719 395.563968 
L 678.012397 400.547945 
L 681.471074 402.94323 
L 684.929752 406.008003 
L 688.38843 411.802806 
L 691.847107 413.033923 
L 695.305785 413.926575 
L 698.764463 415.17257 
L 702.22314 419.129996 
L 705.681818 422.544392 
L 709.140496 423.853616 
L 712.599174 426.327007 
L 716.057851 429.309954 
L 722.975207 430.574545 
L 726.433884 434.044732 
L 729.892562 435.190303 
L 736.809917 436.570195 
L 740.268595 437.548394 
L 743.727273 437.470286 
L 747.18595 437.221088 
L 750.644628 438.958041 
L 754.103306 441.364483 
L 757.561983 441.87032 
L 761.020661 441.985621 
L 767.938017 442.911748 
L 771.396694 442.993574 
L 774.855372 443.878788 
L 778.31405 445.463246 
L 785.231405 445.600863 
L 788.690083 445.928169 
L 792.14876 445.660374 
L 795.607438 445.794271 
L 799.066116 446.374496 
L 805.983471 445.794271 
L 809.442149 446.177368 
L 816.359504 445.19545 
L 826.735537 445.005762 
L 830.194215 446.441445 
L 833.652893 445.727323 
L 837.11157 445.597144 
L 847.487603 445.504159 
L 850.946281 444.89418 
L 854.404959 444.71565 
L 857.863636 443.860191 
L 861.322314 443.752329 
L 864.780992 442.599319 
L 868.239669 442.208784 
L 871.698347 441.490942 
L 875.157025 440.635484 
L 878.615702 439.556862 
L 885.533058 438.348061 
L 888.991736 437.131822 
L 892.450413 436.633425 
L 895.909091 435.807721 
L 899.367769 434.799768 
L 906.285124 429.897617 
L 909.743802 426.829124 
L 913.202479 423.351499 
L 916.661157 420.535924 
L 920.119835 418.605562 
L 923.578512 414.741121 
L 927.03719 410.355965 
L 930.495868 406.253483 
L 933.954545 405.803437 
L 933.954545 405.803437 
" style="fill:none;stroke:#d62728;stroke-linecap:square;stroke-width:1.5;"/>
   </g>
   <g id="patch_3">
    <path d="M 135 512.64 
L 135 69.12 
" style="fill:none;stroke:#000000;stroke-linecap:square;stroke-linejoin:miter;stroke-width:0.8;"/>
   </g>
   <g id="patch_4">
    <path d="M 972 512.64 
L 972 69.12 
" style="fill:none;stroke:#000000;stroke-linecap:square;stroke-linejoin:miter;stroke-width:0.8;"/>
   </g>
   <g id="patch_5">
    <path d="M 135 512.64 
L 972 512.64 
" style="fill:none;stroke:#000000;stroke-linecap:square;stroke-linejoin:miter;stroke-width:0.8;"/>
   </g>
   <g id="patch_6">
    <path d="M 135 69.12 
L 972 69.12 
" style="fill:none;stroke:#000000;stroke-linecap:square;stroke-linejoin:miter;stroke-width:0.8;"/>
   </g>
   <g id="text_14">
    <!-- COVID19 Trend in Italy -->
    <g transform="translate(485.940938 63.12)scale(0.12 -0.12)">
     <defs>
      <path d="M 64.40625 67.28125 
L 64.40625 56.890625 
Q 59.421875 61.53125 53.78125 63.8125 
Q 48.140625 66.109375 41.796875 66.109375 
Q 29.296875 66.109375 22.65625 58.46875 
Q 16.015625 50.828125 16.015625 36.375 
Q 16.015625 21.96875 22.65625 14.328125 
Q 29.296875 6.6875 41.796875 6.6875 
Q 48.140625 6.6875 53.78125 8.984375 
Q 59.421875 11.28125 64.40625 15.921875 
L 64.40625 5.609375 
Q 59.234375 2.09375 53.4375 0.328125 
Q 47.65625 -1.421875 41.21875 -1.421875 
Q 24.65625 -1.421875 15.125 8.703125 
Q 5.609375 18.84375 5.609375 36.375 
Q 5.609375 53.953125 15.125 64.078125 
Q 24.65625 74.21875 41.21875 74.21875 
Q 47.75 74.21875 53.53125 72.484375 
Q 59.328125 70.75 64.40625 67.28125 
z
" id="DejaVuSans-67"/>
      <path d="M 39.40625 66.21875 
Q 28.65625 66.21875 22.328125 58.203125 
Q 16.015625 50.203125 16.015625 36.375 
Q 16.015625 22.609375 22.328125 14.59375 
Q 28.65625 6.59375 39.40625 6.59375 
Q 50.140625 6.59375 56.421875 14.59375 
Q 62.703125 22.609375 62.703125 36.375 
Q 62.703125 50.203125 56.421875 58.203125 
Q 50.140625 66.21875 39.40625 66.21875 
z
M 39.40625 74.21875 
Q 54.734375 74.21875 63.90625 63.9375 
Q 73.09375 53.65625 73.09375 36.375 
Q 73.09375 19.140625 63.90625 8.859375 
Q 54.734375 -1.421875 39.40625 -1.421875 
Q 24.03125 -1.421875 14.8125 8.828125 
Q 5.609375 19.09375 5.609375 36.375 
Q 5.609375 53.65625 14.8125 63.9375 
Q 24.03125 74.21875 39.40625 74.21875 
z
" id="DejaVuSans-79"/>
      <path d="M 28.609375 0 
L 0.78125 72.90625 
L 11.078125 72.90625 
L 34.1875 11.53125 
L 57.328125 72.90625 
L 67.578125 72.90625 
L 39.796875 0 
z
" id="DejaVuSans-86"/>
      <path d="M 9.8125 72.90625 
L 19.671875 72.90625 
L 19.671875 0 
L 9.8125 0 
z
" id="DejaVuSans-73"/>
      <path id="DejaVuSans-32"/>
      <path d="M 9.421875 54.6875 
L 18.40625 54.6875 
L 18.40625 0 
L 9.421875 0 
z
M 9.421875 75.984375 
L 18.40625 75.984375 
L 18.40625 64.59375 
L 9.421875 64.59375 
z
" id="DejaVuSans-105"/>
      <path d="M 9.421875 75.984375 
L 18.40625 75.984375 
L 18.40625 0 
L 9.421875 0 
z
" id="DejaVuSans-108"/>
      <path d="M 32.171875 -5.078125 
Q 28.375 -14.84375 24.75 -17.8125 
Q 21.140625 -20.796875 15.09375 -20.796875 
L 7.90625 -20.796875 
L 7.90625 -13.28125 
L 13.1875 -13.28125 
Q 16.890625 -13.28125 18.9375 -11.515625 
Q 21 -9.765625 23.484375 -3.21875 
L 25.09375 0.875 
L 2.984375 54.6875 
L 12.5 54.6875 
L 29.59375 11.921875 
L 46.6875 54.6875 
L 56.203125 54.6875 
z
" id="DejaVuSans-121"/>
     </defs>
     <use xlink:href="#DejaVuSans-67"/>
     <use x="69.824219" xlink:href="#DejaVuSans-79"/>
     <use x="146.785156" xlink:href="#DejaVuSans-86"/>
     <use x="215.193359" xlink:href="#DejaVuSans-73"/>
     <use x="244.685547" xlink:href="#DejaVuSans-68"/>
     <use x="321.6875" xlink:href="#DejaVuSans-49"/>
     <use x="385.310547" xlink:href="#DejaVuSans-57"/>
     <use x="448.933594" xlink:href="#DejaVuSans-32"/>
     <use x="480.720703" xlink:href="#DejaVuSans-84"/>
     <use x="527.054688" xlink:href="#DejaVuSans-114"/>
     <use x="565.917969" xlink:href="#DejaVuSans-101"/>
     <use x="627.441406" xlink:href="#DejaVuSans-110"/>
     <use x="690.820312" xlink:href="#DejaVuSans-100"/>
     <use x="754.296875" xlink:href="#DejaVuSans-32"/>
     <use x="786.083984" xlink:href="#DejaVuSans-105"/>
     <use x="813.867188" xlink:href="#DejaVuSans-110"/>
     <use x="877.246094" xlink:href="#DejaVuSans-32"/>
     <use x="909.033203" xlink:href="#DejaVuSans-73"/>
     <use x="938.525391" xlink:href="#DejaVuSans-116"/>
     <use x="977.734375" xlink:href="#DejaVuSans-97"/>
     <use x="1039.013672" xlink:href="#DejaVuSans-108"/>
     <use x="1066.796875" xlink:href="#DejaVuSans-121"/>
    </g>
   </g>
   <g id="legend_1">
    <g id="patch_7">
     <path d="M 880.271875 135.8325 
L 965 135.8325 
Q 967 135.8325 967 133.8325 
L 967 76.12 
Q 967 74.12 965 74.12 
L 880.271875 74.12 
Q 878.271875 74.12 878.271875 76.12 
L 878.271875 133.8325 
Q 878.271875 135.8325 880.271875 135.8325 
z
" style="fill:#ffffff;opacity:0.8;stroke:#cccccc;stroke-linejoin:miter;"/>
    </g>
    <g id="line2d_16">
     <path d="M 882.271875 82.218437 
L 902.271875 82.218437 
" style="fill:none;stroke:#1f77b4;stroke-linecap:square;stroke-width:1.5;"/>
    </g>
    <g id="line2d_17"/>
    <g id="text_15">
     <!-- Confirmed -->
     <g transform="translate(910.271875 85.718437)scale(0.1 -0.1)">
      <defs>
       <path d="M 30.609375 48.390625 
Q 23.390625 48.390625 19.1875 42.75 
Q 14.984375 37.109375 14.984375 27.296875 
Q 14.984375 17.484375 19.15625 11.84375 
Q 23.34375 6.203125 30.609375 6.203125 
Q 37.796875 6.203125 41.984375 11.859375 
Q 46.1875 17.53125 46.1875 27.296875 
Q 46.1875 37.015625 41.984375 42.703125 
Q 37.796875 48.390625 30.609375 48.390625 
z
M 30.609375 56 
Q 42.328125 56 49.015625 48.375 
Q 55.71875 40.765625 55.71875 27.296875 
Q 55.71875 13.875 49.015625 6.21875 
Q 42.328125 -1.421875 30.609375 -1.421875 
Q 18.84375 -1.421875 12.171875 6.21875 
Q 5.515625 13.875 5.515625 27.296875 
Q 5.515625 40.765625 12.171875 48.375 
Q 18.84375 56 30.609375 56 
z
" id="DejaVuSans-111"/>
       <path d="M 37.109375 75.984375 
L 37.109375 68.5 
L 28.515625 68.5 
Q 23.6875 68.5 21.796875 66.546875 
Q 19.921875 64.59375 19.921875 59.515625 
L 19.921875 54.6875 
L 34.71875 54.6875 
L 34.71875 47.703125 
L 19.921875 47.703125 
L 19.921875 0 
L 10.890625 0 
L 10.890625 47.703125 
L 2.296875 47.703125 
L 2.296875 54.6875 
L 10.890625 54.6875 
L 10.890625 58.5 
Q 10.890625 67.625 15.140625 71.796875 
Q 19.390625 75.984375 28.609375 75.984375 
z
" id="DejaVuSans-102"/>
       <path d="M 52 44.1875 
Q 55.375 50.25 60.0625 53.125 
Q 64.75 56 71.09375 56 
Q 79.640625 56 84.28125 50.015625 
Q 88.921875 44.046875 88.921875 33.015625 
L 88.921875 0 
L 79.890625 0 
L 79.890625 32.71875 
Q 79.890625 40.578125 77.09375 44.375 
Q 74.3125 48.1875 68.609375 48.1875 
Q 61.625 48.1875 57.5625 43.546875 
Q 53.515625 38.921875 53.515625 30.90625 
L 53.515625 0 
L 44.484375 0 
L 44.484375 32.71875 
Q 44.484375 40.625 41.703125 44.40625 
Q 38.921875 48.1875 33.109375 48.1875 
Q 26.21875 48.1875 22.15625 43.53125 
Q 18.109375 38.875 18.109375 30.90625 
L 18.109375 0 
L 9.078125 0 
L 9.078125 54.6875 
L 18.109375 54.6875 
L 18.109375 46.1875 
Q 21.1875 51.21875 25.484375 53.609375 
Q 29.78125 56 35.6875 56 
Q 41.65625 56 45.828125 52.96875 
Q 50 49.953125 52 44.1875 
z
" id="DejaVuSans-109"/>
      </defs>
      <use xlink:href="#DejaVuSans-67"/>
      <use x="69.824219" xlink:href="#DejaVuSans-111"/>
      <use x="131.005859" xlink:href="#DejaVuSans-110"/>
      <use x="194.384766" xlink:href="#DejaVuSans-102"/>
      <use x="229.589844" xlink:href="#DejaVuSans-105"/>
      <use x="257.373047" xlink:href="#DejaVuSans-114"/>
      <use x="296.736328" xlink:href="#DejaVuSans-109"/>
      <use x="394.148438" xlink:href="#DejaVuSans-101"/>
      <use x="455.671875" xlink:href="#DejaVuSans-100"/>
     </g>
    </g>
    <g id="line2d_18">
     <path d="M 882.271875 96.896563 
L 902.271875 96.896563 
" style="fill:none;stroke:#ff7f0e;stroke-linecap:square;stroke-width:1.5;"/>
    </g>
    <g id="line2d_19"/>
    <g id="text_16">
     <!-- Deaths -->
     <g transform="translate(910.271875 100.396563)scale(0.1 -0.1)">
      <defs>
       <path d="M 54.890625 33.015625 
L 54.890625 0 
L 45.90625 0 
L 45.90625 32.71875 
Q 45.90625 40.484375 42.875 44.328125 
Q 39.84375 48.1875 33.796875 48.1875 
Q 26.515625 48.1875 22.3125 43.546875 
Q 18.109375 38.921875 18.109375 30.90625 
L 18.109375 0 
L 9.078125 0 
L 9.078125 75.984375 
L 18.109375 75.984375 
L 18.109375 46.1875 
Q 21.34375 51.125 25.703125 53.5625 
Q 30.078125 56 35.796875 56 
Q 45.21875 56 50.046875 50.171875 
Q 54.890625 44.34375 54.890625 33.015625 
z
" id="DejaVuSans-104"/>
       <path d="M 44.28125 53.078125 
L 44.28125 44.578125 
Q 40.484375 46.53125 36.375 47.5 
Q 32.28125 48.484375 27.875 48.484375 
Q 21.1875 48.484375 17.84375 46.4375 
Q 14.5 44.390625 14.5 40.28125 
Q 14.5 37.15625 16.890625 35.375 
Q 19.28125 33.59375 26.515625 31.984375 
L 29.59375 31.296875 
Q 39.15625 29.25 43.1875 25.515625 
Q 47.21875 21.78125 47.21875 15.09375 
Q 47.21875 7.46875 41.1875 3.015625 
Q 35.15625 -1.421875 24.609375 -1.421875 
Q 20.21875 -1.421875 15.453125 -0.5625 
Q 10.6875 0.296875 5.421875 2 
L 5.421875 11.28125 
Q 10.40625 8.6875 15.234375 7.390625 
Q 20.0625 6.109375 24.8125 6.109375 
Q 31.15625 6.109375 34.5625 8.28125 
Q 37.984375 10.453125 37.984375 14.40625 
Q 37.984375 18.0625 35.515625 20.015625 
Q 33.0625 21.96875 24.703125 23.78125 
L 21.578125 24.515625 
Q 13.234375 26.265625 9.515625 29.90625 
Q 5.8125 33.546875 5.8125 39.890625 
Q 5.8125 47.609375 11.28125 51.796875 
Q 16.75 56 26.8125 56 
Q 31.78125 56 36.171875 55.265625 
Q 40.578125 54.546875 44.28125 53.078125 
z
" id="DejaVuSans-115"/>
      </defs>
      <use xlink:href="#DejaVuSans-68"/>
      <use x="77.001953" xlink:href="#DejaVuSans-101"/>
      <use x="138.525391" xlink:href="#DejaVuSans-97"/>
      <use x="199.804688" xlink:href="#DejaVuSans-116"/>
      <use x="239.013672" xlink:href="#DejaVuSans-104"/>
      <use x="302.392578" xlink:href="#DejaVuSans-115"/>
     </g>
    </g>
    <g id="line2d_20">
     <path d="M 882.271875 111.574687 
L 902.271875 111.574687 
" style="fill:none;stroke:#2ca02c;stroke-linecap:square;stroke-width:1.5;"/>
    </g>
    <g id="line2d_21"/>
    <g id="text_17">
     <!-- Recovered -->
     <g transform="translate(910.271875 115.074687)scale(0.1 -0.1)">
      <defs>
       <path d="M 44.390625 34.1875 
Q 47.5625 33.109375 50.5625 29.59375 
Q 53.5625 26.078125 56.59375 19.921875 
L 66.609375 0 
L 56 0 
L 46.6875 18.703125 
Q 43.0625 26.03125 39.671875 28.421875 
Q 36.28125 30.8125 30.421875 30.8125 
L 19.671875 30.8125 
L 19.671875 0 
L 9.8125 0 
L 9.8125 72.90625 
L 32.078125 72.90625 
Q 44.578125 72.90625 50.734375 67.671875 
Q 56.890625 62.453125 56.890625 51.90625 
Q 56.890625 45.015625 53.6875 40.46875 
Q 50.484375 35.9375 44.390625 34.1875 
z
M 19.671875 64.796875 
L 19.671875 38.921875 
L 32.078125 38.921875 
Q 39.203125 38.921875 42.84375 42.21875 
Q 46.484375 45.515625 46.484375 51.90625 
Q 46.484375 58.296875 42.84375 61.546875 
Q 39.203125 64.796875 32.078125 64.796875 
z
" id="DejaVuSans-82"/>
       <path d="M 48.78125 52.59375 
L 48.78125 44.1875 
Q 44.96875 46.296875 41.140625 47.34375 
Q 37.3125 48.390625 33.40625 48.390625 
Q 24.65625 48.390625 19.8125 42.84375 
Q 14.984375 37.3125 14.984375 27.296875 
Q 14.984375 17.28125 19.8125 11.734375 
Q 24.65625 6.203125 33.40625 6.203125 
Q 37.3125 6.203125 41.140625 7.25 
Q 44.96875 8.296875 48.78125 10.40625 
L 48.78125 2.09375 
Q 45.015625 0.34375 40.984375 -0.53125 
Q 36.96875 -1.421875 32.421875 -1.421875 
Q 20.0625 -1.421875 12.78125 6.34375 
Q 5.515625 14.109375 5.515625 27.296875 
Q 5.515625 40.671875 12.859375 48.328125 
Q 20.21875 56 33.015625 56 
Q 37.15625 56 41.109375 55.140625 
Q 45.0625 54.296875 48.78125 52.59375 
z
" id="DejaVuSans-99"/>
       <path d="M 2.984375 54.6875 
L 12.5 54.6875 
L 29.59375 8.796875 
L 46.6875 54.6875 
L 56.203125 54.6875 
L 35.6875 0 
L 23.484375 0 
z
" id="DejaVuSans-118"/>
      </defs>
      <use xlink:href="#DejaVuSans-82"/>
      <use x="64.982422" xlink:href="#DejaVuSans-101"/>
      <use x="126.505859" xlink:href="#DejaVuSans-99"/>
      <use x="181.486328" xlink:href="#DejaVuSans-111"/>
      <use x="242.667969" xlink:href="#DejaVuSans-118"/>
      <use x="301.847656" xlink:href="#DejaVuSans-101"/>
      <use x="363.371094" xlink:href="#DejaVuSans-114"/>
      <use x="402.234375" xlink:href="#DejaVuSans-101"/>
      <use x="463.757812" xlink:href="#DejaVuSans-100"/>
     </g>
    </g>
    <g id="line2d_22">
     <path d="M 882.271875 126.252813 
L 902.271875 126.252813 
" style="fill:none;stroke:#d62728;stroke-linecap:square;stroke-width:1.5;"/>
    </g>
    <g id="line2d_23"/>
    <g id="text_18">
     <!-- Active -->
     <g transform="translate(910.271875 129.752813)scale(0.1 -0.1)">
      <defs>
       <path d="M 34.1875 63.1875 
L 20.796875 26.90625 
L 47.609375 26.90625 
z
M 28.609375 72.90625 
L 39.796875 72.90625 
L 67.578125 0 
L 57.328125 0 
L 50.6875 18.703125 
L 17.828125 18.703125 
L 11.1875 0 
L 0.78125 0 
z
" id="DejaVuSans-65"/>
      </defs>
      <use xlink:href="#DejaVuSans-65"/>
      <use x="66.658203" xlink:href="#DejaVuSans-99"/>
      <use x="121.638672" xlink:href="#DejaVuSans-116"/>
      <use x="160.847656" xlink:href="#DejaVuSans-105"/>
      <use x="188.630859" xlink:href="#DejaVuSans-118"/>
      <use x="247.810547" xlink:href="#DejaVuSans-101"/>
     </g>
    </g>
   </g>
  </g>
 </g>
 <defs>
  <clipPath id="p123e26baf6">
   <rect height="443.52" width="837" x="135" y="69.12"/>
  </clipPath>
 </defs>
</svg>
