<?xml version="1.0" encoding="utf-8" standalone="no"?>
<!DOCTYPE svg PUBLIC "-//W3C//DTD SVG 1.1//EN"
  "http://www.w3.org/Graphics/SVG/1.1/DTD/svg11.dtd">
<!-- Created with matplotlib (https://matplotlib.org/) -->
<svg height="576pt" version="1.1" viewBox="0 0 1080 576" width="1080pt" xmlns="http://www.w3.org/2000/svg" xmlns:xlink="http://www.w3.org/1999/xlink">
 <metadata>
  <rdf:RDF xmlns:cc="http://creativecommons.org/ns#" xmlns:dc="http://purl.org/dc/elements/1.1/" xmlns:rdf="http://www.w3.org/1999/02/22-rdf-syntax-ns#">
   <cc:Work>
    <dc:type rdf:resource="http://purl.org/dc/dcmitype/StillImage"/>
    <dc:date>2020-08-30T12:19:48.266670</dc:date>
    <dc:format>image/svg+xml</dc:format>
    <dc:creator>
     <cc:Agent>
      <dc:title>Matplotlib v3.3.1, https://matplotlib.org/</dc:title>
     </cc:Agent>
    </dc:creator>
   </cc:Work>
  </rdf:RDF>
 </metadata>
 <defs>
  <style type="text/css">*{stroke-linecap:butt;stroke-linejoin:round;}</style>
 </defs>
 <g id="figure_1">
  <g id="patch_1">
   <path d="M 0 576 
L 1080 576 
L 1080 0 
L 0 0 
z
" style="fill:#ffffff;"/>
  </g>
  <g id="axes_1">
   <g id="patch_2">
    <path d="M 135 512.64 
L 972 512.64 
L 972 69.12 
L 135 69.12 
z
" style="fill:#ffffff;"/>
   </g>
   <g id="matplotlib.axis_1">
    <g id="xtick_1">
     <g id="line2d_1">
      <defs>
       <path d="M 0 0 
L 0 3.5 
" id="m0e0c45f8b6" style="stroke:#000000;stroke-width:0.8;"/>
      </defs>
      <g>
       <use style="stroke:#000000;stroke-width:0.8;" x="173.045455" xlink:href="#m0e0c45f8b6" y="512.64"/>
      </g>
     </g>
     <g id="text_1">
      <!-- 2020-01-22 -->
      <g transform="translate(143.987642 527.238438)scale(0.1 -0.1)">
       <defs>
        <path d="M 19.1875 8.296875 
L 53.609375 8.296875 
L 53.609375 0 
L 7.328125 0 
L 7.328125 8.296875 
Q 12.9375 14.109375 22.625 23.890625 
Q 32.328125 33.6875 34.8125 36.53125 
Q 39.546875 41.84375 41.421875 45.53125 
Q 43.3125 49.21875 43.3125 52.78125 
Q 43.3125 58.59375 39.234375 62.25 
Q 35.15625 65.921875 28.609375 65.921875 
Q 23.96875 65.921875 18.8125 64.3125 
Q 13.671875 62.703125 7.8125 59.421875 
L 7.8125 69.390625 
Q 13.765625 71.78125 18.9375 73 
Q 24.125 74.21875 28.421875 74.21875 
Q 39.75 74.21875 46.484375 68.546875 
Q 53.21875 62.890625 53.21875 53.421875 
Q 53.21875 48.921875 51.53125 44.890625 
Q 49.859375 40.875 45.40625 35.40625 
Q 44.1875 33.984375 37.640625 27.21875 
Q 31.109375 20.453125 19.1875 8.296875 
z
" id="DejaVuSans-50"/>
        <path d="M 31.78125 66.40625 
Q 24.171875 66.40625 20.328125 58.90625 
Q 16.5 51.421875 16.5 36.375 
Q 16.5 21.390625 20.328125 13.890625 
Q 24.171875 6.390625 31.78125 6.390625 
Q 39.453125 6.390625 43.28125 13.890625 
Q 47.125 21.390625 47.125 36.375 
Q 47.125 51.421875 43.28125 58.90625 
Q 39.453125 66.40625 31.78125 66.40625 
z
M 31.78125 74.21875 
Q 44.046875 74.21875 50.515625 64.515625 
Q 56.984375 54.828125 56.984375 36.375 
Q 56.984375 17.96875 50.515625 8.265625 
Q 44.046875 -1.421875 31.78125 -1.421875 
Q 19.53125 -1.421875 13.0625 8.265625 
Q 6.59375 17.96875 6.59375 36.375 
Q 6.59375 54.828125 13.0625 64.515625 
Q 19.53125 74.21875 31.78125 74.21875 
z
" id="DejaVuSans-48"/>
        <path d="M 4.890625 31.390625 
L 31.203125 31.390625 
L 31.203125 23.390625 
L 4.890625 23.390625 
z
" id="DejaVuSans-45"/>
        <path d="M 12.40625 8.296875 
L 28.515625 8.296875 
L 28.515625 63.921875 
L 10.984375 60.40625 
L 10.984375 69.390625 
L 28.421875 72.90625 
L 38.28125 72.90625 
L 38.28125 8.296875 
L 54.390625 8.296875 
L 54.390625 0 
L 12.40625 0 
z
" id="DejaVuSans-49"/>
       </defs>
       <use xlink:href="#DejaVuSans-50"/>
       <use x="63.623047" xlink:href="#DejaVuSans-48"/>
       <use x="127.246094" xlink:href="#DejaVuSans-50"/>
       <use x="190.869141" xlink:href="#DejaVuSans-48"/>
       <use x="254.492188" xlink:href="#DejaVuSans-45"/>
       <use x="290.576172" xlink:href="#DejaVuSans-48"/>
       <use x="354.199219" xlink:href="#DejaVuSans-49"/>
       <use x="417.822266" xlink:href="#DejaVuSans-45"/>
       <use x="453.90625" xlink:href="#DejaVuSans-50"/>
       <use x="517.529297" xlink:href="#DejaVuSans-50"/>
      </g>
     </g>
    </g>
    <g id="xtick_2">
     <g id="line2d_2">
      <g>
       <use style="stroke:#000000;stroke-width:0.8;" x="345.979339" xlink:href="#m0e0c45f8b6" y="512.64"/>
      </g>
     </g>
     <g id="text_2">
      <!-- 2020-03-12 -->
      <g transform="translate(316.921526 527.238438)scale(0.1 -0.1)">
       <defs>
        <path d="M 40.578125 39.3125 
Q 47.65625 37.796875 51.625 33 
Q 55.609375 28.21875 55.609375 21.1875 
Q 55.609375 10.40625 48.1875 4.484375 
Q 40.765625 -1.421875 27.09375 -1.421875 
Q 22.515625 -1.421875 17.65625 -0.515625 
Q 12.796875 0.390625 7.625 2.203125 
L 7.625 11.71875 
Q 11.71875 9.328125 16.59375 8.109375 
Q 21.484375 6.890625 26.8125 6.890625 
Q 36.078125 6.890625 40.9375 10.546875 
Q 45.796875 14.203125 45.796875 21.1875 
Q 45.796875 27.640625 41.28125 31.265625 
Q 36.765625 34.90625 28.71875 34.90625 
L 20.21875 34.90625 
L 20.21875 43.015625 
L 29.109375 43.015625 
Q 36.375 43.015625 40.234375 45.921875 
Q 44.09375 48.828125 44.09375 54.296875 
Q 44.09375 59.90625 40.109375 62.90625 
Q 36.140625 65.921875 28.71875 65.921875 
Q 24.65625 65.921875 20.015625 65.03125 
Q 15.375 64.15625 9.8125 62.3125 
L 9.8125 71.09375 
Q 15.4375 72.65625 20.34375 73.4375 
Q 25.25 74.21875 29.59375 74.21875 
Q 40.828125 74.21875 47.359375 69.109375 
Q 53.90625 64.015625 53.90625 55.328125 
Q 53.90625 49.265625 50.4375 45.09375 
Q 46.96875 40.921875 40.578125 39.3125 
z
" id="DejaVuSans-51"/>
       </defs>
       <use xlink:href="#DejaVuSans-50"/>
       <use x="63.623047" xlink:href="#DejaVuSans-48"/>
       <use x="127.246094" xlink:href="#DejaVuSans-50"/>
       <use x="190.869141" xlink:href="#DejaVuSans-48"/>
       <use x="254.492188" xlink:href="#DejaVuSans-45"/>
       <use x="290.576172" xlink:href="#DejaVuSans-48"/>
       <use x="354.199219" xlink:href="#DejaVuSans-51"/>
       <use x="417.822266" xlink:href="#DejaVuSans-45"/>
       <use x="453.90625" xlink:href="#DejaVuSans-49"/>
       <use x="517.529297" xlink:href="#DejaVuSans-50"/>
      </g>
     </g>
    </g>
    <g id="xtick_3">
     <g id="line2d_3">
      <g>
       <use style="stroke:#000000;stroke-width:0.8;" x="518.913223" xlink:href="#m0e0c45f8b6" y="512.64"/>
      </g>
     </g>
     <g id="text_3">
      <!-- 2020-05-01 -->
      <g transform="translate(489.855411 527.238438)scale(0.1 -0.1)">
       <defs>
        <path d="M 10.796875 72.90625 
L 49.515625 72.90625 
L 49.515625 64.59375 
L 19.828125 64.59375 
L 19.828125 46.734375 
Q 21.96875 47.46875 24.109375 47.828125 
Q 26.265625 48.1875 28.421875 48.1875 
Q 40.625 48.1875 47.75 41.5 
Q 54.890625 34.8125 54.890625 23.390625 
Q 54.890625 11.625 47.5625 5.09375 
Q 40.234375 -1.421875 26.90625 -1.421875 
Q 22.3125 -1.421875 17.546875 -0.640625 
Q 12.796875 0.140625 7.71875 1.703125 
L 7.71875 11.625 
Q 12.109375 9.234375 16.796875 8.0625 
Q 21.484375 6.890625 26.703125 6.890625 
Q 35.15625 6.890625 40.078125 11.328125 
Q 45.015625 15.765625 45.015625 23.390625 
Q 45.015625 31 40.078125 35.4375 
Q 35.15625 39.890625 26.703125 39.890625 
Q 22.75 39.890625 18.8125 39.015625 
Q 14.890625 38.140625 10.796875 36.28125 
z
" id="DejaVuSans-53"/>
       </defs>
       <use xlink:href="#DejaVuSans-50"/>
       <use x="63.623047" xlink:href="#DejaVuSans-48"/>
       <use x="127.246094" xlink:href="#DejaVuSans-50"/>
       <use x="190.869141" xlink:href="#DejaVuSans-48"/>
       <use x="254.492188" xlink:href="#DejaVuSans-45"/>
       <use x="290.576172" xlink:href="#DejaVuSans-48"/>
       <use x="354.199219" xlink:href="#DejaVuSans-53"/>
       <use x="417.822266" xlink:href="#DejaVuSans-45"/>
       <use x="453.90625" xlink:href="#DejaVuSans-48"/>
       <use x="517.529297" xlink:href="#DejaVuSans-49"/>
      </g>
     </g>
    </g>
    <g id="xtick_4">
     <g id="line2d_4">
      <g>
       <use style="stroke:#000000;stroke-width:0.8;" x="691.847107" xlink:href="#m0e0c45f8b6" y="512.64"/>
      </g>
     </g>
     <g id="text_4">
      <!-- 2020-06-20 -->
      <g transform="translate(662.789295 527.238438)scale(0.1 -0.1)">
       <defs>
        <path d="M 33.015625 40.375 
Q 26.375 40.375 22.484375 35.828125 
Q 18.609375 31.296875 18.609375 23.390625 
Q 18.609375 15.53125 22.484375 10.953125 
Q 26.375 6.390625 33.015625 6.390625 
Q 39.65625 6.390625 43.53125 10.953125 
Q 47.40625 15.53125 47.40625 23.390625 
Q 47.40625 31.296875 43.53125 35.828125 
Q 39.65625 40.375 33.015625 40.375 
z
M 52.59375 71.296875 
L 52.59375 62.3125 
Q 48.875 64.0625 45.09375 64.984375 
Q 41.3125 65.921875 37.59375 65.921875 
Q 27.828125 65.921875 22.671875 59.328125 
Q 17.53125 52.734375 16.796875 39.40625 
Q 19.671875 43.65625 24.015625 45.921875 
Q 28.375 48.1875 33.59375 48.1875 
Q 44.578125 48.1875 50.953125 41.515625 
Q 57.328125 34.859375 57.328125 23.390625 
Q 57.328125 12.15625 50.6875 5.359375 
Q 44.046875 -1.421875 33.015625 -1.421875 
Q 20.359375 -1.421875 13.671875 8.265625 
Q 6.984375 17.96875 6.984375 36.375 
Q 6.984375 53.65625 15.1875 63.9375 
Q 23.390625 74.21875 37.203125 74.21875 
Q 40.921875 74.21875 44.703125 73.484375 
Q 48.484375 72.75 52.59375 71.296875 
z
" id="DejaVuSans-54"/>
       </defs>
       <use xlink:href="#DejaVuSans-50"/>
       <use x="63.623047" xlink:href="#DejaVuSans-48"/>
       <use x="127.246094" xlink:href="#DejaVuSans-50"/>
       <use x="190.869141" xlink:href="#DejaVuSans-48"/>
       <use x="254.492188" xlink:href="#DejaVuSans-45"/>
       <use x="290.576172" xlink:href="#DejaVuSans-48"/>
       <use x="354.199219" xlink:href="#DejaVuSans-54"/>
       <use x="417.822266" xlink:href="#DejaVuSans-45"/>
       <use x="453.90625" xlink:href="#DejaVuSans-50"/>
       <use x="517.529297" xlink:href="#DejaVuSans-48"/>
      </g>
     </g>
    </g>
    <g id="xtick_5">
     <g id="line2d_5">
      <g>
       <use style="stroke:#000000;stroke-width:0.8;" x="864.780992" xlink:href="#m0e0c45f8b6" y="512.64"/>
      </g>
     </g>
     <g id="text_5">
      <!-- 2020-08-09 -->
      <g transform="translate(835.723179 527.238438)scale(0.1 -0.1)">
       <defs>
        <path d="M 31.78125 34.625 
Q 24.75 34.625 20.71875 30.859375 
Q 16.703125 27.09375 16.703125 20.515625 
Q 16.703125 13.921875 20.71875 10.15625 
Q 24.75 6.390625 31.78125 6.390625 
Q 38.8125 6.390625 42.859375 10.171875 
Q 46.921875 13.96875 46.921875 20.515625 
Q 46.921875 27.09375 42.890625 30.859375 
Q 38.875 34.625 31.78125 34.625 
z
M 21.921875 38.8125 
Q 15.578125 40.375 12.03125 44.71875 
Q 8.5 49.078125 8.5 55.328125 
Q 8.5 64.0625 14.71875 69.140625 
Q 20.953125 74.21875 31.78125 74.21875 
Q 42.671875 74.21875 48.875 69.140625 
Q 55.078125 64.0625 55.078125 55.328125 
Q 55.078125 49.078125 51.53125 44.71875 
Q 48 40.375 41.703125 38.8125 
Q 48.828125 37.15625 52.796875 32.3125 
Q 56.78125 27.484375 56.78125 20.515625 
Q 56.78125 9.90625 50.3125 4.234375 
Q 43.84375 -1.421875 31.78125 -1.421875 
Q 19.734375 -1.421875 13.25 4.234375 
Q 6.78125 9.90625 6.78125 20.515625 
Q 6.78125 27.484375 10.78125 32.3125 
Q 14.796875 37.15625 21.921875 38.8125 
z
M 18.3125 54.390625 
Q 18.3125 48.734375 21.84375 45.5625 
Q 25.390625 42.390625 31.78125 42.390625 
Q 38.140625 42.390625 41.71875 45.5625 
Q 45.3125 48.734375 45.3125 54.390625 
Q 45.3125 60.0625 41.71875 63.234375 
Q 38.140625 66.40625 31.78125 66.40625 
Q 25.390625 66.40625 21.84375 63.234375 
Q 18.3125 60.0625 18.3125 54.390625 
z
" id="DejaVuSans-56"/>
        <path d="M 10.984375 1.515625 
L 10.984375 10.5 
Q 14.703125 8.734375 18.5 7.8125 
Q 22.3125 6.890625 25.984375 6.890625 
Q 35.75 6.890625 40.890625 13.453125 
Q 46.046875 20.015625 46.78125 33.40625 
Q 43.953125 29.203125 39.59375 26.953125 
Q 35.25 24.703125 29.984375 24.703125 
Q 19.046875 24.703125 12.671875 31.3125 
Q 6.296875 37.9375 6.296875 49.421875 
Q 6.296875 60.640625 12.9375 67.421875 
Q 19.578125 74.21875 30.609375 74.21875 
Q 43.265625 74.21875 49.921875 64.515625 
Q 56.59375 54.828125 56.59375 36.375 
Q 56.59375 19.140625 48.40625 8.859375 
Q 40.234375 -1.421875 26.421875 -1.421875 
Q 22.703125 -1.421875 18.890625 -0.6875 
Q 15.09375 0.046875 10.984375 1.515625 
z
M 30.609375 32.421875 
Q 37.25 32.421875 41.125 36.953125 
Q 45.015625 41.5 45.015625 49.421875 
Q 45.015625 57.28125 41.125 61.84375 
Q 37.25 66.40625 30.609375 66.40625 
Q 23.96875 66.40625 20.09375 61.84375 
Q 16.21875 57.28125 16.21875 49.421875 
Q 16.21875 41.5 20.09375 36.953125 
Q 23.96875 32.421875 30.609375 32.421875 
z
" id="DejaVuSans-57"/>
       </defs>
       <use xlink:href="#DejaVuSans-50"/>
       <use x="63.623047" xlink:href="#DejaVuSans-48"/>
       <use x="127.246094" xlink:href="#DejaVuSans-50"/>
       <use x="190.869141" xlink:href="#DejaVuSans-48"/>
       <use x="254.492188" xlink:href="#DejaVuSans-45"/>
       <use x="290.576172" xlink:href="#DejaVuSans-48"/>
       <use x="354.199219" xlink:href="#DejaVuSans-56"/>
       <use x="417.822266" xlink:href="#DejaVuSans-45"/>
       <use x="453.90625" xlink:href="#DejaVuSans-48"/>
       <use x="517.529297" xlink:href="#DejaVuSans-57"/>
      </g>
     </g>
    </g>
    <g id="text_6">
     <!-- Date -->
     <g transform="translate(541.549219 540.916563)scale(0.1 -0.1)">
      <defs>
       <path d="M 19.671875 64.796875 
L 19.671875 8.109375 
L 31.59375 8.109375 
Q 46.6875 8.109375 53.6875 14.9375 
Q 60.6875 21.78125 60.6875 36.53125 
Q 60.6875 51.171875 53.6875 57.984375 
Q 46.6875 64.796875 31.59375 64.796875 
z
M 9.8125 72.90625 
L 30.078125 72.90625 
Q 51.265625 72.90625 61.171875 64.09375 
Q 71.09375 55.28125 71.09375 36.53125 
Q 71.09375 17.671875 61.125 8.828125 
Q 51.171875 0 30.078125 0 
L 9.8125 0 
z
" id="DejaVuSans-68"/>
       <path d="M 34.28125 27.484375 
Q 23.390625 27.484375 19.1875 25 
Q 14.984375 22.515625 14.984375 16.5 
Q 14.984375 11.71875 18.140625 8.90625 
Q 21.296875 6.109375 26.703125 6.109375 
Q 34.1875 6.109375 38.703125 11.40625 
Q 43.21875 16.703125 43.21875 25.484375 
L 43.21875 27.484375 
z
M 52.203125 31.203125 
L 52.203125 0 
L 43.21875 0 
L 43.21875 8.296875 
Q 40.140625 3.328125 35.546875 0.953125 
Q 30.953125 -1.421875 24.3125 -1.421875 
Q 15.921875 -1.421875 10.953125 3.296875 
Q 6 8.015625 6 15.921875 
Q 6 25.140625 12.171875 29.828125 
Q 18.359375 34.515625 30.609375 34.515625 
L 43.21875 34.515625 
L 43.21875 35.40625 
Q 43.21875 41.609375 39.140625 45 
Q 35.0625 48.390625 27.6875 48.390625 
Q 23 48.390625 18.546875 47.265625 
Q 14.109375 46.140625 10.015625 43.890625 
L 10.015625 52.203125 
Q 14.9375 54.109375 19.578125 55.046875 
Q 24.21875 56 28.609375 56 
Q 40.484375 56 46.34375 49.84375 
Q 52.203125 43.703125 52.203125 31.203125 
z
" id="DejaVuSans-97"/>
       <path d="M 18.3125 70.21875 
L 18.3125 54.6875 
L 36.8125 54.6875 
L 36.8125 47.703125 
L 18.3125 47.703125 
L 18.3125 18.015625 
Q 18.3125 11.328125 20.140625 9.421875 
Q 21.96875 7.515625 27.59375 7.515625 
L 36.8125 7.515625 
L 36.8125 0 
L 27.59375 0 
Q 17.1875 0 13.234375 3.875 
Q 9.28125 7.765625 9.28125 18.015625 
L 9.28125 47.703125 
L 2.6875 47.703125 
L 2.6875 54.6875 
L 9.28125 54.6875 
L 9.28125 70.21875 
z
" id="DejaVuSans-116"/>
       <path d="M 56.203125 29.59375 
L 56.203125 25.203125 
L 14.890625 25.203125 
Q 15.484375 15.921875 20.484375 11.0625 
Q 25.484375 6.203125 34.421875 6.203125 
Q 39.59375 6.203125 44.453125 7.46875 
Q 49.3125 8.734375 54.109375 11.28125 
L 54.109375 2.78125 
Q 49.265625 0.734375 44.1875 -0.34375 
Q 39.109375 -1.421875 33.890625 -1.421875 
Q 20.796875 -1.421875 13.15625 6.1875 
Q 5.515625 13.8125 5.515625 26.8125 
Q 5.515625 40.234375 12.765625 48.109375 
Q 20.015625 56 32.328125 56 
Q 43.359375 56 49.78125 48.890625 
Q 56.203125 41.796875 56.203125 29.59375 
z
M 47.21875 32.234375 
Q 47.125 39.59375 43.09375 43.984375 
Q 39.0625 48.390625 32.421875 48.390625 
Q 24.90625 48.390625 20.390625 44.140625 
Q 15.875 39.890625 15.1875 32.171875 
z
" id="DejaVuSans-101"/>
      </defs>
      <use xlink:href="#DejaVuSans-68"/>
      <use x="77.001953" xlink:href="#DejaVuSans-97"/>
      <use x="138.28125" xlink:href="#DejaVuSans-116"/>
      <use x="177.490234" xlink:href="#DejaVuSans-101"/>
     </g>
    </g>
   </g>
   <g id="matplotlib.axis_2">
    <g id="ytick_1">
     <g id="line2d_6">
      <defs>
       <path d="M 0 0 
L -3.5 0 
" id="mdd969cbc6c" style="stroke:#000000;stroke-width:0.8;"/>
      </defs>
      <g>
       <use style="stroke:#000000;stroke-width:0.8;" x="135" xlink:href="#mdd969cbc6c" y="476.898803"/>
      </g>
     </g>
     <g id="text_7">
      <!-- 0 -->
      <g transform="translate(121.6375 480.698022)scale(0.1 -0.1)">
       <use xlink:href="#DejaVuSans-48"/>
      </g>
     </g>
    </g>
    <g id="ytick_2">
     <g id="line2d_7">
      <g>
       <use style="stroke:#000000;stroke-width:0.8;" x="135" xlink:href="#mdd969cbc6c" y="420.68958"/>
      </g>
     </g>
     <g id="text_8">
      <!-- 2500 -->
      <g transform="translate(102.55 424.488799)scale(0.1 -0.1)">
       <use xlink:href="#DejaVuSans-50"/>
       <use x="63.623047" xlink:href="#DejaVuSans-53"/>
       <use x="127.246094" xlink:href="#DejaVuSans-48"/>
       <use x="190.869141" xlink:href="#DejaVuSans-48"/>
      </g>
     </g>
    </g>
    <g id="ytick_3">
     <g id="line2d_8">
      <g>
       <use style="stroke:#000000;stroke-width:0.8;" x="135" xlink:href="#mdd969cbc6c" y="364.480357"/>
      </g>
     </g>
     <g id="text_9">
      <!-- 5000 -->
      <g transform="translate(102.55 368.279576)scale(0.1 -0.1)">
       <use xlink:href="#DejaVuSans-53"/>
       <use x="63.623047" xlink:href="#DejaVuSans-48"/>
       <use x="127.246094" xlink:href="#DejaVuSans-48"/>
       <use x="190.869141" xlink:href="#DejaVuSans-48"/>
      </g>
     </g>
    </g>
    <g id="ytick_4">
     <g id="line2d_9">
      <g>
       <use style="stroke:#000000;stroke-width:0.8;" x="135" xlink:href="#mdd969cbc6c" y="308.271134"/>
      </g>
     </g>
     <g id="text_10">
      <!-- 7500 -->
      <g transform="translate(102.55 312.070352)scale(0.1 -0.1)">
       <defs>
        <path d="M 8.203125 72.90625 
L 55.078125 72.90625 
L 55.078125 68.703125 
L 28.609375 0 
L 18.3125 0 
L 43.21875 64.59375 
L 8.203125 64.59375 
z
" id="DejaVuSans-55"/>
       </defs>
       <use xlink:href="#DejaVuSans-55"/>
       <use x="63.623047" xlink:href="#DejaVuSans-53"/>
       <use x="127.246094" xlink:href="#DejaVuSans-48"/>
       <use x="190.869141" xlink:href="#DejaVuSans-48"/>
      </g>
     </g>
    </g>
    <g id="ytick_5">
     <g id="line2d_10">
      <g>
       <use style="stroke:#000000;stroke-width:0.8;" x="135" xlink:href="#mdd969cbc6c" y="252.06191"/>
      </g>
     </g>
     <g id="text_11">
      <!-- 10000 -->
      <g transform="translate(96.1875 255.861129)scale(0.1 -0.1)">
       <use xlink:href="#DejaVuSans-49"/>
       <use x="63.623047" xlink:href="#DejaVuSans-48"/>
       <use x="127.246094" xlink:href="#DejaVuSans-48"/>
       <use x="190.869141" xlink:href="#DejaVuSans-48"/>
       <use x="254.492188" xlink:href="#DejaVuSans-48"/>
      </g>
     </g>
    </g>
    <g id="ytick_6">
     <g id="line2d_11">
      <g>
       <use style="stroke:#000000;stroke-width:0.8;" x="135" xlink:href="#mdd969cbc6c" y="195.852687"/>
      </g>
     </g>
     <g id="text_12">
      <!-- 12500 -->
      <g transform="translate(96.1875 199.651906)scale(0.1 -0.1)">
       <use xlink:href="#DejaVuSans-49"/>
       <use x="63.623047" xlink:href="#DejaVuSans-50"/>
       <use x="127.246094" xlink:href="#DejaVuSans-53"/>
       <use x="190.869141" xlink:href="#DejaVuSans-48"/>
       <use x="254.492188" xlink:href="#DejaVuSans-48"/>
      </g>
     </g>
    </g>
    <g id="ytick_7">
     <g id="line2d_12">
      <g>
       <use style="stroke:#000000;stroke-width:0.8;" x="135" xlink:href="#mdd969cbc6c" y="139.643464"/>
      </g>
     </g>
     <g id="text_13">
      <!-- 15000 -->
      <g transform="translate(96.1875 143.442683)scale(0.1 -0.1)">
       <use xlink:href="#DejaVuSans-49"/>
       <use x="63.623047" xlink:href="#DejaVuSans-53"/>
       <use x="127.246094" xlink:href="#DejaVuSans-48"/>
       <use x="190.869141" xlink:href="#DejaVuSans-48"/>
       <use x="254.492188" xlink:href="#DejaVuSans-48"/>
      </g>
     </g>
    </g>
    <g id="ytick_8">
     <g id="line2d_13">
      <g>
       <use style="stroke:#000000;stroke-width:0.8;" x="135" xlink:href="#mdd969cbc6c" y="83.434241"/>
      </g>
     </g>
     <g id="text_14">
      <!-- 17500 -->
      <g transform="translate(96.1875 87.23346)scale(0.1 -0.1)">
       <use xlink:href="#DejaVuSans-49"/>
       <use x="63.623047" xlink:href="#DejaVuSans-55"/>
       <use x="127.246094" xlink:href="#DejaVuSans-53"/>
       <use x="190.869141" xlink:href="#DejaVuSans-48"/>
       <use x="254.492188" xlink:href="#DejaVuSans-48"/>
      </g>
     </g>
    </g>
    <g id="text_15">
     <!-- Trend -->
     <g transform="translate(90.107812 304.558906)rotate(-90)scale(0.1 -0.1)">
      <defs>
       <path d="M -0.296875 72.90625 
L 61.375 72.90625 
L 61.375 64.59375 
L 35.5 64.59375 
L 35.5 0 
L 25.59375 0 
L 25.59375 64.59375 
L -0.296875 64.59375 
z
" id="DejaVuSans-84"/>
       <path d="M 41.109375 46.296875 
Q 39.59375 47.171875 37.8125 47.578125 
Q 36.03125 48 33.890625 48 
Q 26.265625 48 22.1875 43.046875 
Q 18.109375 38.09375 18.109375 28.8125 
L 18.109375 0 
L 9.078125 0 
L 9.078125 54.6875 
L 18.109375 54.6875 
L 18.109375 46.1875 
Q 20.953125 51.171875 25.484375 53.578125 
Q 30.03125 56 36.53125 56 
Q 37.453125 56 38.578125 55.875 
Q 39.703125 55.765625 41.0625 55.515625 
z
" id="DejaVuSans-114"/>
       <path d="M 54.890625 33.015625 
L 54.890625 0 
L 45.90625 0 
L 45.90625 32.71875 
Q 45.90625 40.484375 42.875 44.328125 
Q 39.84375 48.1875 33.796875 48.1875 
Q 26.515625 48.1875 22.3125 43.546875 
Q 18.109375 38.921875 18.109375 30.90625 
L 18.109375 0 
L 9.078125 0 
L 9.078125 54.6875 
L 18.109375 54.6875 
L 18.109375 46.1875 
Q 21.34375 51.125 25.703125 53.5625 
Q 30.078125 56 35.796875 56 
Q 45.21875 56 50.046875 50.171875 
Q 54.890625 44.34375 54.890625 33.015625 
z
" id="DejaVuSans-110"/>
       <path d="M 45.40625 46.390625 
L 45.40625 75.984375 
L 54.390625 75.984375 
L 54.390625 0 
L 45.40625 0 
L 45.40625 8.203125 
Q 42.578125 3.328125 38.25 0.953125 
Q 33.9375 -1.421875 27.875 -1.421875 
Q 17.96875 -1.421875 11.734375 6.484375 
Q 5.515625 14.40625 5.515625 27.296875 
Q 5.515625 40.1875 11.734375 48.09375 
Q 17.96875 56 27.875 56 
Q 33.9375 56 38.25 53.625 
Q 42.578125 51.265625 45.40625 46.390625 
z
M 14.796875 27.296875 
Q 14.796875 17.390625 18.875 11.75 
Q 22.953125 6.109375 30.078125 6.109375 
Q 37.203125 6.109375 41.296875 11.75 
Q 45.40625 17.390625 45.40625 27.296875 
Q 45.40625 37.203125 41.296875 42.84375 
Q 37.203125 48.484375 30.078125 48.484375 
Q 22.953125 48.484375 18.875 42.84375 
Q 14.796875 37.203125 14.796875 27.296875 
z
" id="DejaVuSans-100"/>
      </defs>
      <use xlink:href="#DejaVuSans-84"/>
      <use x="46.333984" xlink:href="#DejaVuSans-114"/>
      <use x="85.197266" xlink:href="#DejaVuSans-101"/>
      <use x="146.720703" xlink:href="#DejaVuSans-110"/>
      <use x="210.099609" xlink:href="#DejaVuSans-100"/>
     </g>
    </g>
   </g>
   <g id="line2d_14">
    <path clip-path="url(#pa9f08f1386)" d="M 173.045455 476.853836 
L 183.421488 476.898803 
L 193.797521 476.831352 
L 197.256198 476.898803 
L 204.173554 476.808869 
L 207.632231 476.786385 
L 211.090909 476.898803 
L 245.677686 476.87632 
L 256.053719 476.651483 
L 259.512397 476.763901 
L 273.347107 476.673966 
L 280.264463 476.336711 
L 283.72314 476.628999 
L 290.640496 476.606515 
L 297.557851 476.314227 
L 304.475207 476.69645 
L 314.85124 476.44913 
L 318.309917 476.111874 
L 321.768595 476.179325 
L 325.227273 475.6622 
L 335.603306 476.26926 
L 339.061983 475.594749 
L 345.979339 475.639717 
L 349.438017 476.066907 
L 352.896694 475.504815 
L 356.355372 476.201809 
L 359.81405 476.516581 
L 363.272727 475.774619 
L 366.731405 476.111874 
L 370.190083 475.999456 
L 373.64876 475.684684 
L 377.107438 476.066907 
L 380.566116 475.887037 
L 384.024793 475.999456 
L 387.483471 475.257494 
L 390.942149 474.717885 
L 394.400826 474.605467 
L 397.859504 474.335663 
L 401.318182 472.447033 
L 404.77686 472.874223 
L 408.235537 474.785337 
L 411.694215 471.187946 
L 415.152893 470.60337 
L 418.61157 470.535919 
L 422.070248 469.344284 
L 425.528926 468.557355 
L 428.987603 469.007028 
L 432.446281 471.63762 
L 435.904959 468.46742 
L 439.363636 464.87003 
L 442.822314 463.543492 
L 446.280992 462.599177 
L 449.739669 461.137737 
L 453.198347 465.162318 
L 456.657025 470.153697 
L 460.115702 465.567024 
L 463.57438 464.352905 
L 467.033058 464.240486 
L 470.491736 464.307937 
L 473.950413 463.633427 
L 477.409091 468.669773 
L 480.867769 469.164414 
L 484.326446 468.28755 
L 487.785124 467.995262 
L 491.243802 467.18585 
L 494.702479 468.242583 
L 498.161157 469.434218 
L 501.619835 471.974875 
L 505.078512 473.054092 
L 508.53719 470.513436 
L 511.995868 472.042326 
L 515.454545 472.222196 
L 518.913223 470.738272 
L 522.371901 470.086245 
L 525.830579 472.402065 
L 529.289256 473.121544 
L 532.747934 474.088342 
L 536.206612 474.627951 
L 539.665289 474.695402 
L 543.123967 474.942722 
L 546.582645 474.313179 
L 550.041322 475.347429 
L 553.5 476.066907 
L 556.958678 474.942722 
L 560.417355 475.774619 
L 563.876033 474.695402 
L 567.334711 475.729651 
L 570.793388 475.684684 
L 574.252066 476.359195 
L 577.710744 476.156842 
L 581.169421 476.26926 
L 588.086777 475.976972 
L 591.545455 476.381678 
L 595.004132 476.336711 
L 598.46281 475.976972 
L 601.921488 476.426646 
L 605.380165 476.224293 
L 608.838843 476.314227 
L 612.297521 475.324945 
L 615.756198 475.212527 
L 619.214876 475.932005 
L 622.673554 476.111874 
L 626.132231 476.089391 
L 629.590909 475.774619 
L 633.049587 476.224293 
L 636.508264 475.909521 
L 639.966942 475.84207 
L 646.884298 476.021939 
L 650.342975 476.426646 
L 653.801653 475.752135 
L 657.260331 476.111874 
L 660.719008 475.976972 
L 664.177686 475.482331 
L 667.636364 475.932005 
L 671.095041 475.190043 
L 674.553719 475.324945 
L 678.012397 475.887037 
L 681.471074 475.864554 
L 688.38843 475.324945 
L 691.847107 475.392396 
L 698.764463 475.999456 
L 702.22314 475.572266 
L 705.681818 475.010173 
L 709.140496 474.830304 
L 712.599174 474.493049 
L 716.057851 474.830304 
L 719.516529 474.38063 
L 722.975207 474.425598 
L 726.433884 473.773571 
L 729.892562 471.884941 
L 733.35124 472.019843 
L 736.809917 473.975924 
L 740.268595 470.693305 
L 743.727273 472.24468 
L 747.18595 472.851739 
L 750.644628 472.24468 
L 754.103306 472.267163 
L 757.561983 468.89461 
L 761.020661 467.298268 
L 764.479339 468.220099 
L 767.938017 467.658007 
L 771.396694 470.513436 
L 774.855372 469.883892 
L 778.31405 460.373292 
L 781.772727 469.299316 
L 788.690083 457.967537 
L 792.14876 465.656959 
L 795.607438 471.053044 
L 799.066116 459.878651 
L 802.524793 461.76728 
L 805.983471 454.909755 
L 809.442149 459.608846 
L 812.900826 458.889368 
L 816.359504 457.472896 
L 819.818182 463.543492 
L 823.27686 454.99969 
L 826.735537 448.434453 
L 830.194215 437.282543 
L 833.652893 452.391582 
L 837.11157 441.599411 
L 840.570248 447.400203 
L 844.028926 454.797337 
L 847.487603 448.839159 
L 850.946281 446.793143 
L 854.404959 443.600459 
L 857.863636 440.992352 
L 861.322314 441.419542 
L 864.780992 444.522291 
L 868.239669 458.124923 
L 871.698347 461.497476 
L 875.157025 454.729886 
L 878.615702 450.300599 
L 882.07438 446.613274 
L 885.533058 449.176414 
L 888.991736 453.897989 
L 892.450413 462.441791 
L 895.909091 456.236293 
L 899.367769 452.346615 
L 902.826446 450.547919 
L 906.285124 453.313413 
L 909.743802 455.157076 
L 913.202479 460.215906 
L 916.661157 465.656959 
L 920.119835 460.48571 
L 923.578512 456.865836 
L 927.03719 457.248059 
L 930.495868 457.877602 
L 933.954545 457.697733 
L 933.954545 457.697733 
" style="fill:none;stroke:#1f77b4;stroke-linecap:square;stroke-width:1.5;"/>
   </g>
   <g id="line2d_15">
    <path clip-path="url(#pa9f08f1386)" d="M 173.045455 476.898803 
L 356.355372 476.853836 
L 359.81405 476.763901 
L 363.272727 476.898803 
L 370.190083 476.87632 
L 394.400826 476.853836 
L 397.859504 476.763901 
L 401.318182 476.831352 
L 404.77686 476.741417 
L 408.235537 476.853836 
L 435.904959 476.853836 
L 442.822314 476.718934 
L 449.739669 476.606515 
L 456.657025 476.69645 
L 463.57438 476.539064 
L 467.033058 476.494097 
L 470.491736 476.606515 
L 473.950413 476.471613 
L 480.867769 476.44913 
L 484.326446 476.26926 
L 487.785124 476.44913 
L 491.243802 476.26926 
L 494.702479 476.69645 
L 498.161157 476.471613 
L 501.619835 476.539064 
L 505.078512 476.404162 
L 511.995868 476.494097 
L 515.454545 476.291744 
L 518.913223 476.246776 
L 529.289256 476.404162 
L 532.747934 476.651483 
L 543.123967 476.516581 
L 546.582645 476.44913 
L 550.041322 476.628999 
L 556.958678 476.404162 
L 563.876033 476.539064 
L 570.793388 476.494097 
L 574.252066 476.69645 
L 619.214876 476.741417 
L 626.132231 476.87632 
L 639.966942 476.786385 
L 643.42562 476.921287 
L 650.342975 476.831352 
L 653.801653 476.898803 
L 664.177686 476.853836 
L 678.012397 476.786385 
L 684.929752 476.898803 
L 688.38843 476.539064 
L 691.847107 476.808869 
L 698.764463 476.898803 
L 702.22314 476.673966 
L 705.681818 476.853836 
L 709.140496 476.808869 
L 716.057851 476.898803 
L 733.35124 476.87632 
L 747.18595 476.87632 
L 754.103306 476.87632 
L 767.938017 476.87632 
L 826.735537 476.898803 
L 830.194215 476.763901 
L 833.652893 476.87632 
L 837.11157 476.808869 
L 840.570248 476.87632 
L 847.487603 476.786385 
L 857.863636 476.718934 
L 861.322314 476.898803 
L 864.780992 476.786385 
L 882.07438 476.741417 
L 885.533058 476.606515 
L 892.450413 476.69645 
L 895.909091 476.381678 
L 899.367769 476.606515 
L 902.826446 476.69645 
L 906.285124 476.494097 
L 909.743802 476.808869 
L 920.119835 476.494097 
L 923.578512 476.651483 
L 930.495868 476.673966 
L 933.954545 476.44913 
L 933.954545 476.44913 
" style="fill:none;stroke:#ff7f0e;stroke-linecap:square;stroke-width:1.5;"/>
   </g>
   <g id="line2d_16">
    <path clip-path="url(#pa9f08f1386)" d="M 173.045455 476.898803 
L 238.760331 476.831352 
L 242.219008 476.786385 
L 245.677686 476.898803 
L 266.429752 476.87632 
L 269.88843 476.786385 
L 273.347107 476.898803 
L 276.805785 476.808869 
L 283.72314 476.898803 
L 301.016529 476.898803 
L 304.475207 476.673966 
L 307.933884 476.898803 
L 311.392562 476.898803 
L 314.85124 476.651483 
L 318.309917 476.898803 
L 325.227273 476.831352 
L 328.68595 476.224293 
L 332.144628 476.898803 
L 335.603306 476.898803 
L 339.061983 476.336711 
L 342.520661 476.516581 
L 345.979339 476.898803 
L 356.355372 476.898803 
L 359.81405 476.314227 
L 363.272727 476.898803 
L 366.731405 476.898803 
L 370.190083 476.763901 
L 373.64876 475.976972 
L 377.107438 475.976972 
L 380.566116 476.831352 
L 384.024793 476.898803 
L 387.483471 475.774619 
L 390.942149 476.336711 
L 394.400826 475.797103 
L 397.859504 476.606515 
L 401.318182 476.179325 
L 404.77686 476.44913 
L 408.235537 476.898803 
L 411.694215 476.898803 
L 415.152893 475.819586 
L 418.61157 476.898803 
L 422.070248 475.954488 
L 425.528926 476.898803 
L 428.987603 476.898803 
L 432.446281 475.527298 
L 435.904959 476.516581 
L 439.363636 476.224293 
L 442.822314 476.673966 
L 446.280992 475.707168 
L 449.739669 475.167559 
L 453.198347 476.898803 
L 456.657025 476.404162 
L 460.115702 476.561548 
L 463.57438 475.684684 
L 467.033058 475.819586 
L 470.491736 476.134358 
L 473.950413 473.885989 
L 477.409091 474.875271 
L 480.867769 476.898803 
L 484.326446 475.100108 
L 487.785124 474.268212 
L 491.243802 473.796054 
L 494.702479 476.089391 
L 498.161157 474.065858 
L 501.619835 473.458799 
L 505.078512 474.875271 
L 508.53719 476.898803 
L 511.995868 466.353953 
L 515.454545 474.830304 
L 518.913223 465.319703 
L 522.371901 471.727555 
L 525.830579 459.45146 
L 529.289256 472.964158 
L 532.747934 469.254349 
L 536.206612 476.898803 
L 539.665289 467.410686 
L 543.123967 471.772522 
L 546.582645 459.811199 
L 550.041322 426.962529 
L 553.5 473.166511 
L 556.958678 471.547685 
L 560.417355 468.152648 
L 563.876033 455.584266 
L 570.793388 476.898803 
L 574.252066 458.574597 
L 581.169421 476.898803 
L 584.628099 476.898803 
L 588.086777 451.986876 
L 591.545455 469.411735 
L 595.004132 471.525202 
L 598.46281 473.09906 
L 601.921488 472.424549 
L 605.380165 472.447033 
L 612.297521 474.13331 
L 615.756198 474.268212 
L 619.214876 475.684684 
L 622.673554 475.212527 
L 626.132231 474.178277 
L 629.590909 474.155793 
L 633.049587 474.268212 
L 636.508264 475.032657 
L 639.966942 473.751087 
L 643.42562 476.853836 
L 646.884298 475.482331 
L 650.342975 475.707168 
L 653.801653 474.695402 
L 657.260331 475.190043 
L 660.719008 476.539064 
L 664.177686 473.998407 
L 667.636364 474.740369 
L 671.095041 475.639717 
L 674.553719 475.707168 
L 678.012397 474.98769 
L 681.471074 474.627951 
L 684.929752 476.898803 
L 688.38843 474.852788 
L 691.847107 474.5605 
L 695.305785 476.898803 
L 698.764463 476.69645 
L 702.22314 473.773571 
L 705.681818 476.786385 
L 712.599174 475.055141 
L 716.057851 475.347429 
L 719.516529 476.134358 
L 722.975207 475.527298 
L 726.433884 475.324945 
L 729.892562 474.538016 
L 733.35124 475.729651 
L 736.809917 474.515532 
L 740.268595 474.403114 
L 743.727273 476.044423 
L 747.18595 473.818538 
L 750.644628 475.774619 
L 754.103306 476.898803 
L 757.561983 468.917094 
L 761.020661 475.055141 
L 764.479339 476.898803 
L 767.938017 469.007028 
L 771.396694 472.109778 
L 774.855372 475.369912 
L 778.31405 476.898803 
L 781.772727 465.319703 
L 785.231405 470.086245 
L 788.690083 470.895658 
L 792.14876 476.898803 
L 795.607438 468.085197 
L 799.066116 467.950295 
L 802.524793 466.084149 
L 805.983471 467.995262 
L 809.442149 470.266115 
L 812.900826 470.35605 
L 816.359504 473.706119 
L 819.818182 468.71474 
L 823.27686 461.924666 
L 826.735537 460.822965 
L 830.194215 461.76728 
L 833.652893 460.036036 
L 840.570248 467.882844 
L 844.028926 460.530678 
L 847.487603 460.9129 
L 850.946281 458.16989 
L 854.404959 458.057472 
L 857.863636 445.803861 
L 861.322314 454.257728 
L 864.780992 440.49771 
L 868.239669 463.790812 
L 871.698347 461.474992 
L 875.157025 458.16989 
L 878.615702 449.423735 
L 882.07438 492.48 
L 885.533058 388.290584 
L 888.991736 451.694588 
L 892.450413 453.71812 
L 895.909091 446.006214 
L 899.367769 458.439694 
L 902.826446 447.130399 
L 906.285124 450.952626 
L 909.743802 450.952626 
L 913.202479 456.640999 
L 916.661157 459.586363 
L 920.119835 454.347663 
L 923.578512 447.332752 
L 927.03719 451.379816 
L 930.495868 451.065044 
L 933.954545 450.098246 
L 933.954545 450.098246 
" style="fill:none;stroke:#2ca02c;stroke-linecap:square;stroke-width:1.5;"/>
   </g>
   <g id="line2d_17">
    <path clip-path="url(#pa9f08f1386)" d="M 173.045455 476.853836 
L 197.256198 476.763901 
L 211.090909 476.471613 
L 249.136364 476.381678 
L 256.053719 475.976972 
L 262.971074 475.684684 
L 266.429752 475.459847 
L 269.88843 475.437364 
L 276.805785 474.920239 
L 280.264463 474.358146 
L 290.640496 473.571217 
L 294.099174 473.144027 
L 297.557851 472.581935 
L 301.016529 472.199712 
L 304.475207 472.24468 
L 307.933884 471.929908 
L 311.392562 471.502718 
L 314.85124 471.300365 
L 321.768595 469.816441 
L 325.227273 468.647289 
L 328.68595 468.28755 
L 332.144628 467.568072 
L 339.061983 466.308986 
L 342.520661 465.499573 
L 345.979339 464.330421 
L 349.438017 463.543492 
L 352.896694 462.171987 
L 356.355372 461.51996 
L 359.81405 461.857215 
L 363.272727 460.733031 
L 370.190083 459.249107 
L 373.64876 458.979303 
L 377.107438 459.114205 
L 384.024793 457.382961 
L 387.483471 456.88832 
L 390.942149 455.336945 
L 394.400826 454.190277 
L 397.859504 452.054327 
L 401.318182 448.389485 
L 404.77686 444.971965 
L 408.235537 442.903465 
L 411.694215 437.237575 
L 415.152893 432.133778 
L 422.070248 419.363042 
L 425.528926 411.156496 
L 428.987603 403.399623 
L 432.446281 399.577396 
L 435.904959 391.573202 
L 439.363636 380.376325 
L 446.280992 354.587534 
L 449.739669 340.849999 
L 453.198347 329.315867 
L 456.657025 323.267754 
L 463.57438 301.615962 
L 470.491736 278.907435 
L 473.950413 269.082063 
L 477.409091 263.303755 
L 480.867769 256.01904 
L 484.326446 249.836025 
L 491.243802 238.032088 
L 494.702479 230.387634 
L 498.161157 226.183184 
L 501.619835 225.059 
L 505.078512 223.732462 
L 508.53719 217.774284 
L 511.995868 223.867364 
L 515.454545 221.866316 
L 518.913223 227.936912 
L 522.371901 226.880178 
L 525.830579 240.370392 
L 529.289256 241.022419 
L 532.747934 246.103733 
L 536.206612 244.102684 
L 539.665289 251.657204 
L 543.123967 255.209627 
L 546.582645 270.16128 
L 550.041322 318.815984 
L 553.5 322.14357 
L 556.958678 326.033248 
L 560.417355 334.082409 
L 563.876033 353.553284 
L 567.334711 363.356172 
L 570.793388 362.54676 
L 574.252066 380.533711 
L 577.710744 389.234899 
L 584.628099 388.335551 
L 588.086777 412.505517 
L 591.545455 419.700298 
L 595.004132 424.71416 
L 598.46281 427.749459 
L 601.921488 431.863974 
L 605.380165 435.776136 
L 608.838843 439.013787 
L 612.297521 440.452743 
L 615.756198 441.53196 
L 619.214876 441.936666 
L 622.673554 442.925949 
L 626.132231 444.859546 
L 629.590909 446.545823 
L 633.049587 448.569355 
L 636.508264 449.581121 
L 639.966942 451.784522 
L 643.42562 450.862691 
L 646.884298 451.447267 
L 650.342975 452.234196 
L 657.260331 454.257728 
L 660.719008 453.695636 
L 664.177686 455.224527 
L 667.636364 456.483613 
L 671.095041 456.03394 
L 674.553719 455.696684 
L 678.012397 456.70845 
L 681.471074 457.967537 
L 684.929752 456.663483 
L 691.847107 458.417211 
L 695.305785 457.180608 
L 698.764463 456.483613 
L 702.22314 458.507145 
L 705.681818 456.775901 
L 709.140496 455.719168 
L 716.057851 454.639951 
L 719.516529 452.908707 
L 722.975207 451.807006 
L 726.433884 450.255632 
L 729.892562 447.692491 
L 733.35124 444.005166 
L 736.809917 443.465557 
L 743.727273 435.956005 
L 747.18595 435.01169 
L 750.644628 431.549202 
L 754.103306 426.940046 
L 757.561983 426.917562 
L 761.020661 419.160689 
L 764.479339 410.481985 
L 767.938017 409.155447 
L 771.396694 407.581589 
L 774.855372 402.095569 
L 778.31405 385.570057 
L 781.772727 389.572154 
L 785.231405 383.029401 
L 788.690083 370.123763 
L 792.14876 358.881918 
L 795.607438 361.894733 
L 799.066116 353.823088 
L 802.524793 349.551187 
L 805.983471 336.510647 
L 809.442149 325.898346 
L 812.900826 314.476632 
L 816.359504 298.288376 
L 819.818182 293.117127 
L 823.27686 286.259602 
L 826.735537 273.871089 
L 830.194215 249.521254 
L 833.652893 241.899283 
L 837.11157 219.572979 
L 840.570248 199.112822 
L 844.028926 193.4919 
L 847.487603 181.530577 
L 850.946281 170.266249 
L 854.404959 155.944139 
L 857.863636 151.312499 
L 861.322314 138.474312 
L 864.780992 142.611311 
L 868.239669 137.05784 
L 871.698347 137.215226 
L 875.157025 133.955091 
L 878.615702 134.98934 
L 882.07438 89.28 
L 885.533058 150.458119 
L 888.991736 152.886357 
L 892.450413 161.812382 
L 895.909091 172.559585 
L 899.367769 166.758793 
L 902.826446 170.378667 
L 906.285124 173.144161 
L 909.743802 177.438546 
L 913.202479 181.215805 
L 920.119835 194.121443 
L 923.578512 203.901848 
L 927.03719 210.017411 
L 930.495868 217.054806 
L 933.954545 225.103967 
L 933.954545 225.103967 
" style="fill:none;stroke:#d62728;stroke-linecap:square;stroke-width:1.5;"/>
   </g>
   <g id="patch_3">
    <path d="M 135 512.64 
L 135 69.12 
" style="fill:none;stroke:#000000;stroke-linecap:square;stroke-linejoin:miter;stroke-width:0.8;"/>
   </g>
   <g id="patch_4">
    <path d="M 972 512.64 
L 972 69.12 
" style="fill:none;stroke:#000000;stroke-linecap:square;stroke-linejoin:miter;stroke-width:0.8;"/>
   </g>
   <g id="patch_5">
    <path d="M 135 512.64 
L 972 512.64 
" style="fill:none;stroke:#000000;stroke-linecap:square;stroke-linejoin:miter;stroke-width:0.8;"/>
   </g>
   <g id="patch_6">
    <path d="M 135 69.12 
L 972 69.12 
" style="fill:none;stroke:#000000;stroke-linecap:square;stroke-linejoin:miter;stroke-width:0.8;"/>
   </g>
   <g id="text_16">
    <!-- COVID19 Trend in Japan -->
    <g transform="translate(482.222813 63.12)scale(0.12 -0.12)">
     <defs>
      <path d="M 64.40625 67.28125 
L 64.40625 56.890625 
Q 59.421875 61.53125 53.78125 63.8125 
Q 48.140625 66.109375 41.796875 66.109375 
Q 29.296875 66.109375 22.65625 58.46875 
Q 16.015625 50.828125 16.015625 36.375 
Q 16.015625 21.96875 22.65625 14.328125 
Q 29.296875 6.6875 41.796875 6.6875 
Q 48.140625 6.6875 53.78125 8.984375 
Q 59.421875 11.28125 64.40625 15.921875 
L 64.40625 5.609375 
Q 59.234375 2.09375 53.4375 0.328125 
Q 47.65625 -1.421875 41.21875 -1.421875 
Q 24.65625 -1.421875 15.125 8.703125 
Q 5.609375 18.84375 5.609375 36.375 
Q 5.609375 53.953125 15.125 64.078125 
Q 24.65625 74.21875 41.21875 74.21875 
Q 47.75 74.21875 53.53125 72.484375 
Q 59.328125 70.75 64.40625 67.28125 
z
" id="DejaVuSans-67"/>
      <path d="M 39.40625 66.21875 
Q 28.65625 66.21875 22.328125 58.203125 
Q 16.015625 50.203125 16.015625 36.375 
Q 16.015625 22.609375 22.328125 14.59375 
Q 28.65625 6.59375 39.40625 6.59375 
Q 50.140625 6.59375 56.421875 14.59375 
Q 62.703125 22.609375 62.703125 36.375 
Q 62.703125 50.203125 56.421875 58.203125 
Q 50.140625 66.21875 39.40625 66.21875 
z
M 39.40625 74.21875 
Q 54.734375 74.21875 63.90625 63.9375 
Q 73.09375 53.65625 73.09375 36.375 
Q 73.09375 19.140625 63.90625 8.859375 
Q 54.734375 -1.421875 39.40625 -1.421875 
Q 24.03125 -1.421875 14.8125 8.828125 
Q 5.609375 19.09375 5.609375 36.375 
Q 5.609375 53.65625 14.8125 63.9375 
Q 24.03125 74.21875 39.40625 74.21875 
z
" id="DejaVuSans-79"/>
      <path d="M 28.609375 0 
L 0.78125 72.90625 
L 11.078125 72.90625 
L 34.1875 11.53125 
L 57.328125 72.90625 
L 67.578125 72.90625 
L 39.796875 0 
z
" id="DejaVuSans-86"/>
      <path d="M 9.8125 72.90625 
L 19.671875 72.90625 
L 19.671875 0 
L 9.8125 0 
z
" id="DejaVuSans-73"/>
      <path id="DejaVuSans-32"/>
      <path d="M 9.421875 54.6875 
L 18.40625 54.6875 
L 18.40625 0 
L 9.421875 0 
z
M 9.421875 75.984375 
L 18.40625 75.984375 
L 18.40625 64.59375 
L 9.421875 64.59375 
z
" id="DejaVuSans-105"/>
      <path d="M 9.8125 72.90625 
L 19.671875 72.90625 
L 19.671875 5.078125 
Q 19.671875 -8.109375 14.671875 -14.0625 
Q 9.671875 -20.015625 -1.421875 -20.015625 
L -5.171875 -20.015625 
L -5.171875 -11.71875 
L -2.09375 -11.71875 
Q 4.4375 -11.71875 7.125 -8.046875 
Q 9.8125 -4.390625 9.8125 5.078125 
z
" id="DejaVuSans-74"/>
      <path d="M 18.109375 8.203125 
L 18.109375 -20.796875 
L 9.078125 -20.796875 
L 9.078125 54.6875 
L 18.109375 54.6875 
L 18.109375 46.390625 
Q 20.953125 51.265625 25.265625 53.625 
Q 29.59375 56 35.59375 56 
Q 45.5625 56 51.78125 48.09375 
Q 58.015625 40.1875 58.015625 27.296875 
Q 58.015625 14.40625 51.78125 6.484375 
Q 45.5625 -1.421875 35.59375 -1.421875 
Q 29.59375 -1.421875 25.265625 0.953125 
Q 20.953125 3.328125 18.109375 8.203125 
z
M 48.6875 27.296875 
Q 48.6875 37.203125 44.609375 42.84375 
Q 40.53125 48.484375 33.40625 48.484375 
Q 26.265625 48.484375 22.1875 42.84375 
Q 18.109375 37.203125 18.109375 27.296875 
Q 18.109375 17.390625 22.1875 11.75 
Q 26.265625 6.109375 33.40625 6.109375 
Q 40.53125 6.109375 44.609375 11.75 
Q 48.6875 17.390625 48.6875 27.296875 
z
" id="DejaVuSans-112"/>
     </defs>
     <use xlink:href="#DejaVuSans-67"/>
     <use x="69.824219" xlink:href="#DejaVuSans-79"/>
     <use x="146.785156" xlink:href="#DejaVuSans-86"/>
     <use x="215.193359" xlink:href="#DejaVuSans-73"/>
     <use x="244.685547" xlink:href="#DejaVuSans-68"/>
     <use x="321.6875" xlink:href="#DejaVuSans-49"/>
     <use x="385.310547" xlink:href="#DejaVuSans-57"/>
     <use x="448.933594" xlink:href="#DejaVuSans-32"/>
     <use x="480.720703" xlink:href="#DejaVuSans-84"/>
     <use x="527.054688" xlink:href="#DejaVuSans-114"/>
     <use x="565.917969" xlink:href="#DejaVuSans-101"/>
     <use x="627.441406" xlink:href="#DejaVuSans-110"/>
     <use x="690.820312" xlink:href="#DejaVuSans-100"/>
     <use x="754.296875" xlink:href="#DejaVuSans-32"/>
     <use x="786.083984" xlink:href="#DejaVuSans-105"/>
     <use x="813.867188" xlink:href="#DejaVuSans-110"/>
     <use x="877.246094" xlink:href="#DejaVuSans-32"/>
     <use x="909.033203" xlink:href="#DejaVuSans-74"/>
     <use x="938.525391" xlink:href="#DejaVuSans-97"/>
     <use x="999.804688" xlink:href="#DejaVuSans-112"/>
     <use x="1063.28125" xlink:href="#DejaVuSans-97"/>
     <use x="1124.560547" xlink:href="#DejaVuSans-110"/>
    </g>
   </g>
   <g id="legend_1">
    <g id="patch_7">
     <path d="M 142 135.8325 
L 226.728125 135.8325 
Q 228.728125 135.8325 228.728125 133.8325 
L 228.728125 76.12 
Q 228.728125 74.12 226.728125 74.12 
L 142 74.12 
Q 140 74.12 140 76.12 
L 140 133.8325 
Q 140 135.8325 142 135.8325 
z
" style="fill:#ffffff;opacity:0.8;stroke:#cccccc;stroke-linejoin:miter;"/>
    </g>
    <g id="line2d_18">
     <path d="M 144 82.218437 
L 164 82.218437 
" style="fill:none;stroke:#1f77b4;stroke-linecap:square;stroke-width:1.5;"/>
    </g>
    <g id="line2d_19"/>
    <g id="text_17">
     <!-- Confirmed -->
     <g transform="translate(172 85.718437)scale(0.1 -0.1)">
      <defs>
       <path d="M 30.609375 48.390625 
Q 23.390625 48.390625 19.1875 42.75 
Q 14.984375 37.109375 14.984375 27.296875 
Q 14.984375 17.484375 19.15625 11.84375 
Q 23.34375 6.203125 30.609375 6.203125 
Q 37.796875 6.203125 41.984375 11.859375 
Q 46.1875 17.53125 46.1875 27.296875 
Q 46.1875 37.015625 41.984375 42.703125 
Q 37.796875 48.390625 30.609375 48.390625 
z
M 30.609375 56 
Q 42.328125 56 49.015625 48.375 
Q 55.71875 40.765625 55.71875 27.296875 
Q 55.71875 13.875 49.015625 6.21875 
Q 42.328125 -1.421875 30.609375 -1.421875 
Q 18.84375 -1.421875 12.171875 6.21875 
Q 5.515625 13.875 5.515625 27.296875 
Q 5.515625 40.765625 12.171875 48.375 
Q 18.84375 56 30.609375 56 
z
" id="DejaVuSans-111"/>
       <path d="M 37.109375 75.984375 
L 37.109375 68.5 
L 28.515625 68.5 
Q 23.6875 68.5 21.796875 66.546875 
Q 19.921875 64.59375 19.921875 59.515625 
L 19.921875 54.6875 
L 34.71875 54.6875 
L 34.71875 47.703125 
L 19.921875 47.703125 
L 19.921875 0 
L 10.890625 0 
L 10.890625 47.703125 
L 2.296875 47.703125 
L 2.296875 54.6875 
L 10.890625 54.6875 
L 10.890625 58.5 
Q 10.890625 67.625 15.140625 71.796875 
Q 19.390625 75.984375 28.609375 75.984375 
z
" id="DejaVuSans-102"/>
       <path d="M 52 44.1875 
Q 55.375 50.25 60.0625 53.125 
Q 64.75 56 71.09375 56 
Q 79.640625 56 84.28125 50.015625 
Q 88.921875 44.046875 88.921875 33.015625 
L 88.921875 0 
L 79.890625 0 
L 79.890625 32.71875 
Q 79.890625 40.578125 77.09375 44.375 
Q 74.3125 48.1875 68.609375 48.1875 
Q 61.625 48.1875 57.5625 43.546875 
Q 53.515625 38.921875 53.515625 30.90625 
L 53.515625 0 
L 44.484375 0 
L 44.484375 32.71875 
Q 44.484375 40.625 41.703125 44.40625 
Q 38.921875 48.1875 33.109375 48.1875 
Q 26.21875 48.1875 22.15625 43.53125 
Q 18.109375 38.875 18.109375 30.90625 
L 18.109375 0 
L 9.078125 0 
L 9.078125 54.6875 
L 18.109375 54.6875 
L 18.109375 46.1875 
Q 21.1875 51.21875 25.484375 53.609375 
Q 29.78125 56 35.6875 56 
Q 41.65625 56 45.828125 52.96875 
Q 50 49.953125 52 44.1875 
z
" id="DejaVuSans-109"/>
      </defs>
      <use xlink:href="#DejaVuSans-67"/>
      <use x="69.824219" xlink:href="#DejaVuSans-111"/>
      <use x="131.005859" xlink:href="#DejaVuSans-110"/>
      <use x="194.384766" xlink:href="#DejaVuSans-102"/>
      <use x="229.589844" xlink:href="#DejaVuSans-105"/>
      <use x="257.373047" xlink:href="#DejaVuSans-114"/>
      <use x="296.736328" xlink:href="#DejaVuSans-109"/>
      <use x="394.148438" xlink:href="#DejaVuSans-101"/>
      <use x="455.671875" xlink:href="#DejaVuSans-100"/>
     </g>
    </g>
    <g id="line2d_20">
     <path d="M 144 96.896563 
L 164 96.896563 
" style="fill:none;stroke:#ff7f0e;stroke-linecap:square;stroke-width:1.5;"/>
    </g>
    <g id="line2d_21"/>
    <g id="text_18">
     <!-- Deaths -->
     <g transform="translate(172 100.396563)scale(0.1 -0.1)">
      <defs>
       <path d="M 54.890625 33.015625 
L 54.890625 0 
L 45.90625 0 
L 45.90625 32.71875 
Q 45.90625 40.484375 42.875 44.328125 
Q 39.84375 48.1875 33.796875 48.1875 
Q 26.515625 48.1875 22.3125 43.546875 
Q 18.109375 38.921875 18.109375 30.90625 
L 18.109375 0 
L 9.078125 0 
L 9.078125 75.984375 
L 18.109375 75.984375 
L 18.109375 46.1875 
Q 21.34375 51.125 25.703125 53.5625 
Q 30.078125 56 35.796875 56 
Q 45.21875 56 50.046875 50.171875 
Q 54.890625 44.34375 54.890625 33.015625 
z
" id="DejaVuSans-104"/>
       <path d="M 44.28125 53.078125 
L 44.28125 44.578125 
Q 40.484375 46.53125 36.375 47.5 
Q 32.28125 48.484375 27.875 48.484375 
Q 21.1875 48.484375 17.84375 46.4375 
Q 14.5 44.390625 14.5 40.28125 
Q 14.5 37.15625 16.890625 35.375 
Q 19.28125 33.59375 26.515625 31.984375 
L 29.59375 31.296875 
Q 39.15625 29.25 43.1875 25.515625 
Q 47.21875 21.78125 47.21875 15.09375 
Q 47.21875 7.46875 41.1875 3.015625 
Q 35.15625 -1.421875 24.609375 -1.421875 
Q 20.21875 -1.421875 15.453125 -0.5625 
Q 10.6875 0.296875 5.421875 2 
L 5.421875 11.28125 
Q 10.40625 8.6875 15.234375 7.390625 
Q 20.0625 6.109375 24.8125 6.109375 
Q 31.15625 6.109375 34.5625 8.28125 
Q 37.984375 10.453125 37.984375 14.40625 
Q 37.984375 18.0625 35.515625 20.015625 
Q 33.0625 21.96875 24.703125 23.78125 
L 21.578125 24.515625 
Q 13.234375 26.265625 9.515625 29.90625 
Q 5.8125 33.546875 5.8125 39.890625 
Q 5.8125 47.609375 11.28125 51.796875 
Q 16.75 56 26.8125 56 
Q 31.78125 56 36.171875 55.265625 
Q 40.578125 54.546875 44.28125 53.078125 
z
" id="DejaVuSans-115"/>
      </defs>
      <use xlink:href="#DejaVuSans-68"/>
      <use x="77.001953" xlink:href="#DejaVuSans-101"/>
      <use x="138.525391" xlink:href="#DejaVuSans-97"/>
      <use x="199.804688" xlink:href="#DejaVuSans-116"/>
      <use x="239.013672" xlink:href="#DejaVuSans-104"/>
      <use x="302.392578" xlink:href="#DejaVuSans-115"/>
     </g>
    </g>
    <g id="line2d_22">
     <path d="M 144 111.574687 
L 164 111.574687 
" style="fill:none;stroke:#2ca02c;stroke-linecap:square;stroke-width:1.5;"/>
    </g>
    <g id="line2d_23"/>
    <g id="text_19">
     <!-- Recovered -->
     <g transform="translate(172 115.074687)scale(0.1 -0.1)">
      <defs>
       <path d="M 44.390625 34.1875 
Q 47.5625 33.109375 50.5625 29.59375 
Q 53.5625 26.078125 56.59375 19.921875 
L 66.609375 0 
L 56 0 
L 46.6875 18.703125 
Q 43.0625 26.03125 39.671875 28.421875 
Q 36.28125 30.8125 30.421875 30.8125 
L 19.671875 30.8125 
L 19.671875 0 
L 9.8125 0 
L 9.8125 72.90625 
L 32.078125 72.90625 
Q 44.578125 72.90625 50.734375 67.671875 
Q 56.890625 62.453125 56.890625 51.90625 
Q 56.890625 45.015625 53.6875 40.46875 
Q 50.484375 35.9375 44.390625 34.1875 
z
M 19.671875 64.796875 
L 19.671875 38.921875 
L 32.078125 38.921875 
Q 39.203125 38.921875 42.84375 42.21875 
Q 46.484375 45.515625 46.484375 51.90625 
Q 46.484375 58.296875 42.84375 61.546875 
Q 39.203125 64.796875 32.078125 64.796875 
z
" id="DejaVuSans-82"/>
       <path d="M 48.78125 52.59375 
L 48.78125 44.1875 
Q 44.96875 46.296875 41.140625 47.34375 
Q 37.3125 48.390625 33.40625 48.390625 
Q 24.65625 48.390625 19.8125 42.84375 
Q 14.984375 37.3125 14.984375 27.296875 
Q 14.984375 17.28125 19.8125 11.734375 
Q 24.65625 6.203125 33.40625 6.203125 
Q 37.3125 6.203125 41.140625 7.25 
Q 44.96875 8.296875 48.78125 10.40625 
L 48.78125 2.09375 
Q 45.015625 0.34375 40.984375 -0.53125 
Q 36.96875 -1.421875 32.421875 -1.421875 
Q 20.0625 -1.421875 12.78125 6.34375 
Q 5.515625 14.109375 5.515625 27.296875 
Q 5.515625 40.671875 12.859375 48.328125 
Q 20.21875 56 33.015625 56 
Q 37.15625 56 41.109375 55.140625 
Q 45.0625 54.296875 48.78125 52.59375 
z
" id="DejaVuSans-99"/>
       <path d="M 2.984375 54.6875 
L 12.5 54.6875 
L 29.59375 8.796875 
L 46.6875 54.6875 
L 56.203125 54.6875 
L 35.6875 0 
L 23.484375 0 
z
" id="DejaVuSans-118"/>
      </defs>
      <use xlink:href="#DejaVuSans-82"/>
      <use x="64.982422" xlink:href="#DejaVuSans-101"/>
      <use x="126.505859" xlink:href="#DejaVuSans-99"/>
      <use x="181.486328" xlink:href="#DejaVuSans-111"/>
      <use x="242.667969" xlink:href="#DejaVuSans-118"/>
      <use x="301.847656" xlink:href="#DejaVuSans-101"/>
      <use x="363.371094" xlink:href="#DejaVuSans-114"/>
      <use x="402.234375" xlink:href="#DejaVuSans-101"/>
      <use x="463.757812" xlink:href="#DejaVuSans-100"/>
     </g>
    </g>
    <g id="line2d_24">
     <path d="M 144 126.252813 
L 164 126.252813 
" style="fill:none;stroke:#d62728;stroke-linecap:square;stroke-width:1.5;"/>
    </g>
    <g id="line2d_25"/>
    <g id="text_20">
     <!-- Active -->
     <g transform="translate(172 129.752813)scale(0.1 -0.1)">
      <defs>
       <path d="M 34.1875 63.1875 
L 20.796875 26.90625 
L 47.609375 26.90625 
z
M 28.609375 72.90625 
L 39.796875 72.90625 
L 67.578125 0 
L 57.328125 0 
L 50.6875 18.703125 
L 17.828125 18.703125 
L 11.1875 0 
L 0.78125 0 
z
" id="DejaVuSans-65"/>
      </defs>
      <use xlink:href="#DejaVuSans-65"/>
      <use x="66.658203" xlink:href="#DejaVuSans-99"/>
      <use x="121.638672" xlink:href="#DejaVuSans-116"/>
      <use x="160.847656" xlink:href="#DejaVuSans-105"/>
      <use x="188.630859" xlink:href="#DejaVuSans-118"/>
      <use x="247.810547" xlink:href="#DejaVuSans-101"/>
     </g>
    </g>
   </g>
  </g>
 </g>
 <defs>
  <clipPath id="pa9f08f1386">
   <rect height="443.52" width="837" x="135" y="69.12"/>
  </clipPath>
 </defs>
</svg>
