<?xml version="1.0" encoding="utf-8" standalone="no"?>
<!DOCTYPE svg PUBLIC "-//W3C//DTD SVG 1.1//EN"
  "http://www.w3.org/Graphics/SVG/1.1/DTD/svg11.dtd">
<!-- Created with matplotlib (https://matplotlib.org/) -->
<svg height="576pt" version="1.1" viewBox="0 0 1080 576" width="1080pt" xmlns="http://www.w3.org/2000/svg" xmlns:xlink="http://www.w3.org/1999/xlink">
 <metadata>
  <rdf:RDF xmlns:cc="http://creativecommons.org/ns#" xmlns:dc="http://purl.org/dc/elements/1.1/" xmlns:rdf="http://www.w3.org/1999/02/22-rdf-syntax-ns#">
   <cc:Work>
    <dc:type rdf:resource="http://purl.org/dc/dcmitype/StillImage"/>
    <dc:date>2020-08-29T22:21:07.752360</dc:date>
    <dc:format>image/svg+xml</dc:format>
    <dc:creator>
     <cc:Agent>
      <dc:title>Matplotlib v3.3.1, https://matplotlib.org/</dc:title>
     </cc:Agent>
    </dc:creator>
   </cc:Work>
  </rdf:RDF>
 </metadata>
 <defs>
  <style type="text/css">*{stroke-linecap:butt;stroke-linejoin:round;}</style>
 </defs>
 <g id="figure_1">
  <g id="patch_1">
   <path d="M 0 576 
L 1080 576 
L 1080 0 
L 0 0 
z
" style="fill:#ffffff;"/>
  </g>
  <g id="axes_1">
   <g id="patch_2">
    <path d="M 135 512.64 
L 972 512.64 
L 972 69.12 
L 135 69.12 
z
" style="fill:#ffffff;"/>
   </g>
   <g id="matplotlib.axis_1">
    <g id="xtick_1">
     <g id="line2d_1">
      <defs>
       <path d="M 0 0 
L 0 3.5 
" id="m78b7af0351" style="stroke:#000000;stroke-width:0.8;"/>
      </defs>
      <g>
       <use style="stroke:#000000;stroke-width:0.8;" x="173.045455" xlink:href="#m78b7af0351" y="512.64"/>
      </g>
     </g>
     <g id="text_1">
      <!-- 2020-01-22 -->
      <g transform="translate(143.987642 527.238438)scale(0.1 -0.1)">
       <defs>
        <path d="M 19.1875 8.296875 
L 53.609375 8.296875 
L 53.609375 0 
L 7.328125 0 
L 7.328125 8.296875 
Q 12.9375 14.109375 22.625 23.890625 
Q 32.328125 33.6875 34.8125 36.53125 
Q 39.546875 41.84375 41.421875 45.53125 
Q 43.3125 49.21875 43.3125 52.78125 
Q 43.3125 58.59375 39.234375 62.25 
Q 35.15625 65.921875 28.609375 65.921875 
Q 23.96875 65.921875 18.8125 64.3125 
Q 13.671875 62.703125 7.8125 59.421875 
L 7.8125 69.390625 
Q 13.765625 71.78125 18.9375 73 
Q 24.125 74.21875 28.421875 74.21875 
Q 39.75 74.21875 46.484375 68.546875 
Q 53.21875 62.890625 53.21875 53.421875 
Q 53.21875 48.921875 51.53125 44.890625 
Q 49.859375 40.875 45.40625 35.40625 
Q 44.1875 33.984375 37.640625 27.21875 
Q 31.109375 20.453125 19.1875 8.296875 
z
" id="DejaVuSans-50"/>
        <path d="M 31.78125 66.40625 
Q 24.171875 66.40625 20.328125 58.90625 
Q 16.5 51.421875 16.5 36.375 
Q 16.5 21.390625 20.328125 13.890625 
Q 24.171875 6.390625 31.78125 6.390625 
Q 39.453125 6.390625 43.28125 13.890625 
Q 47.125 21.390625 47.125 36.375 
Q 47.125 51.421875 43.28125 58.90625 
Q 39.453125 66.40625 31.78125 66.40625 
z
M 31.78125 74.21875 
Q 44.046875 74.21875 50.515625 64.515625 
Q 56.984375 54.828125 56.984375 36.375 
Q 56.984375 17.96875 50.515625 8.265625 
Q 44.046875 -1.421875 31.78125 -1.421875 
Q 19.53125 -1.421875 13.0625 8.265625 
Q 6.59375 17.96875 6.59375 36.375 
Q 6.59375 54.828125 13.0625 64.515625 
Q 19.53125 74.21875 31.78125 74.21875 
z
" id="DejaVuSans-48"/>
        <path d="M 4.890625 31.390625 
L 31.203125 31.390625 
L 31.203125 23.390625 
L 4.890625 23.390625 
z
" id="DejaVuSans-45"/>
        <path d="M 12.40625 8.296875 
L 28.515625 8.296875 
L 28.515625 63.921875 
L 10.984375 60.40625 
L 10.984375 69.390625 
L 28.421875 72.90625 
L 38.28125 72.90625 
L 38.28125 8.296875 
L 54.390625 8.296875 
L 54.390625 0 
L 12.40625 0 
z
" id="DejaVuSans-49"/>
       </defs>
       <use xlink:href="#DejaVuSans-50"/>
       <use x="63.623047" xlink:href="#DejaVuSans-48"/>
       <use x="127.246094" xlink:href="#DejaVuSans-50"/>
       <use x="190.869141" xlink:href="#DejaVuSans-48"/>
       <use x="254.492188" xlink:href="#DejaVuSans-45"/>
       <use x="290.576172" xlink:href="#DejaVuSans-48"/>
       <use x="354.199219" xlink:href="#DejaVuSans-49"/>
       <use x="417.822266" xlink:href="#DejaVuSans-45"/>
       <use x="453.90625" xlink:href="#DejaVuSans-50"/>
       <use x="517.529297" xlink:href="#DejaVuSans-50"/>
      </g>
     </g>
    </g>
    <g id="xtick_2">
     <g id="line2d_2">
      <g>
       <use style="stroke:#000000;stroke-width:0.8;" x="346.768991" xlink:href="#m78b7af0351" y="512.64"/>
      </g>
     </g>
     <g id="text_2">
      <!-- 2020-03-12 -->
      <g transform="translate(317.711179 527.238438)scale(0.1 -0.1)">
       <defs>
        <path d="M 40.578125 39.3125 
Q 47.65625 37.796875 51.625 33 
Q 55.609375 28.21875 55.609375 21.1875 
Q 55.609375 10.40625 48.1875 4.484375 
Q 40.765625 -1.421875 27.09375 -1.421875 
Q 22.515625 -1.421875 17.65625 -0.515625 
Q 12.796875 0.390625 7.625 2.203125 
L 7.625 11.71875 
Q 11.71875 9.328125 16.59375 8.109375 
Q 21.484375 6.890625 26.8125 6.890625 
Q 36.078125 6.890625 40.9375 10.546875 
Q 45.796875 14.203125 45.796875 21.1875 
Q 45.796875 27.640625 41.28125 31.265625 
Q 36.765625 34.90625 28.71875 34.90625 
L 20.21875 34.90625 
L 20.21875 43.015625 
L 29.109375 43.015625 
Q 36.375 43.015625 40.234375 45.921875 
Q 44.09375 48.828125 44.09375 54.296875 
Q 44.09375 59.90625 40.109375 62.90625 
Q 36.140625 65.921875 28.71875 65.921875 
Q 24.65625 65.921875 20.015625 65.03125 
Q 15.375 64.15625 9.8125 62.3125 
L 9.8125 71.09375 
Q 15.4375 72.65625 20.34375 73.4375 
Q 25.25 74.21875 29.59375 74.21875 
Q 40.828125 74.21875 47.359375 69.109375 
Q 53.90625 64.015625 53.90625 55.328125 
Q 53.90625 49.265625 50.4375 45.09375 
Q 46.96875 40.921875 40.578125 39.3125 
z
" id="DejaVuSans-51"/>
       </defs>
       <use xlink:href="#DejaVuSans-50"/>
       <use x="63.623047" xlink:href="#DejaVuSans-48"/>
       <use x="127.246094" xlink:href="#DejaVuSans-50"/>
       <use x="190.869141" xlink:href="#DejaVuSans-48"/>
       <use x="254.492188" xlink:href="#DejaVuSans-45"/>
       <use x="290.576172" xlink:href="#DejaVuSans-48"/>
       <use x="354.199219" xlink:href="#DejaVuSans-51"/>
       <use x="417.822266" xlink:href="#DejaVuSans-45"/>
       <use x="453.90625" xlink:href="#DejaVuSans-49"/>
       <use x="517.529297" xlink:href="#DejaVuSans-50"/>
      </g>
     </g>
    </g>
    <g id="xtick_3">
     <g id="line2d_3">
      <g>
       <use style="stroke:#000000;stroke-width:0.8;" x="520.492528" xlink:href="#m78b7af0351" y="512.64"/>
      </g>
     </g>
     <g id="text_3">
      <!-- 2020-05-01 -->
      <g transform="translate(491.434716 527.238438)scale(0.1 -0.1)">
       <defs>
        <path d="M 10.796875 72.90625 
L 49.515625 72.90625 
L 49.515625 64.59375 
L 19.828125 64.59375 
L 19.828125 46.734375 
Q 21.96875 47.46875 24.109375 47.828125 
Q 26.265625 48.1875 28.421875 48.1875 
Q 40.625 48.1875 47.75 41.5 
Q 54.890625 34.8125 54.890625 23.390625 
Q 54.890625 11.625 47.5625 5.09375 
Q 40.234375 -1.421875 26.90625 -1.421875 
Q 22.3125 -1.421875 17.546875 -0.640625 
Q 12.796875 0.140625 7.71875 1.703125 
L 7.71875 11.625 
Q 12.109375 9.234375 16.796875 8.0625 
Q 21.484375 6.890625 26.703125 6.890625 
Q 35.15625 6.890625 40.078125 11.328125 
Q 45.015625 15.765625 45.015625 23.390625 
Q 45.015625 31 40.078125 35.4375 
Q 35.15625 39.890625 26.703125 39.890625 
Q 22.75 39.890625 18.8125 39.015625 
Q 14.890625 38.140625 10.796875 36.28125 
z
" id="DejaVuSans-53"/>
       </defs>
       <use xlink:href="#DejaVuSans-50"/>
       <use x="63.623047" xlink:href="#DejaVuSans-48"/>
       <use x="127.246094" xlink:href="#DejaVuSans-50"/>
       <use x="190.869141" xlink:href="#DejaVuSans-48"/>
       <use x="254.492188" xlink:href="#DejaVuSans-45"/>
       <use x="290.576172" xlink:href="#DejaVuSans-48"/>
       <use x="354.199219" xlink:href="#DejaVuSans-53"/>
       <use x="417.822266" xlink:href="#DejaVuSans-45"/>
       <use x="453.90625" xlink:href="#DejaVuSans-48"/>
       <use x="517.529297" xlink:href="#DejaVuSans-49"/>
      </g>
     </g>
    </g>
    <g id="xtick_4">
     <g id="line2d_4">
      <g>
       <use style="stroke:#000000;stroke-width:0.8;" x="694.216065" xlink:href="#m78b7af0351" y="512.64"/>
      </g>
     </g>
     <g id="text_4">
      <!-- 2020-06-20 -->
      <g transform="translate(665.158252 527.238438)scale(0.1 -0.1)">
       <defs>
        <path d="M 33.015625 40.375 
Q 26.375 40.375 22.484375 35.828125 
Q 18.609375 31.296875 18.609375 23.390625 
Q 18.609375 15.53125 22.484375 10.953125 
Q 26.375 6.390625 33.015625 6.390625 
Q 39.65625 6.390625 43.53125 10.953125 
Q 47.40625 15.53125 47.40625 23.390625 
Q 47.40625 31.296875 43.53125 35.828125 
Q 39.65625 40.375 33.015625 40.375 
z
M 52.59375 71.296875 
L 52.59375 62.3125 
Q 48.875 64.0625 45.09375 64.984375 
Q 41.3125 65.921875 37.59375 65.921875 
Q 27.828125 65.921875 22.671875 59.328125 
Q 17.53125 52.734375 16.796875 39.40625 
Q 19.671875 43.65625 24.015625 45.921875 
Q 28.375 48.1875 33.59375 48.1875 
Q 44.578125 48.1875 50.953125 41.515625 
Q 57.328125 34.859375 57.328125 23.390625 
Q 57.328125 12.15625 50.6875 5.359375 
Q 44.046875 -1.421875 33.015625 -1.421875 
Q 20.359375 -1.421875 13.671875 8.265625 
Q 6.984375 17.96875 6.984375 36.375 
Q 6.984375 53.65625 15.1875 63.9375 
Q 23.390625 74.21875 37.203125 74.21875 
Q 40.921875 74.21875 44.703125 73.484375 
Q 48.484375 72.75 52.59375 71.296875 
z
" id="DejaVuSans-54"/>
       </defs>
       <use xlink:href="#DejaVuSans-50"/>
       <use x="63.623047" xlink:href="#DejaVuSans-48"/>
       <use x="127.246094" xlink:href="#DejaVuSans-50"/>
       <use x="190.869141" xlink:href="#DejaVuSans-48"/>
       <use x="254.492188" xlink:href="#DejaVuSans-45"/>
       <use x="290.576172" xlink:href="#DejaVuSans-48"/>
       <use x="354.199219" xlink:href="#DejaVuSans-54"/>
       <use x="417.822266" xlink:href="#DejaVuSans-45"/>
       <use x="453.90625" xlink:href="#DejaVuSans-50"/>
       <use x="517.529297" xlink:href="#DejaVuSans-48"/>
      </g>
     </g>
    </g>
    <g id="xtick_5">
     <g id="line2d_5">
      <g>
       <use style="stroke:#000000;stroke-width:0.8;" x="867.939601" xlink:href="#m78b7af0351" y="512.64"/>
      </g>
     </g>
     <g id="text_5">
      <!-- 2020-08-09 -->
      <g transform="translate(838.881789 527.238438)scale(0.1 -0.1)">
       <defs>
        <path d="M 31.78125 34.625 
Q 24.75 34.625 20.71875 30.859375 
Q 16.703125 27.09375 16.703125 20.515625 
Q 16.703125 13.921875 20.71875 10.15625 
Q 24.75 6.390625 31.78125 6.390625 
Q 38.8125 6.390625 42.859375 10.171875 
Q 46.921875 13.96875 46.921875 20.515625 
Q 46.921875 27.09375 42.890625 30.859375 
Q 38.875 34.625 31.78125 34.625 
z
M 21.921875 38.8125 
Q 15.578125 40.375 12.03125 44.71875 
Q 8.5 49.078125 8.5 55.328125 
Q 8.5 64.0625 14.71875 69.140625 
Q 20.953125 74.21875 31.78125 74.21875 
Q 42.671875 74.21875 48.875 69.140625 
Q 55.078125 64.0625 55.078125 55.328125 
Q 55.078125 49.078125 51.53125 44.71875 
Q 48 40.375 41.703125 38.8125 
Q 48.828125 37.15625 52.796875 32.3125 
Q 56.78125 27.484375 56.78125 20.515625 
Q 56.78125 9.90625 50.3125 4.234375 
Q 43.84375 -1.421875 31.78125 -1.421875 
Q 19.734375 -1.421875 13.25 4.234375 
Q 6.78125 9.90625 6.78125 20.515625 
Q 6.78125 27.484375 10.78125 32.3125 
Q 14.796875 37.15625 21.921875 38.8125 
z
M 18.3125 54.390625 
Q 18.3125 48.734375 21.84375 45.5625 
Q 25.390625 42.390625 31.78125 42.390625 
Q 38.140625 42.390625 41.71875 45.5625 
Q 45.3125 48.734375 45.3125 54.390625 
Q 45.3125 60.0625 41.71875 63.234375 
Q 38.140625 66.40625 31.78125 66.40625 
Q 25.390625 66.40625 21.84375 63.234375 
Q 18.3125 60.0625 18.3125 54.390625 
z
" id="DejaVuSans-56"/>
        <path d="M 10.984375 1.515625 
L 10.984375 10.5 
Q 14.703125 8.734375 18.5 7.8125 
Q 22.3125 6.890625 25.984375 6.890625 
Q 35.75 6.890625 40.890625 13.453125 
Q 46.046875 20.015625 46.78125 33.40625 
Q 43.953125 29.203125 39.59375 26.953125 
Q 35.25 24.703125 29.984375 24.703125 
Q 19.046875 24.703125 12.671875 31.3125 
Q 6.296875 37.9375 6.296875 49.421875 
Q 6.296875 60.640625 12.9375 67.421875 
Q 19.578125 74.21875 30.609375 74.21875 
Q 43.265625 74.21875 49.921875 64.515625 
Q 56.59375 54.828125 56.59375 36.375 
Q 56.59375 19.140625 48.40625 8.859375 
Q 40.234375 -1.421875 26.421875 -1.421875 
Q 22.703125 -1.421875 18.890625 -0.6875 
Q 15.09375 0.046875 10.984375 1.515625 
z
M 30.609375 32.421875 
Q 37.25 32.421875 41.125 36.953125 
Q 45.015625 41.5 45.015625 49.421875 
Q 45.015625 57.28125 41.125 61.84375 
Q 37.25 66.40625 30.609375 66.40625 
Q 23.96875 66.40625 20.09375 61.84375 
Q 16.21875 57.28125 16.21875 49.421875 
Q 16.21875 41.5 20.09375 36.953125 
Q 23.96875 32.421875 30.609375 32.421875 
z
" id="DejaVuSans-57"/>
       </defs>
       <use xlink:href="#DejaVuSans-50"/>
       <use x="63.623047" xlink:href="#DejaVuSans-48"/>
       <use x="127.246094" xlink:href="#DejaVuSans-50"/>
       <use x="190.869141" xlink:href="#DejaVuSans-48"/>
       <use x="254.492188" xlink:href="#DejaVuSans-45"/>
       <use x="290.576172" xlink:href="#DejaVuSans-48"/>
       <use x="354.199219" xlink:href="#DejaVuSans-56"/>
       <use x="417.822266" xlink:href="#DejaVuSans-45"/>
       <use x="453.90625" xlink:href="#DejaVuSans-48"/>
       <use x="517.529297" xlink:href="#DejaVuSans-57"/>
      </g>
     </g>
    </g>
    <g id="text_6">
     <!-- Date -->
     <g transform="translate(541.549219 540.916563)scale(0.1 -0.1)">
      <defs>
       <path d="M 19.671875 64.796875 
L 19.671875 8.109375 
L 31.59375 8.109375 
Q 46.6875 8.109375 53.6875 14.9375 
Q 60.6875 21.78125 60.6875 36.53125 
Q 60.6875 51.171875 53.6875 57.984375 
Q 46.6875 64.796875 31.59375 64.796875 
z
M 9.8125 72.90625 
L 30.078125 72.90625 
Q 51.265625 72.90625 61.171875 64.09375 
Q 71.09375 55.28125 71.09375 36.53125 
Q 71.09375 17.671875 61.125 8.828125 
Q 51.171875 0 30.078125 0 
L 9.8125 0 
z
" id="DejaVuSans-68"/>
       <path d="M 34.28125 27.484375 
Q 23.390625 27.484375 19.1875 25 
Q 14.984375 22.515625 14.984375 16.5 
Q 14.984375 11.71875 18.140625 8.90625 
Q 21.296875 6.109375 26.703125 6.109375 
Q 34.1875 6.109375 38.703125 11.40625 
Q 43.21875 16.703125 43.21875 25.484375 
L 43.21875 27.484375 
z
M 52.203125 31.203125 
L 52.203125 0 
L 43.21875 0 
L 43.21875 8.296875 
Q 40.140625 3.328125 35.546875 0.953125 
Q 30.953125 -1.421875 24.3125 -1.421875 
Q 15.921875 -1.421875 10.953125 3.296875 
Q 6 8.015625 6 15.921875 
Q 6 25.140625 12.171875 29.828125 
Q 18.359375 34.515625 30.609375 34.515625 
L 43.21875 34.515625 
L 43.21875 35.40625 
Q 43.21875 41.609375 39.140625 45 
Q 35.0625 48.390625 27.6875 48.390625 
Q 23 48.390625 18.546875 47.265625 
Q 14.109375 46.140625 10.015625 43.890625 
L 10.015625 52.203125 
Q 14.9375 54.109375 19.578125 55.046875 
Q 24.21875 56 28.609375 56 
Q 40.484375 56 46.34375 49.84375 
Q 52.203125 43.703125 52.203125 31.203125 
z
" id="DejaVuSans-97"/>
       <path d="M 18.3125 70.21875 
L 18.3125 54.6875 
L 36.8125 54.6875 
L 36.8125 47.703125 
L 18.3125 47.703125 
L 18.3125 18.015625 
Q 18.3125 11.328125 20.140625 9.421875 
Q 21.96875 7.515625 27.59375 7.515625 
L 36.8125 7.515625 
L 36.8125 0 
L 27.59375 0 
Q 17.1875 0 13.234375 3.875 
Q 9.28125 7.765625 9.28125 18.015625 
L 9.28125 47.703125 
L 2.6875 47.703125 
L 2.6875 54.6875 
L 9.28125 54.6875 
L 9.28125 70.21875 
z
" id="DejaVuSans-116"/>
       <path d="M 56.203125 29.59375 
L 56.203125 25.203125 
L 14.890625 25.203125 
Q 15.484375 15.921875 20.484375 11.0625 
Q 25.484375 6.203125 34.421875 6.203125 
Q 39.59375 6.203125 44.453125 7.46875 
Q 49.3125 8.734375 54.109375 11.28125 
L 54.109375 2.78125 
Q 49.265625 0.734375 44.1875 -0.34375 
Q 39.109375 -1.421875 33.890625 -1.421875 
Q 20.796875 -1.421875 13.15625 6.1875 
Q 5.515625 13.8125 5.515625 26.8125 
Q 5.515625 40.234375 12.765625 48.109375 
Q 20.015625 56 32.328125 56 
Q 43.359375 56 49.78125 48.890625 
Q 56.203125 41.796875 56.203125 29.59375 
z
M 47.21875 32.234375 
Q 47.125 39.59375 43.09375 43.984375 
Q 39.0625 48.390625 32.421875 48.390625 
Q 24.90625 48.390625 20.390625 44.140625 
Q 15.875 39.890625 15.1875 32.171875 
z
" id="DejaVuSans-101"/>
      </defs>
      <use xlink:href="#DejaVuSans-68"/>
      <use x="77.001953" xlink:href="#DejaVuSans-97"/>
      <use x="138.28125" xlink:href="#DejaVuSans-116"/>
      <use x="177.490234" xlink:href="#DejaVuSans-101"/>
     </g>
    </g>
   </g>
   <g id="matplotlib.axis_2">
    <g id="ytick_1">
     <g id="line2d_6">
      <defs>
       <path d="M 0 0 
L -3.5 0 
" id="m6e329cb61d" style="stroke:#000000;stroke-width:0.8;"/>
      </defs>
      <g>
       <use style="stroke:#000000;stroke-width:0.8;" x="135" xlink:href="#m6e329cb61d" y="492.48"/>
      </g>
     </g>
     <g id="text_7">
      <!-- 0 -->
      <g transform="translate(121.6375 496.279219)scale(0.1 -0.1)">
       <use xlink:href="#DejaVuSans-48"/>
      </g>
     </g>
    </g>
    <g id="ytick_2">
     <g id="line2d_7">
      <g>
       <use style="stroke:#000000;stroke-width:0.8;" x="135" xlink:href="#m6e329cb61d" y="396.457137"/>
      </g>
     </g>
     <g id="text_8">
      <!-- 1000 -->
      <g transform="translate(102.55 400.256356)scale(0.1 -0.1)">
       <use xlink:href="#DejaVuSans-49"/>
       <use x="63.623047" xlink:href="#DejaVuSans-48"/>
       <use x="127.246094" xlink:href="#DejaVuSans-48"/>
       <use x="190.869141" xlink:href="#DejaVuSans-48"/>
      </g>
     </g>
    </g>
    <g id="ytick_3">
     <g id="line2d_8">
      <g>
       <use style="stroke:#000000;stroke-width:0.8;" x="135" xlink:href="#m6e329cb61d" y="300.434275"/>
      </g>
     </g>
     <g id="text_9">
      <!-- 2000 -->
      <g transform="translate(102.55 304.233494)scale(0.1 -0.1)">
       <use xlink:href="#DejaVuSans-50"/>
       <use x="63.623047" xlink:href="#DejaVuSans-48"/>
       <use x="127.246094" xlink:href="#DejaVuSans-48"/>
       <use x="190.869141" xlink:href="#DejaVuSans-48"/>
      </g>
     </g>
    </g>
    <g id="ytick_4">
     <g id="line2d_9">
      <g>
       <use style="stroke:#000000;stroke-width:0.8;" x="135" xlink:href="#m6e329cb61d" y="204.411412"/>
      </g>
     </g>
     <g id="text_10">
      <!-- 3000 -->
      <g transform="translate(102.55 208.210631)scale(0.1 -0.1)">
       <use xlink:href="#DejaVuSans-51"/>
       <use x="63.623047" xlink:href="#DejaVuSans-48"/>
       <use x="127.246094" xlink:href="#DejaVuSans-48"/>
       <use x="190.869141" xlink:href="#DejaVuSans-48"/>
      </g>
     </g>
    </g>
    <g id="ytick_5">
     <g id="line2d_10">
      <g>
       <use style="stroke:#000000;stroke-width:0.8;" x="135" xlink:href="#m6e329cb61d" y="108.38855"/>
      </g>
     </g>
     <g id="text_11">
      <!-- 4000 -->
      <g transform="translate(102.55 112.187768)scale(0.1 -0.1)">
       <defs>
        <path d="M 37.796875 64.3125 
L 12.890625 25.390625 
L 37.796875 25.390625 
z
M 35.203125 72.90625 
L 47.609375 72.90625 
L 47.609375 25.390625 
L 58.015625 25.390625 
L 58.015625 17.1875 
L 47.609375 17.1875 
L 47.609375 0 
L 37.796875 0 
L 37.796875 17.1875 
L 4.890625 17.1875 
L 4.890625 26.703125 
z
" id="DejaVuSans-52"/>
       </defs>
       <use xlink:href="#DejaVuSans-52"/>
       <use x="63.623047" xlink:href="#DejaVuSans-48"/>
       <use x="127.246094" xlink:href="#DejaVuSans-48"/>
       <use x="190.869141" xlink:href="#DejaVuSans-48"/>
      </g>
     </g>
    </g>
    <g id="text_12">
     <!-- Trend -->
     <g transform="translate(96.470312 304.558906)rotate(-90)scale(0.1 -0.1)">
      <defs>
       <path d="M -0.296875 72.90625 
L 61.375 72.90625 
L 61.375 64.59375 
L 35.5 64.59375 
L 35.5 0 
L 25.59375 0 
L 25.59375 64.59375 
L -0.296875 64.59375 
z
" id="DejaVuSans-84"/>
       <path d="M 41.109375 46.296875 
Q 39.59375 47.171875 37.8125 47.578125 
Q 36.03125 48 33.890625 48 
Q 26.265625 48 22.1875 43.046875 
Q 18.109375 38.09375 18.109375 28.8125 
L 18.109375 0 
L 9.078125 0 
L 9.078125 54.6875 
L 18.109375 54.6875 
L 18.109375 46.1875 
Q 20.953125 51.171875 25.484375 53.578125 
Q 30.03125 56 36.53125 56 
Q 37.453125 56 38.578125 55.875 
Q 39.703125 55.765625 41.0625 55.515625 
z
" id="DejaVuSans-114"/>
       <path d="M 54.890625 33.015625 
L 54.890625 0 
L 45.90625 0 
L 45.90625 32.71875 
Q 45.90625 40.484375 42.875 44.328125 
Q 39.84375 48.1875 33.796875 48.1875 
Q 26.515625 48.1875 22.3125 43.546875 
Q 18.109375 38.921875 18.109375 30.90625 
L 18.109375 0 
L 9.078125 0 
L 9.078125 54.6875 
L 18.109375 54.6875 
L 18.109375 46.1875 
Q 21.34375 51.125 25.703125 53.5625 
Q 30.078125 56 35.796875 56 
Q 45.21875 56 50.046875 50.171875 
Q 54.890625 44.34375 54.890625 33.015625 
z
" id="DejaVuSans-110"/>
       <path d="M 45.40625 46.390625 
L 45.40625 75.984375 
L 54.390625 75.984375 
L 54.390625 0 
L 45.40625 0 
L 45.40625 8.203125 
Q 42.578125 3.328125 38.25 0.953125 
Q 33.9375 -1.421875 27.875 -1.421875 
Q 17.96875 -1.421875 11.734375 6.484375 
Q 5.515625 14.40625 5.515625 27.296875 
Q 5.515625 40.1875 11.734375 48.09375 
Q 17.96875 56 27.875 56 
Q 33.9375 56 38.25 53.625 
Q 42.578125 51.265625 45.40625 46.390625 
z
M 14.796875 27.296875 
Q 14.796875 17.390625 18.875 11.75 
Q 22.953125 6.109375 30.078125 6.109375 
Q 37.203125 6.109375 41.296875 11.75 
Q 45.40625 17.390625 45.40625 27.296875 
Q 45.40625 37.203125 41.296875 42.84375 
Q 37.203125 48.484375 30.078125 48.484375 
Q 22.953125 48.484375 18.875 42.84375 
Q 14.796875 37.203125 14.796875 27.296875 
z
" id="DejaVuSans-100"/>
      </defs>
      <use xlink:href="#DejaVuSans-84"/>
      <use x="46.333984" xlink:href="#DejaVuSans-114"/>
      <use x="85.197266" xlink:href="#DejaVuSans-101"/>
      <use x="146.720703" xlink:href="#DejaVuSans-110"/>
      <use x="210.099609" xlink:href="#DejaVuSans-100"/>
     </g>
    </g>
   </g>
   <g id="line2d_11">
    <path clip-path="url(#pceb2253804)" d="M 173.045455 492.48 
L 322.447696 492.48 
L 325.922167 492.287954 
L 329.396638 492.48 
L 336.345579 492.48 
L 339.82005 492.095909 
L 343.294521 492.48 
L 346.768991 492.48 
L 350.243462 491.80784 
L 353.717933 492.48 
L 357.192403 492.48 
L 364.141345 491.711817 
L 367.615816 491.615794 
L 371.090286 491.231703 
L 374.564757 490.655566 
L 378.039228 490.751588 
L 381.513699 489.599314 
L 388.46264 491.327726 
L 391.937111 489.695337 
L 398.886052 490.751588 
L 402.360523 490.367497 
L 405.834994 490.751588 
L 409.309465 489.983406 
L 412.783935 488.254994 
L 416.258406 490.079428 
L 419.732877 489.599314 
L 423.207347 488.062948 
L 426.681818 487.390788 
L 430.156289 485.566354 
L 433.63076 491.039657 
L 437.10523 489.695337 
L 440.579701 490.751588 
L 444.054172 488.062948 
L 451.003113 487.77488 
L 454.477584 485.950445 
L 457.952055 489.983406 
L 461.426526 487.294765 
L 464.900996 486.142491 
L 468.375467 482.205554 
L 471.849938 489.023177 
L 475.324408 487.390788 
L 478.798879 488.927154 
L 482.27335 490.751588 
L 485.747821 491.903863 
L 489.222291 489.79136 
L 492.696762 488.543063 
L 496.171233 489.983406 
L 499.645704 488.543063 
L 503.120174 490.655566 
L 506.594645 491.231703 
L 510.069116 490.367497 
L 513.543587 490.46352 
L 517.018057 490.271474 
L 520.492528 489.695337 
L 523.966999 491.327726 
L 527.441469 491.999886 
L 534.390411 491.711817 
L 537.864882 491.231703 
L 541.339352 489.311246 
L 544.813823 491.13568 
L 548.288294 489.023177 
L 551.762765 490.559543 
L 555.237235 490.367497 
L 558.711706 491.519771 
L 565.660648 489.695337 
L 569.135118 490.847611 
L 572.609589 490.367497 
L 576.08406 489.599314 
L 579.558531 490.079428 
L 586.507472 490.655566 
L 589.981943 488.639085 
L 593.456413 490.271474 
L 596.930884 490.559543 
L 600.405355 488.927154 
L 603.879826 490.46352 
L 607.354296 491.039657 
L 610.828767 490.079428 
L 617.777709 487.486811 
L 621.252179 489.1192 
L 628.201121 483.933965 
L 631.675592 485.182262 
L 635.150062 482.781691 
L 638.624533 481.053279 
L 642.099004 475.291908 
L 645.573474 480.477142 
L 649.047945 481.917485 
L 652.522416 480.285096 
L 655.996887 484.126011 
L 659.471357 480.477142 
L 662.945828 475.772022 
L 666.420299 476.828273 
L 669.89477 473.851565 
L 673.36924 476.924296 
L 676.843711 482.877714 
L 683.792653 474.907816 
L 687.267123 475.003839 
L 690.741594 477.500433 
L 694.216065 474.71577 
L 697.690535 482.781691 
L 701.165006 483.837942 
L 704.639477 481.437371 
L 708.113948 479.612936 
L 711.588418 478.076571 
L 715.062889 476.828273 
L 718.53736 478.268616 
L 722.011831 475.772022 
L 725.486301 480.093051 
L 732.435243 480.957256 
L 735.909714 476.06009 
L 739.384184 476.924296 
L 742.858655 478.556685 
L 746.333126 481.533394 
L 749.807597 484.990217 
L 756.756538 476.924296 
L 760.231009 476.540205 
L 763.705479 472.795313 
L 767.17995 473.467473 
L 770.654421 479.420891 
L 774.128892 484.222034 
L 777.603362 479.516914 
L 781.077833 473.467473 
L 784.552304 483.549874 
L 788.026775 476.828273 
L 791.501245 469.434513 
L 794.975716 480.285096 
L 798.450187 483.261805 
L 801.924658 476.828273 
L 805.399128 479.516914 
L 808.873599 480.765211 
L 812.34807 480.189074 
L 815.82254 479.324868 
L 819.297011 477.884525 
L 826.245953 482.685668 
L 829.720423 474.427702 
L 833.194894 481.533394 
L 836.669365 479.324868 
L 840.143836 479.324868 
L 843.618306 476.828273 
L 847.092777 485.374308 
L 850.567248 485.374308 
L 854.041719 484.126011 
L 857.516189 481.917485 
L 864.465131 473.275427 
L 867.939601 484.318057 
L 871.414072 482.589645 
L 874.888543 478.940776 
L 878.363014 479.612936 
L 881.837484 479.036799 
L 885.311955 477.308388 
L 888.786426 479.228845 
L 892.260897 484.222034 
L 895.735367 482.781691 
L 899.209838 479.997028 
L 902.684309 482.301577 
L 906.15878 481.149302 
L 909.63325 481.533394 
L 913.107721 478.076571 
L 916.582192 479.324868 
L 920.056663 484.990217 
L 923.531133 480.381119 
L 927.005604 481.437371 
L 930.480075 483.837942 
L 933.954545 477.212365 
L 933.954545 477.212365 
" style="fill:none;stroke:#1f77b4;stroke-linecap:square;stroke-width:1.5;"/>
   </g>
   <g id="line2d_12">
    <path clip-path="url(#pceb2253804)" d="M 173.045455 492.48 
L 402.360523 492.383977 
L 405.834994 492.287954 
L 409.309465 492.383977 
L 416.258406 492.287954 
L 419.732877 492.48 
L 423.207347 492.383977 
L 426.681818 491.999886 
L 430.156289 492.383977 
L 433.63076 491.999886 
L 437.10523 492.191931 
L 440.579701 492.191931 
L 444.054172 492.383977 
L 451.003113 492.287954 
L 454.477584 492.48 
L 457.952055 492.095909 
L 461.426526 491.903863 
L 464.900996 492.383977 
L 468.375467 492.383977 
L 471.849938 492.191931 
L 475.324408 492.48 
L 482.27335 492.191931 
L 485.747821 492.383977 
L 503.120174 492.287954 
L 510.069116 491.903863 
L 513.543587 492.287954 
L 517.018057 492.095909 
L 520.492528 492.095909 
L 523.966999 492.383977 
L 527.441469 492.287954 
L 534.390411 492.383977 
L 537.864882 492.287954 
L 544.813823 492.383977 
L 558.711706 492.383977 
L 562.186177 492.191931 
L 565.660648 492.48 
L 569.135118 492.287954 
L 572.609589 492.383977 
L 576.08406 492.191931 
L 586.507472 492.095909 
L 589.981943 492.383977 
L 603.879826 492.48 
L 607.354296 492.191931 
L 614.303238 492.287954 
L 617.777709 491.999886 
L 621.252179 491.999886 
L 624.72665 492.287954 
L 628.201121 491.80784 
L 631.675592 492.383977 
L 635.150062 492.095909 
L 638.624533 492.287954 
L 655.996887 492.383977 
L 659.471357 491.80784 
L 666.420299 492.287954 
L 669.89477 491.711817 
L 673.36924 491.615794 
L 676.843711 491.999886 
L 680.318182 491.711817 
L 683.792653 491.615794 
L 687.267123 491.903863 
L 690.741594 491.903863 
L 694.216065 491.423749 
L 697.690535 491.999886 
L 701.165006 491.615794 
L 704.639477 492.095909 
L 708.113948 491.711817 
L 715.062889 492.191931 
L 718.53736 491.615794 
L 722.011831 491.615794 
L 725.486301 491.327726 
L 728.960772 492.095909 
L 732.435243 492.095909 
L 735.909714 491.039657 
L 739.384184 491.80784 
L 742.858655 491.903863 
L 746.333126 491.80784 
L 749.807597 491.999886 
L 753.282067 491.999886 
L 756.756538 491.711817 
L 760.231009 492.191931 
L 767.17995 491.711817 
L 774.128892 492.191931 
L 781.077833 492.095909 
L 784.552304 491.711817 
L 788.026775 491.999886 
L 791.501245 491.711817 
L 794.975716 491.711817 
L 798.450187 491.519771 
L 801.924658 492.48 
L 805.399128 491.519771 
L 808.873599 492.191931 
L 815.82254 491.615794 
L 819.297011 492.48 
L 822.771482 491.903863 
L 833.194894 492.095909 
L 840.143836 491.80784 
L 843.618306 492.095909 
L 847.092777 492.191931 
L 854.041719 491.903863 
L 857.516189 491.903863 
L 860.99066 492.287954 
L 864.465131 492.095909 
L 867.939601 492.095909 
L 871.414072 492.383977 
L 881.837484 492.287954 
L 892.260897 491.999886 
L 899.209838 492.287954 
L 909.63325 492.191931 
L 913.107721 491.903863 
L 916.582192 492.383977 
L 920.056663 492.095909 
L 930.480075 491.80784 
L 933.954545 491.999886 
L 933.954545 491.999886 
" style="fill:none;stroke:#ff7f0e;stroke-linecap:square;stroke-width:1.5;"/>
   </g>
   <g id="line2d_13">
    <path clip-path="url(#pceb2253804)" d="M 173.045455 492.48 
L 391.937111 492.48 
L 395.411582 492.287954 
L 398.886052 492.48 
L 405.834994 492.48 
L 409.309465 491.615794 
L 412.783935 492.48 
L 416.258406 491.999886 
L 419.732877 492.48 
L 423.207347 492.191931 
L 426.681818 492.48 
L 433.63076 491.80784 
L 437.10523 492.48 
L 440.579701 491.999886 
L 444.054172 492.287954 
L 447.528643 492.095909 
L 451.003113 492.48 
L 454.477584 492.48 
L 457.952055 492.191931 
L 461.426526 488.44704 
L 464.900996 491.327726 
L 468.375467 490.271474 
L 471.849938 490.751588 
L 475.324408 490.079428 
L 478.798879 491.039657 
L 482.27335 490.46352 
L 485.747821 490.175451 
L 489.222291 487.870903 
L 492.696762 489.695337 
L 496.171233 489.023177 
L 499.645704 488.927154 
L 503.120174 480.381119 
L 506.594645 487.390788 
L 510.069116 489.023177 
L 513.543587 488.831131 
L 517.018057 481.821462 
L 520.492528 485.854422 
L 523.966999 488.158971 
L 527.441469 483.549874 
L 530.91594 487.966925 
L 534.390411 490.46352 
L 537.864882 488.254994 
L 541.339352 490.367497 
L 544.813823 490.559543 
L 548.288294 491.231703 
L 551.762765 490.175451 
L 555.237235 486.334537 
L 558.711706 491.999886 
L 562.186177 490.175451 
L 565.660648 491.903863 
L 569.135118 490.943634 
L 572.609589 490.943634 
L 576.08406 489.983406 
L 579.558531 491.711817 
L 583.033001 487.678857 
L 586.507472 490.943634 
L 589.981943 491.423749 
L 593.456413 491.615794 
L 596.930884 490.175451 
L 600.405355 491.423749 
L 603.879826 490.847611 
L 607.354296 491.13568 
L 610.828767 490.847611 
L 614.303238 490.943634 
L 617.777709 489.599314 
L 621.252179 490.655566 
L 624.72665 490.847611 
L 628.201121 490.847611 
L 631.675592 489.983406 
L 635.150062 491.519771 
L 638.624533 490.943634 
L 642.099004 491.423749 
L 649.047945 491.903863 
L 652.522416 491.80784 
L 655.996887 491.999886 
L 659.471357 491.903863 
L 662.945828 490.751588 
L 666.420299 491.327726 
L 669.89477 491.423749 
L 673.36924 491.999886 
L 676.843711 491.231703 
L 680.318182 489.215223 
L 683.792653 488.062948 
L 687.267123 489.311246 
L 690.741594 489.887383 
L 694.216065 488.543063 
L 697.690535 490.367497 
L 704.639477 485.374308 
L 708.113948 488.351017 
L 711.588418 485.278285 
L 715.062889 488.639085 
L 718.53736 489.599314 
L 722.011831 484.894194 
L 725.486301 481.725439 
L 728.960772 487.870903 
L 732.435243 480.669188 
L 735.909714 478.076571 
L 739.384184 480.189074 
L 742.858655 481.821462 
L 746.333126 488.639085 
L 749.807597 475.964068 
L 753.282067 480.477142 
L 756.756538 470.394742 
L 760.231009 485.7584 
L 763.705479 460.216318 
L 767.17995 480.957256 
L 770.654421 480.669188 
L 774.128892 480.669188 
L 777.603362 478.844754 
L 781.077833 483.165782 
L 784.552304 492.48 
L 788.026775 481.821462 
L 791.501245 487.582834 
L 794.975716 484.510102 
L 798.450187 486.622605 
L 801.924658 485.854422 
L 805.399128 479.901005 
L 808.873599 492.48 
L 812.34807 474.907816 
L 815.82254 482.589645 
L 819.297011 485.7584 
L 822.771482 479.324868 
L 826.245953 482.973737 
L 829.720423 466.745873 
L 833.194894 483.933965 
L 836.669365 441.203791 
L 840.143836 478.652708 
L 843.618306 474.811793 
L 847.092777 483.837942 
L 850.567248 479.420891 
L 854.041719 481.629417 
L 857.516189 467.610079 
L 860.99066 480.285096 
L 864.465131 491.039657 
L 867.939601 488.44704 
L 871.414072 451.862329 
L 874.888543 477.020319 
L 878.363014 469.530536 
L 881.837484 475.675999 
L 885.311955 457.143587 
L 888.786426 483.549874 
L 892.260897 487.582834 
L 895.735367 492.48 
L 899.209838 459.92825 
L 902.684309 481.725439 
L 906.15878 480.285096 
L 909.63325 470.874856 
L 913.107721 485.278285 
L 920.056663 488.639085 
L 923.531133 486.718628 
L 927.005604 463.96121 
L 930.480075 471.835085 
L 933.954545 472.219176 
L 933.954545 472.219176 
" style="fill:none;stroke:#2ca02c;stroke-linecap:square;stroke-width:1.5;"/>
   </g>
   <g id="line2d_14">
    <path clip-path="url(#pceb2253804)" d="M 173.045455 492.48 
L 322.447696 492.383977 
L 325.922167 492.191931 
L 336.345579 492.191931 
L 339.82005 491.80784 
L 346.768991 491.80784 
L 350.243462 491.231703 
L 357.192403 491.231703 
L 360.666874 490.847611 
L 367.615816 489.215223 
L 371.090286 487.966925 
L 378.039228 484.41408 
L 381.513699 481.629417 
L 384.988169 479.708959 
L 388.46264 478.556685 
L 391.937111 475.868045 
L 395.411582 473.755542 
L 398.886052 472.02713 
L 402.360523 470.01065 
L 409.309465 466.937919 
L 412.783935 462.904958 
L 416.258406 461.176547 
L 419.732877 458.295861 
L 423.207347 454.262901 
L 426.681818 449.653803 
L 430.156289 443.124249 
L 433.63076 442.83618 
L 437.10523 440.339586 
L 440.579701 439.379357 
L 447.528643 431.217414 
L 451.003113 426.704339 
L 454.477584 420.174784 
L 457.952055 418.35035 
L 461.426526 417.774213 
L 464.900996 412.685001 
L 468.375467 404.715104 
L 471.849938 403.274761 
L 475.324408 400.586121 
L 478.798879 398.665663 
L 482.27335 399.2418 
L 485.747821 401.066235 
L 489.222291 403.082715 
L 492.696762 401.930441 
L 496.171233 402.986692 
L 499.645704 402.794646 
L 503.120174 413.261138 
L 506.594645 417.486144 
L 513.543587 421.231036 
L 517.018057 430.065139 
L 520.492528 434.290145 
L 523.966999 437.554923 
L 527.441469 446.19698 
L 530.91594 450.133918 
L 534.390411 451.478238 
L 537.864882 454.646992 
L 541.339352 453.686764 
L 544.813823 454.358924 
L 548.288294 452.246421 
L 551.762765 452.630512 
L 555.237235 456.663472 
L 558.711706 456.279381 
L 562.186177 456.951541 
L 565.660648 454.743015 
L 569.135118 454.839038 
L 572.609589 454.358924 
L 576.08406 454.262901 
L 579.558531 452.918581 
L 583.033001 455.799266 
L 586.507472 455.895289 
L 589.981943 453.206649 
L 593.456413 451.958352 
L 596.930884 452.438466 
L 600.405355 449.941872 
L 603.879826 449.55778 
L 607.354296 449.749826 
L 610.828767 449.269712 
L 614.303238 447.349255 
L 617.777709 445.716866 
L 621.252179 444.660614 
L 624.72665 440.531631 
L 628.201121 434.290145 
L 631.675592 429.585025 
L 635.150062 421.231036 
L 638.624533 411.532727 
L 642.099004 395.592932 
L 645.573474 384.550302 
L 649.047945 374.75597 
L 652.522416 363.521296 
L 655.996887 355.743444 
L 659.471357 344.988883 
L 666.420299 316.182024 
L 669.89477 299.378023 
L 673.36924 285.16664 
L 676.843711 277.292765 
L 680.318182 267.690479 
L 683.792653 255.399552 
L 687.267123 241.668283 
L 690.741594 229.857471 
L 694.216065 217.08643 
L 697.690535 209.980738 
L 701.165006 206.811984 
L 704.639477 203.259138 
L 708.113948 195.28924 
L 711.588418 188.663663 
L 715.062889 177.140919 
L 718.53736 166.674427 
L 722.011831 158.416461 
L 725.486301 157.936347 
L 728.960772 150.926678 
L 732.435243 151.598838 
L 735.909714 151.022701 
L 742.858655 145.741443 
L 746.333126 139.307911 
L 749.807597 148.814175 
L 753.282067 149.774403 
L 756.756538 157.072141 
L 760.231009 148.142015 
L 763.705479 161.297147 
L 767.17995 154.575547 
L 770.654421 153.903387 
L 774.128892 157.744301 
L 777.603362 158.800553 
L 781.077833 149.486335 
L 784.552304 141.324392 
L 788.026775 136.811317 
L 791.501245 119.431179 
L 794.975716 115.974356 
L 798.450187 113.573784 
L 801.924658 104.547635 
L 805.399128 105.123772 
L 808.873599 93.697052 
L 812.34807 99.554446 
L 815.82254 97.153875 
L 819.297011 89.28 
L 822.771482 90.816366 
L 826.245953 91.008412 
L 829.720423 99.170355 
L 833.194894 97.153875 
L 836.669365 135.851088 
L 840.143836 137.195408 
L 843.618306 139.59598 
L 847.092777 141.420414 
L 850.567248 147.853946 
L 854.041719 150.926678 
L 857.516189 165.810221 
L 860.99066 163.313627 
L 864.465131 145.933489 
L 867.939601 142.188597 
L 871.414072 173.011936 
L 874.888543 175.028416 
L 878.363014 185.20684 
L 881.837484 188.759686 
L 885.311955 209.212555 
L 888.786426 205.275618 
L 892.260897 202.394932 
L 895.735367 192.984692 
L 899.209838 213.245516 
L 902.684309 214.013698 
L 906.15878 215.165973 
L 909.63325 226.112579 
L 913.107721 219.487002 
L 916.582192 211.997218 
L 920.056663 208.732441 
L 923.531133 202.875046 
L 927.005604 220.831322 
L 930.480075 233.50634 
L 933.954545 238.979643 
L 933.954545 238.979643 
" style="fill:none;stroke:#d62728;stroke-linecap:square;stroke-width:1.5;"/>
   </g>
   <g id="patch_3">
    <path d="M 135 512.64 
L 135 69.12 
" style="fill:none;stroke:#000000;stroke-linecap:square;stroke-linejoin:miter;stroke-width:0.8;"/>
   </g>
   <g id="patch_4">
    <path d="M 972 512.64 
L 972 69.12 
" style="fill:none;stroke:#000000;stroke-linecap:square;stroke-linejoin:miter;stroke-width:0.8;"/>
   </g>
   <g id="patch_5">
    <path d="M 135 512.64 
L 972 512.64 
" style="fill:none;stroke:#000000;stroke-linecap:square;stroke-linejoin:miter;stroke-width:0.8;"/>
   </g>
   <g id="patch_6">
    <path d="M 135 69.12 
L 972 69.12 
" style="fill:none;stroke:#000000;stroke-linecap:square;stroke-linejoin:miter;stroke-width:0.8;"/>
   </g>
   <g id="text_13">
    <!-- COVID19 Trend in Macedonia, Republic of -->
    <g transform="translate(429.338437 63.12)scale(0.12 -0.12)">
     <defs>
      <path d="M 64.40625 67.28125 
L 64.40625 56.890625 
Q 59.421875 61.53125 53.78125 63.8125 
Q 48.140625 66.109375 41.796875 66.109375 
Q 29.296875 66.109375 22.65625 58.46875 
Q 16.015625 50.828125 16.015625 36.375 
Q 16.015625 21.96875 22.65625 14.328125 
Q 29.296875 6.6875 41.796875 6.6875 
Q 48.140625 6.6875 53.78125 8.984375 
Q 59.421875 11.28125 64.40625 15.921875 
L 64.40625 5.609375 
Q 59.234375 2.09375 53.4375 0.328125 
Q 47.65625 -1.421875 41.21875 -1.421875 
Q 24.65625 -1.421875 15.125 8.703125 
Q 5.609375 18.84375 5.609375 36.375 
Q 5.609375 53.953125 15.125 64.078125 
Q 24.65625 74.21875 41.21875 74.21875 
Q 47.75 74.21875 53.53125 72.484375 
Q 59.328125 70.75 64.40625 67.28125 
z
" id="DejaVuSans-67"/>
      <path d="M 39.40625 66.21875 
Q 28.65625 66.21875 22.328125 58.203125 
Q 16.015625 50.203125 16.015625 36.375 
Q 16.015625 22.609375 22.328125 14.59375 
Q 28.65625 6.59375 39.40625 6.59375 
Q 50.140625 6.59375 56.421875 14.59375 
Q 62.703125 22.609375 62.703125 36.375 
Q 62.703125 50.203125 56.421875 58.203125 
Q 50.140625 66.21875 39.40625 66.21875 
z
M 39.40625 74.21875 
Q 54.734375 74.21875 63.90625 63.9375 
Q 73.09375 53.65625 73.09375 36.375 
Q 73.09375 19.140625 63.90625 8.859375 
Q 54.734375 -1.421875 39.40625 -1.421875 
Q 24.03125 -1.421875 14.8125 8.828125 
Q 5.609375 19.09375 5.609375 36.375 
Q 5.609375 53.65625 14.8125 63.9375 
Q 24.03125 74.21875 39.40625 74.21875 
z
" id="DejaVuSans-79"/>
      <path d="M 28.609375 0 
L 0.78125 72.90625 
L 11.078125 72.90625 
L 34.1875 11.53125 
L 57.328125 72.90625 
L 67.578125 72.90625 
L 39.796875 0 
z
" id="DejaVuSans-86"/>
      <path d="M 9.8125 72.90625 
L 19.671875 72.90625 
L 19.671875 0 
L 9.8125 0 
z
" id="DejaVuSans-73"/>
      <path id="DejaVuSans-32"/>
      <path d="M 9.421875 54.6875 
L 18.40625 54.6875 
L 18.40625 0 
L 9.421875 0 
z
M 9.421875 75.984375 
L 18.40625 75.984375 
L 18.40625 64.59375 
L 9.421875 64.59375 
z
" id="DejaVuSans-105"/>
      <path d="M 9.8125 72.90625 
L 24.515625 72.90625 
L 43.109375 23.296875 
L 61.8125 72.90625 
L 76.515625 72.90625 
L 76.515625 0 
L 66.890625 0 
L 66.890625 64.015625 
L 48.09375 14.015625 
L 38.1875 14.015625 
L 19.390625 64.015625 
L 19.390625 0 
L 9.8125 0 
z
" id="DejaVuSans-77"/>
      <path d="M 48.78125 52.59375 
L 48.78125 44.1875 
Q 44.96875 46.296875 41.140625 47.34375 
Q 37.3125 48.390625 33.40625 48.390625 
Q 24.65625 48.390625 19.8125 42.84375 
Q 14.984375 37.3125 14.984375 27.296875 
Q 14.984375 17.28125 19.8125 11.734375 
Q 24.65625 6.203125 33.40625 6.203125 
Q 37.3125 6.203125 41.140625 7.25 
Q 44.96875 8.296875 48.78125 10.40625 
L 48.78125 2.09375 
Q 45.015625 0.34375 40.984375 -0.53125 
Q 36.96875 -1.421875 32.421875 -1.421875 
Q 20.0625 -1.421875 12.78125 6.34375 
Q 5.515625 14.109375 5.515625 27.296875 
Q 5.515625 40.671875 12.859375 48.328125 
Q 20.21875 56 33.015625 56 
Q 37.15625 56 41.109375 55.140625 
Q 45.0625 54.296875 48.78125 52.59375 
z
" id="DejaVuSans-99"/>
      <path d="M 30.609375 48.390625 
Q 23.390625 48.390625 19.1875 42.75 
Q 14.984375 37.109375 14.984375 27.296875 
Q 14.984375 17.484375 19.15625 11.84375 
Q 23.34375 6.203125 30.609375 6.203125 
Q 37.796875 6.203125 41.984375 11.859375 
Q 46.1875 17.53125 46.1875 27.296875 
Q 46.1875 37.015625 41.984375 42.703125 
Q 37.796875 48.390625 30.609375 48.390625 
z
M 30.609375 56 
Q 42.328125 56 49.015625 48.375 
Q 55.71875 40.765625 55.71875 27.296875 
Q 55.71875 13.875 49.015625 6.21875 
Q 42.328125 -1.421875 30.609375 -1.421875 
Q 18.84375 -1.421875 12.171875 6.21875 
Q 5.515625 13.875 5.515625 27.296875 
Q 5.515625 40.765625 12.171875 48.375 
Q 18.84375 56 30.609375 56 
z
" id="DejaVuSans-111"/>
      <path d="M 11.71875 12.40625 
L 22.015625 12.40625 
L 22.015625 4 
L 14.015625 -11.625 
L 7.71875 -11.625 
L 11.71875 4 
z
" id="DejaVuSans-44"/>
      <path d="M 44.390625 34.1875 
Q 47.5625 33.109375 50.5625 29.59375 
Q 53.5625 26.078125 56.59375 19.921875 
L 66.609375 0 
L 56 0 
L 46.6875 18.703125 
Q 43.0625 26.03125 39.671875 28.421875 
Q 36.28125 30.8125 30.421875 30.8125 
L 19.671875 30.8125 
L 19.671875 0 
L 9.8125 0 
L 9.8125 72.90625 
L 32.078125 72.90625 
Q 44.578125 72.90625 50.734375 67.671875 
Q 56.890625 62.453125 56.890625 51.90625 
Q 56.890625 45.015625 53.6875 40.46875 
Q 50.484375 35.9375 44.390625 34.1875 
z
M 19.671875 64.796875 
L 19.671875 38.921875 
L 32.078125 38.921875 
Q 39.203125 38.921875 42.84375 42.21875 
Q 46.484375 45.515625 46.484375 51.90625 
Q 46.484375 58.296875 42.84375 61.546875 
Q 39.203125 64.796875 32.078125 64.796875 
z
" id="DejaVuSans-82"/>
      <path d="M 18.109375 8.203125 
L 18.109375 -20.796875 
L 9.078125 -20.796875 
L 9.078125 54.6875 
L 18.109375 54.6875 
L 18.109375 46.390625 
Q 20.953125 51.265625 25.265625 53.625 
Q 29.59375 56 35.59375 56 
Q 45.5625 56 51.78125 48.09375 
Q 58.015625 40.1875 58.015625 27.296875 
Q 58.015625 14.40625 51.78125 6.484375 
Q 45.5625 -1.421875 35.59375 -1.421875 
Q 29.59375 -1.421875 25.265625 0.953125 
Q 20.953125 3.328125 18.109375 8.203125 
z
M 48.6875 27.296875 
Q 48.6875 37.203125 44.609375 42.84375 
Q 40.53125 48.484375 33.40625 48.484375 
Q 26.265625 48.484375 22.1875 42.84375 
Q 18.109375 37.203125 18.109375 27.296875 
Q 18.109375 17.390625 22.1875 11.75 
Q 26.265625 6.109375 33.40625 6.109375 
Q 40.53125 6.109375 44.609375 11.75 
Q 48.6875 17.390625 48.6875 27.296875 
z
" id="DejaVuSans-112"/>
      <path d="M 8.5 21.578125 
L 8.5 54.6875 
L 17.484375 54.6875 
L 17.484375 21.921875 
Q 17.484375 14.15625 20.5 10.265625 
Q 23.53125 6.390625 29.59375 6.390625 
Q 36.859375 6.390625 41.078125 11.03125 
Q 45.3125 15.671875 45.3125 23.6875 
L 45.3125 54.6875 
L 54.296875 54.6875 
L 54.296875 0 
L 45.3125 0 
L 45.3125 8.40625 
Q 42.046875 3.421875 37.71875 1 
Q 33.40625 -1.421875 27.6875 -1.421875 
Q 18.265625 -1.421875 13.375 4.4375 
Q 8.5 10.296875 8.5 21.578125 
z
M 31.109375 56 
z
" id="DejaVuSans-117"/>
      <path d="M 48.6875 27.296875 
Q 48.6875 37.203125 44.609375 42.84375 
Q 40.53125 48.484375 33.40625 48.484375 
Q 26.265625 48.484375 22.1875 42.84375 
Q 18.109375 37.203125 18.109375 27.296875 
Q 18.109375 17.390625 22.1875 11.75 
Q 26.265625 6.109375 33.40625 6.109375 
Q 40.53125 6.109375 44.609375 11.75 
Q 48.6875 17.390625 48.6875 27.296875 
z
M 18.109375 46.390625 
Q 20.953125 51.265625 25.265625 53.625 
Q 29.59375 56 35.59375 56 
Q 45.5625 56 51.78125 48.09375 
Q 58.015625 40.1875 58.015625 27.296875 
Q 58.015625 14.40625 51.78125 6.484375 
Q 45.5625 -1.421875 35.59375 -1.421875 
Q 29.59375 -1.421875 25.265625 0.953125 
Q 20.953125 3.328125 18.109375 8.203125 
L 18.109375 0 
L 9.078125 0 
L 9.078125 75.984375 
L 18.109375 75.984375 
z
" id="DejaVuSans-98"/>
      <path d="M 9.421875 75.984375 
L 18.40625 75.984375 
L 18.40625 0 
L 9.421875 0 
z
" id="DejaVuSans-108"/>
      <path d="M 37.109375 75.984375 
L 37.109375 68.5 
L 28.515625 68.5 
Q 23.6875 68.5 21.796875 66.546875 
Q 19.921875 64.59375 19.921875 59.515625 
L 19.921875 54.6875 
L 34.71875 54.6875 
L 34.71875 47.703125 
L 19.921875 47.703125 
L 19.921875 0 
L 10.890625 0 
L 10.890625 47.703125 
L 2.296875 47.703125 
L 2.296875 54.6875 
L 10.890625 54.6875 
L 10.890625 58.5 
Q 10.890625 67.625 15.140625 71.796875 
Q 19.390625 75.984375 28.609375 75.984375 
z
" id="DejaVuSans-102"/>
     </defs>
     <use xlink:href="#DejaVuSans-67"/>
     <use x="69.824219" xlink:href="#DejaVuSans-79"/>
     <use x="146.785156" xlink:href="#DejaVuSans-86"/>
     <use x="215.193359" xlink:href="#DejaVuSans-73"/>
     <use x="244.685547" xlink:href="#DejaVuSans-68"/>
     <use x="321.6875" xlink:href="#DejaVuSans-49"/>
     <use x="385.310547" xlink:href="#DejaVuSans-57"/>
     <use x="448.933594" xlink:href="#DejaVuSans-32"/>
     <use x="480.720703" xlink:href="#DejaVuSans-84"/>
     <use x="527.054688" xlink:href="#DejaVuSans-114"/>
     <use x="565.917969" xlink:href="#DejaVuSans-101"/>
     <use x="627.441406" xlink:href="#DejaVuSans-110"/>
     <use x="690.820312" xlink:href="#DejaVuSans-100"/>
     <use x="754.296875" xlink:href="#DejaVuSans-32"/>
     <use x="786.083984" xlink:href="#DejaVuSans-105"/>
     <use x="813.867188" xlink:href="#DejaVuSans-110"/>
     <use x="877.246094" xlink:href="#DejaVuSans-32"/>
     <use x="909.033203" xlink:href="#DejaVuSans-77"/>
     <use x="995.3125" xlink:href="#DejaVuSans-97"/>
     <use x="1056.591797" xlink:href="#DejaVuSans-99"/>
     <use x="1111.572266" xlink:href="#DejaVuSans-101"/>
     <use x="1173.095703" xlink:href="#DejaVuSans-100"/>
     <use x="1236.572266" xlink:href="#DejaVuSans-111"/>
     <use x="1297.753906" xlink:href="#DejaVuSans-110"/>
     <use x="1361.132812" xlink:href="#DejaVuSans-105"/>
     <use x="1388.916016" xlink:href="#DejaVuSans-97"/>
     <use x="1450.195312" xlink:href="#DejaVuSans-44"/>
     <use x="1481.982422" xlink:href="#DejaVuSans-32"/>
     <use x="1513.769531" xlink:href="#DejaVuSans-82"/>
     <use x="1578.751953" xlink:href="#DejaVuSans-101"/>
     <use x="1640.275391" xlink:href="#DejaVuSans-112"/>
     <use x="1703.751953" xlink:href="#DejaVuSans-117"/>
     <use x="1767.130859" xlink:href="#DejaVuSans-98"/>
     <use x="1830.607422" xlink:href="#DejaVuSans-108"/>
     <use x="1858.390625" xlink:href="#DejaVuSans-105"/>
     <use x="1886.173828" xlink:href="#DejaVuSans-99"/>
     <use x="1941.154297" xlink:href="#DejaVuSans-32"/>
     <use x="1972.941406" xlink:href="#DejaVuSans-111"/>
     <use x="2034.123047" xlink:href="#DejaVuSans-102"/>
    </g>
   </g>
   <g id="legend_1">
    <g id="patch_7">
     <path d="M 880.271875 135.8325 
L 965 135.8325 
Q 967 135.8325 967 133.8325 
L 967 76.12 
Q 967 74.12 965 74.12 
L 880.271875 74.12 
Q 878.271875 74.12 878.271875 76.12 
L 878.271875 133.8325 
Q 878.271875 135.8325 880.271875 135.8325 
z
" style="fill:#ffffff;opacity:0.8;stroke:#cccccc;stroke-linejoin:miter;"/>
    </g>
    <g id="line2d_15">
     <path d="M 882.271875 82.218437 
L 902.271875 82.218437 
" style="fill:none;stroke:#1f77b4;stroke-linecap:square;stroke-width:1.5;"/>
    </g>
    <g id="line2d_16"/>
    <g id="text_14">
     <!-- Confirmed -->
     <g transform="translate(910.271875 85.718437)scale(0.1 -0.1)">
      <defs>
       <path d="M 52 44.1875 
Q 55.375 50.25 60.0625 53.125 
Q 64.75 56 71.09375 56 
Q 79.640625 56 84.28125 50.015625 
Q 88.921875 44.046875 88.921875 33.015625 
L 88.921875 0 
L 79.890625 0 
L 79.890625 32.71875 
Q 79.890625 40.578125 77.09375 44.375 
Q 74.3125 48.1875 68.609375 48.1875 
Q 61.625 48.1875 57.5625 43.546875 
Q 53.515625 38.921875 53.515625 30.90625 
L 53.515625 0 
L 44.484375 0 
L 44.484375 32.71875 
Q 44.484375 40.625 41.703125 44.40625 
Q 38.921875 48.1875 33.109375 48.1875 
Q 26.21875 48.1875 22.15625 43.53125 
Q 18.109375 38.875 18.109375 30.90625 
L 18.109375 0 
L 9.078125 0 
L 9.078125 54.6875 
L 18.109375 54.6875 
L 18.109375 46.1875 
Q 21.1875 51.21875 25.484375 53.609375 
Q 29.78125 56 35.6875 56 
Q 41.65625 56 45.828125 52.96875 
Q 50 49.953125 52 44.1875 
z
" id="DejaVuSans-109"/>
      </defs>
      <use xlink:href="#DejaVuSans-67"/>
      <use x="69.824219" xlink:href="#DejaVuSans-111"/>
      <use x="131.005859" xlink:href="#DejaVuSans-110"/>
      <use x="194.384766" xlink:href="#DejaVuSans-102"/>
      <use x="229.589844" xlink:href="#DejaVuSans-105"/>
      <use x="257.373047" xlink:href="#DejaVuSans-114"/>
      <use x="296.736328" xlink:href="#DejaVuSans-109"/>
      <use x="394.148438" xlink:href="#DejaVuSans-101"/>
      <use x="455.671875" xlink:href="#DejaVuSans-100"/>
     </g>
    </g>
    <g id="line2d_17">
     <path d="M 882.271875 96.896563 
L 902.271875 96.896563 
" style="fill:none;stroke:#ff7f0e;stroke-linecap:square;stroke-width:1.5;"/>
    </g>
    <g id="line2d_18"/>
    <g id="text_15">
     <!-- Deaths -->
     <g transform="translate(910.271875 100.396563)scale(0.1 -0.1)">
      <defs>
       <path d="M 54.890625 33.015625 
L 54.890625 0 
L 45.90625 0 
L 45.90625 32.71875 
Q 45.90625 40.484375 42.875 44.328125 
Q 39.84375 48.1875 33.796875 48.1875 
Q 26.515625 48.1875 22.3125 43.546875 
Q 18.109375 38.921875 18.109375 30.90625 
L 18.109375 0 
L 9.078125 0 
L 9.078125 75.984375 
L 18.109375 75.984375 
L 18.109375 46.1875 
Q 21.34375 51.125 25.703125 53.5625 
Q 30.078125 56 35.796875 56 
Q 45.21875 56 50.046875 50.171875 
Q 54.890625 44.34375 54.890625 33.015625 
z
" id="DejaVuSans-104"/>
       <path d="M 44.28125 53.078125 
L 44.28125 44.578125 
Q 40.484375 46.53125 36.375 47.5 
Q 32.28125 48.484375 27.875 48.484375 
Q 21.1875 48.484375 17.84375 46.4375 
Q 14.5 44.390625 14.5 40.28125 
Q 14.5 37.15625 16.890625 35.375 
Q 19.28125 33.59375 26.515625 31.984375 
L 29.59375 31.296875 
Q 39.15625 29.25 43.1875 25.515625 
Q 47.21875 21.78125 47.21875 15.09375 
Q 47.21875 7.46875 41.1875 3.015625 
Q 35.15625 -1.421875 24.609375 -1.421875 
Q 20.21875 -1.421875 15.453125 -0.5625 
Q 10.6875 0.296875 5.421875 2 
L 5.421875 11.28125 
Q 10.40625 8.6875 15.234375 7.390625 
Q 20.0625 6.109375 24.8125 6.109375 
Q 31.15625 6.109375 34.5625 8.28125 
Q 37.984375 10.453125 37.984375 14.40625 
Q 37.984375 18.0625 35.515625 20.015625 
Q 33.0625 21.96875 24.703125 23.78125 
L 21.578125 24.515625 
Q 13.234375 26.265625 9.515625 29.90625 
Q 5.8125 33.546875 5.8125 39.890625 
Q 5.8125 47.609375 11.28125 51.796875 
Q 16.75 56 26.8125 56 
Q 31.78125 56 36.171875 55.265625 
Q 40.578125 54.546875 44.28125 53.078125 
z
" id="DejaVuSans-115"/>
      </defs>
      <use xlink:href="#DejaVuSans-68"/>
      <use x="77.001953" xlink:href="#DejaVuSans-101"/>
      <use x="138.525391" xlink:href="#DejaVuSans-97"/>
      <use x="199.804688" xlink:href="#DejaVuSans-116"/>
      <use x="239.013672" xlink:href="#DejaVuSans-104"/>
      <use x="302.392578" xlink:href="#DejaVuSans-115"/>
     </g>
    </g>
    <g id="line2d_19">
     <path d="M 882.271875 111.574687 
L 902.271875 111.574687 
" style="fill:none;stroke:#2ca02c;stroke-linecap:square;stroke-width:1.5;"/>
    </g>
    <g id="line2d_20"/>
    <g id="text_16">
     <!-- Recovered -->
     <g transform="translate(910.271875 115.074687)scale(0.1 -0.1)">
      <defs>
       <path d="M 2.984375 54.6875 
L 12.5 54.6875 
L 29.59375 8.796875 
L 46.6875 54.6875 
L 56.203125 54.6875 
L 35.6875 0 
L 23.484375 0 
z
" id="DejaVuSans-118"/>
      </defs>
      <use xlink:href="#DejaVuSans-82"/>
      <use x="64.982422" xlink:href="#DejaVuSans-101"/>
      <use x="126.505859" xlink:href="#DejaVuSans-99"/>
      <use x="181.486328" xlink:href="#DejaVuSans-111"/>
      <use x="242.667969" xlink:href="#DejaVuSans-118"/>
      <use x="301.847656" xlink:href="#DejaVuSans-101"/>
      <use x="363.371094" xlink:href="#DejaVuSans-114"/>
      <use x="402.234375" xlink:href="#DejaVuSans-101"/>
      <use x="463.757812" xlink:href="#DejaVuSans-100"/>
     </g>
    </g>
    <g id="line2d_21">
     <path d="M 882.271875 126.252813 
L 902.271875 126.252813 
" style="fill:none;stroke:#d62728;stroke-linecap:square;stroke-width:1.5;"/>
    </g>
    <g id="line2d_22"/>
    <g id="text_17">
     <!-- Active -->
     <g transform="translate(910.271875 129.752813)scale(0.1 -0.1)">
      <defs>
       <path d="M 34.1875 63.1875 
L 20.796875 26.90625 
L 47.609375 26.90625 
z
M 28.609375 72.90625 
L 39.796875 72.90625 
L 67.578125 0 
L 57.328125 0 
L 50.6875 18.703125 
L 17.828125 18.703125 
L 11.1875 0 
L 0.78125 0 
z
" id="DejaVuSans-65"/>
      </defs>
      <use xlink:href="#DejaVuSans-65"/>
      <use x="66.658203" xlink:href="#DejaVuSans-99"/>
      <use x="121.638672" xlink:href="#DejaVuSans-116"/>
      <use x="160.847656" xlink:href="#DejaVuSans-105"/>
      <use x="188.630859" xlink:href="#DejaVuSans-118"/>
      <use x="247.810547" xlink:href="#DejaVuSans-101"/>
     </g>
    </g>
   </g>
  </g>
 </g>
 <defs>
  <clipPath id="pceb2253804">
   <rect height="443.52" width="837" x="135" y="69.12"/>
  </clipPath>
 </defs>
</svg>
