<?xml version="1.0" encoding="utf-8" standalone="no"?>
<!DOCTYPE svg PUBLIC "-//W3C//DTD SVG 1.1//EN"
  "http://www.w3.org/Graphics/SVG/1.1/DTD/svg11.dtd">
<!-- Created with matplotlib (https://matplotlib.org/) -->
<svg height="576pt" version="1.1" viewBox="0 0 1080 576" width="1080pt" xmlns="http://www.w3.org/2000/svg" xmlns:xlink="http://www.w3.org/1999/xlink">
 <metadata>
  <rdf:RDF xmlns:cc="http://creativecommons.org/ns#" xmlns:dc="http://purl.org/dc/elements/1.1/" xmlns:rdf="http://www.w3.org/1999/02/22-rdf-syntax-ns#">
   <cc:Work>
    <dc:type rdf:resource="http://purl.org/dc/dcmitype/StillImage"/>
    <dc:date>2020-08-29T22:21:08.998031</dc:date>
    <dc:format>image/svg+xml</dc:format>
    <dc:creator>
     <cc:Agent>
      <dc:title>Matplotlib v3.3.1, https://matplotlib.org/</dc:title>
     </cc:Agent>
    </dc:creator>
   </cc:Work>
  </rdf:RDF>
 </metadata>
 <defs>
  <style type="text/css">*{stroke-linecap:butt;stroke-linejoin:round;}</style>
 </defs>
 <g id="figure_1">
  <g id="patch_1">
   <path d="M 0 576 
L 1080 576 
L 1080 0 
L 0 0 
z
" style="fill:#ffffff;"/>
  </g>
  <g id="axes_1">
   <g id="patch_2">
    <path d="M 135 512.64 
L 972 512.64 
L 972 69.12 
L 135 69.12 
z
" style="fill:#ffffff;"/>
   </g>
   <g id="matplotlib.axis_1">
    <g id="xtick_1">
     <g id="line2d_1">
      <defs>
       <path d="M 0 0 
L 0 3.5 
" id="me226e8ea10" style="stroke:#000000;stroke-width:0.8;"/>
      </defs>
      <g>
       <use style="stroke:#000000;stroke-width:0.8;" x="173.045455" xlink:href="#me226e8ea10" y="512.64"/>
      </g>
     </g>
     <g id="text_1">
      <!-- 2020-01-22 -->
      <g transform="translate(143.987642 527.238438)scale(0.1 -0.1)">
       <defs>
        <path d="M 19.1875 8.296875 
L 53.609375 8.296875 
L 53.609375 0 
L 7.328125 0 
L 7.328125 8.296875 
Q 12.9375 14.109375 22.625 23.890625 
Q 32.328125 33.6875 34.8125 36.53125 
Q 39.546875 41.84375 41.421875 45.53125 
Q 43.3125 49.21875 43.3125 52.78125 
Q 43.3125 58.59375 39.234375 62.25 
Q 35.15625 65.921875 28.609375 65.921875 
Q 23.96875 65.921875 18.8125 64.3125 
Q 13.671875 62.703125 7.8125 59.421875 
L 7.8125 69.390625 
Q 13.765625 71.78125 18.9375 73 
Q 24.125 74.21875 28.421875 74.21875 
Q 39.75 74.21875 46.484375 68.546875 
Q 53.21875 62.890625 53.21875 53.421875 
Q 53.21875 48.921875 51.53125 44.890625 
Q 49.859375 40.875 45.40625 35.40625 
Q 44.1875 33.984375 37.640625 27.21875 
Q 31.109375 20.453125 19.1875 8.296875 
z
" id="DejaVuSans-50"/>
        <path d="M 31.78125 66.40625 
Q 24.171875 66.40625 20.328125 58.90625 
Q 16.5 51.421875 16.5 36.375 
Q 16.5 21.390625 20.328125 13.890625 
Q 24.171875 6.390625 31.78125 6.390625 
Q 39.453125 6.390625 43.28125 13.890625 
Q 47.125 21.390625 47.125 36.375 
Q 47.125 51.421875 43.28125 58.90625 
Q 39.453125 66.40625 31.78125 66.40625 
z
M 31.78125 74.21875 
Q 44.046875 74.21875 50.515625 64.515625 
Q 56.984375 54.828125 56.984375 36.375 
Q 56.984375 17.96875 50.515625 8.265625 
Q 44.046875 -1.421875 31.78125 -1.421875 
Q 19.53125 -1.421875 13.0625 8.265625 
Q 6.59375 17.96875 6.59375 36.375 
Q 6.59375 54.828125 13.0625 64.515625 
Q 19.53125 74.21875 31.78125 74.21875 
z
" id="DejaVuSans-48"/>
        <path d="M 4.890625 31.390625 
L 31.203125 31.390625 
L 31.203125 23.390625 
L 4.890625 23.390625 
z
" id="DejaVuSans-45"/>
        <path d="M 12.40625 8.296875 
L 28.515625 8.296875 
L 28.515625 63.921875 
L 10.984375 60.40625 
L 10.984375 69.390625 
L 28.421875 72.90625 
L 38.28125 72.90625 
L 38.28125 8.296875 
L 54.390625 8.296875 
L 54.390625 0 
L 12.40625 0 
z
" id="DejaVuSans-49"/>
       </defs>
       <use xlink:href="#DejaVuSans-50"/>
       <use x="63.623047" xlink:href="#DejaVuSans-48"/>
       <use x="127.246094" xlink:href="#DejaVuSans-50"/>
       <use x="190.869141" xlink:href="#DejaVuSans-48"/>
       <use x="254.492188" xlink:href="#DejaVuSans-45"/>
       <use x="290.576172" xlink:href="#DejaVuSans-48"/>
       <use x="354.199219" xlink:href="#DejaVuSans-49"/>
       <use x="417.822266" xlink:href="#DejaVuSans-45"/>
       <use x="453.90625" xlink:href="#DejaVuSans-50"/>
       <use x="517.529297" xlink:href="#DejaVuSans-50"/>
      </g>
     </g>
    </g>
    <g id="xtick_2">
     <g id="line2d_2">
      <g>
       <use style="stroke:#000000;stroke-width:0.8;" x="346.768991" xlink:href="#me226e8ea10" y="512.64"/>
      </g>
     </g>
     <g id="text_2">
      <!-- 2020-03-12 -->
      <g transform="translate(317.711179 527.238438)scale(0.1 -0.1)">
       <defs>
        <path d="M 40.578125 39.3125 
Q 47.65625 37.796875 51.625 33 
Q 55.609375 28.21875 55.609375 21.1875 
Q 55.609375 10.40625 48.1875 4.484375 
Q 40.765625 -1.421875 27.09375 -1.421875 
Q 22.515625 -1.421875 17.65625 -0.515625 
Q 12.796875 0.390625 7.625 2.203125 
L 7.625 11.71875 
Q 11.71875 9.328125 16.59375 8.109375 
Q 21.484375 6.890625 26.8125 6.890625 
Q 36.078125 6.890625 40.9375 10.546875 
Q 45.796875 14.203125 45.796875 21.1875 
Q 45.796875 27.640625 41.28125 31.265625 
Q 36.765625 34.90625 28.71875 34.90625 
L 20.21875 34.90625 
L 20.21875 43.015625 
L 29.109375 43.015625 
Q 36.375 43.015625 40.234375 45.921875 
Q 44.09375 48.828125 44.09375 54.296875 
Q 44.09375 59.90625 40.109375 62.90625 
Q 36.140625 65.921875 28.71875 65.921875 
Q 24.65625 65.921875 20.015625 65.03125 
Q 15.375 64.15625 9.8125 62.3125 
L 9.8125 71.09375 
Q 15.4375 72.65625 20.34375 73.4375 
Q 25.25 74.21875 29.59375 74.21875 
Q 40.828125 74.21875 47.359375 69.109375 
Q 53.90625 64.015625 53.90625 55.328125 
Q 53.90625 49.265625 50.4375 45.09375 
Q 46.96875 40.921875 40.578125 39.3125 
z
" id="DejaVuSans-51"/>
       </defs>
       <use xlink:href="#DejaVuSans-50"/>
       <use x="63.623047" xlink:href="#DejaVuSans-48"/>
       <use x="127.246094" xlink:href="#DejaVuSans-50"/>
       <use x="190.869141" xlink:href="#DejaVuSans-48"/>
       <use x="254.492188" xlink:href="#DejaVuSans-45"/>
       <use x="290.576172" xlink:href="#DejaVuSans-48"/>
       <use x="354.199219" xlink:href="#DejaVuSans-51"/>
       <use x="417.822266" xlink:href="#DejaVuSans-45"/>
       <use x="453.90625" xlink:href="#DejaVuSans-49"/>
       <use x="517.529297" xlink:href="#DejaVuSans-50"/>
      </g>
     </g>
    </g>
    <g id="xtick_3">
     <g id="line2d_3">
      <g>
       <use style="stroke:#000000;stroke-width:0.8;" x="520.492528" xlink:href="#me226e8ea10" y="512.64"/>
      </g>
     </g>
     <g id="text_3">
      <!-- 2020-05-01 -->
      <g transform="translate(491.434716 527.238438)scale(0.1 -0.1)">
       <defs>
        <path d="M 10.796875 72.90625 
L 49.515625 72.90625 
L 49.515625 64.59375 
L 19.828125 64.59375 
L 19.828125 46.734375 
Q 21.96875 47.46875 24.109375 47.828125 
Q 26.265625 48.1875 28.421875 48.1875 
Q 40.625 48.1875 47.75 41.5 
Q 54.890625 34.8125 54.890625 23.390625 
Q 54.890625 11.625 47.5625 5.09375 
Q 40.234375 -1.421875 26.90625 -1.421875 
Q 22.3125 -1.421875 17.546875 -0.640625 
Q 12.796875 0.140625 7.71875 1.703125 
L 7.71875 11.625 
Q 12.109375 9.234375 16.796875 8.0625 
Q 21.484375 6.890625 26.703125 6.890625 
Q 35.15625 6.890625 40.078125 11.328125 
Q 45.015625 15.765625 45.015625 23.390625 
Q 45.015625 31 40.078125 35.4375 
Q 35.15625 39.890625 26.703125 39.890625 
Q 22.75 39.890625 18.8125 39.015625 
Q 14.890625 38.140625 10.796875 36.28125 
z
" id="DejaVuSans-53"/>
       </defs>
       <use xlink:href="#DejaVuSans-50"/>
       <use x="63.623047" xlink:href="#DejaVuSans-48"/>
       <use x="127.246094" xlink:href="#DejaVuSans-50"/>
       <use x="190.869141" xlink:href="#DejaVuSans-48"/>
       <use x="254.492188" xlink:href="#DejaVuSans-45"/>
       <use x="290.576172" xlink:href="#DejaVuSans-48"/>
       <use x="354.199219" xlink:href="#DejaVuSans-53"/>
       <use x="417.822266" xlink:href="#DejaVuSans-45"/>
       <use x="453.90625" xlink:href="#DejaVuSans-48"/>
       <use x="517.529297" xlink:href="#DejaVuSans-49"/>
      </g>
     </g>
    </g>
    <g id="xtick_4">
     <g id="line2d_4">
      <g>
       <use style="stroke:#000000;stroke-width:0.8;" x="694.216065" xlink:href="#me226e8ea10" y="512.64"/>
      </g>
     </g>
     <g id="text_4">
      <!-- 2020-06-20 -->
      <g transform="translate(665.158252 527.238438)scale(0.1 -0.1)">
       <defs>
        <path d="M 33.015625 40.375 
Q 26.375 40.375 22.484375 35.828125 
Q 18.609375 31.296875 18.609375 23.390625 
Q 18.609375 15.53125 22.484375 10.953125 
Q 26.375 6.390625 33.015625 6.390625 
Q 39.65625 6.390625 43.53125 10.953125 
Q 47.40625 15.53125 47.40625 23.390625 
Q 47.40625 31.296875 43.53125 35.828125 
Q 39.65625 40.375 33.015625 40.375 
z
M 52.59375 71.296875 
L 52.59375 62.3125 
Q 48.875 64.0625 45.09375 64.984375 
Q 41.3125 65.921875 37.59375 65.921875 
Q 27.828125 65.921875 22.671875 59.328125 
Q 17.53125 52.734375 16.796875 39.40625 
Q 19.671875 43.65625 24.015625 45.921875 
Q 28.375 48.1875 33.59375 48.1875 
Q 44.578125 48.1875 50.953125 41.515625 
Q 57.328125 34.859375 57.328125 23.390625 
Q 57.328125 12.15625 50.6875 5.359375 
Q 44.046875 -1.421875 33.015625 -1.421875 
Q 20.359375 -1.421875 13.671875 8.265625 
Q 6.984375 17.96875 6.984375 36.375 
Q 6.984375 53.65625 15.1875 63.9375 
Q 23.390625 74.21875 37.203125 74.21875 
Q 40.921875 74.21875 44.703125 73.484375 
Q 48.484375 72.75 52.59375 71.296875 
z
" id="DejaVuSans-54"/>
       </defs>
       <use xlink:href="#DejaVuSans-50"/>
       <use x="63.623047" xlink:href="#DejaVuSans-48"/>
       <use x="127.246094" xlink:href="#DejaVuSans-50"/>
       <use x="190.869141" xlink:href="#DejaVuSans-48"/>
       <use x="254.492188" xlink:href="#DejaVuSans-45"/>
       <use x="290.576172" xlink:href="#DejaVuSans-48"/>
       <use x="354.199219" xlink:href="#DejaVuSans-54"/>
       <use x="417.822266" xlink:href="#DejaVuSans-45"/>
       <use x="453.90625" xlink:href="#DejaVuSans-50"/>
       <use x="517.529297" xlink:href="#DejaVuSans-48"/>
      </g>
     </g>
    </g>
    <g id="xtick_5">
     <g id="line2d_5">
      <g>
       <use style="stroke:#000000;stroke-width:0.8;" x="867.939601" xlink:href="#me226e8ea10" y="512.64"/>
      </g>
     </g>
     <g id="text_5">
      <!-- 2020-08-09 -->
      <g transform="translate(838.881789 527.238438)scale(0.1 -0.1)">
       <defs>
        <path d="M 31.78125 34.625 
Q 24.75 34.625 20.71875 30.859375 
Q 16.703125 27.09375 16.703125 20.515625 
Q 16.703125 13.921875 20.71875 10.15625 
Q 24.75 6.390625 31.78125 6.390625 
Q 38.8125 6.390625 42.859375 10.171875 
Q 46.921875 13.96875 46.921875 20.515625 
Q 46.921875 27.09375 42.890625 30.859375 
Q 38.875 34.625 31.78125 34.625 
z
M 21.921875 38.8125 
Q 15.578125 40.375 12.03125 44.71875 
Q 8.5 49.078125 8.5 55.328125 
Q 8.5 64.0625 14.71875 69.140625 
Q 20.953125 74.21875 31.78125 74.21875 
Q 42.671875 74.21875 48.875 69.140625 
Q 55.078125 64.0625 55.078125 55.328125 
Q 55.078125 49.078125 51.53125 44.71875 
Q 48 40.375 41.703125 38.8125 
Q 48.828125 37.15625 52.796875 32.3125 
Q 56.78125 27.484375 56.78125 20.515625 
Q 56.78125 9.90625 50.3125 4.234375 
Q 43.84375 -1.421875 31.78125 -1.421875 
Q 19.734375 -1.421875 13.25 4.234375 
Q 6.78125 9.90625 6.78125 20.515625 
Q 6.78125 27.484375 10.78125 32.3125 
Q 14.796875 37.15625 21.921875 38.8125 
z
M 18.3125 54.390625 
Q 18.3125 48.734375 21.84375 45.5625 
Q 25.390625 42.390625 31.78125 42.390625 
Q 38.140625 42.390625 41.71875 45.5625 
Q 45.3125 48.734375 45.3125 54.390625 
Q 45.3125 60.0625 41.71875 63.234375 
Q 38.140625 66.40625 31.78125 66.40625 
Q 25.390625 66.40625 21.84375 63.234375 
Q 18.3125 60.0625 18.3125 54.390625 
z
" id="DejaVuSans-56"/>
        <path d="M 10.984375 1.515625 
L 10.984375 10.5 
Q 14.703125 8.734375 18.5 7.8125 
Q 22.3125 6.890625 25.984375 6.890625 
Q 35.75 6.890625 40.890625 13.453125 
Q 46.046875 20.015625 46.78125 33.40625 
Q 43.953125 29.203125 39.59375 26.953125 
Q 35.25 24.703125 29.984375 24.703125 
Q 19.046875 24.703125 12.671875 31.3125 
Q 6.296875 37.9375 6.296875 49.421875 
Q 6.296875 60.640625 12.9375 67.421875 
Q 19.578125 74.21875 30.609375 74.21875 
Q 43.265625 74.21875 49.921875 64.515625 
Q 56.59375 54.828125 56.59375 36.375 
Q 56.59375 19.140625 48.40625 8.859375 
Q 40.234375 -1.421875 26.421875 -1.421875 
Q 22.703125 -1.421875 18.890625 -0.6875 
Q 15.09375 0.046875 10.984375 1.515625 
z
M 30.609375 32.421875 
Q 37.25 32.421875 41.125 36.953125 
Q 45.015625 41.5 45.015625 49.421875 
Q 45.015625 57.28125 41.125 61.84375 
Q 37.25 66.40625 30.609375 66.40625 
Q 23.96875 66.40625 20.09375 61.84375 
Q 16.21875 57.28125 16.21875 49.421875 
Q 16.21875 41.5 20.09375 36.953125 
Q 23.96875 32.421875 30.609375 32.421875 
z
" id="DejaVuSans-57"/>
       </defs>
       <use xlink:href="#DejaVuSans-50"/>
       <use x="63.623047" xlink:href="#DejaVuSans-48"/>
       <use x="127.246094" xlink:href="#DejaVuSans-50"/>
       <use x="190.869141" xlink:href="#DejaVuSans-48"/>
       <use x="254.492188" xlink:href="#DejaVuSans-45"/>
       <use x="290.576172" xlink:href="#DejaVuSans-48"/>
       <use x="354.199219" xlink:href="#DejaVuSans-56"/>
       <use x="417.822266" xlink:href="#DejaVuSans-45"/>
       <use x="453.90625" xlink:href="#DejaVuSans-48"/>
       <use x="517.529297" xlink:href="#DejaVuSans-57"/>
      </g>
     </g>
    </g>
    <g id="text_6">
     <!-- Date -->
     <g transform="translate(541.549219 540.916563)scale(0.1 -0.1)">
      <defs>
       <path d="M 19.671875 64.796875 
L 19.671875 8.109375 
L 31.59375 8.109375 
Q 46.6875 8.109375 53.6875 14.9375 
Q 60.6875 21.78125 60.6875 36.53125 
Q 60.6875 51.171875 53.6875 57.984375 
Q 46.6875 64.796875 31.59375 64.796875 
z
M 9.8125 72.90625 
L 30.078125 72.90625 
Q 51.265625 72.90625 61.171875 64.09375 
Q 71.09375 55.28125 71.09375 36.53125 
Q 71.09375 17.671875 61.125 8.828125 
Q 51.171875 0 30.078125 0 
L 9.8125 0 
z
" id="DejaVuSans-68"/>
       <path d="M 34.28125 27.484375 
Q 23.390625 27.484375 19.1875 25 
Q 14.984375 22.515625 14.984375 16.5 
Q 14.984375 11.71875 18.140625 8.90625 
Q 21.296875 6.109375 26.703125 6.109375 
Q 34.1875 6.109375 38.703125 11.40625 
Q 43.21875 16.703125 43.21875 25.484375 
L 43.21875 27.484375 
z
M 52.203125 31.203125 
L 52.203125 0 
L 43.21875 0 
L 43.21875 8.296875 
Q 40.140625 3.328125 35.546875 0.953125 
Q 30.953125 -1.421875 24.3125 -1.421875 
Q 15.921875 -1.421875 10.953125 3.296875 
Q 6 8.015625 6 15.921875 
Q 6 25.140625 12.171875 29.828125 
Q 18.359375 34.515625 30.609375 34.515625 
L 43.21875 34.515625 
L 43.21875 35.40625 
Q 43.21875 41.609375 39.140625 45 
Q 35.0625 48.390625 27.6875 48.390625 
Q 23 48.390625 18.546875 47.265625 
Q 14.109375 46.140625 10.015625 43.890625 
L 10.015625 52.203125 
Q 14.9375 54.109375 19.578125 55.046875 
Q 24.21875 56 28.609375 56 
Q 40.484375 56 46.34375 49.84375 
Q 52.203125 43.703125 52.203125 31.203125 
z
" id="DejaVuSans-97"/>
       <path d="M 18.3125 70.21875 
L 18.3125 54.6875 
L 36.8125 54.6875 
L 36.8125 47.703125 
L 18.3125 47.703125 
L 18.3125 18.015625 
Q 18.3125 11.328125 20.140625 9.421875 
Q 21.96875 7.515625 27.59375 7.515625 
L 36.8125 7.515625 
L 36.8125 0 
L 27.59375 0 
Q 17.1875 0 13.234375 3.875 
Q 9.28125 7.765625 9.28125 18.015625 
L 9.28125 47.703125 
L 2.6875 47.703125 
L 2.6875 54.6875 
L 9.28125 54.6875 
L 9.28125 70.21875 
z
" id="DejaVuSans-116"/>
       <path d="M 56.203125 29.59375 
L 56.203125 25.203125 
L 14.890625 25.203125 
Q 15.484375 15.921875 20.484375 11.0625 
Q 25.484375 6.203125 34.421875 6.203125 
Q 39.59375 6.203125 44.453125 7.46875 
Q 49.3125 8.734375 54.109375 11.28125 
L 54.109375 2.78125 
Q 49.265625 0.734375 44.1875 -0.34375 
Q 39.109375 -1.421875 33.890625 -1.421875 
Q 20.796875 -1.421875 13.15625 6.1875 
Q 5.515625 13.8125 5.515625 26.8125 
Q 5.515625 40.234375 12.765625 48.109375 
Q 20.015625 56 32.328125 56 
Q 43.359375 56 49.78125 48.890625 
Q 56.203125 41.796875 56.203125 29.59375 
z
M 47.21875 32.234375 
Q 47.125 39.59375 43.09375 43.984375 
Q 39.0625 48.390625 32.421875 48.390625 
Q 24.90625 48.390625 20.390625 44.140625 
Q 15.875 39.890625 15.1875 32.171875 
z
" id="DejaVuSans-101"/>
      </defs>
      <use xlink:href="#DejaVuSans-68"/>
      <use x="77.001953" xlink:href="#DejaVuSans-97"/>
      <use x="138.28125" xlink:href="#DejaVuSans-116"/>
      <use x="177.490234" xlink:href="#DejaVuSans-101"/>
     </g>
    </g>
   </g>
   <g id="matplotlib.axis_2">
    <g id="ytick_1">
     <g id="line2d_6">
      <defs>
       <path d="M 0 0 
L -3.5 0 
" id="mee363bb514" style="stroke:#000000;stroke-width:0.8;"/>
      </defs>
      <g>
       <use style="stroke:#000000;stroke-width:0.8;" x="135" xlink:href="#mee363bb514" y="492.48"/>
      </g>
     </g>
     <g id="text_7">
      <!-- 0 -->
      <g transform="translate(121.6375 496.279219)scale(0.1 -0.1)">
       <use xlink:href="#DejaVuSans-48"/>
      </g>
     </g>
    </g>
    <g id="ytick_2">
     <g id="line2d_7">
      <g>
       <use style="stroke:#000000;stroke-width:0.8;" x="135" xlink:href="#mee363bb514" y="414.822065"/>
      </g>
     </g>
     <g id="text_8">
      <!-- 500 -->
      <g transform="translate(108.9125 418.621283)scale(0.1 -0.1)">
       <use xlink:href="#DejaVuSans-53"/>
       <use x="63.623047" xlink:href="#DejaVuSans-48"/>
       <use x="127.246094" xlink:href="#DejaVuSans-48"/>
      </g>
     </g>
    </g>
    <g id="ytick_3">
     <g id="line2d_8">
      <g>
       <use style="stroke:#000000;stroke-width:0.8;" x="135" xlink:href="#mee363bb514" y="337.164129"/>
      </g>
     </g>
     <g id="text_9">
      <!-- 1000 -->
      <g transform="translate(102.55 340.963348)scale(0.1 -0.1)">
       <use xlink:href="#DejaVuSans-49"/>
       <use x="63.623047" xlink:href="#DejaVuSans-48"/>
       <use x="127.246094" xlink:href="#DejaVuSans-48"/>
       <use x="190.869141" xlink:href="#DejaVuSans-48"/>
      </g>
     </g>
    </g>
    <g id="ytick_4">
     <g id="line2d_9">
      <g>
       <use style="stroke:#000000;stroke-width:0.8;" x="135" xlink:href="#mee363bb514" y="259.506194"/>
      </g>
     </g>
     <g id="text_10">
      <!-- 1500 -->
      <g transform="translate(102.55 263.305413)scale(0.1 -0.1)">
       <use xlink:href="#DejaVuSans-49"/>
       <use x="63.623047" xlink:href="#DejaVuSans-53"/>
       <use x="127.246094" xlink:href="#DejaVuSans-48"/>
       <use x="190.869141" xlink:href="#DejaVuSans-48"/>
      </g>
     </g>
    </g>
    <g id="ytick_5">
     <g id="line2d_10">
      <g>
       <use style="stroke:#000000;stroke-width:0.8;" x="135" xlink:href="#mee363bb514" y="181.848259"/>
      </g>
     </g>
     <g id="text_11">
      <!-- 2000 -->
      <g transform="translate(102.55 185.647478)scale(0.1 -0.1)">
       <use xlink:href="#DejaVuSans-50"/>
       <use x="63.623047" xlink:href="#DejaVuSans-48"/>
       <use x="127.246094" xlink:href="#DejaVuSans-48"/>
       <use x="190.869141" xlink:href="#DejaVuSans-48"/>
      </g>
     </g>
    </g>
    <g id="ytick_6">
     <g id="line2d_11">
      <g>
       <use style="stroke:#000000;stroke-width:0.8;" x="135" xlink:href="#mee363bb514" y="104.190324"/>
      </g>
     </g>
     <g id="text_12">
      <!-- 2500 -->
      <g transform="translate(102.55 107.989542)scale(0.1 -0.1)">
       <use xlink:href="#DejaVuSans-50"/>
       <use x="63.623047" xlink:href="#DejaVuSans-53"/>
       <use x="127.246094" xlink:href="#DejaVuSans-48"/>
       <use x="190.869141" xlink:href="#DejaVuSans-48"/>
      </g>
     </g>
    </g>
    <g id="text_13">
     <!-- Trend -->
     <g transform="translate(96.470312 304.558906)rotate(-90)scale(0.1 -0.1)">
      <defs>
       <path d="M -0.296875 72.90625 
L 61.375 72.90625 
L 61.375 64.59375 
L 35.5 64.59375 
L 35.5 0 
L 25.59375 0 
L 25.59375 64.59375 
L -0.296875 64.59375 
z
" id="DejaVuSans-84"/>
       <path d="M 41.109375 46.296875 
Q 39.59375 47.171875 37.8125 47.578125 
Q 36.03125 48 33.890625 48 
Q 26.265625 48 22.1875 43.046875 
Q 18.109375 38.09375 18.109375 28.8125 
L 18.109375 0 
L 9.078125 0 
L 9.078125 54.6875 
L 18.109375 54.6875 
L 18.109375 46.1875 
Q 20.953125 51.171875 25.484375 53.578125 
Q 30.03125 56 36.53125 56 
Q 37.453125 56 38.578125 55.875 
Q 39.703125 55.765625 41.0625 55.515625 
z
" id="DejaVuSans-114"/>
       <path d="M 54.890625 33.015625 
L 54.890625 0 
L 45.90625 0 
L 45.90625 32.71875 
Q 45.90625 40.484375 42.875 44.328125 
Q 39.84375 48.1875 33.796875 48.1875 
Q 26.515625 48.1875 22.3125 43.546875 
Q 18.109375 38.921875 18.109375 30.90625 
L 18.109375 0 
L 9.078125 0 
L 9.078125 54.6875 
L 18.109375 54.6875 
L 18.109375 46.1875 
Q 21.34375 51.125 25.703125 53.5625 
Q 30.078125 56 35.796875 56 
Q 45.21875 56 50.046875 50.171875 
Q 54.890625 44.34375 54.890625 33.015625 
z
" id="DejaVuSans-110"/>
       <path d="M 45.40625 46.390625 
L 45.40625 75.984375 
L 54.390625 75.984375 
L 54.390625 0 
L 45.40625 0 
L 45.40625 8.203125 
Q 42.578125 3.328125 38.25 0.953125 
Q 33.9375 -1.421875 27.875 -1.421875 
Q 17.96875 -1.421875 11.734375 6.484375 
Q 5.515625 14.40625 5.515625 27.296875 
Q 5.515625 40.1875 11.734375 48.09375 
Q 17.96875 56 27.875 56 
Q 33.9375 56 38.25 53.625 
Q 42.578125 51.265625 45.40625 46.390625 
z
M 14.796875 27.296875 
Q 14.796875 17.390625 18.875 11.75 
Q 22.953125 6.109375 30.078125 6.109375 
Q 37.203125 6.109375 41.296875 11.75 
Q 45.40625 17.390625 45.40625 27.296875 
Q 45.40625 37.203125 41.296875 42.84375 
Q 37.203125 48.484375 30.078125 48.484375 
Q 22.953125 48.484375 18.875 42.84375 
Q 14.796875 37.203125 14.796875 27.296875 
z
" id="DejaVuSans-100"/>
      </defs>
      <use xlink:href="#DejaVuSans-84"/>
      <use x="46.333984" xlink:href="#DejaVuSans-114"/>
      <use x="85.197266" xlink:href="#DejaVuSans-101"/>
      <use x="146.720703" xlink:href="#DejaVuSans-110"/>
      <use x="210.099609" xlink:href="#DejaVuSans-100"/>
     </g>
    </g>
   </g>
   <g id="line2d_12">
    <path clip-path="url(#p84d74f0ac1)" d="M 173.045455 492.48 
L 179.994396 492.48 
L 183.468867 492.014052 
L 186.943337 492.324684 
L 190.417808 492.48 
L 193.892279 492.48 
L 197.36675 492.014052 
L 200.84122 492.324684 
L 204.315691 492.48 
L 214.739103 492.48 
L 218.213574 492.169368 
L 221.688045 492.169368 
L 225.162516 492.48 
L 228.636986 492.48 
L 232.111457 491.858737 
L 235.585928 492.48 
L 239.060399 492.169368 
L 242.534869 492.48 
L 246.00934 492.48 
L 249.483811 492.324684 
L 252.958281 492.48 
L 256.432752 492.014052 
L 259.907223 492.48 
L 294.65193 492.48 
L 298.126401 492.324684 
L 301.600872 492.48 
L 308.549813 491.858737 
L 312.024284 492.48 
L 318.973225 490.305578 
L 322.447696 492.48 
L 325.922167 487.354576 
L 329.396638 490.926841 
L 332.871108 491.548105 
L 336.345579 489.684314 
L 339.82005 490.61621 
L 343.294521 489.373683 
L 346.768991 492.48 
L 350.243462 485.024838 
L 353.717933 486.112049 
L 357.192403 462.969985 
L 360.666874 471.04641 
L 364.141345 475.861202 
L 367.615816 474.308043 
L 371.090286 475.395254 
L 374.564757 472.288937 
L 378.039228 468.716672 
L 381.513699 473.376148 
L 384.988169 459.553035 
L 388.46264 476.016518 
L 391.937111 465.76567 
L 395.411582 455.98077 
L 398.886052 472.288937 
L 402.360523 467.784777 
L 405.834994 469.182619 
L 409.309465 468.250724 
L 412.783935 470.735778 
L 416.258406 470.425146 
L 419.732877 460.174299 
L 423.207347 458.776456 
L 426.681818 469.182619 
L 430.156289 464.678459 
L 433.63076 472.133621 
L 437.10523 466.076302 
L 440.579701 468.250724 
L 444.054172 475.55057 
L 447.528643 474.152727 
L 451.003113 463.90188 
L 454.477584 468.716672 
L 457.952055 471.667673 
L 461.426526 466.076302 
L 464.900996 479.278151 
L 468.375467 475.395254 
L 471.849938 481.763205 
L 475.324408 484.092943 
L 478.798879 479.433467 
L 482.27335 486.888629 
L 485.747821 483.626995 
L 489.222291 484.714206 
L 492.696762 481.452573 
L 496.171233 478.812203 
L 499.645704 484.558891 
L 503.120174 486.577997 
L 506.594645 486.267365 
L 510.069116 487.665208 
L 513.543587 477.880308 
L 517.018057 483.626995 
L 520.492528 481.763205 
L 523.966999 476.171834 
L 527.441469 473.531464 
L 530.91594 483.937627 
L 534.390411 487.820524 
L 537.864882 485.490786 
L 541.339352 486.422681 
L 544.813823 481.918521 
L 548.288294 484.092943 
L 551.762765 482.073837 
L 555.237235 481.607889 
L 558.711706 489.994946 
L 562.186177 486.733313 
L 565.660648 486.267365 
L 569.135118 486.888629 
L 572.609589 489.83963 
L 576.08406 489.063051 
L 579.558531 485.180154 
L 583.033001 486.733313 
L 586.507472 487.665208 
L 589.981943 484.714206 
L 593.456413 480.365362 
L 596.930884 485.024838 
L 600.405355 483.161048 
L 603.879826 465.76567 
L 607.354296 463.435932 
L 610.828767 490.150262 
L 614.303238 490.926841 
L 617.777709 476.482465 
L 621.252179 487.820524 
L 624.72665 483.626995 
L 628.201121 486.577997 
L 631.675592 489.373683 
L 635.150062 478.035624 
L 638.624533 449.457504 
L 642.099004 489.528998 
L 645.573474 486.733313 
L 649.047945 489.528998 
L 652.522416 491.392789 
L 655.996887 491.392789 
L 659.471357 492.169368 
L 662.945828 487.665208 
L 666.420299 487.354576 
L 669.89477 485.801418 
L 673.36924 491.237473 
L 676.843711 486.112049 
L 680.318182 490.771525 
L 683.792653 490.926841 
L 687.267123 490.305578 
L 690.741594 491.548105 
L 694.216065 489.218367 
L 697.690535 489.994946 
L 701.165006 490.150262 
L 704.639477 492.014052 
L 708.113948 491.548105 
L 711.588418 491.858737 
L 715.062889 491.548105 
L 718.53736 490.926841 
L 722.011831 489.684314 
L 725.486301 492.014052 
L 732.435243 492.324684 
L 739.384184 491.703421 
L 742.858655 490.926841 
L 746.333126 491.703421 
L 749.807597 491.703421 
L 753.282067 491.548105 
L 756.756538 492.014052 
L 760.231009 491.548105 
L 763.705479 490.460894 
L 767.17995 491.237473 
L 770.654421 490.305578 
L 774.128892 491.392789 
L 777.603362 491.858737 
L 781.077833 491.703421 
L 784.552304 492.014052 
L 788.026775 489.684314 
L 791.501245 491.082157 
L 798.450187 489.218367 
L 801.924658 490.150262 
L 805.399128 489.994946 
L 808.873599 491.082157 
L 812.34807 489.218367 
L 815.82254 488.907735 
L 819.297011 490.460894 
L 822.771482 491.392789 
L 826.245953 486.422681 
L 829.720423 490.460894 
L 833.194894 491.237473 
L 836.669365 490.61621 
L 840.143836 491.082157 
L 843.618306 490.305578 
L 847.092777 492.169368 
L 850.567248 492.324684 
L 854.041719 489.218367 
L 857.516189 490.150262 
L 860.99066 488.597103 
L 864.465131 491.392789 
L 867.939601 490.460894 
L 874.888543 491.082157 
L 878.363014 490.771525 
L 881.837484 490.150262 
L 885.311955 489.373683 
L 888.786426 488.441787 
L 892.260897 488.597103 
L 895.735367 490.61621 
L 899.209838 491.392789 
L 902.684309 489.994946 
L 906.15878 491.703421 
L 909.63325 491.082157 
L 913.107721 491.237473 
L 916.582192 490.926841 
L 920.056663 491.392789 
L 923.531133 490.771525 
L 927.005604 491.548105 
L 930.480075 491.703421 
L 933.954545 490.926841 
L 933.954545 490.926841 
" style="fill:none;stroke:#1f77b4;stroke-linecap:square;stroke-width:1.5;"/>
   </g>
   <g id="line2d_13">
    <path clip-path="url(#p84d74f0ac1)" d="M 173.045455 492.48 
L 360.666874 492.48 
L 364.141345 492.169368 
L 367.615816 492.48 
L 371.090286 492.48 
L 374.564757 492.324684 
L 378.039228 492.324684 
L 381.513699 491.548105 
L 388.46264 492.169368 
L 391.937111 491.858737 
L 395.411582 492.014052 
L 398.886052 492.014052 
L 402.360523 492.324684 
L 405.834994 491.237473 
L 409.309465 492.169368 
L 412.783935 491.548105 
L 416.258406 492.169368 
L 419.732877 491.703421 
L 423.207347 492.014052 
L 426.681818 491.858737 
L 430.156289 491.858737 
L 433.63076 492.324684 
L 437.10523 492.324684 
L 440.579701 492.169368 
L 444.054172 492.169368 
L 447.528643 492.014052 
L 454.477584 492.014052 
L 457.952055 492.324684 
L 461.426526 491.703421 
L 464.900996 492.324684 
L 468.375467 492.324684 
L 471.849938 492.169368 
L 475.324408 492.169368 
L 482.27335 492.48 
L 485.747821 492.014052 
L 489.222291 492.324684 
L 492.696762 492.169368 
L 496.171233 492.324684 
L 499.645704 492.169368 
L 503.120174 492.48 
L 506.594645 492.324684 
L 510.069116 492.324684 
L 513.543587 492.48 
L 517.018057 492.169368 
L 523.966999 492.48 
L 527.441469 492.169368 
L 530.91594 492.48 
L 534.390411 492.324684 
L 537.864882 492.324684 
L 541.339352 492.48 
L 544.813823 492.48 
L 548.288294 492.324684 
L 551.762765 492.48 
L 555.237235 492.324684 
L 558.711706 492.48 
L 562.186177 492.169368 
L 569.135118 492.48 
L 572.609589 492.324684 
L 576.08406 492.48 
L 579.558531 492.48 
L 583.033001 492.324684 
L 586.507472 492.48 
L 589.981943 492.48 
L 593.456413 492.324684 
L 596.930884 492.48 
L 638.624533 492.48 
L 642.099004 492.324684 
L 645.573474 492.324684 
L 649.047945 492.48 
L 655.996887 492.48 
L 659.471357 492.324684 
L 662.945828 492.48 
L 666.420299 492.324684 
L 673.36924 492.324684 
L 676.843711 492.48 
L 763.705479 492.48 
L 767.17995 492.324684 
L 770.654421 492.48 
L 791.501245 492.48 
L 794.975716 492.324684 
L 798.450187 492.48 
L 815.82254 492.48 
L 819.297011 492.324684 
L 822.771482 492.48 
L 833.194894 492.48 
L 836.669365 492.324684 
L 840.143836 492.48 
L 933.954545 492.48 
L 933.954545 492.48 
" style="fill:none;stroke:#ff7f0e;stroke-linecap:square;stroke-width:1.5;"/>
   </g>
   <g id="line2d_14">
    <path clip-path="url(#p84d74f0ac1)" d="M 173.045455 492.48 
L 225.162516 492.48 
L 228.636986 492.324684 
L 232.111457 492.48 
L 239.060399 492.48 
L 242.534869 492.169368 
L 246.00934 492.48 
L 252.958281 492.48 
L 256.432752 491.858737 
L 259.907223 492.48 
L 263.381694 492.48 
L 266.856164 491.548105 
L 270.330635 492.169368 
L 273.805106 492.48 
L 284.228518 492.48 
L 287.702989 492.014052 
L 291.17746 492.48 
L 312.024284 492.48 
L 315.498755 491.858737 
L 318.973225 492.48 
L 325.922167 492.48 
L 329.396638 492.324684 
L 332.871108 492.324684 
L 336.345579 492.48 
L 339.82005 492.48 
L 343.294521 492.169368 
L 346.768991 492.48 
L 350.243462 492.48 
L 353.717933 491.082157 
L 357.192403 491.392789 
L 360.666874 492.48 
L 364.141345 491.392789 
L 371.090286 490.150262 
L 374.564757 490.61621 
L 378.039228 488.286471 
L 381.513699 488.597103 
L 384.988169 492.48 
L 388.46264 485.646102 
L 391.937111 489.994946 
L 395.411582 489.994946 
L 398.886052 485.646102 
L 402.360523 483.005732 
L 405.834994 481.918521 
L 409.309465 478.346256 
L 412.783935 483.47168 
L 416.258406 475.705886 
L 419.732877 473.531464 
L 423.207347 483.161048 
L 426.681818 478.812203 
L 430.156289 478.501572 
L 433.63076 455.825455 
L 437.10523 480.05473 
L 440.579701 466.697565 
L 444.054172 473.68678 
L 447.528643 457.999877 
L 451.003113 466.852881 
L 454.477584 474.929307 
L 457.952055 466.386934 
L 461.426526 461.106194 
L 464.900996 466.231618 
L 468.375467 473.997411 
L 471.849938 461.26151 
L 475.324408 471.512357 
L 478.798879 477.724992 
L 482.27335 477.259045 
L 485.747821 484.092943 
L 489.222291 476.482465 
L 492.696762 478.501572 
L 496.171233 473.68678 
L 499.645704 477.103729 
L 503.120174 476.948413 
L 506.594645 477.724992 
L 513.543587 483.937627 
L 517.018057 479.433467 
L 520.492528 486.422681 
L 523.966999 474.463359 
L 527.441469 478.967519 
L 530.91594 481.452573 
L 534.390411 479.588783 
L 537.864882 471.512357 
L 541.339352 480.986626 
L 544.813823 478.812203 
L 548.288294 482.384468 
L 551.762765 477.569676 
L 555.237235 478.812203 
L 558.711706 475.395254 
L 562.186177 483.47168 
L 565.660648 481.607889 
L 569.135118 478.812203 
L 572.609589 481.141941 
L 576.08406 483.316364 
L 579.558531 485.646102 
L 583.033001 487.665208 
L 589.981943 478.501572 
L 593.456413 482.6951 
L 596.930884 484.248259 
L 600.405355 487.354576 
L 603.879826 487.19926 
L 607.354296 482.850416 
L 610.828767 485.956733 
L 614.303238 479.122835 
L 617.777709 482.229153 
L 621.252179 477.724992 
L 624.72665 488.907735 
L 628.201121 484.558891 
L 631.675592 482.229153 
L 635.150062 483.005732 
L 638.624533 488.131156 
L 642.099004 484.558891 
L 645.573474 488.597103 
L 649.047945 486.422681 
L 652.522416 489.373683 
L 655.996887 448.83624 
L 659.471357 486.422681 
L 662.945828 484.558891 
L 666.420299 476.482465 
L 669.89477 470.269831 
L 673.36924 487.043945 
L 676.843711 484.092943 
L 680.318182 440.759815 
L 683.792653 470.735778 
L 687.267123 472.754884 
L 690.741594 481.607889 
L 694.216065 480.675994 
L 697.690535 490.926841 
L 701.165006 489.218367 
L 704.639477 491.082157 
L 708.113948 485.490786 
L 711.588418 486.267365 
L 715.062889 488.907735 
L 718.53736 490.305578 
L 722.011831 490.926841 
L 725.486301 489.994946 
L 728.960772 489.373683 
L 732.435243 489.218367 
L 735.909714 482.850416 
L 739.384184 491.082157 
L 742.858655 490.150262 
L 746.333126 491.858737 
L 749.807597 490.771525 
L 753.282067 491.703421 
L 756.756538 491.703421 
L 760.231009 490.460894 
L 763.705479 490.61621 
L 767.17995 491.858737 
L 770.654421 491.858737 
L 774.128892 492.324684 
L 777.603362 491.858737 
L 781.077833 492.169368 
L 784.552304 490.61621 
L 788.026775 492.014052 
L 794.975716 491.392789 
L 798.450187 492.169368 
L 801.924658 491.392789 
L 805.399128 491.858737 
L 808.873599 491.237473 
L 812.34807 492.014052 
L 815.82254 489.83963 
L 819.297011 491.548105 
L 822.771482 492.324684 
L 826.245953 491.548105 
L 829.720423 491.703421 
L 833.194894 491.703421 
L 836.669365 488.286471 
L 840.143836 492.014052 
L 843.618306 489.83963 
L 847.092777 491.858737 
L 850.567248 489.994946 
L 854.041719 489.684314 
L 857.516189 490.771525 
L 860.99066 490.150262 
L 864.465131 485.180154 
L 867.939601 491.082157 
L 871.414072 489.528998 
L 874.888543 491.548105 
L 878.363014 491.237473 
L 881.837484 491.858737 
L 885.311955 491.392789 
L 888.786426 492.014052 
L 892.260897 488.131156 
L 895.735367 489.83963 
L 899.209838 488.441787 
L 902.684309 488.907735 
L 906.15878 491.392789 
L 909.63325 490.460894 
L 913.107721 491.858737 
L 916.582192 490.926841 
L 920.056663 491.548105 
L 923.531133 491.548105 
L 927.005604 491.392789 
L 930.480075 489.994946 
L 933.954545 486.888629 
L 933.954545 486.888629 
" style="fill:none;stroke:#2ca02c;stroke-linecap:square;stroke-width:1.5;"/>
   </g>
   <g id="line2d_15">
    <path clip-path="url(#p84d74f0ac1)" d="M 173.045455 492.48 
L 179.994396 492.48 
L 183.468867 492.014052 
L 186.943337 491.858737 
L 193.892279 491.858737 
L 197.36675 491.392789 
L 200.84122 491.237473 
L 214.739103 491.237473 
L 221.688045 490.61621 
L 225.162516 490.61621 
L 228.636986 490.771525 
L 232.111457 490.150262 
L 235.585928 490.150262 
L 239.060399 489.83963 
L 242.534869 490.150262 
L 246.00934 490.150262 
L 249.483811 489.994946 
L 252.958281 489.994946 
L 256.432752 490.150262 
L 263.381694 490.150262 
L 266.856164 491.082157 
L 270.330635 491.392789 
L 284.228518 491.392789 
L 287.702989 491.858737 
L 294.65193 491.858737 
L 298.126401 491.703421 
L 301.600872 491.703421 
L 305.075342 491.392789 
L 308.549813 490.771525 
L 312.024284 490.771525 
L 315.498755 490.305578 
L 318.973225 488.131156 
L 322.447696 488.131156 
L 325.922167 483.005732 
L 329.396638 481.607889 
L 332.871108 480.83131 
L 336.345579 478.035624 
L 339.82005 476.171834 
L 343.294521 473.376148 
L 346.768991 473.376148 
L 350.243462 465.920986 
L 353.717933 460.950878 
L 357.192403 432.528074 
L 360.666874 411.094484 
L 364.141345 395.873529 
L 367.615816 379.410046 
L 371.090286 364.655039 
L 374.564757 346.483082 
L 378.039228 327.068598 
L 381.513699 312.779538 
L 384.988169 280.473837 
L 388.46264 271.154884 
L 391.937111 247.546872 
L 395.411582 213.998644 
L 398.886052 201.107427 
L 402.360523 186.041787 
L 405.834994 174.548413 
L 409.309465 164.763513 
L 412.783935 152.959507 
L 416.258406 147.989399 
L 419.732877 135.408814 
L 423.207347 111.490169 
L 426.681818 102.481849 
L 430.156289 89.28 
L 433.63076 105.743482 
L 437.10523 91.92037 
L 440.579701 93.78416 
L 444.054172 95.958582 
L 447.528643 112.577381 
L 451.003113 110.092327 
L 454.477584 104.345639 
L 457.952055 109.781695 
L 461.426526 115.528382 
L 464.900996 128.730231 
L 468.375467 130.28339 
L 471.849938 151.095716 
L 475.324408 163.986934 
L 478.798879 165.850724 
L 482.27335 175.480308 
L 485.747821 175.480308 
L 489.222291 183.867365 
L 492.696762 187.128998 
L 496.171233 192.409738 
L 499.645704 200.175532 
L 503.120174 209.805116 
L 506.594645 218.502804 
L 510.069116 225.492018 
L 513.543587 219.4347 
L 517.018057 223.93886 
L 520.492528 219.4347 
L 523.966999 221.143174 
L 527.441469 216.01775 
L 530.91594 218.502804 
L 534.390411 226.889861 
L 537.864882 241.023606 
L 541.339352 246.459661 
L 544.813823 249.565978 
L 548.288294 251.429769 
L 551.762765 255.933929 
L 555.237235 258.884931 
L 558.711706 273.484622 
L 562.186177 277.056888 
L 565.660648 281.87168 
L 569.135118 289.948105 
L 572.609589 298.801109 
L 576.08406 304.547797 
L 579.558531 304.081849 
L 583.033001 303.30527 
L 586.507472 307.80943 
L 589.981943 314.022065 
L 593.456413 311.847643 
L 596.930884 312.624222 
L 600.405355 308.430693 
L 603.879826 286.997103 
L 607.354296 267.582619 
L 610.828767 271.776148 
L 614.303238 283.580154 
L 617.777709 277.833467 
L 621.252179 287.928998 
L 624.72665 282.648259 
L 628.201121 284.667365 
L 631.675592 291.811895 
L 635.150062 286.841787 
L 638.624533 248.168136 
L 642.099004 253.293559 
L 645.573474 251.585085 
L 649.047945 254.691402 
L 652.522416 256.710508 
L 655.996887 299.267057 
L 659.471357 305.16906 
L 662.945828 308.275378 
L 666.420299 319.302804 
L 669.89477 334.989707 
L 673.36924 339.338552 
L 676.843711 341.357658 
L 680.318182 391.369368 
L 683.792653 411.560431 
L 687.267123 429.111125 
L 690.741594 439.051341 
L 694.216065 447.593713 
L 697.690535 446.661818 
L 704.639477 448.525609 
L 708.113948 454.582928 
L 711.588418 460.174299 
L 715.062889 462.814669 
L 718.53736 463.435932 
L 722.011831 462.193405 
L 725.486301 464.212512 
L 728.960772 467.008197 
L 732.435243 470.114515 
L 735.909714 479.278151 
L 739.384184 479.899414 
L 742.858655 480.675994 
L 746.333126 480.520678 
L 749.807597 481.452573 
L 753.282067 481.297257 
L 756.756538 481.607889 
L 760.231009 482.6951 
L 763.705479 482.539784 
L 767.17995 482.073837 
L 770.654421 480.520678 
L 774.128892 479.588783 
L 777.603362 479.588783 
L 781.077833 479.122835 
L 784.552304 480.520678 
L 788.026775 478.19094 
L 791.501245 477.569676 
L 794.975716 476.482465 
L 798.450187 473.531464 
L 801.924658 472.288937 
L 805.399128 470.425146 
L 808.873599 470.269831 
L 812.34807 467.474145 
L 822.771482 464.678459 
L 826.245953 459.553035 
L 829.720423 458.310508 
L 833.194894 457.844561 
L 836.669365 460.329615 
L 840.143836 459.39772 
L 843.618306 459.863667 
L 847.092777 460.174299 
L 850.567248 462.504037 
L 854.041719 462.038089 
L 857.516189 461.416826 
L 860.99066 459.863667 
L 864.465131 466.076302 
L 867.939601 465.455039 
L 871.414072 466.697565 
L 878.363014 465.76567 
L 881.837484 464.057196 
L 885.311955 462.038089 
L 888.786426 458.465824 
L 892.260897 458.931772 
L 895.735367 459.708351 
L 899.209838 462.659353 
L 902.684309 463.746564 
L 906.15878 464.057196 
L 909.63325 464.678459 
L 913.107721 464.057196 
L 916.582192 464.057196 
L 920.056663 463.90188 
L 923.531133 463.1253 
L 927.005604 463.280616 
L 930.480075 464.989091 
L 933.954545 469.027304 
L 933.954545 469.027304 
" style="fill:none;stroke:#d62728;stroke-linecap:square;stroke-width:1.5;"/>
   </g>
   <g id="patch_3">
    <path d="M 135 512.64 
L 135 69.12 
" style="fill:none;stroke:#000000;stroke-linecap:square;stroke-linejoin:miter;stroke-width:0.8;"/>
   </g>
   <g id="patch_4">
    <path d="M 972 512.64 
L 972 69.12 
" style="fill:none;stroke:#000000;stroke-linecap:square;stroke-linejoin:miter;stroke-width:0.8;"/>
   </g>
   <g id="patch_5">
    <path d="M 135 512.64 
L 972 512.64 
" style="fill:none;stroke:#000000;stroke-linecap:square;stroke-linejoin:miter;stroke-width:0.8;"/>
   </g>
   <g id="patch_6">
    <path d="M 135 69.12 
L 972 69.12 
" style="fill:none;stroke:#000000;stroke-linecap:square;stroke-linejoin:miter;stroke-width:0.8;"/>
   </g>
   <g id="text_14">
    <!-- COVID19 Trend in Malaysia -->
    <g transform="translate(472.74 63.12)scale(0.12 -0.12)">
     <defs>
      <path d="M 64.40625 67.28125 
L 64.40625 56.890625 
Q 59.421875 61.53125 53.78125 63.8125 
Q 48.140625 66.109375 41.796875 66.109375 
Q 29.296875 66.109375 22.65625 58.46875 
Q 16.015625 50.828125 16.015625 36.375 
Q 16.015625 21.96875 22.65625 14.328125 
Q 29.296875 6.6875 41.796875 6.6875 
Q 48.140625 6.6875 53.78125 8.984375 
Q 59.421875 11.28125 64.40625 15.921875 
L 64.40625 5.609375 
Q 59.234375 2.09375 53.4375 0.328125 
Q 47.65625 -1.421875 41.21875 -1.421875 
Q 24.65625 -1.421875 15.125 8.703125 
Q 5.609375 18.84375 5.609375 36.375 
Q 5.609375 53.953125 15.125 64.078125 
Q 24.65625 74.21875 41.21875 74.21875 
Q 47.75 74.21875 53.53125 72.484375 
Q 59.328125 70.75 64.40625 67.28125 
z
" id="DejaVuSans-67"/>
      <path d="M 39.40625 66.21875 
Q 28.65625 66.21875 22.328125 58.203125 
Q 16.015625 50.203125 16.015625 36.375 
Q 16.015625 22.609375 22.328125 14.59375 
Q 28.65625 6.59375 39.40625 6.59375 
Q 50.140625 6.59375 56.421875 14.59375 
Q 62.703125 22.609375 62.703125 36.375 
Q 62.703125 50.203125 56.421875 58.203125 
Q 50.140625 66.21875 39.40625 66.21875 
z
M 39.40625 74.21875 
Q 54.734375 74.21875 63.90625 63.9375 
Q 73.09375 53.65625 73.09375 36.375 
Q 73.09375 19.140625 63.90625 8.859375 
Q 54.734375 -1.421875 39.40625 -1.421875 
Q 24.03125 -1.421875 14.8125 8.828125 
Q 5.609375 19.09375 5.609375 36.375 
Q 5.609375 53.65625 14.8125 63.9375 
Q 24.03125 74.21875 39.40625 74.21875 
z
" id="DejaVuSans-79"/>
      <path d="M 28.609375 0 
L 0.78125 72.90625 
L 11.078125 72.90625 
L 34.1875 11.53125 
L 57.328125 72.90625 
L 67.578125 72.90625 
L 39.796875 0 
z
" id="DejaVuSans-86"/>
      <path d="M 9.8125 72.90625 
L 19.671875 72.90625 
L 19.671875 0 
L 9.8125 0 
z
" id="DejaVuSans-73"/>
      <path id="DejaVuSans-32"/>
      <path d="M 9.421875 54.6875 
L 18.40625 54.6875 
L 18.40625 0 
L 9.421875 0 
z
M 9.421875 75.984375 
L 18.40625 75.984375 
L 18.40625 64.59375 
L 9.421875 64.59375 
z
" id="DejaVuSans-105"/>
      <path d="M 9.8125 72.90625 
L 24.515625 72.90625 
L 43.109375 23.296875 
L 61.8125 72.90625 
L 76.515625 72.90625 
L 76.515625 0 
L 66.890625 0 
L 66.890625 64.015625 
L 48.09375 14.015625 
L 38.1875 14.015625 
L 19.390625 64.015625 
L 19.390625 0 
L 9.8125 0 
z
" id="DejaVuSans-77"/>
      <path d="M 9.421875 75.984375 
L 18.40625 75.984375 
L 18.40625 0 
L 9.421875 0 
z
" id="DejaVuSans-108"/>
      <path d="M 32.171875 -5.078125 
Q 28.375 -14.84375 24.75 -17.8125 
Q 21.140625 -20.796875 15.09375 -20.796875 
L 7.90625 -20.796875 
L 7.90625 -13.28125 
L 13.1875 -13.28125 
Q 16.890625 -13.28125 18.9375 -11.515625 
Q 21 -9.765625 23.484375 -3.21875 
L 25.09375 0.875 
L 2.984375 54.6875 
L 12.5 54.6875 
L 29.59375 11.921875 
L 46.6875 54.6875 
L 56.203125 54.6875 
z
" id="DejaVuSans-121"/>
      <path d="M 44.28125 53.078125 
L 44.28125 44.578125 
Q 40.484375 46.53125 36.375 47.5 
Q 32.28125 48.484375 27.875 48.484375 
Q 21.1875 48.484375 17.84375 46.4375 
Q 14.5 44.390625 14.5 40.28125 
Q 14.5 37.15625 16.890625 35.375 
Q 19.28125 33.59375 26.515625 31.984375 
L 29.59375 31.296875 
Q 39.15625 29.25 43.1875 25.515625 
Q 47.21875 21.78125 47.21875 15.09375 
Q 47.21875 7.46875 41.1875 3.015625 
Q 35.15625 -1.421875 24.609375 -1.421875 
Q 20.21875 -1.421875 15.453125 -0.5625 
Q 10.6875 0.296875 5.421875 2 
L 5.421875 11.28125 
Q 10.40625 8.6875 15.234375 7.390625 
Q 20.0625 6.109375 24.8125 6.109375 
Q 31.15625 6.109375 34.5625 8.28125 
Q 37.984375 10.453125 37.984375 14.40625 
Q 37.984375 18.0625 35.515625 20.015625 
Q 33.0625 21.96875 24.703125 23.78125 
L 21.578125 24.515625 
Q 13.234375 26.265625 9.515625 29.90625 
Q 5.8125 33.546875 5.8125 39.890625 
Q 5.8125 47.609375 11.28125 51.796875 
Q 16.75 56 26.8125 56 
Q 31.78125 56 36.171875 55.265625 
Q 40.578125 54.546875 44.28125 53.078125 
z
" id="DejaVuSans-115"/>
     </defs>
     <use xlink:href="#DejaVuSans-67"/>
     <use x="69.824219" xlink:href="#DejaVuSans-79"/>
     <use x="146.785156" xlink:href="#DejaVuSans-86"/>
     <use x="215.193359" xlink:href="#DejaVuSans-73"/>
     <use x="244.685547" xlink:href="#DejaVuSans-68"/>
     <use x="321.6875" xlink:href="#DejaVuSans-49"/>
     <use x="385.310547" xlink:href="#DejaVuSans-57"/>
     <use x="448.933594" xlink:href="#DejaVuSans-32"/>
     <use x="480.720703" xlink:href="#DejaVuSans-84"/>
     <use x="527.054688" xlink:href="#DejaVuSans-114"/>
     <use x="565.917969" xlink:href="#DejaVuSans-101"/>
     <use x="627.441406" xlink:href="#DejaVuSans-110"/>
     <use x="690.820312" xlink:href="#DejaVuSans-100"/>
     <use x="754.296875" xlink:href="#DejaVuSans-32"/>
     <use x="786.083984" xlink:href="#DejaVuSans-105"/>
     <use x="813.867188" xlink:href="#DejaVuSans-110"/>
     <use x="877.246094" xlink:href="#DejaVuSans-32"/>
     <use x="909.033203" xlink:href="#DejaVuSans-77"/>
     <use x="995.3125" xlink:href="#DejaVuSans-97"/>
     <use x="1056.591797" xlink:href="#DejaVuSans-108"/>
     <use x="1084.375" xlink:href="#DejaVuSans-97"/>
     <use x="1145.654297" xlink:href="#DejaVuSans-121"/>
     <use x="1204.833984" xlink:href="#DejaVuSans-115"/>
     <use x="1256.933594" xlink:href="#DejaVuSans-105"/>
     <use x="1284.716797" xlink:href="#DejaVuSans-97"/>
    </g>
   </g>
   <g id="legend_1">
    <g id="patch_7">
     <path d="M 880.271875 135.8325 
L 965 135.8325 
Q 967 135.8325 967 133.8325 
L 967 76.12 
Q 967 74.12 965 74.12 
L 880.271875 74.12 
Q 878.271875 74.12 878.271875 76.12 
L 878.271875 133.8325 
Q 878.271875 135.8325 880.271875 135.8325 
z
" style="fill:#ffffff;opacity:0.8;stroke:#cccccc;stroke-linejoin:miter;"/>
    </g>
    <g id="line2d_16">
     <path d="M 882.271875 82.218437 
L 902.271875 82.218437 
" style="fill:none;stroke:#1f77b4;stroke-linecap:square;stroke-width:1.5;"/>
    </g>
    <g id="line2d_17"/>
    <g id="text_15">
     <!-- Confirmed -->
     <g transform="translate(910.271875 85.718437)scale(0.1 -0.1)">
      <defs>
       <path d="M 30.609375 48.390625 
Q 23.390625 48.390625 19.1875 42.75 
Q 14.984375 37.109375 14.984375 27.296875 
Q 14.984375 17.484375 19.15625 11.84375 
Q 23.34375 6.203125 30.609375 6.203125 
Q 37.796875 6.203125 41.984375 11.859375 
Q 46.1875 17.53125 46.1875 27.296875 
Q 46.1875 37.015625 41.984375 42.703125 
Q 37.796875 48.390625 30.609375 48.390625 
z
M 30.609375 56 
Q 42.328125 56 49.015625 48.375 
Q 55.71875 40.765625 55.71875 27.296875 
Q 55.71875 13.875 49.015625 6.21875 
Q 42.328125 -1.421875 30.609375 -1.421875 
Q 18.84375 -1.421875 12.171875 6.21875 
Q 5.515625 13.875 5.515625 27.296875 
Q 5.515625 40.765625 12.171875 48.375 
Q 18.84375 56 30.609375 56 
z
" id="DejaVuSans-111"/>
       <path d="M 37.109375 75.984375 
L 37.109375 68.5 
L 28.515625 68.5 
Q 23.6875 68.5 21.796875 66.546875 
Q 19.921875 64.59375 19.921875 59.515625 
L 19.921875 54.6875 
L 34.71875 54.6875 
L 34.71875 47.703125 
L 19.921875 47.703125 
L 19.921875 0 
L 10.890625 0 
L 10.890625 47.703125 
L 2.296875 47.703125 
L 2.296875 54.6875 
L 10.890625 54.6875 
L 10.890625 58.5 
Q 10.890625 67.625 15.140625 71.796875 
Q 19.390625 75.984375 28.609375 75.984375 
z
" id="DejaVuSans-102"/>
       <path d="M 52 44.1875 
Q 55.375 50.25 60.0625 53.125 
Q 64.75 56 71.09375 56 
Q 79.640625 56 84.28125 50.015625 
Q 88.921875 44.046875 88.921875 33.015625 
L 88.921875 0 
L 79.890625 0 
L 79.890625 32.71875 
Q 79.890625 40.578125 77.09375 44.375 
Q 74.3125 48.1875 68.609375 48.1875 
Q 61.625 48.1875 57.5625 43.546875 
Q 53.515625 38.921875 53.515625 30.90625 
L 53.515625 0 
L 44.484375 0 
L 44.484375 32.71875 
Q 44.484375 40.625 41.703125 44.40625 
Q 38.921875 48.1875 33.109375 48.1875 
Q 26.21875 48.1875 22.15625 43.53125 
Q 18.109375 38.875 18.109375 30.90625 
L 18.109375 0 
L 9.078125 0 
L 9.078125 54.6875 
L 18.109375 54.6875 
L 18.109375 46.1875 
Q 21.1875 51.21875 25.484375 53.609375 
Q 29.78125 56 35.6875 56 
Q 41.65625 56 45.828125 52.96875 
Q 50 49.953125 52 44.1875 
z
" id="DejaVuSans-109"/>
      </defs>
      <use xlink:href="#DejaVuSans-67"/>
      <use x="69.824219" xlink:href="#DejaVuSans-111"/>
      <use x="131.005859" xlink:href="#DejaVuSans-110"/>
      <use x="194.384766" xlink:href="#DejaVuSans-102"/>
      <use x="229.589844" xlink:href="#DejaVuSans-105"/>
      <use x="257.373047" xlink:href="#DejaVuSans-114"/>
      <use x="296.736328" xlink:href="#DejaVuSans-109"/>
      <use x="394.148438" xlink:href="#DejaVuSans-101"/>
      <use x="455.671875" xlink:href="#DejaVuSans-100"/>
     </g>
    </g>
    <g id="line2d_18">
     <path d="M 882.271875 96.896563 
L 902.271875 96.896563 
" style="fill:none;stroke:#ff7f0e;stroke-linecap:square;stroke-width:1.5;"/>
    </g>
    <g id="line2d_19"/>
    <g id="text_16">
     <!-- Deaths -->
     <g transform="translate(910.271875 100.396563)scale(0.1 -0.1)">
      <defs>
       <path d="M 54.890625 33.015625 
L 54.890625 0 
L 45.90625 0 
L 45.90625 32.71875 
Q 45.90625 40.484375 42.875 44.328125 
Q 39.84375 48.1875 33.796875 48.1875 
Q 26.515625 48.1875 22.3125 43.546875 
Q 18.109375 38.921875 18.109375 30.90625 
L 18.109375 0 
L 9.078125 0 
L 9.078125 75.984375 
L 18.109375 75.984375 
L 18.109375 46.1875 
Q 21.34375 51.125 25.703125 53.5625 
Q 30.078125 56 35.796875 56 
Q 45.21875 56 50.046875 50.171875 
Q 54.890625 44.34375 54.890625 33.015625 
z
" id="DejaVuSans-104"/>
      </defs>
      <use xlink:href="#DejaVuSans-68"/>
      <use x="77.001953" xlink:href="#DejaVuSans-101"/>
      <use x="138.525391" xlink:href="#DejaVuSans-97"/>
      <use x="199.804688" xlink:href="#DejaVuSans-116"/>
      <use x="239.013672" xlink:href="#DejaVuSans-104"/>
      <use x="302.392578" xlink:href="#DejaVuSans-115"/>
     </g>
    </g>
    <g id="line2d_20">
     <path d="M 882.271875 111.574687 
L 902.271875 111.574687 
" style="fill:none;stroke:#2ca02c;stroke-linecap:square;stroke-width:1.5;"/>
    </g>
    <g id="line2d_21"/>
    <g id="text_17">
     <!-- Recovered -->
     <g transform="translate(910.271875 115.074687)scale(0.1 -0.1)">
      <defs>
       <path d="M 44.390625 34.1875 
Q 47.5625 33.109375 50.5625 29.59375 
Q 53.5625 26.078125 56.59375 19.921875 
L 66.609375 0 
L 56 0 
L 46.6875 18.703125 
Q 43.0625 26.03125 39.671875 28.421875 
Q 36.28125 30.8125 30.421875 30.8125 
L 19.671875 30.8125 
L 19.671875 0 
L 9.8125 0 
L 9.8125 72.90625 
L 32.078125 72.90625 
Q 44.578125 72.90625 50.734375 67.671875 
Q 56.890625 62.453125 56.890625 51.90625 
Q 56.890625 45.015625 53.6875 40.46875 
Q 50.484375 35.9375 44.390625 34.1875 
z
M 19.671875 64.796875 
L 19.671875 38.921875 
L 32.078125 38.921875 
Q 39.203125 38.921875 42.84375 42.21875 
Q 46.484375 45.515625 46.484375 51.90625 
Q 46.484375 58.296875 42.84375 61.546875 
Q 39.203125 64.796875 32.078125 64.796875 
z
" id="DejaVuSans-82"/>
       <path d="M 48.78125 52.59375 
L 48.78125 44.1875 
Q 44.96875 46.296875 41.140625 47.34375 
Q 37.3125 48.390625 33.40625 48.390625 
Q 24.65625 48.390625 19.8125 42.84375 
Q 14.984375 37.3125 14.984375 27.296875 
Q 14.984375 17.28125 19.8125 11.734375 
Q 24.65625 6.203125 33.40625 6.203125 
Q 37.3125 6.203125 41.140625 7.25 
Q 44.96875 8.296875 48.78125 10.40625 
L 48.78125 2.09375 
Q 45.015625 0.34375 40.984375 -0.53125 
Q 36.96875 -1.421875 32.421875 -1.421875 
Q 20.0625 -1.421875 12.78125 6.34375 
Q 5.515625 14.109375 5.515625 27.296875 
Q 5.515625 40.671875 12.859375 48.328125 
Q 20.21875 56 33.015625 56 
Q 37.15625 56 41.109375 55.140625 
Q 45.0625 54.296875 48.78125 52.59375 
z
" id="DejaVuSans-99"/>
       <path d="M 2.984375 54.6875 
L 12.5 54.6875 
L 29.59375 8.796875 
L 46.6875 54.6875 
L 56.203125 54.6875 
L 35.6875 0 
L 23.484375 0 
z
" id="DejaVuSans-118"/>
      </defs>
      <use xlink:href="#DejaVuSans-82"/>
      <use x="64.982422" xlink:href="#DejaVuSans-101"/>
      <use x="126.505859" xlink:href="#DejaVuSans-99"/>
      <use x="181.486328" xlink:href="#DejaVuSans-111"/>
      <use x="242.667969" xlink:href="#DejaVuSans-118"/>
      <use x="301.847656" xlink:href="#DejaVuSans-101"/>
      <use x="363.371094" xlink:href="#DejaVuSans-114"/>
      <use x="402.234375" xlink:href="#DejaVuSans-101"/>
      <use x="463.757812" xlink:href="#DejaVuSans-100"/>
     </g>
    </g>
    <g id="line2d_22">
     <path d="M 882.271875 126.252813 
L 902.271875 126.252813 
" style="fill:none;stroke:#d62728;stroke-linecap:square;stroke-width:1.5;"/>
    </g>
    <g id="line2d_23"/>
    <g id="text_18">
     <!-- Active -->
     <g transform="translate(910.271875 129.752813)scale(0.1 -0.1)">
      <defs>
       <path d="M 34.1875 63.1875 
L 20.796875 26.90625 
L 47.609375 26.90625 
z
M 28.609375 72.90625 
L 39.796875 72.90625 
L 67.578125 0 
L 57.328125 0 
L 50.6875 18.703125 
L 17.828125 18.703125 
L 11.1875 0 
L 0.78125 0 
z
" id="DejaVuSans-65"/>
      </defs>
      <use xlink:href="#DejaVuSans-65"/>
      <use x="66.658203" xlink:href="#DejaVuSans-99"/>
      <use x="121.638672" xlink:href="#DejaVuSans-116"/>
      <use x="160.847656" xlink:href="#DejaVuSans-105"/>
      <use x="188.630859" xlink:href="#DejaVuSans-118"/>
      <use x="247.810547" xlink:href="#DejaVuSans-101"/>
     </g>
    </g>
   </g>
  </g>
 </g>
 <defs>
  <clipPath id="p84d74f0ac1">
   <rect height="443.52" width="837" x="135" y="69.12"/>
  </clipPath>
 </defs>
</svg>
