<?xml version="1.0" encoding="utf-8" standalone="no"?>
<!DOCTYPE svg PUBLIC "-//W3C//DTD SVG 1.1//EN"
  "http://www.w3.org/Graphics/SVG/1.1/DTD/svg11.dtd">
<!-- Created with matplotlib (https://matplotlib.org/) -->
<svg height="576pt" version="1.1" viewBox="0 0 1080 576" width="1080pt" xmlns="http://www.w3.org/2000/svg" xmlns:xlink="http://www.w3.org/1999/xlink">
 <metadata>
  <rdf:RDF xmlns:cc="http://creativecommons.org/ns#" xmlns:dc="http://purl.org/dc/elements/1.1/" xmlns:rdf="http://www.w3.org/1999/02/22-rdf-syntax-ns#">
   <cc:Work>
    <dc:type rdf:resource="http://purl.org/dc/dcmitype/StillImage"/>
    <dc:date>2020-08-30T12:20:16.991560</dc:date>
    <dc:format>image/svg+xml</dc:format>
    <dc:creator>
     <cc:Agent>
      <dc:title>Matplotlib v3.3.1, https://matplotlib.org/</dc:title>
     </cc:Agent>
    </dc:creator>
   </cc:Work>
  </rdf:RDF>
 </metadata>
 <defs>
  <style type="text/css">*{stroke-linecap:butt;stroke-linejoin:round;}</style>
 </defs>
 <g id="figure_1">
  <g id="patch_1">
   <path d="M 0 576 
L 1080 576 
L 1080 0 
L 0 0 
z
" style="fill:#ffffff;"/>
  </g>
  <g id="axes_1">
   <g id="patch_2">
    <path d="M 135 512.64 
L 972 512.64 
L 972 69.12 
L 135 69.12 
z
" style="fill:#ffffff;"/>
   </g>
   <g id="matplotlib.axis_1">
    <g id="xtick_1">
     <g id="line2d_1">
      <defs>
       <path d="M 0 0 
L 0 3.5 
" id="m8baa74759c" style="stroke:#000000;stroke-width:0.8;"/>
      </defs>
      <g>
       <use style="stroke:#000000;stroke-width:0.8;" x="173.045455" xlink:href="#m8baa74759c" y="512.64"/>
      </g>
     </g>
     <g id="text_1">
      <!-- 2020-01-22 -->
      <g transform="translate(143.987642 527.238438)scale(0.1 -0.1)">
       <defs>
        <path d="M 19.1875 8.296875 
L 53.609375 8.296875 
L 53.609375 0 
L 7.328125 0 
L 7.328125 8.296875 
Q 12.9375 14.109375 22.625 23.890625 
Q 32.328125 33.6875 34.8125 36.53125 
Q 39.546875 41.84375 41.421875 45.53125 
Q 43.3125 49.21875 43.3125 52.78125 
Q 43.3125 58.59375 39.234375 62.25 
Q 35.15625 65.921875 28.609375 65.921875 
Q 23.96875 65.921875 18.8125 64.3125 
Q 13.671875 62.703125 7.8125 59.421875 
L 7.8125 69.390625 
Q 13.765625 71.78125 18.9375 73 
Q 24.125 74.21875 28.421875 74.21875 
Q 39.75 74.21875 46.484375 68.546875 
Q 53.21875 62.890625 53.21875 53.421875 
Q 53.21875 48.921875 51.53125 44.890625 
Q 49.859375 40.875 45.40625 35.40625 
Q 44.1875 33.984375 37.640625 27.21875 
Q 31.109375 20.453125 19.1875 8.296875 
z
" id="DejaVuSans-50"/>
        <path d="M 31.78125 66.40625 
Q 24.171875 66.40625 20.328125 58.90625 
Q 16.5 51.421875 16.5 36.375 
Q 16.5 21.390625 20.328125 13.890625 
Q 24.171875 6.390625 31.78125 6.390625 
Q 39.453125 6.390625 43.28125 13.890625 
Q 47.125 21.390625 47.125 36.375 
Q 47.125 51.421875 43.28125 58.90625 
Q 39.453125 66.40625 31.78125 66.40625 
z
M 31.78125 74.21875 
Q 44.046875 74.21875 50.515625 64.515625 
Q 56.984375 54.828125 56.984375 36.375 
Q 56.984375 17.96875 50.515625 8.265625 
Q 44.046875 -1.421875 31.78125 -1.421875 
Q 19.53125 -1.421875 13.0625 8.265625 
Q 6.59375 17.96875 6.59375 36.375 
Q 6.59375 54.828125 13.0625 64.515625 
Q 19.53125 74.21875 31.78125 74.21875 
z
" id="DejaVuSans-48"/>
        <path d="M 4.890625 31.390625 
L 31.203125 31.390625 
L 31.203125 23.390625 
L 4.890625 23.390625 
z
" id="DejaVuSans-45"/>
        <path d="M 12.40625 8.296875 
L 28.515625 8.296875 
L 28.515625 63.921875 
L 10.984375 60.40625 
L 10.984375 69.390625 
L 28.421875 72.90625 
L 38.28125 72.90625 
L 38.28125 8.296875 
L 54.390625 8.296875 
L 54.390625 0 
L 12.40625 0 
z
" id="DejaVuSans-49"/>
       </defs>
       <use xlink:href="#DejaVuSans-50"/>
       <use x="63.623047" xlink:href="#DejaVuSans-48"/>
       <use x="127.246094" xlink:href="#DejaVuSans-50"/>
       <use x="190.869141" xlink:href="#DejaVuSans-48"/>
       <use x="254.492188" xlink:href="#DejaVuSans-45"/>
       <use x="290.576172" xlink:href="#DejaVuSans-48"/>
       <use x="354.199219" xlink:href="#DejaVuSans-49"/>
       <use x="417.822266" xlink:href="#DejaVuSans-45"/>
       <use x="453.90625" xlink:href="#DejaVuSans-50"/>
       <use x="517.529297" xlink:href="#DejaVuSans-50"/>
      </g>
     </g>
    </g>
    <g id="xtick_2">
     <g id="line2d_2">
      <g>
       <use style="stroke:#000000;stroke-width:0.8;" x="345.979339" xlink:href="#m8baa74759c" y="512.64"/>
      </g>
     </g>
     <g id="text_2">
      <!-- 2020-03-12 -->
      <g transform="translate(316.921526 527.238438)scale(0.1 -0.1)">
       <defs>
        <path d="M 40.578125 39.3125 
Q 47.65625 37.796875 51.625 33 
Q 55.609375 28.21875 55.609375 21.1875 
Q 55.609375 10.40625 48.1875 4.484375 
Q 40.765625 -1.421875 27.09375 -1.421875 
Q 22.515625 -1.421875 17.65625 -0.515625 
Q 12.796875 0.390625 7.625 2.203125 
L 7.625 11.71875 
Q 11.71875 9.328125 16.59375 8.109375 
Q 21.484375 6.890625 26.8125 6.890625 
Q 36.078125 6.890625 40.9375 10.546875 
Q 45.796875 14.203125 45.796875 21.1875 
Q 45.796875 27.640625 41.28125 31.265625 
Q 36.765625 34.90625 28.71875 34.90625 
L 20.21875 34.90625 
L 20.21875 43.015625 
L 29.109375 43.015625 
Q 36.375 43.015625 40.234375 45.921875 
Q 44.09375 48.828125 44.09375 54.296875 
Q 44.09375 59.90625 40.109375 62.90625 
Q 36.140625 65.921875 28.71875 65.921875 
Q 24.65625 65.921875 20.015625 65.03125 
Q 15.375 64.15625 9.8125 62.3125 
L 9.8125 71.09375 
Q 15.4375 72.65625 20.34375 73.4375 
Q 25.25 74.21875 29.59375 74.21875 
Q 40.828125 74.21875 47.359375 69.109375 
Q 53.90625 64.015625 53.90625 55.328125 
Q 53.90625 49.265625 50.4375 45.09375 
Q 46.96875 40.921875 40.578125 39.3125 
z
" id="DejaVuSans-51"/>
       </defs>
       <use xlink:href="#DejaVuSans-50"/>
       <use x="63.623047" xlink:href="#DejaVuSans-48"/>
       <use x="127.246094" xlink:href="#DejaVuSans-50"/>
       <use x="190.869141" xlink:href="#DejaVuSans-48"/>
       <use x="254.492188" xlink:href="#DejaVuSans-45"/>
       <use x="290.576172" xlink:href="#DejaVuSans-48"/>
       <use x="354.199219" xlink:href="#DejaVuSans-51"/>
       <use x="417.822266" xlink:href="#DejaVuSans-45"/>
       <use x="453.90625" xlink:href="#DejaVuSans-49"/>
       <use x="517.529297" xlink:href="#DejaVuSans-50"/>
      </g>
     </g>
    </g>
    <g id="xtick_3">
     <g id="line2d_3">
      <g>
       <use style="stroke:#000000;stroke-width:0.8;" x="518.913223" xlink:href="#m8baa74759c" y="512.64"/>
      </g>
     </g>
     <g id="text_3">
      <!-- 2020-05-01 -->
      <g transform="translate(489.855411 527.238438)scale(0.1 -0.1)">
       <defs>
        <path d="M 10.796875 72.90625 
L 49.515625 72.90625 
L 49.515625 64.59375 
L 19.828125 64.59375 
L 19.828125 46.734375 
Q 21.96875 47.46875 24.109375 47.828125 
Q 26.265625 48.1875 28.421875 48.1875 
Q 40.625 48.1875 47.75 41.5 
Q 54.890625 34.8125 54.890625 23.390625 
Q 54.890625 11.625 47.5625 5.09375 
Q 40.234375 -1.421875 26.90625 -1.421875 
Q 22.3125 -1.421875 17.546875 -0.640625 
Q 12.796875 0.140625 7.71875 1.703125 
L 7.71875 11.625 
Q 12.109375 9.234375 16.796875 8.0625 
Q 21.484375 6.890625 26.703125 6.890625 
Q 35.15625 6.890625 40.078125 11.328125 
Q 45.015625 15.765625 45.015625 23.390625 
Q 45.015625 31 40.078125 35.4375 
Q 35.15625 39.890625 26.703125 39.890625 
Q 22.75 39.890625 18.8125 39.015625 
Q 14.890625 38.140625 10.796875 36.28125 
z
" id="DejaVuSans-53"/>
       </defs>
       <use xlink:href="#DejaVuSans-50"/>
       <use x="63.623047" xlink:href="#DejaVuSans-48"/>
       <use x="127.246094" xlink:href="#DejaVuSans-50"/>
       <use x="190.869141" xlink:href="#DejaVuSans-48"/>
       <use x="254.492188" xlink:href="#DejaVuSans-45"/>
       <use x="290.576172" xlink:href="#DejaVuSans-48"/>
       <use x="354.199219" xlink:href="#DejaVuSans-53"/>
       <use x="417.822266" xlink:href="#DejaVuSans-45"/>
       <use x="453.90625" xlink:href="#DejaVuSans-48"/>
       <use x="517.529297" xlink:href="#DejaVuSans-49"/>
      </g>
     </g>
    </g>
    <g id="xtick_4">
     <g id="line2d_4">
      <g>
       <use style="stroke:#000000;stroke-width:0.8;" x="691.847107" xlink:href="#m8baa74759c" y="512.64"/>
      </g>
     </g>
     <g id="text_4">
      <!-- 2020-06-20 -->
      <g transform="translate(662.789295 527.238438)scale(0.1 -0.1)">
       <defs>
        <path d="M 33.015625 40.375 
Q 26.375 40.375 22.484375 35.828125 
Q 18.609375 31.296875 18.609375 23.390625 
Q 18.609375 15.53125 22.484375 10.953125 
Q 26.375 6.390625 33.015625 6.390625 
Q 39.65625 6.390625 43.53125 10.953125 
Q 47.40625 15.53125 47.40625 23.390625 
Q 47.40625 31.296875 43.53125 35.828125 
Q 39.65625 40.375 33.015625 40.375 
z
M 52.59375 71.296875 
L 52.59375 62.3125 
Q 48.875 64.0625 45.09375 64.984375 
Q 41.3125 65.921875 37.59375 65.921875 
Q 27.828125 65.921875 22.671875 59.328125 
Q 17.53125 52.734375 16.796875 39.40625 
Q 19.671875 43.65625 24.015625 45.921875 
Q 28.375 48.1875 33.59375 48.1875 
Q 44.578125 48.1875 50.953125 41.515625 
Q 57.328125 34.859375 57.328125 23.390625 
Q 57.328125 12.15625 50.6875 5.359375 
Q 44.046875 -1.421875 33.015625 -1.421875 
Q 20.359375 -1.421875 13.671875 8.265625 
Q 6.984375 17.96875 6.984375 36.375 
Q 6.984375 53.65625 15.1875 63.9375 
Q 23.390625 74.21875 37.203125 74.21875 
Q 40.921875 74.21875 44.703125 73.484375 
Q 48.484375 72.75 52.59375 71.296875 
z
" id="DejaVuSans-54"/>
       </defs>
       <use xlink:href="#DejaVuSans-50"/>
       <use x="63.623047" xlink:href="#DejaVuSans-48"/>
       <use x="127.246094" xlink:href="#DejaVuSans-50"/>
       <use x="190.869141" xlink:href="#DejaVuSans-48"/>
       <use x="254.492188" xlink:href="#DejaVuSans-45"/>
       <use x="290.576172" xlink:href="#DejaVuSans-48"/>
       <use x="354.199219" xlink:href="#DejaVuSans-54"/>
       <use x="417.822266" xlink:href="#DejaVuSans-45"/>
       <use x="453.90625" xlink:href="#DejaVuSans-50"/>
       <use x="517.529297" xlink:href="#DejaVuSans-48"/>
      </g>
     </g>
    </g>
    <g id="xtick_5">
     <g id="line2d_5">
      <g>
       <use style="stroke:#000000;stroke-width:0.8;" x="864.780992" xlink:href="#m8baa74759c" y="512.64"/>
      </g>
     </g>
     <g id="text_5">
      <!-- 2020-08-09 -->
      <g transform="translate(835.723179 527.238438)scale(0.1 -0.1)">
       <defs>
        <path d="M 31.78125 34.625 
Q 24.75 34.625 20.71875 30.859375 
Q 16.703125 27.09375 16.703125 20.515625 
Q 16.703125 13.921875 20.71875 10.15625 
Q 24.75 6.390625 31.78125 6.390625 
Q 38.8125 6.390625 42.859375 10.171875 
Q 46.921875 13.96875 46.921875 20.515625 
Q 46.921875 27.09375 42.890625 30.859375 
Q 38.875 34.625 31.78125 34.625 
z
M 21.921875 38.8125 
Q 15.578125 40.375 12.03125 44.71875 
Q 8.5 49.078125 8.5 55.328125 
Q 8.5 64.0625 14.71875 69.140625 
Q 20.953125 74.21875 31.78125 74.21875 
Q 42.671875 74.21875 48.875 69.140625 
Q 55.078125 64.0625 55.078125 55.328125 
Q 55.078125 49.078125 51.53125 44.71875 
Q 48 40.375 41.703125 38.8125 
Q 48.828125 37.15625 52.796875 32.3125 
Q 56.78125 27.484375 56.78125 20.515625 
Q 56.78125 9.90625 50.3125 4.234375 
Q 43.84375 -1.421875 31.78125 -1.421875 
Q 19.734375 -1.421875 13.25 4.234375 
Q 6.78125 9.90625 6.78125 20.515625 
Q 6.78125 27.484375 10.78125 32.3125 
Q 14.796875 37.15625 21.921875 38.8125 
z
M 18.3125 54.390625 
Q 18.3125 48.734375 21.84375 45.5625 
Q 25.390625 42.390625 31.78125 42.390625 
Q 38.140625 42.390625 41.71875 45.5625 
Q 45.3125 48.734375 45.3125 54.390625 
Q 45.3125 60.0625 41.71875 63.234375 
Q 38.140625 66.40625 31.78125 66.40625 
Q 25.390625 66.40625 21.84375 63.234375 
Q 18.3125 60.0625 18.3125 54.390625 
z
" id="DejaVuSans-56"/>
        <path d="M 10.984375 1.515625 
L 10.984375 10.5 
Q 14.703125 8.734375 18.5 7.8125 
Q 22.3125 6.890625 25.984375 6.890625 
Q 35.75 6.890625 40.890625 13.453125 
Q 46.046875 20.015625 46.78125 33.40625 
Q 43.953125 29.203125 39.59375 26.953125 
Q 35.25 24.703125 29.984375 24.703125 
Q 19.046875 24.703125 12.671875 31.3125 
Q 6.296875 37.9375 6.296875 49.421875 
Q 6.296875 60.640625 12.9375 67.421875 
Q 19.578125 74.21875 30.609375 74.21875 
Q 43.265625 74.21875 49.921875 64.515625 
Q 56.59375 54.828125 56.59375 36.375 
Q 56.59375 19.140625 48.40625 8.859375 
Q 40.234375 -1.421875 26.421875 -1.421875 
Q 22.703125 -1.421875 18.890625 -0.6875 
Q 15.09375 0.046875 10.984375 1.515625 
z
M 30.609375 32.421875 
Q 37.25 32.421875 41.125 36.953125 
Q 45.015625 41.5 45.015625 49.421875 
Q 45.015625 57.28125 41.125 61.84375 
Q 37.25 66.40625 30.609375 66.40625 
Q 23.96875 66.40625 20.09375 61.84375 
Q 16.21875 57.28125 16.21875 49.421875 
Q 16.21875 41.5 20.09375 36.953125 
Q 23.96875 32.421875 30.609375 32.421875 
z
" id="DejaVuSans-57"/>
       </defs>
       <use xlink:href="#DejaVuSans-50"/>
       <use x="63.623047" xlink:href="#DejaVuSans-48"/>
       <use x="127.246094" xlink:href="#DejaVuSans-50"/>
       <use x="190.869141" xlink:href="#DejaVuSans-48"/>
       <use x="254.492188" xlink:href="#DejaVuSans-45"/>
       <use x="290.576172" xlink:href="#DejaVuSans-48"/>
       <use x="354.199219" xlink:href="#DejaVuSans-56"/>
       <use x="417.822266" xlink:href="#DejaVuSans-45"/>
       <use x="453.90625" xlink:href="#DejaVuSans-48"/>
       <use x="517.529297" xlink:href="#DejaVuSans-57"/>
      </g>
     </g>
    </g>
    <g id="text_6">
     <!-- Date -->
     <g transform="translate(541.549219 540.916563)scale(0.1 -0.1)">
      <defs>
       <path d="M 19.671875 64.796875 
L 19.671875 8.109375 
L 31.59375 8.109375 
Q 46.6875 8.109375 53.6875 14.9375 
Q 60.6875 21.78125 60.6875 36.53125 
Q 60.6875 51.171875 53.6875 57.984375 
Q 46.6875 64.796875 31.59375 64.796875 
z
M 9.8125 72.90625 
L 30.078125 72.90625 
Q 51.265625 72.90625 61.171875 64.09375 
Q 71.09375 55.28125 71.09375 36.53125 
Q 71.09375 17.671875 61.125 8.828125 
Q 51.171875 0 30.078125 0 
L 9.8125 0 
z
" id="DejaVuSans-68"/>
       <path d="M 34.28125 27.484375 
Q 23.390625 27.484375 19.1875 25 
Q 14.984375 22.515625 14.984375 16.5 
Q 14.984375 11.71875 18.140625 8.90625 
Q 21.296875 6.109375 26.703125 6.109375 
Q 34.1875 6.109375 38.703125 11.40625 
Q 43.21875 16.703125 43.21875 25.484375 
L 43.21875 27.484375 
z
M 52.203125 31.203125 
L 52.203125 0 
L 43.21875 0 
L 43.21875 8.296875 
Q 40.140625 3.328125 35.546875 0.953125 
Q 30.953125 -1.421875 24.3125 -1.421875 
Q 15.921875 -1.421875 10.953125 3.296875 
Q 6 8.015625 6 15.921875 
Q 6 25.140625 12.171875 29.828125 
Q 18.359375 34.515625 30.609375 34.515625 
L 43.21875 34.515625 
L 43.21875 35.40625 
Q 43.21875 41.609375 39.140625 45 
Q 35.0625 48.390625 27.6875 48.390625 
Q 23 48.390625 18.546875 47.265625 
Q 14.109375 46.140625 10.015625 43.890625 
L 10.015625 52.203125 
Q 14.9375 54.109375 19.578125 55.046875 
Q 24.21875 56 28.609375 56 
Q 40.484375 56 46.34375 49.84375 
Q 52.203125 43.703125 52.203125 31.203125 
z
" id="DejaVuSans-97"/>
       <path d="M 18.3125 70.21875 
L 18.3125 54.6875 
L 36.8125 54.6875 
L 36.8125 47.703125 
L 18.3125 47.703125 
L 18.3125 18.015625 
Q 18.3125 11.328125 20.140625 9.421875 
Q 21.96875 7.515625 27.59375 7.515625 
L 36.8125 7.515625 
L 36.8125 0 
L 27.59375 0 
Q 17.1875 0 13.234375 3.875 
Q 9.28125 7.765625 9.28125 18.015625 
L 9.28125 47.703125 
L 2.6875 47.703125 
L 2.6875 54.6875 
L 9.28125 54.6875 
L 9.28125 70.21875 
z
" id="DejaVuSans-116"/>
       <path d="M 56.203125 29.59375 
L 56.203125 25.203125 
L 14.890625 25.203125 
Q 15.484375 15.921875 20.484375 11.0625 
Q 25.484375 6.203125 34.421875 6.203125 
Q 39.59375 6.203125 44.453125 7.46875 
Q 49.3125 8.734375 54.109375 11.28125 
L 54.109375 2.78125 
Q 49.265625 0.734375 44.1875 -0.34375 
Q 39.109375 -1.421875 33.890625 -1.421875 
Q 20.796875 -1.421875 13.15625 6.1875 
Q 5.515625 13.8125 5.515625 26.8125 
Q 5.515625 40.234375 12.765625 48.109375 
Q 20.015625 56 32.328125 56 
Q 43.359375 56 49.78125 48.890625 
Q 56.203125 41.796875 56.203125 29.59375 
z
M 47.21875 32.234375 
Q 47.125 39.59375 43.09375 43.984375 
Q 39.0625 48.390625 32.421875 48.390625 
Q 24.90625 48.390625 20.390625 44.140625 
Q 15.875 39.890625 15.1875 32.171875 
z
" id="DejaVuSans-101"/>
      </defs>
      <use xlink:href="#DejaVuSans-68"/>
      <use x="77.001953" xlink:href="#DejaVuSans-97"/>
      <use x="138.28125" xlink:href="#DejaVuSans-116"/>
      <use x="177.490234" xlink:href="#DejaVuSans-101"/>
     </g>
    </g>
   </g>
   <g id="matplotlib.axis_2">
    <g id="ytick_1">
     <g id="line2d_6">
      <defs>
       <path d="M 0 0 
L -3.5 0 
" id="m8695027f8d" style="stroke:#000000;stroke-width:0.8;"/>
      </defs>
      <g>
       <use style="stroke:#000000;stroke-width:0.8;" x="135" xlink:href="#m8695027f8d" y="492.48"/>
      </g>
     </g>
     <g id="text_7">
      <!-- 0 -->
      <g transform="translate(121.6375 496.279219)scale(0.1 -0.1)">
       <use xlink:href="#DejaVuSans-48"/>
      </g>
     </g>
    </g>
    <g id="ytick_2">
     <g id="line2d_7">
      <g>
       <use style="stroke:#000000;stroke-width:0.8;" x="135" xlink:href="#m8695027f8d" y="428.506402"/>
      </g>
     </g>
     <g id="text_8">
      <!-- 10000 -->
      <g transform="translate(96.1875 432.305621)scale(0.1 -0.1)">
       <use xlink:href="#DejaVuSans-49"/>
       <use x="63.623047" xlink:href="#DejaVuSans-48"/>
       <use x="127.246094" xlink:href="#DejaVuSans-48"/>
       <use x="190.869141" xlink:href="#DejaVuSans-48"/>
       <use x="254.492188" xlink:href="#DejaVuSans-48"/>
      </g>
     </g>
    </g>
    <g id="ytick_3">
     <g id="line2d_8">
      <g>
       <use style="stroke:#000000;stroke-width:0.8;" x="135" xlink:href="#m8695027f8d" y="364.532804"/>
      </g>
     </g>
     <g id="text_9">
      <!-- 20000 -->
      <g transform="translate(96.1875 368.332022)scale(0.1 -0.1)">
       <use xlink:href="#DejaVuSans-50"/>
       <use x="63.623047" xlink:href="#DejaVuSans-48"/>
       <use x="127.246094" xlink:href="#DejaVuSans-48"/>
       <use x="190.869141" xlink:href="#DejaVuSans-48"/>
       <use x="254.492188" xlink:href="#DejaVuSans-48"/>
      </g>
     </g>
    </g>
    <g id="ytick_4">
     <g id="line2d_9">
      <g>
       <use style="stroke:#000000;stroke-width:0.8;" x="135" xlink:href="#m8695027f8d" y="300.559205"/>
      </g>
     </g>
     <g id="text_10">
      <!-- 30000 -->
      <g transform="translate(96.1875 304.358424)scale(0.1 -0.1)">
       <use xlink:href="#DejaVuSans-51"/>
       <use x="63.623047" xlink:href="#DejaVuSans-48"/>
       <use x="127.246094" xlink:href="#DejaVuSans-48"/>
       <use x="190.869141" xlink:href="#DejaVuSans-48"/>
       <use x="254.492188" xlink:href="#DejaVuSans-48"/>
      </g>
     </g>
    </g>
    <g id="ytick_5">
     <g id="line2d_10">
      <g>
       <use style="stroke:#000000;stroke-width:0.8;" x="135" xlink:href="#m8695027f8d" y="236.585607"/>
      </g>
     </g>
     <g id="text_11">
      <!-- 40000 -->
      <g transform="translate(96.1875 240.384826)scale(0.1 -0.1)">
       <defs>
        <path d="M 37.796875 64.3125 
L 12.890625 25.390625 
L 37.796875 25.390625 
z
M 35.203125 72.90625 
L 47.609375 72.90625 
L 47.609375 25.390625 
L 58.015625 25.390625 
L 58.015625 17.1875 
L 47.609375 17.1875 
L 47.609375 0 
L 37.796875 0 
L 37.796875 17.1875 
L 4.890625 17.1875 
L 4.890625 26.703125 
z
" id="DejaVuSans-52"/>
       </defs>
       <use xlink:href="#DejaVuSans-52"/>
       <use x="63.623047" xlink:href="#DejaVuSans-48"/>
       <use x="127.246094" xlink:href="#DejaVuSans-48"/>
       <use x="190.869141" xlink:href="#DejaVuSans-48"/>
       <use x="254.492188" xlink:href="#DejaVuSans-48"/>
      </g>
     </g>
    </g>
    <g id="ytick_6">
     <g id="line2d_11">
      <g>
       <use style="stroke:#000000;stroke-width:0.8;" x="135" xlink:href="#m8695027f8d" y="172.612009"/>
      </g>
     </g>
     <g id="text_12">
      <!-- 50000 -->
      <g transform="translate(96.1875 176.411228)scale(0.1 -0.1)">
       <use xlink:href="#DejaVuSans-53"/>
       <use x="63.623047" xlink:href="#DejaVuSans-48"/>
       <use x="127.246094" xlink:href="#DejaVuSans-48"/>
       <use x="190.869141" xlink:href="#DejaVuSans-48"/>
       <use x="254.492188" xlink:href="#DejaVuSans-48"/>
      </g>
     </g>
    </g>
    <g id="ytick_7">
     <g id="line2d_12">
      <g>
       <use style="stroke:#000000;stroke-width:0.8;" x="135" xlink:href="#m8695027f8d" y="108.638411"/>
      </g>
     </g>
     <g id="text_13">
      <!-- 60000 -->
      <g transform="translate(96.1875 112.43763)scale(0.1 -0.1)">
       <use xlink:href="#DejaVuSans-54"/>
       <use x="63.623047" xlink:href="#DejaVuSans-48"/>
       <use x="127.246094" xlink:href="#DejaVuSans-48"/>
       <use x="190.869141" xlink:href="#DejaVuSans-48"/>
       <use x="254.492188" xlink:href="#DejaVuSans-48"/>
      </g>
     </g>
    </g>
    <g id="text_14">
     <!-- Trend -->
     <g transform="translate(90.107812 304.558906)rotate(-90)scale(0.1 -0.1)">
      <defs>
       <path d="M -0.296875 72.90625 
L 61.375 72.90625 
L 61.375 64.59375 
L 35.5 64.59375 
L 35.5 0 
L 25.59375 0 
L 25.59375 64.59375 
L -0.296875 64.59375 
z
" id="DejaVuSans-84"/>
       <path d="M 41.109375 46.296875 
Q 39.59375 47.171875 37.8125 47.578125 
Q 36.03125 48 33.890625 48 
Q 26.265625 48 22.1875 43.046875 
Q 18.109375 38.09375 18.109375 28.8125 
L 18.109375 0 
L 9.078125 0 
L 9.078125 54.6875 
L 18.109375 54.6875 
L 18.109375 46.1875 
Q 20.953125 51.171875 25.484375 53.578125 
Q 30.03125 56 36.53125 56 
Q 37.453125 56 38.578125 55.875 
Q 39.703125 55.765625 41.0625 55.515625 
z
" id="DejaVuSans-114"/>
       <path d="M 54.890625 33.015625 
L 54.890625 0 
L 45.90625 0 
L 45.90625 32.71875 
Q 45.90625 40.484375 42.875 44.328125 
Q 39.84375 48.1875 33.796875 48.1875 
Q 26.515625 48.1875 22.3125 43.546875 
Q 18.109375 38.921875 18.109375 30.90625 
L 18.109375 0 
L 9.078125 0 
L 9.078125 54.6875 
L 18.109375 54.6875 
L 18.109375 46.1875 
Q 21.34375 51.125 25.703125 53.5625 
Q 30.078125 56 35.796875 56 
Q 45.21875 56 50.046875 50.171875 
Q 54.890625 44.34375 54.890625 33.015625 
z
" id="DejaVuSans-110"/>
       <path d="M 45.40625 46.390625 
L 45.40625 75.984375 
L 54.390625 75.984375 
L 54.390625 0 
L 45.40625 0 
L 45.40625 8.203125 
Q 42.578125 3.328125 38.25 0.953125 
Q 33.9375 -1.421875 27.875 -1.421875 
Q 17.96875 -1.421875 11.734375 6.484375 
Q 5.515625 14.40625 5.515625 27.296875 
Q 5.515625 40.1875 11.734375 48.09375 
Q 17.96875 56 27.875 56 
Q 33.9375 56 38.25 53.625 
Q 42.578125 51.265625 45.40625 46.390625 
z
M 14.796875 27.296875 
Q 14.796875 17.390625 18.875 11.75 
Q 22.953125 6.109375 30.078125 6.109375 
Q 37.203125 6.109375 41.296875 11.75 
Q 45.40625 17.390625 45.40625 27.296875 
Q 45.40625 37.203125 41.296875 42.84375 
Q 37.203125 48.484375 30.078125 48.484375 
Q 22.953125 48.484375 18.875 42.84375 
Q 14.796875 37.203125 14.796875 27.296875 
z
" id="DejaVuSans-100"/>
      </defs>
      <use xlink:href="#DejaVuSans-84"/>
      <use x="46.333984" xlink:href="#DejaVuSans-114"/>
      <use x="85.197266" xlink:href="#DejaVuSans-101"/>
      <use x="146.720703" xlink:href="#DejaVuSans-110"/>
      <use x="210.099609" xlink:href="#DejaVuSans-100"/>
     </g>
    </g>
   </g>
   <g id="line2d_13">
    <path clip-path="url(#pdbebfa0216)" d="M 173.045455 492.48 
L 342.520661 492.473603 
L 349.438017 492.217708 
L 356.355372 492.48 
L 359.81405 492.38404 
L 363.272727 492.14094 
L 366.731405 492.48 
L 370.190083 491.821072 
L 377.107438 492.172927 
L 380.566116 491.718714 
L 384.024793 492.153735 
L 387.483471 491.168541 
L 390.942149 491.629151 
L 397.859504 491.891443 
L 404.77686 491.865853 
L 408.235537 491.494807 
L 411.694215 491.77629 
L 415.152893 491.475615 
L 418.61157 491.424436 
L 425.528926 491.58437 
L 428.987603 491.053389 
L 435.904959 491.264502 
L 439.363636 491.603562 
L 442.822314 490.208937 
L 449.739669 490.036209 
L 456.657025 489.460446 
L 460.115702 489.697148 
L 463.57438 489.326102 
L 467.033058 489.166168 
L 470.491736 487.605212 
L 473.950413 485.238189 
L 477.409091 485.519673 
L 484.326446 485.142228 
L 487.785124 485.180612 
L 501.619835 484.656029 
L 505.078512 484.233803 
L 508.53719 484.380942 
L 511.995868 484.003498 
L 515.454545 483.837167 
L 518.913223 483.881948 
L 522.371901 483.766796 
L 525.830579 482.551298 
L 529.289256 481.956343 
L 532.747934 482.276211 
L 539.665289 481.009534 
L 543.123967 481.598091 
L 546.582645 481.578899 
L 550.041322 480.248248 
L 553.5 479.902791 
L 556.958678 480.254645 
L 560.417355 480.29303 
L 563.876033 479.435783 
L 567.334711 477.721291 
L 570.793388 474.311498 
L 574.252066 474.976824 
L 577.710744 475.891646 
L 581.169421 476.429024 
L 584.628099 475.264705 
L 588.086777 476.281885 
L 591.545455 475.578175 
L 595.004132 476.857647 
L 598.46281 477.132734 
L 601.921488 478.181901 
L 605.380165 480.126698 
L 608.838843 480.868792 
L 612.297521 481.96274 
L 615.756198 482.365774 
L 619.214876 482.129072 
L 622.673554 480.472156 
L 629.590909 480.523334 
L 633.049587 478.591332 
L 636.508264 479.845214 
L 639.966942 475.904441 
L 643.42562 472.51384 
L 646.884298 473.000039 
L 650.342975 470.927295 
L 653.801653 471.445481 
L 657.260331 468.701014 
L 660.719008 468.598656 
L 664.177686 467.395952 
L 667.636364 470.946487 
L 671.095041 465.399976 
L 674.553719 463.647099 
L 678.012397 465.182466 
L 681.471074 461.011387 
L 684.929752 462.047759 
L 688.38843 464.964955 
L 691.847107 467.268005 
L 695.305785 470.863321 
L 698.764463 470.773758 
L 702.22314 472.398688 
L 705.681818 472.501045 
L 709.140496 470.908103 
L 712.599174 467.287197 
L 716.057851 467.357568 
L 719.516529 466.960932 
L 722.975207 467.25521 
L 726.433884 464.414782 
L 729.892562 470.716182 
L 733.35124 470.837732 
L 736.809917 465.65587 
L 740.268595 466.071699 
L 743.727273 469.577452 
L 747.18595 465.566307 
L 750.644628 470.780155 
L 754.103306 473.057616 
L 757.561983 472.117204 
L 761.020661 472.27074 
L 764.479339 473.326305 
L 767.938017 474.701737 
L 771.396694 474.23473 
L 774.855372 475.258307 
L 778.31405 475.392652 
L 781.772727 474.797697 
L 785.231405 475.763699 
L 792.14876 476.461011 
L 795.607438 476.940813 
L 799.066116 476.640137 
L 802.524793 477.567754 
L 805.983471 478.162709 
L 809.442149 477.267078 
L 812.900826 478.399411 
L 816.359504 479.889996 
L 819.818182 479.730062 
L 823.27686 480.344208 
L 830.194215 482.058701 
L 833.652893 481.694051 
L 837.11157 482.416953 
L 840.570248 483.798783 
L 844.028926 484.432121 
L 847.487603 483.760399 
L 850.946281 483.728412 
L 854.404959 483.510902 
L 857.863636 482.455337 
L 861.322314 483.082278 
L 864.780992 483.34457 
L 868.239669 484.438519 
L 871.698347 482.749616 
L 875.157025 482.442542 
L 882.07438 483.632451 
L 885.533058 483.440531 
L 888.991736 484.63044 
L 892.450413 483.702822 
L 895.909091 483.46612 
L 899.367769 483.760399 
L 906.285124 484.720003 
L 909.743802 484.905526 
L 913.202479 485.385328 
L 916.661157 484.963102 
L 923.578512 485.64762 
L 927.03719 485.96109 
L 930.495868 485.641222 
L 933.954545 486.165806 
L 933.954545 486.165806 
" style="fill:none;stroke:#1f77b4;stroke-linecap:square;stroke-width:1.5;"/>
   </g>
   <g id="line2d_14">
    <path clip-path="url(#pdbebfa0216)" d="M 173.045455 492.48 
L 615.756198 492.371245 
L 636.508264 492.275284 
L 667.636364 492.230503 
L 750.644628 492.166529 
L 757.561983 492.217708 
L 761.020661 492.153735 
L 764.479339 492.288079 
L 767.938017 492.211311 
L 771.396694 492.352053 
L 774.855372 492.224106 
L 795.607438 492.243298 
L 826.735537 492.307271 
L 854.404959 492.256092 
L 875.157025 492.249695 
L 899.367769 492.249695 
L 909.743802 492.230503 
L 913.202479 492.288079 
L 916.661157 492.211311 
L 923.578512 492.268887 
L 933.954545 492.307271 
L 933.954545 492.307271 
" style="fill:none;stroke:#ff7f0e;stroke-linecap:square;stroke-width:1.5;"/>
   </g>
   <g id="line2d_15">
    <path clip-path="url(#pdbebfa0216)" d="M 173.045455 492.48 
L 401.318182 492.467205 
L 408.235537 492.166529 
L 411.694215 492.160132 
L 415.152893 491.846661 
L 422.070248 492.332861 
L 425.528926 492.038582 
L 435.904959 492.070569 
L 439.363636 492.377642 
L 442.822314 492.256092 
L 446.280992 492.35845 
L 453.198347 492.217708 
L 456.657025 492.198516 
L 460.115702 491.942622 
L 463.57438 492.211311 
L 470.491736 492.102556 
L 473.950413 490.688739 
L 477.409091 492.038582 
L 480.867769 491.891443 
L 484.326446 491.520396 
L 487.785124 491.379654 
L 491.243802 491.757098 
L 494.702479 491.686727 
L 498.161157 491.418038 
L 501.619835 491.571575 
L 505.078512 491.366859 
L 508.53719 490.861468 
L 511.995868 491.398846 
L 515.454545 491.136554 
L 518.913223 489.972235 
L 522.371901 491.136554 
L 525.830579 490.119374 
L 529.289256 490.292103 
L 532.747934 486.370521 
L 536.206612 483.83077 
L 539.665289 485.98668 
L 543.123967 484.02269 
L 546.582645 485.929104 
L 550.041322 484.080267 
L 553.5 484.291379 
L 556.958678 476.358653 
L 560.417355 477.350244 
L 563.876033 483.338173 
L 567.334711 474.45224 
L 570.793388 480.983944 
L 574.252066 479.327028 
L 577.710744 473.121589 
L 581.169421 474.01722 
L 584.628099 480.683268 
L 588.086777 476.089964 
L 591.545455 473.524623 
L 595.004132 478.194696 
L 598.46281 477.86843 
L 601.921488 478.738471 
L 605.380165 474.682545 
L 608.838843 476.025991 
L 612.297521 469.890922 
L 615.756198 476.742495 
L 619.214876 480.516937 
L 622.673554 469.711796 
L 626.132231 480.555321 
L 629.590909 482.986318 
L 633.049587 477.324655 
L 636.508264 487.323728 
L 639.966942 481.917959 
L 643.42562 484.963102 
L 646.884298 485.916309 
L 650.342975 481.559707 
L 653.801653 480.868792 
L 657.260331 482.148264 
L 660.719008 479.269452 
L 664.177686 486.018667 
L 667.636364 482.76241 
L 671.095041 478.584934 
L 674.553719 472.200369 
L 678.012397 481.924356 
L 681.471074 478.904802 
L 684.929752 478.066748 
L 688.38843 480.651282 
L 691.847107 472.309124 
L 695.305785 478.322643 
L 698.764463 466.60268 
L 702.22314 462.348435 
L 705.681818 473.850888 
L 709.140496 459.949425 
L 712.599174 475.917235 
L 716.057851 481.879575 
L 719.516529 475.674136 
L 722.975207 477.363039 
L 726.433884 469.142431 
L 729.892562 479.723665 
L 733.35124 461.075361 
L 736.809917 473.639775 
L 740.268595 475.578175 
L 743.727273 479.813228 
L 747.18595 464.344412 
L 750.644628 459.181742 
L 754.103306 471.938078 
L 757.561983 472.993642 
L 761.020661 480.133096 
L 764.479339 477.318257 
L 767.938017 481.335799 
L 771.396694 475.181539 
L 774.855372 443.105177 
L 778.31405 457.371289 
L 781.772727 463.218476 
L 785.231405 469.839744 
L 788.690083 472.923271 
L 792.14876 469.980486 
L 795.607438 457.140984 
L 799.066116 466.890561 
L 802.524793 472.398688 
L 805.983471 472.699363 
L 809.442149 478.143517 
L 812.900826 479.359015 
L 816.359504 476.224309 
L 823.27686 475.283897 
L 826.735537 473.639775 
L 830.194215 475.661341 
L 833.652893 463.947775 
L 837.11157 480.38899 
L 840.570248 476.275488 
L 844.028926 479.851612 
L 847.487603 481.873177 
L 850.946281 482.237827 
L 854.404959 481.124686 
L 857.863636 480.587308 
L 861.322314 482.935139 
L 864.780992 482.250622 
L 868.239669 483.274199 
L 871.698347 481.98833 
L 875.157025 478.719279 
L 878.615702 472.494648 
L 882.07438 476.064375 
L 885.533058 482.704834 
L 888.991736 476.704111 
L 892.450413 483.318981 
L 895.909091 463.525549 
L 899.367769 484.931115 
L 906.285124 482.301801 
L 909.743802 483.690028 
L 913.202479 481.591694 
L 916.661157 474.919247 
L 920.119835 485.801156 
L 923.578512 485.999475 
L 927.03719 484.099459 
L 930.495868 485.135831 
L 933.954545 485.839541 
L 933.954545 485.839541 
" style="fill:none;stroke:#2ca02c;stroke-linecap:square;stroke-width:1.5;"/>
   </g>
   <g id="line2d_16">
    <path clip-path="url(#pdbebfa0216)" d="M 173.045455 492.48 
L 335.603306 492.38404 
L 345.979339 492.198516 
L 349.438017 491.936224 
L 356.355372 491.827469 
L 359.81405 491.737906 
L 363.272727 491.424436 
L 366.731405 491.424436 
L 370.190083 490.765508 
L 373.64876 490.330487 
L 377.107438 490.074593 
L 380.566116 489.313307 
L 384.024793 488.987042 
L 387.483471 487.758748 
L 390.942149 486.920694 
L 397.859504 485.660414 
L 401.318182 485.046268 
L 404.77686 484.643234 
L 408.235537 483.971511 
L 415.152893 483.267802 
L 418.61157 482.653655 
L 422.070248 481.841191 
L 425.528926 481.412568 
L 432.446281 479.582923 
L 439.363636 478.021967 
L 442.822314 475.994004 
L 449.739669 471.61821 
L 453.198347 469.180816 
L 456.657025 466.48113 
L 460.115702 464.286835 
L 467.033058 458.529211 
L 470.491736 454.057457 
L 473.950413 448.638893 
L 484.326446 429.26129 
L 487.785124 423.094235 
L 501.619835 396.353271 
L 505.078512 389.252202 
L 508.53719 382.822855 
L 515.454545 368.192093 
L 518.913223 362.146588 
L 525.830579 347.304714 
L 529.289256 339.013735 
L 532.747934 334.977001 
L 536.206612 332.891462 
L 539.665289 327.97829 
L 543.123967 325.617664 
L 546.582645 321.331433 
L 550.041322 317.544196 
L 553.5 313.213183 
L 556.958678 317.166751 
L 560.417355 320.167113 
L 563.876033 316.328697 
L 567.334711 319.655324 
L 570.793388 313.046852 
L 574.252066 308.760621 
L 577.710744 311.581856 
L 581.169421 314.051237 
L 584.628099 308.696647 
L 588.086777 308.965336 
L 591.545455 311.102054 
L 595.004132 309.860967 
L 598.46281 309.195641 
L 601.921488 308.696647 
L 605.380165 314.217569 
L 608.838843 319.149933 
L 612.297521 331.324109 
L 615.756198 337.056143 
L 619.214876 338.80902 
L 622.673554 349.716518 
L 626.132231 349.748505 
L 629.590909 347.439058 
L 633.049587 348.897656 
L 636.508264 341.623858 
L 639.966942 335.808658 
L 643.42562 323.576906 
L 646.884298 310.890942 
L 650.342975 300.47604 
L 653.801653 291.289431 
L 657.260331 278.072486 
L 660.719008 267.644789 
L 664.177686 249.25238 
L 667.636364 237.685953 
L 671.095041 224.756889 
L 674.553719 216.453116 
L 678.012397 199.973517 
L 681.471074 182.329599 
L 688.38843 151.219238 
L 691.847107 146.472397 
L 695.305785 139.249778 
L 698.764463 143.676751 
L 702.22314 153.9765 
L 705.681818 152.888949 
L 709.140496 164.109918 
L 712.599174 155.774158 
L 716.057851 141.488853 
L 719.516529 133.031544 
L 722.975207 123.230789 
L 726.433884 118.823008 
L 729.892562 110.128996 
L 733.35124 120.236824 
L 736.809917 112.572787 
L 740.268595 103.424563 
L 743.727273 93.559834 
L 747.18595 95.114392 
L 750.644628 107.026276 
L 754.103306 108.414503 
L 757.561983 107.800357 
L 761.020661 100.264267 
L 764.479339 96.464235 
L 767.938017 90.098862 
L 771.396694 89.28 
L 774.855372 121.689025 
L 778.31405 139.979077 
L 781.772727 151.846179 
L 785.231405 158.006837 
L 788.690083 161.410232 
L 792.14876 168.140254 
L 795.607438 188.176785 
L 799.066116 198.143872 
L 802.524793 203.594423 
L 805.983471 209.275278 
L 809.442149 208.635542 
L 812.900826 207.874256 
L 816.359504 211.731864 
L 819.818182 215.870956 
L 823.27686 221.116791 
L 826.735537 228.876789 
L 830.194215 235.44048 
L 833.652893 253.340293 
L 837.11157 255.5026 
L 840.570248 263.217816 
L 844.028926 268.003041 
L 847.487603 270.11417 
L 850.946281 271.83506 
L 854.404959 274.445183 
L 857.863636 276.556311 
L 861.322314 276.940153 
L 868.239669 279.639839 
L 871.698347 280.618635 
L 875.157025 284.572203 
L 878.615702 295.294178 
L 882.07438 303.086163 
L 885.533058 304.020177 
L 888.991736 312.196003 
L 892.450413 312.758971 
L 895.909091 332.917051 
L 899.367769 331.976639 
L 902.826446 332.87227 
L 906.285124 335.495187 
L 909.743802 336.960183 
L 913.202479 340.945738 
L 916.661157 351.258282 
L 923.578512 350.868043 
L 927.03719 352.921596 
L 930.495868 353.606113 
L 933.954545 354.105107 
L 933.954545 354.105107 
" style="fill:none;stroke:#d62728;stroke-linecap:square;stroke-width:1.5;"/>
   </g>
   <g id="patch_3">
    <path d="M 135 512.64 
L 135 69.12 
" style="fill:none;stroke:#000000;stroke-linecap:square;stroke-linejoin:miter;stroke-width:0.8;"/>
   </g>
   <g id="patch_4">
    <path d="M 972 512.64 
L 972 69.12 
" style="fill:none;stroke:#000000;stroke-linecap:square;stroke-linejoin:miter;stroke-width:0.8;"/>
   </g>
   <g id="patch_5">
    <path d="M 135 512.64 
L 972 512.64 
" style="fill:none;stroke:#000000;stroke-linecap:square;stroke-linejoin:miter;stroke-width:0.8;"/>
   </g>
   <g id="patch_6">
    <path d="M 135 69.12 
L 972 69.12 
" style="fill:none;stroke:#000000;stroke-linecap:square;stroke-linejoin:miter;stroke-width:0.8;"/>
   </g>
   <g id="text_15">
    <!-- COVID19 Trend in Saudi Arabia -->
    <g transform="translate(460.88625 63.12)scale(0.12 -0.12)">
     <defs>
      <path d="M 64.40625 67.28125 
L 64.40625 56.890625 
Q 59.421875 61.53125 53.78125 63.8125 
Q 48.140625 66.109375 41.796875 66.109375 
Q 29.296875 66.109375 22.65625 58.46875 
Q 16.015625 50.828125 16.015625 36.375 
Q 16.015625 21.96875 22.65625 14.328125 
Q 29.296875 6.6875 41.796875 6.6875 
Q 48.140625 6.6875 53.78125 8.984375 
Q 59.421875 11.28125 64.40625 15.921875 
L 64.40625 5.609375 
Q 59.234375 2.09375 53.4375 0.328125 
Q 47.65625 -1.421875 41.21875 -1.421875 
Q 24.65625 -1.421875 15.125 8.703125 
Q 5.609375 18.84375 5.609375 36.375 
Q 5.609375 53.953125 15.125 64.078125 
Q 24.65625 74.21875 41.21875 74.21875 
Q 47.75 74.21875 53.53125 72.484375 
Q 59.328125 70.75 64.40625 67.28125 
z
" id="DejaVuSans-67"/>
      <path d="M 39.40625 66.21875 
Q 28.65625 66.21875 22.328125 58.203125 
Q 16.015625 50.203125 16.015625 36.375 
Q 16.015625 22.609375 22.328125 14.59375 
Q 28.65625 6.59375 39.40625 6.59375 
Q 50.140625 6.59375 56.421875 14.59375 
Q 62.703125 22.609375 62.703125 36.375 
Q 62.703125 50.203125 56.421875 58.203125 
Q 50.140625 66.21875 39.40625 66.21875 
z
M 39.40625 74.21875 
Q 54.734375 74.21875 63.90625 63.9375 
Q 73.09375 53.65625 73.09375 36.375 
Q 73.09375 19.140625 63.90625 8.859375 
Q 54.734375 -1.421875 39.40625 -1.421875 
Q 24.03125 -1.421875 14.8125 8.828125 
Q 5.609375 19.09375 5.609375 36.375 
Q 5.609375 53.65625 14.8125 63.9375 
Q 24.03125 74.21875 39.40625 74.21875 
z
" id="DejaVuSans-79"/>
      <path d="M 28.609375 0 
L 0.78125 72.90625 
L 11.078125 72.90625 
L 34.1875 11.53125 
L 57.328125 72.90625 
L 67.578125 72.90625 
L 39.796875 0 
z
" id="DejaVuSans-86"/>
      <path d="M 9.8125 72.90625 
L 19.671875 72.90625 
L 19.671875 0 
L 9.8125 0 
z
" id="DejaVuSans-73"/>
      <path id="DejaVuSans-32"/>
      <path d="M 9.421875 54.6875 
L 18.40625 54.6875 
L 18.40625 0 
L 9.421875 0 
z
M 9.421875 75.984375 
L 18.40625 75.984375 
L 18.40625 64.59375 
L 9.421875 64.59375 
z
" id="DejaVuSans-105"/>
      <path d="M 53.515625 70.515625 
L 53.515625 60.890625 
Q 47.90625 63.578125 42.921875 64.890625 
Q 37.9375 66.21875 33.296875 66.21875 
Q 25.25 66.21875 20.875 63.09375 
Q 16.5 59.96875 16.5 54.203125 
Q 16.5 49.359375 19.40625 46.890625 
Q 22.3125 44.4375 30.421875 42.921875 
L 36.375 41.703125 
Q 47.40625 39.59375 52.65625 34.296875 
Q 57.90625 29 57.90625 20.125 
Q 57.90625 9.515625 50.796875 4.046875 
Q 43.703125 -1.421875 29.984375 -1.421875 
Q 24.8125 -1.421875 18.96875 -0.25 
Q 13.140625 0.921875 6.890625 3.21875 
L 6.890625 13.375 
Q 12.890625 10.015625 18.65625 8.296875 
Q 24.421875 6.59375 29.984375 6.59375 
Q 38.421875 6.59375 43.015625 9.90625 
Q 47.609375 13.234375 47.609375 19.390625 
Q 47.609375 24.75 44.3125 27.78125 
Q 41.015625 30.8125 33.5 32.328125 
L 27.484375 33.5 
Q 16.453125 35.6875 11.515625 40.375 
Q 6.59375 45.0625 6.59375 53.421875 
Q 6.59375 63.09375 13.40625 68.65625 
Q 20.21875 74.21875 32.171875 74.21875 
Q 37.3125 74.21875 42.625 73.28125 
Q 47.953125 72.359375 53.515625 70.515625 
z
" id="DejaVuSans-83"/>
      <path d="M 8.5 21.578125 
L 8.5 54.6875 
L 17.484375 54.6875 
L 17.484375 21.921875 
Q 17.484375 14.15625 20.5 10.265625 
Q 23.53125 6.390625 29.59375 6.390625 
Q 36.859375 6.390625 41.078125 11.03125 
Q 45.3125 15.671875 45.3125 23.6875 
L 45.3125 54.6875 
L 54.296875 54.6875 
L 54.296875 0 
L 45.3125 0 
L 45.3125 8.40625 
Q 42.046875 3.421875 37.71875 1 
Q 33.40625 -1.421875 27.6875 -1.421875 
Q 18.265625 -1.421875 13.375 4.4375 
Q 8.5 10.296875 8.5 21.578125 
z
M 31.109375 56 
z
" id="DejaVuSans-117"/>
      <path d="M 34.1875 63.1875 
L 20.796875 26.90625 
L 47.609375 26.90625 
z
M 28.609375 72.90625 
L 39.796875 72.90625 
L 67.578125 0 
L 57.328125 0 
L 50.6875 18.703125 
L 17.828125 18.703125 
L 11.1875 0 
L 0.78125 0 
z
" id="DejaVuSans-65"/>
      <path d="M 48.6875 27.296875 
Q 48.6875 37.203125 44.609375 42.84375 
Q 40.53125 48.484375 33.40625 48.484375 
Q 26.265625 48.484375 22.1875 42.84375 
Q 18.109375 37.203125 18.109375 27.296875 
Q 18.109375 17.390625 22.1875 11.75 
Q 26.265625 6.109375 33.40625 6.109375 
Q 40.53125 6.109375 44.609375 11.75 
Q 48.6875 17.390625 48.6875 27.296875 
z
M 18.109375 46.390625 
Q 20.953125 51.265625 25.265625 53.625 
Q 29.59375 56 35.59375 56 
Q 45.5625 56 51.78125 48.09375 
Q 58.015625 40.1875 58.015625 27.296875 
Q 58.015625 14.40625 51.78125 6.484375 
Q 45.5625 -1.421875 35.59375 -1.421875 
Q 29.59375 -1.421875 25.265625 0.953125 
Q 20.953125 3.328125 18.109375 8.203125 
L 18.109375 0 
L 9.078125 0 
L 9.078125 75.984375 
L 18.109375 75.984375 
z
" id="DejaVuSans-98"/>
     </defs>
     <use xlink:href="#DejaVuSans-67"/>
     <use x="69.824219" xlink:href="#DejaVuSans-79"/>
     <use x="146.785156" xlink:href="#DejaVuSans-86"/>
     <use x="215.193359" xlink:href="#DejaVuSans-73"/>
     <use x="244.685547" xlink:href="#DejaVuSans-68"/>
     <use x="321.6875" xlink:href="#DejaVuSans-49"/>
     <use x="385.310547" xlink:href="#DejaVuSans-57"/>
     <use x="448.933594" xlink:href="#DejaVuSans-32"/>
     <use x="480.720703" xlink:href="#DejaVuSans-84"/>
     <use x="527.054688" xlink:href="#DejaVuSans-114"/>
     <use x="565.917969" xlink:href="#DejaVuSans-101"/>
     <use x="627.441406" xlink:href="#DejaVuSans-110"/>
     <use x="690.820312" xlink:href="#DejaVuSans-100"/>
     <use x="754.296875" xlink:href="#DejaVuSans-32"/>
     <use x="786.083984" xlink:href="#DejaVuSans-105"/>
     <use x="813.867188" xlink:href="#DejaVuSans-110"/>
     <use x="877.246094" xlink:href="#DejaVuSans-32"/>
     <use x="909.033203" xlink:href="#DejaVuSans-83"/>
     <use x="972.509766" xlink:href="#DejaVuSans-97"/>
     <use x="1033.789062" xlink:href="#DejaVuSans-117"/>
     <use x="1097.167969" xlink:href="#DejaVuSans-100"/>
     <use x="1160.644531" xlink:href="#DejaVuSans-105"/>
     <use x="1188.427734" xlink:href="#DejaVuSans-32"/>
     <use x="1220.214844" xlink:href="#DejaVuSans-65"/>
     <use x="1288.623047" xlink:href="#DejaVuSans-114"/>
     <use x="1329.736328" xlink:href="#DejaVuSans-97"/>
     <use x="1391.015625" xlink:href="#DejaVuSans-98"/>
     <use x="1454.492188" xlink:href="#DejaVuSans-105"/>
     <use x="1482.275391" xlink:href="#DejaVuSans-97"/>
    </g>
   </g>
   <g id="legend_1">
    <g id="patch_7">
     <path d="M 880.271875 135.8325 
L 965 135.8325 
Q 967 135.8325 967 133.8325 
L 967 76.12 
Q 967 74.12 965 74.12 
L 880.271875 74.12 
Q 878.271875 74.12 878.271875 76.12 
L 878.271875 133.8325 
Q 878.271875 135.8325 880.271875 135.8325 
z
" style="fill:#ffffff;opacity:0.8;stroke:#cccccc;stroke-linejoin:miter;"/>
    </g>
    <g id="line2d_17">
     <path d="M 882.271875 82.218437 
L 902.271875 82.218437 
" style="fill:none;stroke:#1f77b4;stroke-linecap:square;stroke-width:1.5;"/>
    </g>
    <g id="line2d_18"/>
    <g id="text_16">
     <!-- Confirmed -->
     <g transform="translate(910.271875 85.718437)scale(0.1 -0.1)">
      <defs>
       <path d="M 30.609375 48.390625 
Q 23.390625 48.390625 19.1875 42.75 
Q 14.984375 37.109375 14.984375 27.296875 
Q 14.984375 17.484375 19.15625 11.84375 
Q 23.34375 6.203125 30.609375 6.203125 
Q 37.796875 6.203125 41.984375 11.859375 
Q 46.1875 17.53125 46.1875 27.296875 
Q 46.1875 37.015625 41.984375 42.703125 
Q 37.796875 48.390625 30.609375 48.390625 
z
M 30.609375 56 
Q 42.328125 56 49.015625 48.375 
Q 55.71875 40.765625 55.71875 27.296875 
Q 55.71875 13.875 49.015625 6.21875 
Q 42.328125 -1.421875 30.609375 -1.421875 
Q 18.84375 -1.421875 12.171875 6.21875 
Q 5.515625 13.875 5.515625 27.296875 
Q 5.515625 40.765625 12.171875 48.375 
Q 18.84375 56 30.609375 56 
z
" id="DejaVuSans-111"/>
       <path d="M 37.109375 75.984375 
L 37.109375 68.5 
L 28.515625 68.5 
Q 23.6875 68.5 21.796875 66.546875 
Q 19.921875 64.59375 19.921875 59.515625 
L 19.921875 54.6875 
L 34.71875 54.6875 
L 34.71875 47.703125 
L 19.921875 47.703125 
L 19.921875 0 
L 10.890625 0 
L 10.890625 47.703125 
L 2.296875 47.703125 
L 2.296875 54.6875 
L 10.890625 54.6875 
L 10.890625 58.5 
Q 10.890625 67.625 15.140625 71.796875 
Q 19.390625 75.984375 28.609375 75.984375 
z
" id="DejaVuSans-102"/>
       <path d="M 52 44.1875 
Q 55.375 50.25 60.0625 53.125 
Q 64.75 56 71.09375 56 
Q 79.640625 56 84.28125 50.015625 
Q 88.921875 44.046875 88.921875 33.015625 
L 88.921875 0 
L 79.890625 0 
L 79.890625 32.71875 
Q 79.890625 40.578125 77.09375 44.375 
Q 74.3125 48.1875 68.609375 48.1875 
Q 61.625 48.1875 57.5625 43.546875 
Q 53.515625 38.921875 53.515625 30.90625 
L 53.515625 0 
L 44.484375 0 
L 44.484375 32.71875 
Q 44.484375 40.625 41.703125 44.40625 
Q 38.921875 48.1875 33.109375 48.1875 
Q 26.21875 48.1875 22.15625 43.53125 
Q 18.109375 38.875 18.109375 30.90625 
L 18.109375 0 
L 9.078125 0 
L 9.078125 54.6875 
L 18.109375 54.6875 
L 18.109375 46.1875 
Q 21.1875 51.21875 25.484375 53.609375 
Q 29.78125 56 35.6875 56 
Q 41.65625 56 45.828125 52.96875 
Q 50 49.953125 52 44.1875 
z
" id="DejaVuSans-109"/>
      </defs>
      <use xlink:href="#DejaVuSans-67"/>
      <use x="69.824219" xlink:href="#DejaVuSans-111"/>
      <use x="131.005859" xlink:href="#DejaVuSans-110"/>
      <use x="194.384766" xlink:href="#DejaVuSans-102"/>
      <use x="229.589844" xlink:href="#DejaVuSans-105"/>
      <use x="257.373047" xlink:href="#DejaVuSans-114"/>
      <use x="296.736328" xlink:href="#DejaVuSans-109"/>
      <use x="394.148438" xlink:href="#DejaVuSans-101"/>
      <use x="455.671875" xlink:href="#DejaVuSans-100"/>
     </g>
    </g>
    <g id="line2d_19">
     <path d="M 882.271875 96.896563 
L 902.271875 96.896563 
" style="fill:none;stroke:#ff7f0e;stroke-linecap:square;stroke-width:1.5;"/>
    </g>
    <g id="line2d_20"/>
    <g id="text_17">
     <!-- Deaths -->
     <g transform="translate(910.271875 100.396563)scale(0.1 -0.1)">
      <defs>
       <path d="M 54.890625 33.015625 
L 54.890625 0 
L 45.90625 0 
L 45.90625 32.71875 
Q 45.90625 40.484375 42.875 44.328125 
Q 39.84375 48.1875 33.796875 48.1875 
Q 26.515625 48.1875 22.3125 43.546875 
Q 18.109375 38.921875 18.109375 30.90625 
L 18.109375 0 
L 9.078125 0 
L 9.078125 75.984375 
L 18.109375 75.984375 
L 18.109375 46.1875 
Q 21.34375 51.125 25.703125 53.5625 
Q 30.078125 56 35.796875 56 
Q 45.21875 56 50.046875 50.171875 
Q 54.890625 44.34375 54.890625 33.015625 
z
" id="DejaVuSans-104"/>
       <path d="M 44.28125 53.078125 
L 44.28125 44.578125 
Q 40.484375 46.53125 36.375 47.5 
Q 32.28125 48.484375 27.875 48.484375 
Q 21.1875 48.484375 17.84375 46.4375 
Q 14.5 44.390625 14.5 40.28125 
Q 14.5 37.15625 16.890625 35.375 
Q 19.28125 33.59375 26.515625 31.984375 
L 29.59375 31.296875 
Q 39.15625 29.25 43.1875 25.515625 
Q 47.21875 21.78125 47.21875 15.09375 
Q 47.21875 7.46875 41.1875 3.015625 
Q 35.15625 -1.421875 24.609375 -1.421875 
Q 20.21875 -1.421875 15.453125 -0.5625 
Q 10.6875 0.296875 5.421875 2 
L 5.421875 11.28125 
Q 10.40625 8.6875 15.234375 7.390625 
Q 20.0625 6.109375 24.8125 6.109375 
Q 31.15625 6.109375 34.5625 8.28125 
Q 37.984375 10.453125 37.984375 14.40625 
Q 37.984375 18.0625 35.515625 20.015625 
Q 33.0625 21.96875 24.703125 23.78125 
L 21.578125 24.515625 
Q 13.234375 26.265625 9.515625 29.90625 
Q 5.8125 33.546875 5.8125 39.890625 
Q 5.8125 47.609375 11.28125 51.796875 
Q 16.75 56 26.8125 56 
Q 31.78125 56 36.171875 55.265625 
Q 40.578125 54.546875 44.28125 53.078125 
z
" id="DejaVuSans-115"/>
      </defs>
      <use xlink:href="#DejaVuSans-68"/>
      <use x="77.001953" xlink:href="#DejaVuSans-101"/>
      <use x="138.525391" xlink:href="#DejaVuSans-97"/>
      <use x="199.804688" xlink:href="#DejaVuSans-116"/>
      <use x="239.013672" xlink:href="#DejaVuSans-104"/>
      <use x="302.392578" xlink:href="#DejaVuSans-115"/>
     </g>
    </g>
    <g id="line2d_21">
     <path d="M 882.271875 111.574687 
L 902.271875 111.574687 
" style="fill:none;stroke:#2ca02c;stroke-linecap:square;stroke-width:1.5;"/>
    </g>
    <g id="line2d_22"/>
    <g id="text_18">
     <!-- Recovered -->
     <g transform="translate(910.271875 115.074687)scale(0.1 -0.1)">
      <defs>
       <path d="M 44.390625 34.1875 
Q 47.5625 33.109375 50.5625 29.59375 
Q 53.5625 26.078125 56.59375 19.921875 
L 66.609375 0 
L 56 0 
L 46.6875 18.703125 
Q 43.0625 26.03125 39.671875 28.421875 
Q 36.28125 30.8125 30.421875 30.8125 
L 19.671875 30.8125 
L 19.671875 0 
L 9.8125 0 
L 9.8125 72.90625 
L 32.078125 72.90625 
Q 44.578125 72.90625 50.734375 67.671875 
Q 56.890625 62.453125 56.890625 51.90625 
Q 56.890625 45.015625 53.6875 40.46875 
Q 50.484375 35.9375 44.390625 34.1875 
z
M 19.671875 64.796875 
L 19.671875 38.921875 
L 32.078125 38.921875 
Q 39.203125 38.921875 42.84375 42.21875 
Q 46.484375 45.515625 46.484375 51.90625 
Q 46.484375 58.296875 42.84375 61.546875 
Q 39.203125 64.796875 32.078125 64.796875 
z
" id="DejaVuSans-82"/>
       <path d="M 48.78125 52.59375 
L 48.78125 44.1875 
Q 44.96875 46.296875 41.140625 47.34375 
Q 37.3125 48.390625 33.40625 48.390625 
Q 24.65625 48.390625 19.8125 42.84375 
Q 14.984375 37.3125 14.984375 27.296875 
Q 14.984375 17.28125 19.8125 11.734375 
Q 24.65625 6.203125 33.40625 6.203125 
Q 37.3125 6.203125 41.140625 7.25 
Q 44.96875 8.296875 48.78125 10.40625 
L 48.78125 2.09375 
Q 45.015625 0.34375 40.984375 -0.53125 
Q 36.96875 -1.421875 32.421875 -1.421875 
Q 20.0625 -1.421875 12.78125 6.34375 
Q 5.515625 14.109375 5.515625 27.296875 
Q 5.515625 40.671875 12.859375 48.328125 
Q 20.21875 56 33.015625 56 
Q 37.15625 56 41.109375 55.140625 
Q 45.0625 54.296875 48.78125 52.59375 
z
" id="DejaVuSans-99"/>
       <path d="M 2.984375 54.6875 
L 12.5 54.6875 
L 29.59375 8.796875 
L 46.6875 54.6875 
L 56.203125 54.6875 
L 35.6875 0 
L 23.484375 0 
z
" id="DejaVuSans-118"/>
      </defs>
      <use xlink:href="#DejaVuSans-82"/>
      <use x="64.982422" xlink:href="#DejaVuSans-101"/>
      <use x="126.505859" xlink:href="#DejaVuSans-99"/>
      <use x="181.486328" xlink:href="#DejaVuSans-111"/>
      <use x="242.667969" xlink:href="#DejaVuSans-118"/>
      <use x="301.847656" xlink:href="#DejaVuSans-101"/>
      <use x="363.371094" xlink:href="#DejaVuSans-114"/>
      <use x="402.234375" xlink:href="#DejaVuSans-101"/>
      <use x="463.757812" xlink:href="#DejaVuSans-100"/>
     </g>
    </g>
    <g id="line2d_23">
     <path d="M 882.271875 126.252813 
L 902.271875 126.252813 
" style="fill:none;stroke:#d62728;stroke-linecap:square;stroke-width:1.5;"/>
    </g>
    <g id="line2d_24"/>
    <g id="text_19">
     <!-- Active -->
     <g transform="translate(910.271875 129.752813)scale(0.1 -0.1)">
      <use xlink:href="#DejaVuSans-65"/>
      <use x="66.658203" xlink:href="#DejaVuSans-99"/>
      <use x="121.638672" xlink:href="#DejaVuSans-116"/>
      <use x="160.847656" xlink:href="#DejaVuSans-105"/>
      <use x="188.630859" xlink:href="#DejaVuSans-118"/>
      <use x="247.810547" xlink:href="#DejaVuSans-101"/>
     </g>
    </g>
   </g>
  </g>
 </g>
 <defs>
  <clipPath id="pdbebfa0216">
   <rect height="443.52" width="837" x="135" y="69.12"/>
  </clipPath>
 </defs>
</svg>
