<?xml version="1.0" encoding="utf-8" standalone="no"?>
<!DOCTYPE svg PUBLIC "-//W3C//DTD SVG 1.1//EN"
  "http://www.w3.org/Graphics/SVG/1.1/DTD/svg11.dtd">
<!-- Created with matplotlib (https://matplotlib.org/) -->
<svg height="576pt" version="1.1" viewBox="0 0 1080 576" width="1080pt" xmlns="http://www.w3.org/2000/svg" xmlns:xlink="http://www.w3.org/1999/xlink">
 <metadata>
  <rdf:RDF xmlns:cc="http://creativecommons.org/ns#" xmlns:dc="http://purl.org/dc/elements/1.1/" xmlns:rdf="http://www.w3.org/1999/02/22-rdf-syntax-ns#">
   <cc:Work>
    <dc:type rdf:resource="http://purl.org/dc/dcmitype/StillImage"/>
    <dc:date>2020-08-29T22:21:37.888758</dc:date>
    <dc:format>image/svg+xml</dc:format>
    <dc:creator>
     <cc:Agent>
      <dc:title>Matplotlib v3.3.1, https://matplotlib.org/</dc:title>
     </cc:Agent>
    </dc:creator>
   </cc:Work>
  </rdf:RDF>
 </metadata>
 <defs>
  <style type="text/css">*{stroke-linecap:butt;stroke-linejoin:round;}</style>
 </defs>
 <g id="figure_1">
  <g id="patch_1">
   <path d="M 0 576 
L 1080 576 
L 1080 0 
L 0 0 
z
" style="fill:#ffffff;"/>
  </g>
  <g id="axes_1">
   <g id="patch_2">
    <path d="M 135 512.64 
L 972 512.64 
L 972 69.12 
L 135 69.12 
z
" style="fill:#ffffff;"/>
   </g>
   <g id="matplotlib.axis_1">
    <g id="xtick_1">
     <g id="line2d_1">
      <defs>
       <path d="M 0 0 
L 0 3.5 
" id="m8890fb7662" style="stroke:#000000;stroke-width:0.8;"/>
      </defs>
      <g>
       <use style="stroke:#000000;stroke-width:0.8;" x="173.045455" xlink:href="#m8890fb7662" y="512.64"/>
      </g>
     </g>
     <g id="text_1">
      <!-- 2020-01-22 -->
      <g transform="translate(143.987642 527.238438)scale(0.1 -0.1)">
       <defs>
        <path d="M 19.1875 8.296875 
L 53.609375 8.296875 
L 53.609375 0 
L 7.328125 0 
L 7.328125 8.296875 
Q 12.9375 14.109375 22.625 23.890625 
Q 32.328125 33.6875 34.8125 36.53125 
Q 39.546875 41.84375 41.421875 45.53125 
Q 43.3125 49.21875 43.3125 52.78125 
Q 43.3125 58.59375 39.234375 62.25 
Q 35.15625 65.921875 28.609375 65.921875 
Q 23.96875 65.921875 18.8125 64.3125 
Q 13.671875 62.703125 7.8125 59.421875 
L 7.8125 69.390625 
Q 13.765625 71.78125 18.9375 73 
Q 24.125 74.21875 28.421875 74.21875 
Q 39.75 74.21875 46.484375 68.546875 
Q 53.21875 62.890625 53.21875 53.421875 
Q 53.21875 48.921875 51.53125 44.890625 
Q 49.859375 40.875 45.40625 35.40625 
Q 44.1875 33.984375 37.640625 27.21875 
Q 31.109375 20.453125 19.1875 8.296875 
z
" id="DejaVuSans-50"/>
        <path d="M 31.78125 66.40625 
Q 24.171875 66.40625 20.328125 58.90625 
Q 16.5 51.421875 16.5 36.375 
Q 16.5 21.390625 20.328125 13.890625 
Q 24.171875 6.390625 31.78125 6.390625 
Q 39.453125 6.390625 43.28125 13.890625 
Q 47.125 21.390625 47.125 36.375 
Q 47.125 51.421875 43.28125 58.90625 
Q 39.453125 66.40625 31.78125 66.40625 
z
M 31.78125 74.21875 
Q 44.046875 74.21875 50.515625 64.515625 
Q 56.984375 54.828125 56.984375 36.375 
Q 56.984375 17.96875 50.515625 8.265625 
Q 44.046875 -1.421875 31.78125 -1.421875 
Q 19.53125 -1.421875 13.0625 8.265625 
Q 6.59375 17.96875 6.59375 36.375 
Q 6.59375 54.828125 13.0625 64.515625 
Q 19.53125 74.21875 31.78125 74.21875 
z
" id="DejaVuSans-48"/>
        <path d="M 4.890625 31.390625 
L 31.203125 31.390625 
L 31.203125 23.390625 
L 4.890625 23.390625 
z
" id="DejaVuSans-45"/>
        <path d="M 12.40625 8.296875 
L 28.515625 8.296875 
L 28.515625 63.921875 
L 10.984375 60.40625 
L 10.984375 69.390625 
L 28.421875 72.90625 
L 38.28125 72.90625 
L 38.28125 8.296875 
L 54.390625 8.296875 
L 54.390625 0 
L 12.40625 0 
z
" id="DejaVuSans-49"/>
       </defs>
       <use xlink:href="#DejaVuSans-50"/>
       <use x="63.623047" xlink:href="#DejaVuSans-48"/>
       <use x="127.246094" xlink:href="#DejaVuSans-50"/>
       <use x="190.869141" xlink:href="#DejaVuSans-48"/>
       <use x="254.492188" xlink:href="#DejaVuSans-45"/>
       <use x="290.576172" xlink:href="#DejaVuSans-48"/>
       <use x="354.199219" xlink:href="#DejaVuSans-49"/>
       <use x="417.822266" xlink:href="#DejaVuSans-45"/>
       <use x="453.90625" xlink:href="#DejaVuSans-50"/>
       <use x="517.529297" xlink:href="#DejaVuSans-50"/>
      </g>
     </g>
    </g>
    <g id="xtick_2">
     <g id="line2d_2">
      <g>
       <use style="stroke:#000000;stroke-width:0.8;" x="346.768991" xlink:href="#m8890fb7662" y="512.64"/>
      </g>
     </g>
     <g id="text_2">
      <!-- 2020-03-12 -->
      <g transform="translate(317.711179 527.238438)scale(0.1 -0.1)">
       <defs>
        <path d="M 40.578125 39.3125 
Q 47.65625 37.796875 51.625 33 
Q 55.609375 28.21875 55.609375 21.1875 
Q 55.609375 10.40625 48.1875 4.484375 
Q 40.765625 -1.421875 27.09375 -1.421875 
Q 22.515625 -1.421875 17.65625 -0.515625 
Q 12.796875 0.390625 7.625 2.203125 
L 7.625 11.71875 
Q 11.71875 9.328125 16.59375 8.109375 
Q 21.484375 6.890625 26.8125 6.890625 
Q 36.078125 6.890625 40.9375 10.546875 
Q 45.796875 14.203125 45.796875 21.1875 
Q 45.796875 27.640625 41.28125 31.265625 
Q 36.765625 34.90625 28.71875 34.90625 
L 20.21875 34.90625 
L 20.21875 43.015625 
L 29.109375 43.015625 
Q 36.375 43.015625 40.234375 45.921875 
Q 44.09375 48.828125 44.09375 54.296875 
Q 44.09375 59.90625 40.109375 62.90625 
Q 36.140625 65.921875 28.71875 65.921875 
Q 24.65625 65.921875 20.015625 65.03125 
Q 15.375 64.15625 9.8125 62.3125 
L 9.8125 71.09375 
Q 15.4375 72.65625 20.34375 73.4375 
Q 25.25 74.21875 29.59375 74.21875 
Q 40.828125 74.21875 47.359375 69.109375 
Q 53.90625 64.015625 53.90625 55.328125 
Q 53.90625 49.265625 50.4375 45.09375 
Q 46.96875 40.921875 40.578125 39.3125 
z
" id="DejaVuSans-51"/>
       </defs>
       <use xlink:href="#DejaVuSans-50"/>
       <use x="63.623047" xlink:href="#DejaVuSans-48"/>
       <use x="127.246094" xlink:href="#DejaVuSans-50"/>
       <use x="190.869141" xlink:href="#DejaVuSans-48"/>
       <use x="254.492188" xlink:href="#DejaVuSans-45"/>
       <use x="290.576172" xlink:href="#DejaVuSans-48"/>
       <use x="354.199219" xlink:href="#DejaVuSans-51"/>
       <use x="417.822266" xlink:href="#DejaVuSans-45"/>
       <use x="453.90625" xlink:href="#DejaVuSans-49"/>
       <use x="517.529297" xlink:href="#DejaVuSans-50"/>
      </g>
     </g>
    </g>
    <g id="xtick_3">
     <g id="line2d_3">
      <g>
       <use style="stroke:#000000;stroke-width:0.8;" x="520.492528" xlink:href="#m8890fb7662" y="512.64"/>
      </g>
     </g>
     <g id="text_3">
      <!-- 2020-05-01 -->
      <g transform="translate(491.434716 527.238438)scale(0.1 -0.1)">
       <defs>
        <path d="M 10.796875 72.90625 
L 49.515625 72.90625 
L 49.515625 64.59375 
L 19.828125 64.59375 
L 19.828125 46.734375 
Q 21.96875 47.46875 24.109375 47.828125 
Q 26.265625 48.1875 28.421875 48.1875 
Q 40.625 48.1875 47.75 41.5 
Q 54.890625 34.8125 54.890625 23.390625 
Q 54.890625 11.625 47.5625 5.09375 
Q 40.234375 -1.421875 26.90625 -1.421875 
Q 22.3125 -1.421875 17.546875 -0.640625 
Q 12.796875 0.140625 7.71875 1.703125 
L 7.71875 11.625 
Q 12.109375 9.234375 16.796875 8.0625 
Q 21.484375 6.890625 26.703125 6.890625 
Q 35.15625 6.890625 40.078125 11.328125 
Q 45.015625 15.765625 45.015625 23.390625 
Q 45.015625 31 40.078125 35.4375 
Q 35.15625 39.890625 26.703125 39.890625 
Q 22.75 39.890625 18.8125 39.015625 
Q 14.890625 38.140625 10.796875 36.28125 
z
" id="DejaVuSans-53"/>
       </defs>
       <use xlink:href="#DejaVuSans-50"/>
       <use x="63.623047" xlink:href="#DejaVuSans-48"/>
       <use x="127.246094" xlink:href="#DejaVuSans-50"/>
       <use x="190.869141" xlink:href="#DejaVuSans-48"/>
       <use x="254.492188" xlink:href="#DejaVuSans-45"/>
       <use x="290.576172" xlink:href="#DejaVuSans-48"/>
       <use x="354.199219" xlink:href="#DejaVuSans-53"/>
       <use x="417.822266" xlink:href="#DejaVuSans-45"/>
       <use x="453.90625" xlink:href="#DejaVuSans-48"/>
       <use x="517.529297" xlink:href="#DejaVuSans-49"/>
      </g>
     </g>
    </g>
    <g id="xtick_4">
     <g id="line2d_4">
      <g>
       <use style="stroke:#000000;stroke-width:0.8;" x="694.216065" xlink:href="#m8890fb7662" y="512.64"/>
      </g>
     </g>
     <g id="text_4">
      <!-- 2020-06-20 -->
      <g transform="translate(665.158252 527.238438)scale(0.1 -0.1)">
       <defs>
        <path d="M 33.015625 40.375 
Q 26.375 40.375 22.484375 35.828125 
Q 18.609375 31.296875 18.609375 23.390625 
Q 18.609375 15.53125 22.484375 10.953125 
Q 26.375 6.390625 33.015625 6.390625 
Q 39.65625 6.390625 43.53125 10.953125 
Q 47.40625 15.53125 47.40625 23.390625 
Q 47.40625 31.296875 43.53125 35.828125 
Q 39.65625 40.375 33.015625 40.375 
z
M 52.59375 71.296875 
L 52.59375 62.3125 
Q 48.875 64.0625 45.09375 64.984375 
Q 41.3125 65.921875 37.59375 65.921875 
Q 27.828125 65.921875 22.671875 59.328125 
Q 17.53125 52.734375 16.796875 39.40625 
Q 19.671875 43.65625 24.015625 45.921875 
Q 28.375 48.1875 33.59375 48.1875 
Q 44.578125 48.1875 50.953125 41.515625 
Q 57.328125 34.859375 57.328125 23.390625 
Q 57.328125 12.15625 50.6875 5.359375 
Q 44.046875 -1.421875 33.015625 -1.421875 
Q 20.359375 -1.421875 13.671875 8.265625 
Q 6.984375 17.96875 6.984375 36.375 
Q 6.984375 53.65625 15.1875 63.9375 
Q 23.390625 74.21875 37.203125 74.21875 
Q 40.921875 74.21875 44.703125 73.484375 
Q 48.484375 72.75 52.59375 71.296875 
z
" id="DejaVuSans-54"/>
       </defs>
       <use xlink:href="#DejaVuSans-50"/>
       <use x="63.623047" xlink:href="#DejaVuSans-48"/>
       <use x="127.246094" xlink:href="#DejaVuSans-50"/>
       <use x="190.869141" xlink:href="#DejaVuSans-48"/>
       <use x="254.492188" xlink:href="#DejaVuSans-45"/>
       <use x="290.576172" xlink:href="#DejaVuSans-48"/>
       <use x="354.199219" xlink:href="#DejaVuSans-54"/>
       <use x="417.822266" xlink:href="#DejaVuSans-45"/>
       <use x="453.90625" xlink:href="#DejaVuSans-50"/>
       <use x="517.529297" xlink:href="#DejaVuSans-48"/>
      </g>
     </g>
    </g>
    <g id="xtick_5">
     <g id="line2d_5">
      <g>
       <use style="stroke:#000000;stroke-width:0.8;" x="867.939601" xlink:href="#m8890fb7662" y="512.64"/>
      </g>
     </g>
     <g id="text_5">
      <!-- 2020-08-09 -->
      <g transform="translate(838.881789 527.238438)scale(0.1 -0.1)">
       <defs>
        <path d="M 31.78125 34.625 
Q 24.75 34.625 20.71875 30.859375 
Q 16.703125 27.09375 16.703125 20.515625 
Q 16.703125 13.921875 20.71875 10.15625 
Q 24.75 6.390625 31.78125 6.390625 
Q 38.8125 6.390625 42.859375 10.171875 
Q 46.921875 13.96875 46.921875 20.515625 
Q 46.921875 27.09375 42.890625 30.859375 
Q 38.875 34.625 31.78125 34.625 
z
M 21.921875 38.8125 
Q 15.578125 40.375 12.03125 44.71875 
Q 8.5 49.078125 8.5 55.328125 
Q 8.5 64.0625 14.71875 69.140625 
Q 20.953125 74.21875 31.78125 74.21875 
Q 42.671875 74.21875 48.875 69.140625 
Q 55.078125 64.0625 55.078125 55.328125 
Q 55.078125 49.078125 51.53125 44.71875 
Q 48 40.375 41.703125 38.8125 
Q 48.828125 37.15625 52.796875 32.3125 
Q 56.78125 27.484375 56.78125 20.515625 
Q 56.78125 9.90625 50.3125 4.234375 
Q 43.84375 -1.421875 31.78125 -1.421875 
Q 19.734375 -1.421875 13.25 4.234375 
Q 6.78125 9.90625 6.78125 20.515625 
Q 6.78125 27.484375 10.78125 32.3125 
Q 14.796875 37.15625 21.921875 38.8125 
z
M 18.3125 54.390625 
Q 18.3125 48.734375 21.84375 45.5625 
Q 25.390625 42.390625 31.78125 42.390625 
Q 38.140625 42.390625 41.71875 45.5625 
Q 45.3125 48.734375 45.3125 54.390625 
Q 45.3125 60.0625 41.71875 63.234375 
Q 38.140625 66.40625 31.78125 66.40625 
Q 25.390625 66.40625 21.84375 63.234375 
Q 18.3125 60.0625 18.3125 54.390625 
z
" id="DejaVuSans-56"/>
        <path d="M 10.984375 1.515625 
L 10.984375 10.5 
Q 14.703125 8.734375 18.5 7.8125 
Q 22.3125 6.890625 25.984375 6.890625 
Q 35.75 6.890625 40.890625 13.453125 
Q 46.046875 20.015625 46.78125 33.40625 
Q 43.953125 29.203125 39.59375 26.953125 
Q 35.25 24.703125 29.984375 24.703125 
Q 19.046875 24.703125 12.671875 31.3125 
Q 6.296875 37.9375 6.296875 49.421875 
Q 6.296875 60.640625 12.9375 67.421875 
Q 19.578125 74.21875 30.609375 74.21875 
Q 43.265625 74.21875 49.921875 64.515625 
Q 56.59375 54.828125 56.59375 36.375 
Q 56.59375 19.140625 48.40625 8.859375 
Q 40.234375 -1.421875 26.421875 -1.421875 
Q 22.703125 -1.421875 18.890625 -0.6875 
Q 15.09375 0.046875 10.984375 1.515625 
z
M 30.609375 32.421875 
Q 37.25 32.421875 41.125 36.953125 
Q 45.015625 41.5 45.015625 49.421875 
Q 45.015625 57.28125 41.125 61.84375 
Q 37.25 66.40625 30.609375 66.40625 
Q 23.96875 66.40625 20.09375 61.84375 
Q 16.21875 57.28125 16.21875 49.421875 
Q 16.21875 41.5 20.09375 36.953125 
Q 23.96875 32.421875 30.609375 32.421875 
z
" id="DejaVuSans-57"/>
       </defs>
       <use xlink:href="#DejaVuSans-50"/>
       <use x="63.623047" xlink:href="#DejaVuSans-48"/>
       <use x="127.246094" xlink:href="#DejaVuSans-50"/>
       <use x="190.869141" xlink:href="#DejaVuSans-48"/>
       <use x="254.492188" xlink:href="#DejaVuSans-45"/>
       <use x="290.576172" xlink:href="#DejaVuSans-48"/>
       <use x="354.199219" xlink:href="#DejaVuSans-56"/>
       <use x="417.822266" xlink:href="#DejaVuSans-45"/>
       <use x="453.90625" xlink:href="#DejaVuSans-48"/>
       <use x="517.529297" xlink:href="#DejaVuSans-57"/>
      </g>
     </g>
    </g>
    <g id="text_6">
     <!-- Date -->
     <g transform="translate(541.549219 540.916563)scale(0.1 -0.1)">
      <defs>
       <path d="M 19.671875 64.796875 
L 19.671875 8.109375 
L 31.59375 8.109375 
Q 46.6875 8.109375 53.6875 14.9375 
Q 60.6875 21.78125 60.6875 36.53125 
Q 60.6875 51.171875 53.6875 57.984375 
Q 46.6875 64.796875 31.59375 64.796875 
z
M 9.8125 72.90625 
L 30.078125 72.90625 
Q 51.265625 72.90625 61.171875 64.09375 
Q 71.09375 55.28125 71.09375 36.53125 
Q 71.09375 17.671875 61.125 8.828125 
Q 51.171875 0 30.078125 0 
L 9.8125 0 
z
" id="DejaVuSans-68"/>
       <path d="M 34.28125 27.484375 
Q 23.390625 27.484375 19.1875 25 
Q 14.984375 22.515625 14.984375 16.5 
Q 14.984375 11.71875 18.140625 8.90625 
Q 21.296875 6.109375 26.703125 6.109375 
Q 34.1875 6.109375 38.703125 11.40625 
Q 43.21875 16.703125 43.21875 25.484375 
L 43.21875 27.484375 
z
M 52.203125 31.203125 
L 52.203125 0 
L 43.21875 0 
L 43.21875 8.296875 
Q 40.140625 3.328125 35.546875 0.953125 
Q 30.953125 -1.421875 24.3125 -1.421875 
Q 15.921875 -1.421875 10.953125 3.296875 
Q 6 8.015625 6 15.921875 
Q 6 25.140625 12.171875 29.828125 
Q 18.359375 34.515625 30.609375 34.515625 
L 43.21875 34.515625 
L 43.21875 35.40625 
Q 43.21875 41.609375 39.140625 45 
Q 35.0625 48.390625 27.6875 48.390625 
Q 23 48.390625 18.546875 47.265625 
Q 14.109375 46.140625 10.015625 43.890625 
L 10.015625 52.203125 
Q 14.9375 54.109375 19.578125 55.046875 
Q 24.21875 56 28.609375 56 
Q 40.484375 56 46.34375 49.84375 
Q 52.203125 43.703125 52.203125 31.203125 
z
" id="DejaVuSans-97"/>
       <path d="M 18.3125 70.21875 
L 18.3125 54.6875 
L 36.8125 54.6875 
L 36.8125 47.703125 
L 18.3125 47.703125 
L 18.3125 18.015625 
Q 18.3125 11.328125 20.140625 9.421875 
Q 21.96875 7.515625 27.59375 7.515625 
L 36.8125 7.515625 
L 36.8125 0 
L 27.59375 0 
Q 17.1875 0 13.234375 3.875 
Q 9.28125 7.765625 9.28125 18.015625 
L 9.28125 47.703125 
L 2.6875 47.703125 
L 2.6875 54.6875 
L 9.28125 54.6875 
L 9.28125 70.21875 
z
" id="DejaVuSans-116"/>
       <path d="M 56.203125 29.59375 
L 56.203125 25.203125 
L 14.890625 25.203125 
Q 15.484375 15.921875 20.484375 11.0625 
Q 25.484375 6.203125 34.421875 6.203125 
Q 39.59375 6.203125 44.453125 7.46875 
Q 49.3125 8.734375 54.109375 11.28125 
L 54.109375 2.78125 
Q 49.265625 0.734375 44.1875 -0.34375 
Q 39.109375 -1.421875 33.890625 -1.421875 
Q 20.796875 -1.421875 13.15625 6.1875 
Q 5.515625 13.8125 5.515625 26.8125 
Q 5.515625 40.234375 12.765625 48.109375 
Q 20.015625 56 32.328125 56 
Q 43.359375 56 49.78125 48.890625 
Q 56.203125 41.796875 56.203125 29.59375 
z
M 47.21875 32.234375 
Q 47.125 39.59375 43.09375 43.984375 
Q 39.0625 48.390625 32.421875 48.390625 
Q 24.90625 48.390625 20.390625 44.140625 
Q 15.875 39.890625 15.1875 32.171875 
z
" id="DejaVuSans-101"/>
      </defs>
      <use xlink:href="#DejaVuSans-68"/>
      <use x="77.001953" xlink:href="#DejaVuSans-97"/>
      <use x="138.28125" xlink:href="#DejaVuSans-116"/>
      <use x="177.490234" xlink:href="#DejaVuSans-101"/>
     </g>
    </g>
   </g>
   <g id="matplotlib.axis_2">
    <g id="ytick_1">
     <g id="line2d_6">
      <defs>
       <path d="M 0 0 
L -3.5 0 
" id="mb2575860d3" style="stroke:#000000;stroke-width:0.8;"/>
      </defs>
      <g>
       <use style="stroke:#000000;stroke-width:0.8;" x="135" xlink:href="#mb2575860d3" y="492.48"/>
      </g>
     </g>
     <g id="text_7">
      <!-- 0 -->
      <g transform="translate(121.6375 496.279219)scale(0.1 -0.1)">
       <use xlink:href="#DejaVuSans-48"/>
      </g>
     </g>
    </g>
    <g id="ytick_2">
     <g id="line2d_7">
      <g>
       <use style="stroke:#000000;stroke-width:0.8;" x="135" xlink:href="#mb2575860d3" y="436.904535"/>
      </g>
     </g>
     <g id="text_8">
      <!-- 200 -->
      <g transform="translate(108.9125 440.703754)scale(0.1 -0.1)">
       <use xlink:href="#DejaVuSans-50"/>
       <use x="63.623047" xlink:href="#DejaVuSans-48"/>
       <use x="127.246094" xlink:href="#DejaVuSans-48"/>
      </g>
     </g>
    </g>
    <g id="ytick_3">
     <g id="line2d_8">
      <g>
       <use style="stroke:#000000;stroke-width:0.8;" x="135" xlink:href="#mb2575860d3" y="381.32907"/>
      </g>
     </g>
     <g id="text_9">
      <!-- 400 -->
      <g transform="translate(108.9125 385.128288)scale(0.1 -0.1)">
       <defs>
        <path d="M 37.796875 64.3125 
L 12.890625 25.390625 
L 37.796875 25.390625 
z
M 35.203125 72.90625 
L 47.609375 72.90625 
L 47.609375 25.390625 
L 58.015625 25.390625 
L 58.015625 17.1875 
L 47.609375 17.1875 
L 47.609375 0 
L 37.796875 0 
L 37.796875 17.1875 
L 4.890625 17.1875 
L 4.890625 26.703125 
z
" id="DejaVuSans-52"/>
       </defs>
       <use xlink:href="#DejaVuSans-52"/>
       <use x="63.623047" xlink:href="#DejaVuSans-48"/>
       <use x="127.246094" xlink:href="#DejaVuSans-48"/>
      </g>
     </g>
    </g>
    <g id="ytick_4">
     <g id="line2d_9">
      <g>
       <use style="stroke:#000000;stroke-width:0.8;" x="135" xlink:href="#mb2575860d3" y="325.753604"/>
      </g>
     </g>
     <g id="text_10">
      <!-- 600 -->
      <g transform="translate(108.9125 329.552823)scale(0.1 -0.1)">
       <use xlink:href="#DejaVuSans-54"/>
       <use x="63.623047" xlink:href="#DejaVuSans-48"/>
       <use x="127.246094" xlink:href="#DejaVuSans-48"/>
      </g>
     </g>
    </g>
    <g id="ytick_5">
     <g id="line2d_10">
      <g>
       <use style="stroke:#000000;stroke-width:0.8;" x="135" xlink:href="#mb2575860d3" y="270.178139"/>
      </g>
     </g>
     <g id="text_11">
      <!-- 800 -->
      <g transform="translate(108.9125 273.977358)scale(0.1 -0.1)">
       <use xlink:href="#DejaVuSans-56"/>
       <use x="63.623047" xlink:href="#DejaVuSans-48"/>
       <use x="127.246094" xlink:href="#DejaVuSans-48"/>
      </g>
     </g>
    </g>
    <g id="ytick_6">
     <g id="line2d_11">
      <g>
       <use style="stroke:#000000;stroke-width:0.8;" x="135" xlink:href="#mb2575860d3" y="214.602674"/>
      </g>
     </g>
     <g id="text_12">
      <!-- 1000 -->
      <g transform="translate(102.55 218.401893)scale(0.1 -0.1)">
       <use xlink:href="#DejaVuSans-49"/>
       <use x="63.623047" xlink:href="#DejaVuSans-48"/>
       <use x="127.246094" xlink:href="#DejaVuSans-48"/>
       <use x="190.869141" xlink:href="#DejaVuSans-48"/>
      </g>
     </g>
    </g>
    <g id="ytick_7">
     <g id="line2d_12">
      <g>
       <use style="stroke:#000000;stroke-width:0.8;" x="135" xlink:href="#mb2575860d3" y="159.027209"/>
      </g>
     </g>
     <g id="text_13">
      <!-- 1200 -->
      <g transform="translate(102.55 162.826428)scale(0.1 -0.1)">
       <use xlink:href="#DejaVuSans-49"/>
       <use x="63.623047" xlink:href="#DejaVuSans-50"/>
       <use x="127.246094" xlink:href="#DejaVuSans-48"/>
       <use x="190.869141" xlink:href="#DejaVuSans-48"/>
      </g>
     </g>
    </g>
    <g id="ytick_8">
     <g id="line2d_13">
      <g>
       <use style="stroke:#000000;stroke-width:0.8;" x="135" xlink:href="#mb2575860d3" y="103.451744"/>
      </g>
     </g>
     <g id="text_14">
      <!-- 1400 -->
      <g transform="translate(102.55 107.250962)scale(0.1 -0.1)">
       <use xlink:href="#DejaVuSans-49"/>
       <use x="63.623047" xlink:href="#DejaVuSans-52"/>
       <use x="127.246094" xlink:href="#DejaVuSans-48"/>
       <use x="190.869141" xlink:href="#DejaVuSans-48"/>
      </g>
     </g>
    </g>
    <g id="text_15">
     <!-- Trend -->
     <g transform="translate(96.470312 304.558906)rotate(-90)scale(0.1 -0.1)">
      <defs>
       <path d="M -0.296875 72.90625 
L 61.375 72.90625 
L 61.375 64.59375 
L 35.5 64.59375 
L 35.5 0 
L 25.59375 0 
L 25.59375 64.59375 
L -0.296875 64.59375 
z
" id="DejaVuSans-84"/>
       <path d="M 41.109375 46.296875 
Q 39.59375 47.171875 37.8125 47.578125 
Q 36.03125 48 33.890625 48 
Q 26.265625 48 22.1875 43.046875 
Q 18.109375 38.09375 18.109375 28.8125 
L 18.109375 0 
L 9.078125 0 
L 9.078125 54.6875 
L 18.109375 54.6875 
L 18.109375 46.1875 
Q 20.953125 51.171875 25.484375 53.578125 
Q 30.03125 56 36.53125 56 
Q 37.453125 56 38.578125 55.875 
Q 39.703125 55.765625 41.0625 55.515625 
z
" id="DejaVuSans-114"/>
       <path d="M 54.890625 33.015625 
L 54.890625 0 
L 45.90625 0 
L 45.90625 32.71875 
Q 45.90625 40.484375 42.875 44.328125 
Q 39.84375 48.1875 33.796875 48.1875 
Q 26.515625 48.1875 22.3125 43.546875 
Q 18.109375 38.921875 18.109375 30.90625 
L 18.109375 0 
L 9.078125 0 
L 9.078125 54.6875 
L 18.109375 54.6875 
L 18.109375 46.1875 
Q 21.34375 51.125 25.703125 53.5625 
Q 30.078125 56 35.796875 56 
Q 45.21875 56 50.046875 50.171875 
Q 54.890625 44.34375 54.890625 33.015625 
z
" id="DejaVuSans-110"/>
       <path d="M 45.40625 46.390625 
L 45.40625 75.984375 
L 54.390625 75.984375 
L 54.390625 0 
L 45.40625 0 
L 45.40625 8.203125 
Q 42.578125 3.328125 38.25 0.953125 
Q 33.9375 -1.421875 27.875 -1.421875 
Q 17.96875 -1.421875 11.734375 6.484375 
Q 5.515625 14.40625 5.515625 27.296875 
Q 5.515625 40.1875 11.734375 48.09375 
Q 17.96875 56 27.875 56 
Q 33.9375 56 38.25 53.625 
Q 42.578125 51.265625 45.40625 46.390625 
z
M 14.796875 27.296875 
Q 14.796875 17.390625 18.875 11.75 
Q 22.953125 6.109375 30.078125 6.109375 
Q 37.203125 6.109375 41.296875 11.75 
Q 45.40625 17.390625 45.40625 27.296875 
Q 45.40625 37.203125 41.296875 42.84375 
Q 37.203125 48.484375 30.078125 48.484375 
Q 22.953125 48.484375 18.875 42.84375 
Q 14.796875 37.203125 14.796875 27.296875 
z
" id="DejaVuSans-100"/>
      </defs>
      <use xlink:href="#DejaVuSans-84"/>
      <use x="46.333984" xlink:href="#DejaVuSans-114"/>
      <use x="85.197266" xlink:href="#DejaVuSans-101"/>
      <use x="146.720703" xlink:href="#DejaVuSans-110"/>
      <use x="210.099609" xlink:href="#DejaVuSans-100"/>
     </g>
    </g>
   </g>
   <g id="line2d_14">
    <path clip-path="url(#p5033d80376)" d="M 173.045455 491.924245 
L 176.519925 492.202123 
L 179.994396 491.924245 
L 183.468867 491.924245 
L 190.417808 492.48 
L 193.892279 490.812736 
L 197.36675 492.48 
L 200.84122 492.48 
L 204.315691 491.090613 
L 207.790162 492.48 
L 214.739103 492.48 
L 218.213574 490.812736 
L 221.688045 492.48 
L 228.636986 492.48 
L 232.111457 490.534859 
L 235.585928 492.48 
L 239.060399 492.48 
L 242.534869 492.202123 
L 246.00934 492.48 
L 256.432752 492.48 
L 259.907223 492.202123 
L 263.381694 492.202123 
L 266.856164 492.48 
L 287.702989 492.48 
L 291.17746 491.924245 
L 294.65193 491.646368 
L 298.126401 492.48 
L 301.600872 492.202123 
L 305.075342 492.202123 
L 308.549813 492.48 
L 312.024284 492.202123 
L 315.498755 492.48 
L 318.973225 492.48 
L 322.447696 491.368491 
L 325.922167 492.202123 
L 329.396638 491.924245 
L 332.871108 492.48 
L 336.345579 492.48 
L 343.294521 490.812736 
L 346.768991 489.423349 
L 350.243462 491.090613 
L 353.717933 490.534859 
L 357.192403 483.587926 
L 360.666874 483.310048 
L 364.141345 484.14368 
L 367.615816 482.754294 
L 371.090286 475.80736 
L 374.564757 478.586134 
L 378.039228 467.748918 
L 381.513699 440.239063 
L 384.988169 458.578966 
L 388.46264 463.025003 
L 391.937111 462.747126 
L 395.411582 461.635617 
L 398.886052 467.193163 
L 402.360523 462.191371 
L 405.834994 452.743542 
L 409.309465 454.688684 
L 412.783935 457.18958 
L 416.258406 459.134721 
L 419.732877 463.580758 
L 423.207347 463.858635 
L 426.681818 467.748918 
L 430.156289 464.136513 
L 433.63076 478.308256 
L 437.10523 481.920662 
L 440.579701 461.635617 
L 444.054172 477.474624 
L 447.528643 478.586134 
L 451.003113 479.97552 
L 454.477584 483.310048 
L 457.952055 484.699435 
L 461.426526 483.032171 
L 464.900996 484.14368 
L 471.849938 484.699435 
L 475.324408 483.310048 
L 478.798879 483.587926 
L 482.27335 484.977312 
L 485.747821 487.200331 
L 489.222291 488.31184 
L 492.696762 488.867595 
L 496.171233 473.584342 
L 499.645704 492.48 
L 503.120174 488.31184 
L 506.594645 489.979104 
L 510.069116 490.534859 
L 513.543587 489.979104 
L 517.018057 490.534859 
L 520.492528 490.812736 
L 523.966999 490.812736 
L 527.441469 491.646368 
L 530.91594 487.478208 
L 534.390411 492.202123 
L 537.864882 492.202123 
L 541.339352 491.646368 
L 544.813823 490.256981 
L 548.288294 491.368491 
L 555.237235 490.812736 
L 558.711706 491.924245 
L 562.186177 492.48 
L 565.660648 492.202123 
L 569.135118 490.534859 
L 572.609589 492.48 
L 576.08406 491.646368 
L 579.558531 491.646368 
L 586.507472 492.202123 
L 589.981943 491.646368 
L 593.456413 492.48 
L 596.930884 491.646368 
L 600.405355 492.48 
L 603.879826 491.924245 
L 607.354296 491.646368 
L 610.828767 489.979104 
L 614.303238 489.423349 
L 617.777709 489.423349 
L 621.252179 492.202123 
L 624.72665 491.368491 
L 628.201121 492.202123 
L 635.150062 492.202123 
L 638.624533 487.756085 
L 642.099004 492.202123 
L 645.573474 491.924245 
L 649.047945 490.256981 
L 652.522416 490.534859 
L 655.996887 491.924245 
L 659.471357 491.368491 
L 662.945828 492.48 
L 666.420299 491.368491 
L 669.89477 491.090613 
L 673.36924 492.202123 
L 676.843711 492.48 
L 683.792653 492.48 
L 687.267123 490.812736 
L 690.741594 491.090613 
L 694.216065 492.202123 
L 697.690535 492.202123 
L 704.639477 491.090613 
L 708.113948 491.924245 
L 711.588418 492.48 
L 715.062889 491.368491 
L 718.53736 492.48 
L 722.011831 492.48 
L 725.486301 490.534859 
L 728.960772 491.924245 
L 732.435243 491.924245 
L 735.909714 490.812736 
L 739.384184 492.202123 
L 742.858655 491.090613 
L 749.807597 491.090613 
L 753.282067 491.924245 
L 756.756538 492.48 
L 760.231009 491.090613 
L 763.705479 492.48 
L 767.17995 488.589717 
L 770.654421 492.202123 
L 774.128892 491.646368 
L 777.603362 490.534859 
L 781.077833 491.090613 
L 788.026775 491.646368 
L 791.501245 490.534859 
L 794.975716 491.368491 
L 798.450187 492.48 
L 801.924658 491.090613 
L 805.399128 490.812736 
L 808.873599 487.478208 
L 812.34807 492.48 
L 815.82254 491.646368 
L 819.297011 489.979104 
L 822.771482 490.812736 
L 826.245953 492.48 
L 829.720423 492.202123 
L 833.194894 490.812736 
L 836.669365 490.812736 
L 840.143836 491.924245 
L 843.618306 491.090613 
L 850.567248 492.202123 
L 854.041719 490.534859 
L 857.516189 491.924245 
L 860.99066 488.31184 
L 864.465131 491.646368 
L 867.939601 491.646368 
L 871.414072 492.48 
L 874.888543 492.48 
L 878.363014 491.090613 
L 881.837484 491.646368 
L 885.311955 487.756085 
L 888.786426 492.48 
L 892.260897 491.924245 
L 895.735367 492.48 
L 899.209838 491.368491 
L 902.684309 492.48 
L 906.15878 490.534859 
L 909.63325 492.202123 
L 913.107721 492.48 
L 916.582192 491.090613 
L 920.056663 490.534859 
L 923.531133 492.48 
L 927.005604 491.924245 
L 930.480075 490.812736 
L 933.954545 492.202123 
L 933.954545 492.202123 
" style="fill:none;stroke:#1f77b4;stroke-linecap:square;stroke-width:1.5;"/>
   </g>
   <g id="line2d_15">
    <path clip-path="url(#p5033d80376)" d="M 173.045455 492.48 
L 305.075342 492.48 
L 308.549813 492.202123 
L 312.024284 492.48 
L 384.988169 492.48 
L 388.46264 491.646368 
L 391.937111 492.48 
L 395.411582 492.48 
L 398.886052 492.202123 
L 405.834994 492.202123 
L 409.309465 491.924245 
L 412.783935 492.202123 
L 423.207347 491.368491 
L 426.681818 492.202123 
L 430.156289 491.646368 
L 433.63076 491.646368 
L 437.10523 492.202123 
L 440.579701 491.646368 
L 447.528643 492.202123 
L 454.477584 491.646368 
L 461.426526 492.202123 
L 468.375467 491.646368 
L 471.849938 492.202123 
L 475.324408 492.48 
L 482.27335 492.48 
L 485.747821 492.202123 
L 496.171233 492.202123 
L 499.645704 492.48 
L 503.120174 492.48 
L 510.069116 491.924245 
L 513.543587 492.48 
L 534.390411 492.48 
L 537.864882 492.202123 
L 541.339352 492.48 
L 544.813823 492.48 
L 548.288294 492.202123 
L 551.762765 492.48 
L 600.405355 492.48 
L 603.879826 492.202123 
L 607.354296 492.48 
L 628.201121 492.48 
L 631.675592 492.202123 
L 635.150062 492.48 
L 933.954545 492.48 
L 933.954545 492.48 
" style="fill:none;stroke:#ff7f0e;stroke-linecap:square;stroke-width:1.5;"/>
   </g>
   <g id="line2d_16">
    <path clip-path="url(#p5033d80376)" d="M 173.045455 492.48 
L 183.468867 492.48 
L 186.943337 491.924245 
L 190.417808 492.48 
L 193.892279 491.646368 
L 197.36675 492.48 
L 228.636986 492.48 
L 232.111457 491.090613 
L 235.585928 492.48 
L 246.00934 492.48 
L 249.483811 491.924245 
L 252.958281 492.48 
L 256.432752 492.48 
L 259.907223 491.924245 
L 266.856164 492.48 
L 273.805106 492.48 
L 277.279577 491.924245 
L 280.754047 492.48 
L 284.228518 491.368491 
L 287.702989 492.48 
L 291.17746 492.202123 
L 294.65193 492.48 
L 298.126401 492.48 
L 301.600872 490.812736 
L 305.075342 492.48 
L 308.549813 492.48 
L 312.024284 491.646368 
L 315.498755 492.48 
L 336.345579 492.48 
L 339.82005 491.924245 
L 346.768991 492.48 
L 350.243462 492.202123 
L 353.717933 492.48 
L 360.666874 492.48 
L 364.141345 490.812736 
L 367.615816 492.202123 
L 371.090286 492.48 
L 378.039228 492.48 
L 381.513699 491.924245 
L 384.988169 492.48 
L 388.46264 490.256981 
L 391.937111 487.478208 
L 395.411582 487.478208 
L 402.360523 492.48 
L 405.834994 492.48 
L 409.309465 455.800193 
L 412.783935 461.079862 
L 416.258406 447.185996 
L 419.732877 492.48 
L 423.207347 462.747126 
L 426.681818 475.251606 
L 430.156289 459.412598 
L 433.63076 492.48 
L 437.10523 466.081654 
L 440.579701 492.48 
L 444.054172 478.030379 
L 447.528643 472.194955 
L 451.003113 458.578966 
L 454.477584 469.416182 
L 457.952055 473.028587 
L 461.426526 459.968353 
L 464.900996 466.915286 
L 468.375467 465.803777 
L 471.849938 465.803777 
L 475.324408 465.248022 
L 478.798879 453.299297 
L 482.27335 472.75071 
L 485.747821 462.191371 
L 489.222291 424.677932 
L 492.696762 470.805569 
L 496.171233 459.968353 
L 499.645704 492.48 
L 503.120174 479.419766 
L 506.594645 488.31184 
L 510.069116 480.531275 
L 513.543587 488.867595 
L 517.018057 487.200331 
L 520.492528 482.754294 
L 523.966999 488.867595 
L 530.91594 492.202123 
L 534.390411 490.534859 
L 537.864882 488.589717 
L 541.339352 489.423349 
L 544.813823 489.145472 
L 548.288294 491.646368 
L 551.762765 490.534859 
L 555.237235 491.924245 
L 558.711706 491.924245 
L 562.186177 479.697643 
L 565.660648 490.812736 
L 569.135118 491.368491 
L 572.609589 492.202123 
L 579.558531 492.202123 
L 583.033001 492.48 
L 586.507472 483.865803 
L 589.981943 489.979104 
L 593.456413 488.867595 
L 596.930884 490.812736 
L 600.405355 491.090613 
L 603.879826 490.534859 
L 607.354296 492.202123 
L 610.828767 491.924245 
L 614.303238 488.589717 
L 617.777709 492.48 
L 621.252179 488.033963 
L 624.72665 491.924245 
L 628.201121 491.924245 
L 631.675592 492.202123 
L 635.150062 491.924245 
L 638.624533 492.48 
L 642.099004 491.646368 
L 645.573474 492.48 
L 649.047945 492.202123 
L 652.522416 492.202123 
L 655.996887 492.48 
L 659.471357 490.256981 
L 662.945828 490.812736 
L 666.420299 492.48 
L 676.843711 492.48 
L 680.318182 490.812736 
L 683.792653 491.646368 
L 687.267123 492.202123 
L 690.741594 489.423349 
L 694.216065 489.701227 
L 697.690535 492.48 
L 701.165006 491.368491 
L 704.639477 492.202123 
L 708.113948 488.31184 
L 711.588418 492.48 
L 715.062889 491.924245 
L 718.53736 488.867595 
L 722.011831 492.48 
L 725.486301 492.48 
L 728.960772 491.646368 
L 732.435243 491.646368 
L 735.909714 492.48 
L 739.384184 490.534859 
L 742.858655 492.48 
L 746.333126 491.090613 
L 749.807597 492.202123 
L 753.282067 491.924245 
L 756.756538 492.48 
L 760.231009 489.423349 
L 763.705479 491.924245 
L 770.654421 492.48 
L 774.128892 491.924245 
L 777.603362 492.202123 
L 781.077833 492.202123 
L 784.552304 491.646368 
L 788.026775 492.202123 
L 791.501245 492.48 
L 798.450187 492.48 
L 801.924658 489.979104 
L 805.399128 492.48 
L 808.873599 491.924245 
L 812.34807 492.48 
L 815.82254 491.924245 
L 819.297011 492.48 
L 822.771482 491.924245 
L 826.245953 492.48 
L 833.194894 492.48 
L 836.669365 488.589717 
L 840.143836 489.701227 
L 843.618306 490.534859 
L 847.092777 492.48 
L 850.567248 492.48 
L 857.516189 491.368491 
L 860.99066 492.48 
L 864.465131 491.924245 
L 867.939601 492.202123 
L 871.414072 489.979104 
L 874.888543 491.646368 
L 878.363014 490.812736 
L 881.837484 492.48 
L 885.311955 491.368491 
L 888.786426 486.922453 
L 892.260897 492.202123 
L 895.735367 492.48 
L 899.209838 491.090613 
L 902.684309 492.48 
L 906.15878 487.200331 
L 909.63325 492.202123 
L 916.582192 492.202123 
L 920.056663 490.256981 
L 923.531133 492.48 
L 927.005604 490.256981 
L 930.480075 492.48 
L 933.954545 491.090613 
L 933.954545 491.090613 
" style="fill:none;stroke:#2ca02c;stroke-linecap:square;stroke-width:1.5;"/>
   </g>
   <g id="line2d_17">
    <path clip-path="url(#p5033d80376)" d="M 173.045455 491.924245 
L 176.519925 491.646368 
L 183.468867 490.534859 
L 186.943337 490.812736 
L 190.417808 490.812736 
L 193.892279 489.979104 
L 200.84122 489.979104 
L 204.315691 488.589717 
L 214.739103 488.589717 
L 218.213574 486.922453 
L 228.636986 486.922453 
L 232.111457 486.366699 
L 239.060399 486.366699 
L 242.534869 486.088822 
L 246.00934 486.088822 
L 249.483811 486.644576 
L 256.432752 486.644576 
L 259.907223 486.922453 
L 273.805106 486.922453 
L 277.279577 487.478208 
L 280.754047 487.478208 
L 284.228518 488.589717 
L 287.702989 488.589717 
L 291.17746 488.31184 
L 294.65193 487.478208 
L 298.126401 487.478208 
L 301.600872 488.867595 
L 305.075342 488.589717 
L 308.549813 488.867595 
L 312.024284 489.423349 
L 318.973225 489.423349 
L 322.447696 488.31184 
L 325.922167 488.033963 
L 329.396638 487.478208 
L 336.345579 487.478208 
L 339.82005 487.200331 
L 343.294521 485.810944 
L 346.768991 482.754294 
L 350.243462 481.642784 
L 353.717933 479.697643 
L 360.666874 461.635617 
L 364.141345 454.966561 
L 367.615816 445.518732 
L 371.090286 428.846092 
L 374.564757 414.952226 
L 378.039228 390.221144 
L 381.513699 338.535961 
L 384.988169 304.634928 
L 388.46264 278.236582 
L 391.937111 253.5055 
L 395.411582 227.662908 
L 398.886052 205.154845 
L 402.360523 175.144094 
L 405.834994 135.685513 
L 409.309465 135.129759 
L 412.783935 131.517354 
L 416.258406 144.021833 
L 419.732877 115.956223 
L 423.207347 118.179242 
L 426.681818 110.954431 
L 430.156289 116.511978 
L 433.63076 103.173866 
L 437.10523 119.290751 
L 440.579701 89.28 
L 444.054172 89.28 
L 447.528643 95.949056 
L 451.003113 117.901365 
L 454.477584 132.628863 
L 457.952055 144.855465 
L 461.426526 168.197161 
L 464.900996 185.981309 
L 471.849938 224.606258 
L 475.324408 242.668284 
L 478.798879 272.956912 
L 482.27335 285.183515 
L 485.747821 310.470351 
L 489.222291 374.382136 
L 492.696762 392.72204 
L 496.171233 406.615906 
L 499.645704 406.615906 
L 503.120174 415.507981 
L 506.594645 417.453122 
L 510.069116 428.01246 
L 513.543587 429.12397 
L 517.018057 432.458498 
L 520.492528 440.51694 
L 523.966999 442.462081 
L 527.441469 443.573591 
L 530.91594 438.849676 
L 534.390411 440.51694 
L 537.864882 444.407223 
L 541.339352 446.630241 
L 544.813823 447.741751 
L 548.288294 447.741751 
L 551.762765 448.297505 
L 555.237235 447.185996 
L 558.711706 447.185996 
L 562.186177 459.968353 
L 565.660648 461.357739 
L 569.135118 460.524108 
L 572.609589 460.801985 
L 583.033001 459.134721 
L 586.507472 467.471041 
L 589.981943 469.138305 
L 593.456413 472.75071 
L 596.930884 473.584342 
L 600.405355 474.973728 
L 603.879826 476.640992 
L 607.354296 476.085238 
L 610.828767 474.140096 
L 614.303238 474.973728 
L 617.777709 471.917078 
L 621.252179 476.085238 
L 624.72665 475.529483 
L 635.150062 476.363115 
L 638.624533 471.639201 
L 642.099004 472.194955 
L 645.573474 471.639201 
L 649.047945 469.694059 
L 652.522416 468.026795 
L 655.996887 467.471041 
L 659.471357 468.58255 
L 662.945828 470.249814 
L 666.420299 469.138305 
L 669.89477 467.748918 
L 673.36924 467.471041 
L 676.843711 467.471041 
L 680.318182 469.138305 
L 683.792653 469.971937 
L 687.267123 468.58255 
L 690.741594 470.249814 
L 694.216065 472.75071 
L 697.690535 472.472833 
L 701.165006 472.75071 
L 704.639477 471.639201 
L 708.113948 475.251606 
L 711.588418 475.251606 
L 715.062889 474.695851 
L 718.53736 478.308256 
L 722.011831 478.308256 
L 725.486301 476.363115 
L 732.435243 476.91887 
L 735.909714 475.251606 
L 739.384184 476.91887 
L 742.858655 475.529483 
L 746.333126 475.529483 
L 749.807597 474.417974 
L 756.756538 474.417974 
L 760.231009 476.085238 
L 763.705479 476.640992 
L 767.17995 473.028587 
L 774.128892 472.472833 
L 777.603362 470.805569 
L 781.077833 469.694059 
L 784.552304 469.416182 
L 788.026775 468.860427 
L 791.501245 466.915286 
L 794.975716 465.803777 
L 798.450187 465.803777 
L 801.924658 466.915286 
L 805.399128 465.248022 
L 808.873599 460.801985 
L 812.34807 460.801985 
L 815.82254 460.524108 
L 819.297011 458.023212 
L 822.771482 456.911702 
L 826.245953 456.911702 
L 829.720423 456.633825 
L 833.194894 454.966561 
L 840.143836 459.412598 
L 843.618306 459.968353 
L 847.092777 459.134721 
L 850.567248 458.856844 
L 854.041719 457.467457 
L 857.516189 458.023212 
L 860.99066 453.855052 
L 864.465131 453.577174 
L 867.939601 453.02142 
L 871.414072 455.522316 
L 874.888543 456.355948 
L 878.363014 456.633825 
L 881.837484 455.800193 
L 885.311955 452.187788 
L 888.786426 457.745334 
L 892.260897 457.467457 
L 895.735367 457.467457 
L 899.209838 457.745334 
L 902.684309 457.745334 
L 906.15878 461.079862 
L 909.63325 461.079862 
L 913.107721 461.357739 
L 916.582192 460.24623 
L 920.056663 460.524108 
L 923.531133 460.524108 
L 927.005604 462.191371 
L 930.480075 460.524108 
L 933.954545 461.635617 
L 933.954545 461.635617 
" style="fill:none;stroke:#d62728;stroke-linecap:square;stroke-width:1.5;"/>
   </g>
   <g id="patch_3">
    <path d="M 135 512.64 
L 135 69.12 
" style="fill:none;stroke:#000000;stroke-linecap:square;stroke-linejoin:miter;stroke-width:0.8;"/>
   </g>
   <g id="patch_4">
    <path d="M 972 512.64 
L 972 69.12 
" style="fill:none;stroke:#000000;stroke-linecap:square;stroke-linejoin:miter;stroke-width:0.8;"/>
   </g>
   <g id="patch_5">
    <path d="M 135 512.64 
L 972 512.64 
" style="fill:none;stroke:#000000;stroke-linecap:square;stroke-linejoin:miter;stroke-width:0.8;"/>
   </g>
   <g id="patch_6">
    <path d="M 135 69.12 
L 972 69.12 
" style="fill:none;stroke:#000000;stroke-linecap:square;stroke-linejoin:miter;stroke-width:0.8;"/>
   </g>
   <g id="text_16">
    <!-- COVID19 Trend in Thailand -->
    <g transform="translate(473.191875 63.12)scale(0.12 -0.12)">
     <defs>
      <path d="M 64.40625 67.28125 
L 64.40625 56.890625 
Q 59.421875 61.53125 53.78125 63.8125 
Q 48.140625 66.109375 41.796875 66.109375 
Q 29.296875 66.109375 22.65625 58.46875 
Q 16.015625 50.828125 16.015625 36.375 
Q 16.015625 21.96875 22.65625 14.328125 
Q 29.296875 6.6875 41.796875 6.6875 
Q 48.140625 6.6875 53.78125 8.984375 
Q 59.421875 11.28125 64.40625 15.921875 
L 64.40625 5.609375 
Q 59.234375 2.09375 53.4375 0.328125 
Q 47.65625 -1.421875 41.21875 -1.421875 
Q 24.65625 -1.421875 15.125 8.703125 
Q 5.609375 18.84375 5.609375 36.375 
Q 5.609375 53.953125 15.125 64.078125 
Q 24.65625 74.21875 41.21875 74.21875 
Q 47.75 74.21875 53.53125 72.484375 
Q 59.328125 70.75 64.40625 67.28125 
z
" id="DejaVuSans-67"/>
      <path d="M 39.40625 66.21875 
Q 28.65625 66.21875 22.328125 58.203125 
Q 16.015625 50.203125 16.015625 36.375 
Q 16.015625 22.609375 22.328125 14.59375 
Q 28.65625 6.59375 39.40625 6.59375 
Q 50.140625 6.59375 56.421875 14.59375 
Q 62.703125 22.609375 62.703125 36.375 
Q 62.703125 50.203125 56.421875 58.203125 
Q 50.140625 66.21875 39.40625 66.21875 
z
M 39.40625 74.21875 
Q 54.734375 74.21875 63.90625 63.9375 
Q 73.09375 53.65625 73.09375 36.375 
Q 73.09375 19.140625 63.90625 8.859375 
Q 54.734375 -1.421875 39.40625 -1.421875 
Q 24.03125 -1.421875 14.8125 8.828125 
Q 5.609375 19.09375 5.609375 36.375 
Q 5.609375 53.65625 14.8125 63.9375 
Q 24.03125 74.21875 39.40625 74.21875 
z
" id="DejaVuSans-79"/>
      <path d="M 28.609375 0 
L 0.78125 72.90625 
L 11.078125 72.90625 
L 34.1875 11.53125 
L 57.328125 72.90625 
L 67.578125 72.90625 
L 39.796875 0 
z
" id="DejaVuSans-86"/>
      <path d="M 9.8125 72.90625 
L 19.671875 72.90625 
L 19.671875 0 
L 9.8125 0 
z
" id="DejaVuSans-73"/>
      <path id="DejaVuSans-32"/>
      <path d="M 9.421875 54.6875 
L 18.40625 54.6875 
L 18.40625 0 
L 9.421875 0 
z
M 9.421875 75.984375 
L 18.40625 75.984375 
L 18.40625 64.59375 
L 9.421875 64.59375 
z
" id="DejaVuSans-105"/>
      <path d="M 54.890625 33.015625 
L 54.890625 0 
L 45.90625 0 
L 45.90625 32.71875 
Q 45.90625 40.484375 42.875 44.328125 
Q 39.84375 48.1875 33.796875 48.1875 
Q 26.515625 48.1875 22.3125 43.546875 
Q 18.109375 38.921875 18.109375 30.90625 
L 18.109375 0 
L 9.078125 0 
L 9.078125 75.984375 
L 18.109375 75.984375 
L 18.109375 46.1875 
Q 21.34375 51.125 25.703125 53.5625 
Q 30.078125 56 35.796875 56 
Q 45.21875 56 50.046875 50.171875 
Q 54.890625 44.34375 54.890625 33.015625 
z
" id="DejaVuSans-104"/>
      <path d="M 9.421875 75.984375 
L 18.40625 75.984375 
L 18.40625 0 
L 9.421875 0 
z
" id="DejaVuSans-108"/>
     </defs>
     <use xlink:href="#DejaVuSans-67"/>
     <use x="69.824219" xlink:href="#DejaVuSans-79"/>
     <use x="146.785156" xlink:href="#DejaVuSans-86"/>
     <use x="215.193359" xlink:href="#DejaVuSans-73"/>
     <use x="244.685547" xlink:href="#DejaVuSans-68"/>
     <use x="321.6875" xlink:href="#DejaVuSans-49"/>
     <use x="385.310547" xlink:href="#DejaVuSans-57"/>
     <use x="448.933594" xlink:href="#DejaVuSans-32"/>
     <use x="480.720703" xlink:href="#DejaVuSans-84"/>
     <use x="527.054688" xlink:href="#DejaVuSans-114"/>
     <use x="565.917969" xlink:href="#DejaVuSans-101"/>
     <use x="627.441406" xlink:href="#DejaVuSans-110"/>
     <use x="690.820312" xlink:href="#DejaVuSans-100"/>
     <use x="754.296875" xlink:href="#DejaVuSans-32"/>
     <use x="786.083984" xlink:href="#DejaVuSans-105"/>
     <use x="813.867188" xlink:href="#DejaVuSans-110"/>
     <use x="877.246094" xlink:href="#DejaVuSans-32"/>
     <use x="909.033203" xlink:href="#DejaVuSans-84"/>
     <use x="970.117188" xlink:href="#DejaVuSans-104"/>
     <use x="1033.496094" xlink:href="#DejaVuSans-97"/>
     <use x="1094.775391" xlink:href="#DejaVuSans-105"/>
     <use x="1122.558594" xlink:href="#DejaVuSans-108"/>
     <use x="1150.341797" xlink:href="#DejaVuSans-97"/>
     <use x="1211.621094" xlink:href="#DejaVuSans-110"/>
     <use x="1275" xlink:href="#DejaVuSans-100"/>
    </g>
   </g>
   <g id="legend_1">
    <g id="patch_7">
     <path d="M 880.271875 135.8325 
L 965 135.8325 
Q 967 135.8325 967 133.8325 
L 967 76.12 
Q 967 74.12 965 74.12 
L 880.271875 74.12 
Q 878.271875 74.12 878.271875 76.12 
L 878.271875 133.8325 
Q 878.271875 135.8325 880.271875 135.8325 
z
" style="fill:#ffffff;opacity:0.8;stroke:#cccccc;stroke-linejoin:miter;"/>
    </g>
    <g id="line2d_18">
     <path d="M 882.271875 82.218437 
L 902.271875 82.218437 
" style="fill:none;stroke:#1f77b4;stroke-linecap:square;stroke-width:1.5;"/>
    </g>
    <g id="line2d_19"/>
    <g id="text_17">
     <!-- Confirmed -->
     <g transform="translate(910.271875 85.718437)scale(0.1 -0.1)">
      <defs>
       <path d="M 30.609375 48.390625 
Q 23.390625 48.390625 19.1875 42.75 
Q 14.984375 37.109375 14.984375 27.296875 
Q 14.984375 17.484375 19.15625 11.84375 
Q 23.34375 6.203125 30.609375 6.203125 
Q 37.796875 6.203125 41.984375 11.859375 
Q 46.1875 17.53125 46.1875 27.296875 
Q 46.1875 37.015625 41.984375 42.703125 
Q 37.796875 48.390625 30.609375 48.390625 
z
M 30.609375 56 
Q 42.328125 56 49.015625 48.375 
Q 55.71875 40.765625 55.71875 27.296875 
Q 55.71875 13.875 49.015625 6.21875 
Q 42.328125 -1.421875 30.609375 -1.421875 
Q 18.84375 -1.421875 12.171875 6.21875 
Q 5.515625 13.875 5.515625 27.296875 
Q 5.515625 40.765625 12.171875 48.375 
Q 18.84375 56 30.609375 56 
z
" id="DejaVuSans-111"/>
       <path d="M 37.109375 75.984375 
L 37.109375 68.5 
L 28.515625 68.5 
Q 23.6875 68.5 21.796875 66.546875 
Q 19.921875 64.59375 19.921875 59.515625 
L 19.921875 54.6875 
L 34.71875 54.6875 
L 34.71875 47.703125 
L 19.921875 47.703125 
L 19.921875 0 
L 10.890625 0 
L 10.890625 47.703125 
L 2.296875 47.703125 
L 2.296875 54.6875 
L 10.890625 54.6875 
L 10.890625 58.5 
Q 10.890625 67.625 15.140625 71.796875 
Q 19.390625 75.984375 28.609375 75.984375 
z
" id="DejaVuSans-102"/>
       <path d="M 52 44.1875 
Q 55.375 50.25 60.0625 53.125 
Q 64.75 56 71.09375 56 
Q 79.640625 56 84.28125 50.015625 
Q 88.921875 44.046875 88.921875 33.015625 
L 88.921875 0 
L 79.890625 0 
L 79.890625 32.71875 
Q 79.890625 40.578125 77.09375 44.375 
Q 74.3125 48.1875 68.609375 48.1875 
Q 61.625 48.1875 57.5625 43.546875 
Q 53.515625 38.921875 53.515625 30.90625 
L 53.515625 0 
L 44.484375 0 
L 44.484375 32.71875 
Q 44.484375 40.625 41.703125 44.40625 
Q 38.921875 48.1875 33.109375 48.1875 
Q 26.21875 48.1875 22.15625 43.53125 
Q 18.109375 38.875 18.109375 30.90625 
L 18.109375 0 
L 9.078125 0 
L 9.078125 54.6875 
L 18.109375 54.6875 
L 18.109375 46.1875 
Q 21.1875 51.21875 25.484375 53.609375 
Q 29.78125 56 35.6875 56 
Q 41.65625 56 45.828125 52.96875 
Q 50 49.953125 52 44.1875 
z
" id="DejaVuSans-109"/>
      </defs>
      <use xlink:href="#DejaVuSans-67"/>
      <use x="69.824219" xlink:href="#DejaVuSans-111"/>
      <use x="131.005859" xlink:href="#DejaVuSans-110"/>
      <use x="194.384766" xlink:href="#DejaVuSans-102"/>
      <use x="229.589844" xlink:href="#DejaVuSans-105"/>
      <use x="257.373047" xlink:href="#DejaVuSans-114"/>
      <use x="296.736328" xlink:href="#DejaVuSans-109"/>
      <use x="394.148438" xlink:href="#DejaVuSans-101"/>
      <use x="455.671875" xlink:href="#DejaVuSans-100"/>
     </g>
    </g>
    <g id="line2d_20">
     <path d="M 882.271875 96.896563 
L 902.271875 96.896563 
" style="fill:none;stroke:#ff7f0e;stroke-linecap:square;stroke-width:1.5;"/>
    </g>
    <g id="line2d_21"/>
    <g id="text_18">
     <!-- Deaths -->
     <g transform="translate(910.271875 100.396563)scale(0.1 -0.1)">
      <defs>
       <path d="M 44.28125 53.078125 
L 44.28125 44.578125 
Q 40.484375 46.53125 36.375 47.5 
Q 32.28125 48.484375 27.875 48.484375 
Q 21.1875 48.484375 17.84375 46.4375 
Q 14.5 44.390625 14.5 40.28125 
Q 14.5 37.15625 16.890625 35.375 
Q 19.28125 33.59375 26.515625 31.984375 
L 29.59375 31.296875 
Q 39.15625 29.25 43.1875 25.515625 
Q 47.21875 21.78125 47.21875 15.09375 
Q 47.21875 7.46875 41.1875 3.015625 
Q 35.15625 -1.421875 24.609375 -1.421875 
Q 20.21875 -1.421875 15.453125 -0.5625 
Q 10.6875 0.296875 5.421875 2 
L 5.421875 11.28125 
Q 10.40625 8.6875 15.234375 7.390625 
Q 20.0625 6.109375 24.8125 6.109375 
Q 31.15625 6.109375 34.5625 8.28125 
Q 37.984375 10.453125 37.984375 14.40625 
Q 37.984375 18.0625 35.515625 20.015625 
Q 33.0625 21.96875 24.703125 23.78125 
L 21.578125 24.515625 
Q 13.234375 26.265625 9.515625 29.90625 
Q 5.8125 33.546875 5.8125 39.890625 
Q 5.8125 47.609375 11.28125 51.796875 
Q 16.75 56 26.8125 56 
Q 31.78125 56 36.171875 55.265625 
Q 40.578125 54.546875 44.28125 53.078125 
z
" id="DejaVuSans-115"/>
      </defs>
      <use xlink:href="#DejaVuSans-68"/>
      <use x="77.001953" xlink:href="#DejaVuSans-101"/>
      <use x="138.525391" xlink:href="#DejaVuSans-97"/>
      <use x="199.804688" xlink:href="#DejaVuSans-116"/>
      <use x="239.013672" xlink:href="#DejaVuSans-104"/>
      <use x="302.392578" xlink:href="#DejaVuSans-115"/>
     </g>
    </g>
    <g id="line2d_22">
     <path d="M 882.271875 111.574687 
L 902.271875 111.574687 
" style="fill:none;stroke:#2ca02c;stroke-linecap:square;stroke-width:1.5;"/>
    </g>
    <g id="line2d_23"/>
    <g id="text_19">
     <!-- Recovered -->
     <g transform="translate(910.271875 115.074687)scale(0.1 -0.1)">
      <defs>
       <path d="M 44.390625 34.1875 
Q 47.5625 33.109375 50.5625 29.59375 
Q 53.5625 26.078125 56.59375 19.921875 
L 66.609375 0 
L 56 0 
L 46.6875 18.703125 
Q 43.0625 26.03125 39.671875 28.421875 
Q 36.28125 30.8125 30.421875 30.8125 
L 19.671875 30.8125 
L 19.671875 0 
L 9.8125 0 
L 9.8125 72.90625 
L 32.078125 72.90625 
Q 44.578125 72.90625 50.734375 67.671875 
Q 56.890625 62.453125 56.890625 51.90625 
Q 56.890625 45.015625 53.6875 40.46875 
Q 50.484375 35.9375 44.390625 34.1875 
z
M 19.671875 64.796875 
L 19.671875 38.921875 
L 32.078125 38.921875 
Q 39.203125 38.921875 42.84375 42.21875 
Q 46.484375 45.515625 46.484375 51.90625 
Q 46.484375 58.296875 42.84375 61.546875 
Q 39.203125 64.796875 32.078125 64.796875 
z
" id="DejaVuSans-82"/>
       <path d="M 48.78125 52.59375 
L 48.78125 44.1875 
Q 44.96875 46.296875 41.140625 47.34375 
Q 37.3125 48.390625 33.40625 48.390625 
Q 24.65625 48.390625 19.8125 42.84375 
Q 14.984375 37.3125 14.984375 27.296875 
Q 14.984375 17.28125 19.8125 11.734375 
Q 24.65625 6.203125 33.40625 6.203125 
Q 37.3125 6.203125 41.140625 7.25 
Q 44.96875 8.296875 48.78125 10.40625 
L 48.78125 2.09375 
Q 45.015625 0.34375 40.984375 -0.53125 
Q 36.96875 -1.421875 32.421875 -1.421875 
Q 20.0625 -1.421875 12.78125 6.34375 
Q 5.515625 14.109375 5.515625 27.296875 
Q 5.515625 40.671875 12.859375 48.328125 
Q 20.21875 56 33.015625 56 
Q 37.15625 56 41.109375 55.140625 
Q 45.0625 54.296875 48.78125 52.59375 
z
" id="DejaVuSans-99"/>
       <path d="M 2.984375 54.6875 
L 12.5 54.6875 
L 29.59375 8.796875 
L 46.6875 54.6875 
L 56.203125 54.6875 
L 35.6875 0 
L 23.484375 0 
z
" id="DejaVuSans-118"/>
      </defs>
      <use xlink:href="#DejaVuSans-82"/>
      <use x="64.982422" xlink:href="#DejaVuSans-101"/>
      <use x="126.505859" xlink:href="#DejaVuSans-99"/>
      <use x="181.486328" xlink:href="#DejaVuSans-111"/>
      <use x="242.667969" xlink:href="#DejaVuSans-118"/>
      <use x="301.847656" xlink:href="#DejaVuSans-101"/>
      <use x="363.371094" xlink:href="#DejaVuSans-114"/>
      <use x="402.234375" xlink:href="#DejaVuSans-101"/>
      <use x="463.757812" xlink:href="#DejaVuSans-100"/>
     </g>
    </g>
    <g id="line2d_24">
     <path d="M 882.271875 126.252813 
L 902.271875 126.252813 
" style="fill:none;stroke:#d62728;stroke-linecap:square;stroke-width:1.5;"/>
    </g>
    <g id="line2d_25"/>
    <g id="text_20">
     <!-- Active -->
     <g transform="translate(910.271875 129.752813)scale(0.1 -0.1)">
      <defs>
       <path d="M 34.1875 63.1875 
L 20.796875 26.90625 
L 47.609375 26.90625 
z
M 28.609375 72.90625 
L 39.796875 72.90625 
L 67.578125 0 
L 57.328125 0 
L 50.6875 18.703125 
L 17.828125 18.703125 
L 11.1875 0 
L 0.78125 0 
z
" id="DejaVuSans-65"/>
      </defs>
      <use xlink:href="#DejaVuSans-65"/>
      <use x="66.658203" xlink:href="#DejaVuSans-99"/>
      <use x="121.638672" xlink:href="#DejaVuSans-116"/>
      <use x="160.847656" xlink:href="#DejaVuSans-105"/>
      <use x="188.630859" xlink:href="#DejaVuSans-118"/>
      <use x="247.810547" xlink:href="#DejaVuSans-101"/>
     </g>
    </g>
   </g>
  </g>
 </g>
 <defs>
  <clipPath id="p5033d80376">
   <rect height="443.52" width="837" x="135" y="69.12"/>
  </clipPath>
 </defs>
</svg>
